<svg id="Layer_1" data-name="Layer 1" xmlns="http://www.w3.org/2000/svg" viewBox="0 0 56.69 56.69"><defs><style>.cls-1{fill:#778186;}.cls-2{fill:#f5f1ea;}</style></defs><title>instagram</title><path class="cls-1" d="M0,28.35A28.35,28.35,0,1,0,28.34,0,28.34,28.34,0,0,0,0,28.35" transform="translate(0 0)"/><path class="cls-2" d="M34.92,12.8H21.77a9,9,0,0,0-9,9V34.93a9,9,0,0,0,9,9H34.92a9,9,0,0,0,9-9V21.78A9,9,0,0,0,34.92,12.8ZM41,35.16a6,6,0,0,1-5.95,6H21.63a6,6,0,0,1-6-6V21.7a6,6,0,0,1,6-6H35.09a6,6,0,0,1,5.95,6ZM28.34,20.35a8.08,8.08,0,1,0,8.08,8.08A8.09,8.09,0,0,0,28.34,20.35Zm0,13.31a5.23,5.23,0,1,1,5.24-5.23A5.22,5.22,0,0,1,28.34,33.66ZM38.57,20.05a1.88,1.88,0,1,1-1.87-1.87A1.88,1.88,0,0,1,38.57,20.05Z" transform="translate(0 0)"/></svg>