<svg id="Layer_1" data-name="Layer 1" xmlns="http://www.w3.org/2000/svg" viewBox="0 0 56.69 56.69"><defs><style>.cls-1{fill:#778186;}.cls-2{fill:#f5f1ea;}</style></defs><title>mail</title><path class="cls-1" d="M0,28.35A28.35,28.35,0,1,0,28.34,0,28.34,28.34,0,0,0,0,28.35"/><path class="cls-2" d="M48.13,16l0,0a.75.75,0,0,0-.06-.13.87.87,0,0,0-.16-.23l-.1-.09a.87.87,0,0,0-.23-.16l-.12-.06a1.15,1.15,0,0,0-.41-.08H9.67a1.11,1.11,0,0,0-.41.08l-.12.06a.73.73,0,0,0-.23.16l-.11.09a1.14,1.14,0,0,0-.15.23c0,.05-.05.08-.07.13l0,0a1.15,1.15,0,0,0-.06.37h0V39.59s0,0,0,.06a1.3,1.3,0,0,0,.07.33s0,.06,0,.08a0,0,0,0,0,0,0,1.08,1.08,0,0,0,.21.3l.06,0a.8.8,0,0,0,.27.18l.1.05a1.15,1.15,0,0,0,.41.08H47a1.06,1.06,0,0,0,.4-.08l.11-.05a.87.87,0,0,0,.26-.18l.07,0a1.08,1.08,0,0,0,.21-.3,0,0,0,0,0,0,0l0-.08a1,1,0,0,0,.06-.33.14.14,0,0,0,0-.06V16.4h0A1.15,1.15,0,0,0,48.13,16ZM21.55,26.7l6.09,4.54a1.15,1.15,0,0,0,.7.23,1.11,1.11,0,0,0,.7-.23l6.1-4.54,9.45,11.73H12.1ZM37,25.3l8.84-6.58V36.28Zm-8.67,3.56L13.17,17.56H43.52ZM10.84,18.72l8.84,6.58-8.84,11Z"/></svg>