<svg id="Layer_1" data-name="Layer 1" xmlns="http://www.w3.org/2000/svg" viewBox="0 0 56.69 56.69"><defs><style>.cls-1{fill:#778186;}.cls-2{fill:#f5f1ea;}</style></defs><title>twitter</title><path class="cls-1" d="M0,28.35A28.35,28.35,0,1,0,28.34,0,28.34,28.34,0,0,0,0,28.35" transform="translate(0 0)"/><path class="cls-2" d="M11.54,38.91A19.7,19.7,0,0,0,22.11,42c12.79,0,20-10.8,19.6-20.5a13.92,13.92,0,0,0,3.42-3.55,13.65,13.65,0,0,1-4,1.07,7,7,0,0,0,3-3.8,13.62,13.62,0,0,1-4.39,1.66,6.9,6.9,0,0,0-11.74,6.3A19.51,19.51,0,0,1,13.89,16,6.9,6.9,0,0,0,16,25.17a7.07,7.07,0,0,1-3.13-.86,6.92,6.92,0,0,0,5.53,6.84,6.86,6.86,0,0,1-3.1.11,6.9,6.9,0,0,0,6.44,4.79,14,14,0,0,1-10.22,2.86" transform="translate(0 0)"/></svg>