<svg id="Capa_1" data-name="Capa 1" xmlns="http://www.w3.org/2000/svg" xmlns:xlink="http://www.w3.org/1999/xlink" viewBox="0 0 369.72 52.96"><defs><style>.cls-1{fill:none;}.cls-2{clip-path:url(#clip-path);}.cls-3{fill:#fff;}</style><clipPath id="clip-path" transform="translate(0 0)"><rect class="cls-1" width="369.73" height="52.96"/></clipPath></defs><title>programa</title><g class="cls-2"><path class="cls-3" d="M356.6,33.36H338.68l6.16-15.68a81,81,0,0,0,2.8-7.84h.16a81.3,81.3,0,0,0,2.72,7.84Zm13.12,18.72L348.6,0h-1.68L325.8,52.08h5.28l5.76-14.32h21.6l5.84,14.32Zm-47.51,0L318,1h-3.44l-14,28.64c-2.4,5-4.64,9.68-6.56,14.32h-.16c-2-4.72-4.4-9.76-6.64-14.32L273.09,1h-3.44l-4.08,51h4.88l2.08-26.48c.32-4.08.64-8.88.8-13.2h.16c2,4.48,4.4,9.52,6.32,13.52l13,26.72h1.76l13-26.72c2-4.16,4.56-9.36,6.32-13.6h.16c.16,4.32.48,8.88.8,13.28L317,52.08ZM248.69,33.36H230.77l6.16-15.68a81,81,0,0,0,2.8-7.84h.16a81.3,81.3,0,0,0,2.72,7.84Zm13.12,18.72L240.69,0H239L217.89,52.08h5.28l5.76-14.32h21.6l5.84,14.32ZM203.3,14.88c0,5.84-4.72,9.2-10.08,9.2h-8.64V5.68h8.32c5.68,0,10.4,3.44,10.4,9.2m13.36,37.2L198.74,27.92a13.3,13.3,0,0,0,10-13c0-8.72-7.2-13.84-15-13.84H179.22v51h5.36V28.72h8.8l17,23.36Zm-45.17-4.64V27.76H152.85v4.4h13.44V44.8c-2.55,1.84-7.44,3.44-13.12,3.44-11.84,0-22.24-8.16-22.24-21.6,0-13.6,10.56-21.84,22.16-21.84a27.17,27.17,0,0,1,14.4,4l1.12-4.72c-3.84-2.4-9.36-3.92-16.08-3.92-13.68,0-27,9.84-27,26.4,0,16.32,13.12,26.4,27.36,26.4,7.76,0,14.08-2,18.64-5.52m-55.2-21A21.22,21.22,0,0,1,95,48.24c-11.2,0-21.28-8.64-21.28-21.76S83.81,4.8,95,4.8a21.15,21.15,0,0,1,21.28,21.68m5.44,0C121.73,10.72,109.09.16,95,.16S68.29,10.72,68.29,26.48C68.29,42.4,80.93,53,95,53s26.72-10.56,26.72-26.48M57.07,14.88c0,5.84-4.72,9.2-10.08,9.2H38.35V5.68h8.32c5.68,0,10.4,3.44,10.4,9.2m13.36,37.2L52.51,27.92a13.3,13.3,0,0,0,10-13c0-8.72-7.2-13.84-15-13.84H33v51h5.36V28.72h8.8l17,23.36ZM23.76,14.88c0,5.84-4.72,9.2-10.08,9.2H5.36V5.68h8c5.68,0,10.4,3.44,10.4,9.2m5.44,0C29.2,6.16,22,1,14.24,1H0v51H5.36V28.72h9.2C22,28.72,29.2,23.6,29.2,14.88" transform="translate(0 0)"/></g></svg>