<svg id="Capa_1" data-name="Capa 1" xmlns="http://www.w3.org/2000/svg" xmlns:xlink="http://www.w3.org/1999/xlink" viewBox="0 0 332.78 53.04"><defs><style>.cls-1{fill:none;}.cls-2{clip-path:url(#clip-path);}.cls-3{fill:#fff;}</style><clipPath id="clip-path" transform="translate(0 0)"><rect class="cls-1" width="332.78" height="53.04"/></clipPath></defs><title>ponentes</title><g class="cls-2"><path class="cls-3" d="M332.78,38.24c0-8.24-5.52-12.56-14.64-16-6.48-2.48-9.36-5.6-9.36-9.68,0-3.92,3.36-8.08,9.76-8.08a18.39,18.39,0,0,1,9.84,3L329.5,3a20.24,20.24,0,0,0-10.8-3c-10.32,0-15.12,6.56-15.12,12.88,0,6.64,4.32,11.6,13.44,14.8,7.12,2.48,10.32,5.76,10.32,11,0,5.6-4.56,9.36-10.88,9.36a24.62,24.62,0,0,1-15.28-5.52l1.52,6.32a23.82,23.82,0,0,0,13.52,3.92c10.16,0,16.56-5.76,16.56-14.56m-33.5,13.68V47.28H275.2V28.56h17.44V23.92H275.2V5.52h21.28V.88H269.84v51ZM266.45,5.52V.88H226V5.52h17.52v46.4h5.36V5.52ZM222.53,53V.88h-5.36v27.2c0,4.32,0,9,.16,13.52l-.16.08c-3.36-4.16-8.08-9.68-11.6-13.68L181.89.88h-3.76v51h5.36V23.76c0-4.64,0-9.44-.16-14.16l.16-.08c3.52,4.24,8.16,9.76,12.48,14.72L221.09,53Zm-48.34-1.12V47.28H150.11V28.56h17.44V23.92H150.11V5.52h21.28V.88H144.75v51ZM135.63,53V.88h-5.36v27.2c0,4.32,0,9,.16,13.52l-.16.08c-3.36-4.16-8.08-9.68-11.6-13.68L95,.88H91.23v51h5.36V23.76c0-4.64,0-9.44-.16-14.16l.16-.08c3.52,4.24,8.16,9.76,12.48,14.72L134.19,53ZM79.36,26.32A21.22,21.22,0,0,1,58.08,48.08c-11.2,0-21.28-8.64-21.28-21.76S46.88,4.64,58.08,4.64A21.15,21.15,0,0,1,79.36,26.32m5.44,0C84.8,10.56,72.16,0,58.08,0S31.36,10.56,31.36,26.32C31.36,42.24,44,52.8,58.08,52.8S84.8,42.24,84.8,26.32m-61-11.6c0,5.84-4.72,9.2-10.08,9.2H5.36V5.52h8c5.68,0,10.4,3.44,10.4,9.2m5.44,0C29.2,6,22,.88,14.24.88H0v51H5.36V28.56h9.2c7.44,0,14.64-5.12,14.64-13.84" transform="translate(0 0)"/></g></svg>