<svg id="Capa_1" data-name="Capa 1" xmlns="http://www.w3.org/2000/svg" xmlns:xlink="http://www.w3.org/1999/xlink" viewBox="0 0 341.7 62"><defs><style>.cls-1{fill:none;}.cls-2{clip-path:url(#clip-path);}.cls-3{fill:#fff;}</style><clipPath id="clip-path"><rect class="cls-1" width="341.7" height="62"/></clipPath></defs><title>hospedaje</title><g class="cls-2"><path class="cls-3" d="M341.7,52.08V47.44H317.62V28.72h17.44V24.08H317.62V5.68H338.9V1H312.26v51Zm-39-10.32V1H297.3V41.2c0,10.16-4.56,15.52-12.72,17.2L288.1,62c7.52-1.6,14.56-8,14.56-20.24m-25.44-8.4H259.3l6.16-15.68a81,81,0,0,0,2.8-7.84h.16a81.3,81.3,0,0,0,2.72,7.84Zm13.12,18.72L269.22,0h-1.68L246.42,52.08h5.28l5.76-14.32h21.6l5.84,14.32ZM241.67,26.56c0,13.6-10.16,20.88-23.6,20.88h-7.2V5.68h7.2c13.44,0,23.6,7.28,23.6,20.88m5.52,0C247.19,10.32,234.31,1,218.87,1H205.51v51h13.36c15.44,0,28.32-9.28,28.32-25.52M201.57,52.08V47.44H177.49V28.72h17.44V24.08H177.49V5.68h21.28V1H172.13v51ZM162.9,14.88c0,5.84-4.72,9.2-10.08,9.2H144.5V5.68h8c5.68,0,10.4,3.44,10.4,9.2m5.44,0c0-8.72-7.2-13.84-15-13.84H139.14v51h5.36V28.72h9.2c7.44,0,14.64-5.12,14.64-13.84M133.45,38.4c0-8.24-5.52-12.56-14.64-16-6.48-2.48-9.36-5.6-9.36-9.68,0-3.92,3.36-8.08,9.76-8.08a18.39,18.39,0,0,1,9.84,3l1.12-4.48a20.24,20.24,0,0,0-10.8-3C109.05.16,104.25,6.72,104.25,13c0,6.64,4.32,11.6,13.44,14.8,7.12,2.48,10.32,5.76,10.32,11,0,5.6-4.56,9.36-10.88,9.36a24.62,24.62,0,0,1-15.28-5.52L103.37,49A23.82,23.82,0,0,0,116.89,53c10.16,0,16.56-5.76,16.56-14.56M94.56,26.48A21.22,21.22,0,0,1,73.28,48.24C62.08,48.24,52,39.6,52,26.48S62.08,4.8,73.28,4.8A21.15,21.15,0,0,1,94.56,26.48m5.44,0C100,10.72,87.36.16,73.28.16S46.56,10.72,46.56,26.48C46.56,42.4,59.2,53,73.28,53S100,42.4,100,26.48M40,52.08V1H34.64v23H5.36V1H0v51H5.36V28.72H34.64V52.08Z"/></g></svg>