<svg id="Capa_1" data-name="Capa 1" xmlns="http://www.w3.org/2000/svg" viewBox="0 0 634 126.69"><defs><style>.cls-1{fill:#a7a9ac;}.cls-2{fill:#bcbec0;}.cls-3{fill:#00aab5;}</style></defs><title>expomf</title><polygon class="cls-1" points="604.76 99.52 604.76 115.79 628.58 115.79 628.58 121.26 604.76 121.26 604.76 126.64 633.95 126.64 634 110.41 610.14 110.41 610.14 104.85 633.95 104.85 633.95 99.47 604.76 99.52"/><polygon class="cls-2" points="0 47.52 0 126.42 87.64 126.69 87.64 110.9 15.65 110.9 15.65 94.73 87.64 94.86 87.64 79.08 15.65 79.08 15.65 63.17 87.64 63.17 87.64 47.52 0 47.52"/><polygon class="cls-2" points="169.87 47.52 156.48 79.08 126.65 79.08 113.26 47.52 97.74 47.52 113.39 86.77 97.74 126.42 113.39 126.42 126.65 94.73 156.48 94.73 169.74 126.42 185.38 126.42 169.47 86.37 185.38 47.52 169.87 47.52"/><path class="cls-2" d="M210.14,63.17h56.48V79.08H210.14ZM194.49,47.52v78.9l15.65.27v-32l72,.13V47.52Z" transform="translate(0 0)"/><path class="cls-2" d="M303.65,63.17h56.48v47.74H303.65ZM288,47.52v78.9l87.64.27v-.27h.14l-.14-78.9Z" transform="translate(0 0)"/><polygon class="cls-3" points="321.1 0 321.1 112.06 345.92 112.06 345.92 25.04 384.12 25.04 384.12 126.47 409.16 126.47 409.16 25.04 445.88 25.04 445.88 126.47 470.91 126.47 470.91 0 321.1 0"/><polygon class="cls-3" points="483.87 0 483.87 126.27 508.91 126.69 508.91 75.55 606.5 75.76 606.5 50.5 508.91 50.5 508.91 25.04 633.68 25.04 633.68 0 483.87 0"/><polygon class="cls-1" points="520.15 99.47 520.15 104.85 543.96 104.85 543.96 110.32 520.15 110.32 520.15 126.59 549.34 126.64 549.34 121.26 525.53 121.26 525.53 115.7 549.39 115.7 549.34 99.47 520.15 99.47"/><polygon class="cls-1" points="604.76 99.47 604.76 104.85 628.58 104.85 628.58 110.32 604.76 110.32 604.76 126.59 633.95 126.64 633.95 121.26 610.14 121.26 610.14 115.7 634 115.7 633.95 99.47 604.76 99.47"/><path class="cls-1" d="M580.07,108.45v12.81H566Zm-18.47-3.6h14.46l-14.46,13Zm-5.38-5.38V126.6l29.19.09v-.09h0l0-27.13Z" transform="translate(0 0)"/><polygon class="cls-1" points="593.61 99.47 593.61 126.59 598.99 126.59 598.94 99.47 593.61 99.47"/><polygon class="cls-1" points="595.17 104.84 589.79 104.84 589.79 99.47 595.12 99.47 595.17 104.84"/></svg>