<svg id="Capa_1" data-name="Capa 1" xmlns="http://www.w3.org/2000/svg" xmlns:xlink="http://www.w3.org/1999/xlink" viewBox="0 0 341.46 104.91"><defs><style>.cls-1{fill:none;}.cls-2{fill:#d7df23;}.cls-3{clip-path:url(#clip-path);}.cls-4{fill:#8dc63f;}.cls-5{clip-path:url(#clip-path-2);}.cls-6{fill:#f1f2f2;}.cls-7{clip-path:url(#clip-path-3);}.cls-8{fill:#fff;}</style><clipPath id="clip-path" transform="translate(0 0)"><polygon class="cls-1" points="193.9 22.4 167.11 22.4 167.11 59.39 193.9 59.39 193.9 71.75 224.75 40.89 193.9 10.04 193.9 22.4"/></clipPath><clipPath id="clip-path-2" transform="translate(0 0)"><rect class="cls-1" x="136.45" width="88.31" height="91.51"/></clipPath><clipPath id="clip-path-3" transform="translate(0 0)"><rect class="cls-1" width="341.46" height="91.51"/></clipPath></defs><title>cta</title><polygon class="cls-2" points="193.9 22.4 167.11 22.4 167.11 59.38 193.9 59.38 193.9 71.75 224.75 40.89 193.9 10.04 193.9 22.4"/><g class="cls-3"><path class="cls-4" d="M194.66,20.62a8.62,8.62,0,1,1-9.89-7.11,8.6,8.6,0,0,1,9.89,7.11M192,54.8,199.61,67a3.71,3.71,0,0,0,5.06,1.25,3.75,3.75,0,0,0,1.4-5l-1.93-3.52c-1.7-3-3.34-6-5-9l-3.4-6.17c-.38-.72-.78-1.52-1.18-2.36-2.1-4.41-5.36-11.2-12.55-10.57-6.11.53-12.33,3.45-18.47,8.64A60,60,0,0,0,151,54.62c-.24.38-.45.74-.63,1.1l-.06,0a3.75,3.75,0,0,0,3.13,5.84,3.6,3.6,0,0,0,3.25-1.94,0,0,0,0,0,0,0l.69-1.07A60.63,60.63,0,0,1,168.26,46a19.73,19.73,0,0,1,5.79-3.28l-1.46,17.73A42.32,42.32,0,0,1,171.4,67l-3.28,11.56a18,18,0,0,1-2.65,5.06l-8.91,11.06c-1.13,1.4-2.41,3-1.37,5.21a3.78,3.78,0,0,0,3.39,2.12c1.73,0,2.66-1,3.82-2.24l9-9.77a32.29,32.29,0,0,0,4.77-6.88L180.65,74l16.57,27.86c.81,1.37,1.85,3.07,4.09,3.07a3.74,3.74,0,0,0,3.15-1.73c1.19-1.82.39-3.52-.29-5l-13.38-29.1a10.06,10.06,0,0,1-.6-4.71Z" transform="translate(0 0)"/></g><g class="cls-5"><path class="cls-6" d="M181.46,7.23A8.61,8.61,0,1,1,171.57.12a8.59,8.59,0,0,1,9.89,7.11M178.79,41.4l7.62,12.19a3.75,3.75,0,0,0,6.47-3.79l-1.94-3.51c-1.7-3-3.33-6-5-9l-3.39-6.18c-.39-.71-.78-1.51-1.19-2.35-2.09-4.41-5.36-11.2-12.54-10.57-6.11.53-12.34,3.45-18.48,8.64a60.52,60.52,0,0,0-12.54,14.38c-.23.39-.44.75-.62,1.11l-.06,0a3.74,3.74,0,0,0,3.13,5.83,3.57,3.57,0,0,0,3.24-1.93,0,0,0,0,0,0,0l.69-1.07a60.77,60.77,0,0,1,10.87-12.52,19.77,19.77,0,0,1,5.78-3.27l-1.46,17.72a41,41,0,0,1-1.18,6.5l-3.29,11.56a17.73,17.73,0,0,1-2.65,5.06l-8.9,11.05c-1.14,1.4-2.42,3-1.37,5.22a3.77,3.77,0,0,0,3.39,2.11c1.72,0,2.66-1,3.81-2.23l9-9.77A31.7,31.7,0,0,0,163,69.7l4.47-9.11L184,88.44c.81,1.37,1.84,3.07,4.08,3.07a3.75,3.75,0,0,0,3.16-1.73c1.19-1.81.39-3.51-.3-5L177.6,55.67A10,10,0,0,1,177,51Z" transform="translate(0 0)"/></g><g class="cls-7"><path class="cls-8" d="M335.31,56.93c0-.91-1.46-2.77-2.37-2.77s-2.37,1.86-2.37,2.77,1.51,2.77,2.37,2.77,2.37-1.86,2.37-2.77m6.15-24c0-5.35-3.88-8.57-9.18-8.57a9.7,9.7,0,0,0-6.75,2.47l.71,2.92a8.4,8.4,0,0,1,6.09-2.57,5.54,5.54,0,0,1,5.8,5.44c0,2.88-1.66,4.89-3.78,7.06a11.5,11.5,0,0,0-3.28,8.17,13,13,0,0,0,.36,2.92l2.72.65a15.24,15.24,0,0,1-.25-3.22,8.93,8.93,0,0,1,2.82-6.5c2.62-2.78,4.74-5.3,4.74-8.77M328.7,38.78,328,36.06c-4,0-7,1.92-7.91,4.69L320,36.36h-3V59.2h3.18V48c0-6.2,3.73-9.23,8.06-9.23Zm-20.51,12.3a6.11,6.11,0,0,1-6,5.9,4.12,4.12,0,0,1-4.34-4c0-2.47,1.82-4.24,4.74-4.49l5.59-.5Zm6.05,6.55a3.47,3.47,0,0,1-2.82-3.73V43.47c0-4.89-3.58-7.61-8.47-7.61a12.39,12.39,0,0,0-6.85,1.82l.65,2.67a11.64,11.64,0,0,1,6.05-1.72c3.43,0,5.39,1.77,5.39,4.54v2.17l-6.09.6c-3.73.35-7.31,2.57-7.31,7.06,0,3.73,3,6.7,7.31,6.7a7.63,7.63,0,0,0,6.65-3.48,4.47,4.47,0,0,0,3.43,3.48ZM290.6,63.58c0,2.27-2.57,4.64-7.06,4.64s-7.2-2.57-7.2-5.24c0-3,2.36-5.2,5.64-5.25l4.59,1.42c2.57.8,4,2.26,4,4.43m-1.71-20.16a5.18,5.18,0,0,1-5.35,4.94c-3.12,0-5.44-2.17-5.44-4.94a5.42,5.42,0,0,1,10.79,0m4.73,20.16c0-3.78-2.21-5.85-6.1-7.16l-5.89-2a4.12,4.12,0,0,1-2.07-1.61c0-1,1.41-1.77,3.93-1.77,5.14,0,8.37-3.53,8.37-7.61a6.19,6.19,0,0,0-1.66-4.28,8,8,0,0,0,3.12-.71l-.65-2.62a7.77,7.77,0,0,1-3.48.81,9.07,9.07,0,0,1-2.82-.36,10.76,10.76,0,0,0-2.88-.4c-4.89,0-8.36,3.18-8.36,7.56a7.31,7.31,0,0,0,4.18,6.5c-1.51.46-3.18,2.07-3.18,3.63L278.86,56a7.14,7.14,0,0,0-5.4,7c0,4.48,4.09,7.86,10.13,7.86s10-3.13,10-7.26m-24.35-19a2.64,2.64,0,0,1,0,.65H255.41A8.23,8.23,0,0,1,263,38.63a6,6,0,0,1,6.25,5.9m3.17-.15c0-4.18-3.33-8.52-9.58-8.52-5.44,0-11,4.59-11,12a11.76,11.76,0,0,0,12,11.89,12.67,12.67,0,0,0,6.61-1.56l.9-3.53a11.44,11.44,0,0,1-7.15,2.27,8.78,8.78,0,0,1-9.08-9.07h15.27l1.92-1.87a7.67,7.67,0,0,0,.1-1.56m-22.19,13.4a3.84,3.84,0,0,1-2.93-3.93V23.31h-3.17v30.9c0,3.68,2.16,5.19,3.93,5.74Zm-9.61,0a3.84,3.84,0,0,1-2.92-3.93V23.31h-3.18v30.9c0,3.68,2.17,5.19,3.93,5.74Zm-113.25-10a8.79,8.79,0,1,1-17.58,0,8.8,8.8,0,1,1,17.58,0m3.23,0a12,12,0,0,0-24,0,12,12,0,0,0,24,0M103.19,59.2V42.92c0-4.24-3.37-7.06-7.91-7.06-4.18,0-6.8,1.61-7.91,3.58a7.59,7.59,0,0,0-6.76-3.58c-3.83,0-5.79,1.36-7,3l-.1-2.52H70.63V59.2h3.18v-16c0-2.77,2.37-4.54,5.85-4.54s5.69,1.67,5.69,4.54v16h3.18v-16c0-2.77,2.37-4.54,5.84-4.54S100,40.3,100,43.17v16Zm-42-30.14-.56-2.57A18.72,18.72,0,0,1,52.53,31l1.56,1.51a17.58,17.58,0,0,0,7.11-3.42M64,47.81a8.8,8.8,0,1,1-17.59,0,8.8,8.8,0,1,1,17.59,0m3.22,0a11.64,11.64,0,0,0-12-12,11.68,11.68,0,0,0-12.05,12A11.64,11.64,0,0,0,55.2,59.7a11.6,11.6,0,0,0,12-11.89M41.81,28.65a18.92,18.92,0,0,0-9.47-2.16c-8.52,0-17,6.2-17,16.63s8.42,16.63,17,16.63c4,0,6.6-.6,8.61-1.71l.81-3.43a17.14,17.14,0,0,1-9.07,2.17c-7.36,0-14-5.19-14-13.66s6.7-13.71,14-13.71a16.45,16.45,0,0,1,8.47,2.22ZM15.93,59.4l-.71-3A8.3,8.3,0,0,1,9.12,59,5.49,5.49,0,0,1,3.33,53.6c0-2.92,1.66-4.94,3.78-7.05a11.58,11.58,0,0,0,3.32-8.17,12.41,12.41,0,0,0-.4-2.92l-2.72-.71A15.69,15.69,0,0,1,7.56,38a8.9,8.9,0,0,1-2.82,6.5C2.12,47.25,0,49.82,0,53.25c0,5.39,3.88,8.62,9.17,8.62a9.73,9.73,0,0,0,6.76-2.47m-5-30.14c0-1-1.52-2.77-2.37-2.77S6.15,28.3,6.15,29.26,7.61,32,8.52,32s2.37-1.86,2.37-2.72" transform="translate(0 0)"/></g></svg>