<svg id="Capa_1" data-name="Capa 1" xmlns="http://www.w3.org/2000/svg" xmlns:xlink="http://www.w3.org/1999/xlink" viewBox="0 0 400.58 52.8"><defs><style>.cls-1{fill:none;}.cls-2{clip-path:url(#clip-path);}.cls-3{fill:#fff;}</style><clipPath id="clip-path" transform="translate(0 0)"><rect class="cls-1" width="400.58" height="52.8"/></clipPath></defs><title>wtc</title><g class="cls-2"><path class="cls-3" d="M400.58,51.92,384.1,25.6,399.78.88H394L385.14,14.8c-1.28,2.08-2.88,4.72-4.08,7h-.16c-1.12-2.24-2.8-4.88-4.08-7L368.1.88h-6.16l15.68,25-16.48,26h5.76l9.36-14.72c1.28-2.08,3-4.8,4.4-7.36h.16c1.44,2.56,3,5.12,4.4,7.36l9.2,14.72Zm-43.14,0L353.2.88h-3.44l-14,28.64c-2.4,5-4.64,9.68-6.56,14.32H329c-2-4.72-4.4-9.76-6.64-14.32L308.32.88h-3.44l-4.08,51h4.88l2.08-26.48c.32-4.08.64-8.88.8-13.2h.16c2,4.48,4.4,9.52,6.32,13.52l13,26.72h1.76l13-26.72c2-4.16,4.56-9.36,6.32-13.6h.16c.16,4.32.48,8.88.8,13.28l2.16,26.48ZM290.67,26.4c0,13.6-10.16,20.88-23.6,20.88h-7.2V5.52h7.2c13.44,0,23.6,7.28,23.6,20.88m5.52,0c0-16.24-12.88-25.52-28.32-25.52H254.51v51h13.36c15.44,0,28.32-9.28,28.32-25.52m-45.95-23c-3.44-2-8.48-3.44-15-3.44-13.52,0-27,9.84-27,26.4,0,16.4,13.36,26.4,27,26.4,6.4,0,10.48-1,13.68-2.72l1.28-5.44c-3.6,2.24-8.48,3.44-14.4,3.44-11.68,0-22.16-8.24-22.16-21.68S224.24,4.64,235.76,4.64A26.08,26.08,0,0,1,249.2,8.16ZM182.08.88h-5.36v51h5.36ZM151.61,3.44c-3.44-2-8.48-3.44-15-3.44-13.52,0-27,9.84-27,26.4,0,16.4,13.36,26.4,27,26.4,6.4,0,10.48-1,13.68-2.72l1.28-5.44c-3.6,2.24-8.48,3.44-14.4,3.44C125.45,48.08,115,39.84,115,26.4S125.61,4.64,137.13,4.64a26.08,26.08,0,0,1,13.44,3.52ZM111.85,5.52V.88H71.38V5.52H88.89v46.4h5.36V5.52ZM69.36.88h-5l-9.2,26.8c-1.52,4.32-3,9-4.32,13.36h-.16c-1.2-4.4-2.64-9-4.16-13.36L37.28.88H32.56l-9.2,26.8c-1.44,4.24-3,8.8-4.24,13.36H19c-1.2-4.64-2.8-9.2-4.24-13.36L5.44.88H0L17.92,52.72H19.6L29.76,23c1.6-4.64,3.12-9.28,4.8-14.88h.16c1.68,5.6,3.2,10.24,4.8,14.88L49.76,52.72h1.6Z" transform="translate(0 0)"/></g></svg>