<?xml version="1.0" encoding="utf-8"?>
<!-- Generator: Adobe Illustrator 19.0.0, SVG Export Plug-In . SVG Version: 6.00 Build 0)  -->
<svg version="1.1" id="Capa_1" xmlns="http://www.w3.org/2000/svg" xmlns:xlink="http://www.w3.org/1999/xlink" x="0px" y="0px"
	 viewBox="-180 314 250 166" style="enable-background:new -180 314 250 166;" xml:space="preserve">
<style type="text/css">
	.st0{fill:#007934;}
	.st1{fill:#C3002F;}
	.st2{fill:#646569;}
	.st3{fill:#99999A;}
	.st4{fill:#5E6266;}
</style>
<g>
	<polygon class="st0" points="-138.6,365.8 -147.1,374.3 -147.1,382.3 -138.8,382.3 -130.5,374.1 -130.5,382.3 -125,377 -125,360.3 
		-141.4,360.3 -146.9,365.8 	"/>
	<polygon class="st1" points="-147,407 -163.4,407 -171.7,415.3 -138.8,415.3 -138.8,382.4 -147,390.7 	"/>
	<polygon class="st1" points="-171.7,382.3 -155.1,382.3 -146.9,374.1 -180,374.1 -180,407.1 -171.7,398.9 	"/>
	<path class="st2" d="M-116.7,373.8h12.7c7.8,0,13.5,2.5,13.5,10.3c0,4.4-2.5,7.2-6.1,8.7v0.4c5,1.2,8.7,4.1,8.7,10.3
		c0,6.7-4.4,11.8-14.3,11.8h-14.5V373.8z M-105.7,391.4c4.4,0,7.7-2.6,7.7-6.6c0-3.9-2.4-5.9-6.9-5.9h-4.4v12.5H-105.7z
		 M-103.5,410.3c5.3,0,7.8-3.1,7.8-7.2c0-4.7-3.2-7-9.2-7h-4.6v14.2H-103.5z"/>
	<path class="st2" d="M-53.9,414.6c-2,0.8-4.1,1.2-5.7,1.2c-3,0-4.4-1.3-4.9-4l-0.3-0.1c-3.3,2.7-5.8,4.1-9.5,4.1
		c-4.9,0-9.1-3.5-9.1-8.7c0-4.1,2.4-5.9,6.9-7c3.8-0.9,8.7-1.9,11.7-2.7v-1.8c0-3.5-1.4-5.5-5.9-5.5c-3.2,0-6.7,1.1-9.9,2.7
		l-1.4-4.5c3.6-2,8.3-3.3,11.9-3.3c6.1,0,12.4,1.7,12.4,10.9v12.8c0,1.2,0.2,2,1.6,2c0.8,0,1.5-0.1,1.8-0.1L-53.9,414.6z M-71.6,411
		c2.2,0,4.7-1.2,6.9-3.5v-6.6c-2.7,0.6-6.1,1.4-8.1,2c-1.9,0.5-3.3,1.2-3.3,3.5C-76.2,409.1-74.2,411-71.6,411"/>
	<path class="st2" d="M-51.1,385.4h5.9l0.8,3.9l0.4,0.1c3-2.9,6.2-4.4,9.9-4.4c6.2,0,9.6,4.1,9.6,11.3v19.1h-7.1v-18
		c0-4.7-1.8-6.7-5.1-6.7c-2.9,0-5.6,1.8-7.3,4v20.8h-7.1V385.4z"/>
	<path class="st2" d="M-10.2,415.8c-3.8,0-8.2-1.1-10.4-2.3l0.8-4.7c2.4,1.1,6.4,2.2,9.7,2.2c3.2,0,5.9-0.8,5.9-4
		c0-5.6-16-3.1-16-13.1c0-5.9,4.9-8.9,12.1-8.9c3.8,0,7.7,0.9,9.5,1.7l-1.1,4.8c-2-0.8-5.5-1.7-8.4-1.7c-3.2,0-5.3,1.2-5.3,3.7
		c0,5.2,15.8,2.9,15.8,13.2C2.6,413-3.1,415.8-10.2,415.8"/>
	<path class="st2" d="M31.7,413.7c-2.9,1.3-6.8,2.1-10.9,2.1c-8,0-15.5-4-15.5-15c0-11.8,6.8-15.9,14.4-15.9c8.6,0,12.7,4.9,12.7,13
		c0,0.7,0,1.5-0.1,2.3H12.5v1.2c0,6.7,4,9.2,9.3,9.2c2.9,0,6.5-0.8,9.2-1.7L31.7,413.7z M25.9,396.6c0-5.2-2.4-7.1-6-7.1
		c-3.6,0-6.6,2.1-7.2,7.1H25.9z"/>
	<polygon class="st3" points="-116.8,423.6 -112.3,423.6 -112.3,424.7 -115.3,424.7 -115.3,427.1 -113,427.1 -113.1,428.2 
		-115.3,428.2 -115.3,430.7 -112.2,430.7 -112.2,431.8 -116.8,431.8 	"/>
	<polygon class="st3" points="-108.6,423.6 -107.1,423.6 -107.1,430.7 -104,430.7 -104,431.8 -108.6,431.8 	"/>
	<path class="st3" d="M-96.4,423.6h2.5c1.6,0,2.7,0.5,2.7,2c0,0.9-0.5,1.4-1.2,1.7v0.1c1,0.2,1.7,0.8,1.7,2c0,1.3-0.9,2.3-2.8,2.3
		h-2.9V423.6z M-94.2,427.1c0.9,0,1.5-0.5,1.5-1.3c0-0.8-0.5-1.2-1.4-1.2H-95v2.5H-94.2z M-93.8,430.8c1.1,0,1.6-0.6,1.6-1.4
		c0-0.9-0.6-1.4-1.8-1.4H-95v2.8H-93.8z"/>
	<path class="st3" d="M-83.2,429.4h-3c-0.3,0.8-0.7,2-0.8,2.3h-1.5c0.6-1.7,2.5-6.6,3.2-8.2h1.2c0.6,1.4,2.6,6.5,3.2,8.2h-1.5
		C-82.6,431.2-82.9,430.4-83.2,429.4 M-84.8,425.5c-0.3,0.9-0.7,1.9-1.1,2.9h2.2L-84.8,425.5L-84.8,425.5z"/>
	<path class="st3" d="M-72,431.9c-1.3-1.7-3.8-4.8-4.9-6.1l-0.1,0v5.9h-1.4v-8.2h1.2c1,1.1,3.2,3.8,4.5,5.5l0.1,0v-5.5h1.4v8.2
		L-72,431.9z"/>
	<path class="st3" d="M-68.3,427.8c0-2.9,1.8-4.3,4.1-4.3c0.8,0,1.8,0.2,2.4,0.6l-0.2,1.1c-0.6-0.3-1.3-0.5-2-0.5
		c-1.6,0-2.8,1-2.8,3.1c0,2,1.3,2.9,2.9,2.9c0.7,0,1.5-0.2,2.1-0.5l0.2,1.1c-0.7,0.4-1.6,0.6-2.4,0.6
		C-66.2,431.9-68.3,430.7-68.3,427.8"/>
	<path class="st3" d="M-59.4,427.7c0-2.4,1.3-4.2,3.9-4.2c2.7,0,3.9,1.8,3.9,4.1c0,2.5-1.4,4.3-3.9,4.3
		C-58.1,431.9-59.4,430.1-59.4,427.7 M-53.1,427.6c0-1.9-0.9-3.1-2.4-3.1c-1.6,0-2.4,1.2-2.4,3.1c0,1.9,0.8,3.1,2.4,3.1
		C-53.9,430.8-53.1,429.7-53.1,427.6"/>
	<path class="st3" d="M-40.8,431.8c-2.1-0.3-3.1-2-3.1-4.1c0-2.4,1.3-4.2,3.9-4.2c2.7,0,3.9,1.8,3.9,4.1c0,2.1-0.9,3.7-2.8,4.1
		c0.7,0.5,1.6,0.9,2.5,0.9c0.1,0,0.3,0,0.5,0v0.9c-0.3,0.1-0.7,0.1-1,0.1C-38.1,433.7-39.8,432.7-40.8,431.8 M-37.5,427.6
		c0-1.9-0.9-3.1-2.4-3.1c-1.6,0-2.4,1.2-2.4,3.1c0,1.9,0.8,3.1,2.4,3.1C-38.4,430.8-37.5,429.7-37.5,427.6"/>
	<path class="st3" d="M-32.9,428.4v-4.8h1.5v4.8c0,1.6,1,2.3,2,2.3c1,0,2-0.7,2-2.3v-4.8h1.5v4.9c0,2.4-1.5,3.4-3.5,3.4
		C-31.4,431.9-32.9,430.8-32.9,428.4"/>
	<polygon class="st3" points="-22.2,423.6 -17.7,423.6 -17.7,424.7 -20.8,424.7 -20.8,427.1 -18.4,427.1 -18.6,428.2 -20.8,428.2 
		-20.8,430.7 -17.6,430.7 -17.6,431.8 -22.2,431.8 	"/>
	<polygon class="st3" points="-7.8,424.7 -10.5,424.7 -10.5,423.6 -3.7,423.6 -3.7,424.7 -6.3,424.7 -6.3,431.8 -7.8,431.8 	"/>
	<polygon class="st3" points="-0.9,423.6 3.6,423.6 3.6,424.7 0.6,424.7 0.6,427.1 2.9,427.1 2.8,428.2 0.6,428.2 0.6,430.7 
		3.7,430.7 3.7,431.8 -0.9,431.8 	"/>
	<rect x="11.9" y="423.6" class="st3" width="1.4" height="8.2"/>
	<path class="st3" d="M23.1,431.9c-1.3-1.7-3.8-4.8-4.9-6.1l-0.1,0v5.9h-1.4v-8.2h1.2c1,1.1,3.2,3.8,4.5,5.5l0.1,0v-5.5H24v8.2
		L23.1,431.9z"/>
	<path class="st3" d="M26.9,427.8c0-2.9,1.8-4.3,4.1-4.3c0.8,0,1.8,0.2,2.4,0.6l-0.2,1.1c-0.6-0.3-1.3-0.5-2-0.5
		c-1.6,0-2.8,1-2.8,3.1c0,2,1.3,2.9,2.9,2.9c0.7,0,1.5-0.2,2.1-0.5l0.2,1.1c-0.7,0.4-1.6,0.6-2.5,0.6
		C28.9,431.9,26.9,430.7,26.9,427.8"/>
	<polygon class="st3" points="36.4,423.6 37.8,423.6 37.8,430.7 41,430.7 41,431.8 36.4,431.8 	"/>
	<path class="st3" d="M43.3,428.4v-4.8h1.5v4.8c0,1.6,1,2.3,2,2.3c1,0,2-0.7,2-2.3v-4.8h1.5v4.9c0,2.4-1.5,3.4-3.5,3.4
		C44.8,431.9,43.3,430.8,43.3,428.4"/>
	<path class="st3" d="M55.3,428.1c-0.6-1-1.5-2.4-1.9-3c-0.3-0.4-0.4-0.5-0.8-0.5v-1.1c0.2,0,0.3,0,0.5,0c0.6,0,1,0.2,1.4,0.9
		l1.4,2.4h0c0.4-0.7,1-1.7,1.8-3.2h1.6c-0.9,1.6-2.1,3.6-2.7,4.6v3.6h-1.4V428.1z"/>
	<polygon class="st3" points="62.3,423.6 66.8,423.6 66.8,424.7 63.7,424.7 63.7,427.1 66.1,427.1 65.9,428.2 63.7,428.2 
		63.7,430.7 66.9,430.7 66.9,431.8 62.3,431.8 	"/>
	<path class="st2" d="M36.2,384.9H41v-1.7c0-8.5,4.2-10.8,10.3-10.8c2.6,0,5.2,0.5,7.2,1.2l-1.1,4.9c-1.3-0.4-3.4-0.9-4.8-0.9
		c-3,0-4.6,1.3-4.6,5.4v1.8h12v6.5H48v23.9h-7.1v-23.9h-4.7V384.9z"/>
	<path class="st0" d="M63.5,371.1c2.4,0,4.2,1.7,4.2,4c0,2.4-1.8,4-4.2,4c-2.6,0-4.2-1.7-4.2-4C59.3,372.8,60.9,371.1,63.5,371.1"/>
	<path class="st0" d="M64.6,392.4h-1.5c-0.5,0-0.9-0.3-1.1-0.9c-0.3-0.6-0.4-1.6-0.4-3.1c0-0.8,0-1.4,0.1-1.9
		c0.1-0.5,0.2-0.9,0.3-1.2c0-0.1,0.1-0.2,0.2-0.3H60v30.4h7.1v-22.9H64.6z"/>
	<path class="st4" d="M69.7,385.7c-0.2-0.5-0.5-0.8-0.9-0.8h-1.2h-2.4h-1.1c-0.2,0-0.4,0.1-0.6,0.2c-0.2,0.1-0.3,0.3-0.4,0.5
		c-0.1,0.2-0.2,0.6-0.2,1c-0.1,0.4-0.1,0.9-0.1,1.6c0,1.2,0.1,2,0.3,2.5c0.2,0.5,0.5,0.7,0.9,0.7h1.2h2.4h1.1c0.2,0,0.4-0.1,0.6-0.2
		c0.2-0.1,0.3-0.3,0.4-0.5c0.1-0.2,0.2-0.6,0.2-1c0.1-0.4,0.1-0.9,0.1-1.6C70,387,69.9,386.1,69.7,385.7"/>
</g>
</svg>
