<?xml version="1.0" encoding="utf-8"?>
<!-- Generator: Adobe Illustrator 22.1.0, SVG Export Plug-In . SVG Version: 6.00 Build 0)  -->
<svg version="1.1" id="Capa_1" xmlns="http://www.w3.org/2000/svg" xmlns:xlink="http://www.w3.org/1999/xlink" x="0px" y="0px"
	 viewBox="0 0 250 166" style="enable-background:new 0 0 250 166;" xml:space="preserve">
<style type="text/css">
	.st0{fill:#4D8C41;}
	.st1{fill:#81B13E;}
	.st2{fill:#BECC2E;}
</style>
<g>
	<path class="st0" d="M9.5,107.4c5.6,0,8.4,4.1,8.4,8.2s-2.8,8.1-8.4,8.1H3.8v8.1H0v-24.4H9.5z M9.5,120.2c3.2,0,4.7-2.3,4.7-4.6
		c0-2.3-1.6-4.6-4.7-4.6H3.8v9.2H9.5z"/>
	<path class="st0" d="M25.1,119.4h4.4c3.2,0,4.7-2.1,4.7-4.3c0-2.1-1.6-4.2-4.7-4.2h-5.8v20.8H20v-24.4h9.5c5.7,0,8.5,3.9,8.5,7.8
		c0,3.5-2.3,6.7-6.7,7.5l8.2,9.2h-4.9l-9.5-10.7V119.4z"/>
	<path class="st0" d="M43.4,111c2.3-2.2,5.6-3.6,9.1-3.6c3.6,0,6.8,1.4,9.2,3.6c2.3,2.2,3.8,5.2,3.8,8.6s-1.5,6.4-3.8,8.6
		c-2.4,2.2-5.6,3.6-9.2,3.6c-3.6,0-6.8-1.4-9.1-3.6c-2.3-2.2-3.8-5.2-3.8-8.6S41.1,113.2,43.4,111z M59.1,113.4
		c-1.7-1.6-4.1-2.6-6.6-2.6c-2.5,0-4.8,1-6.5,2.6c-1.7,1.6-2.7,3.7-2.7,6.2c0,2.4,1.1,4.6,2.7,6.2c1.7,1.6,4,2.6,6.5,2.6
		c2.5,0,4.9-1,6.6-2.6c1.6-1.6,2.7-3.7,2.7-6.2S60.7,115,59.1,113.4z"/>
	<path class="st1" d="M88.4,116.2c-1-3.9-5-5.3-8.3-5.3c-5,0-8.9,3.7-8.9,8.7c0,5.1,3.9,8.8,8.9,8.8c3.2,0,6.5-1.4,8.1-4.9h-9.5
		v-3.5h13.8c-0.2,2-0.4,3.4-0.7,4.2v0c-1.8,4.6-7,7.6-11.7,7.6c-7.2,0-12.6-5.1-12.6-12.2c0-7.1,5.5-12.2,12.6-12.2
		c4.9,0,10.9,2.4,12.2,8.8H88.4z"/>
	<path class="st1" d="M99.7,119.4h4.4c3.2,0,4.7-2.1,4.7-4.3c0-2.1-1.6-4.2-4.7-4.2h-5.8v20.8h-3.7v-24.4h9.5c5.7,0,8.5,3.9,8.5,7.8
		c0,3.5-2.3,6.7-6.7,7.5l8.2,9.2h-4.9l-9.5-10.7V119.4z"/>
	<path class="st1" d="M120,128.3h12.1v3.5h-15.9v-24.4H132v3.5H120v6.9h11.8v3.6H120V128.3z"/>
	<path class="st1" d="M147.8,113.8c-0.5-2.2-3-3.1-5.2-3c-1.7,0-3.6,0.6-4.6,1.8c-0.5,0.6-0.7,1.4-0.6,2.2c0.2,2.5,3.1,2.8,5.8,3
		c3.5,0.4,7.8,1.3,8.8,5.1c0.1,0.5,0.2,1.1,0.2,1.6c0,4.6-4.9,7.3-9.5,7.3c-3.9,0-8.7-2.2-9.2-6.5l0-0.7l3.7-0.1l0,0.5V125
		c0.3,2.2,3.1,3.4,5.5,3.4c2.7,0,5.7-1.4,5.7-3.9c0-0.2,0-0.5-0.1-0.8c-0.4-1.8-3.1-2.1-5.6-2.4c-4-0.4-8.7-1.2-9.1-6.2v0
		c-0.1-1.6,0.3-3.2,1.4-4.6c1.7-2.1,4.8-3.2,7.7-3.2c3.9,0,8,1.9,8.7,6.3L147.8,113.8z"/>
	<path class="st1" d="M158,128.3h12.1v3.5h-15.9v-24.4h15.9v3.5H158v6.9h11.8v3.6H158V128.3z"/>
	<path class="st1" d="M176.5,131.8h-3.8v-24.4h3l8.6,11.9l8.6-11.9h3v24.4h-3.7v-17.2l-6.8,9.5h-2.1l-6.8-9.5V131.8z"/>
	<path class="st1" d="M201.8,111c2.3-2.2,5.6-3.6,9.1-3.6c3.6,0,6.8,1.4,9.2,3.6c2.3,2.2,3.8,5.2,3.8,8.6s-1.5,6.4-3.8,8.6
		c-2.4,2.2-5.6,3.6-9.2,3.6c-3.6,0-6.8-1.4-9.1-3.6c-2.3-2.2-3.8-5.2-3.8-8.6S199.5,113.2,201.8,111z M217.5,113.4
		c-1.7-1.6-4.1-2.6-6.6-2.6c-2.5,0-4.8,1-6.5,2.6c-1.7,1.6-2.7,3.7-2.7,6.2c0,2.4,1.1,4.6,2.7,6.2c1.7,1.6,4,2.6,6.5,2.6
		c2.5,0,4.9-1,6.6-2.6c1.6-1.6,2.7-3.7,2.7-6.2S219.1,115,217.5,113.4z"/>
	<path class="st1" d="M239.6,113.8c-0.5-2.2-3-3.1-5.2-3c-1.7,0-3.6,0.6-4.6,1.8c-0.5,0.6-0.7,1.4-0.6,2.2c0.2,2.5,3.1,2.8,5.8,3
		c3.5,0.4,7.8,1.3,8.8,5.1c0.1,0.5,0.2,1.1,0.2,1.6c0,4.6-4.9,7.3-9.5,7.3c-3.9,0-8.7-2.2-9.2-6.5l0-0.7l3.7-0.1l0,0.5V125
		c0.3,2.2,3.1,3.4,5.5,3.4c2.7,0,5.7-1.4,5.7-3.9c0-0.2,0-0.5-0.1-0.8c-0.4-1.8-3.1-2.1-5.6-2.4c-4-0.4-8.7-1.2-9.1-6.2v0
		c-0.1-1.6,0.3-3.2,1.4-4.6c1.7-2.1,4.8-3.2,7.7-3.2c3.9,0,8,1.9,8.7,6.3L239.6,113.8z"/>
	<g>
		<circle class="st2" cx="121.9" cy="51.4" r="5.5"/>
		<g>
			<path class="st2" d="M122,34.2c-3.9,0-7.6,0.7-11.1,2.1c-6.4,13.8-5.4,25.5-4.7,30.1c0.2,0.1,0.5,0.1,0.7,0.1
				c1.6-0.1,1.6-1.9,1.6-1.9s-1-8.4,6.4-13.8c0.1,0,0.1-0.1,0.2-0.1c0.3-2.4,1.8-4.4,3.9-5.3c0,0,0.1,0,0.1-0.1
				c2.8-1.3,6.3-0.4,8.1,2.1c0.6,0.9,1,1.8,1.2,2.8c0,0,0.1,0,0.1,0s0.3,0.1,0.7,0.3c0.8,0.2,12.4,3.3,23.2,16.9
				c0.1-0.9,0.1-1.8,0.1-2.8C152.5,47.9,138.8,34.2,122,34.2z"/>
		</g>
	</g>
	<g>
		<g>
			<circle class="st1" cx="134.9" cy="73.6" r="5.5"/>
		</g>
		<g>
			<path class="st1" d="M152.1,69.4c-1.1-1.5-2.2-2.8-3.4-4.1c-3.4-3.5-8.4-8.1-14-10.9c-1.4-0.7-2.3-1.2-2.9-1.4
				c-0.6-0.2-1.1-0.4-1.5-0.6c-0.5-0.1-1.4-0.1-1.9,0.9c-0.7,1.4,0.9,2.4,0.9,2.4s7.6,3.2,8.8,12.2c2.1,1.1,3.5,3.3,3.5,5.9
				c0,3.7-3,6.7-6.7,6.7c-0.9,0-1.7-0.2-2.5-0.5c-0.7,0.7-3.5,3.1-8.2,5.7c-3.4,1.8-8.4,4-14.7,5.2c-0.9,0.2-1.8,0.4-2.4,0.5
				c4.4,2.5,9.6,4,15.1,4C137.2,95.2,149.9,84,152.1,69.4z"/>
		</g>
	</g>
	<g>
		<g>
			<circle class="st0" cx="109.1" cy="73.5" r="5.5"/>
		</g>
		<g>
			<path class="st0" d="M91.5,64.7c0,10.5,5.4,19.8,13.5,25.3c0.7-0.1,1.3-0.2,1.9-0.3c4.7-1,12.4-3.1,18.5-6.9
				c3.7-2.3,3.6-2.4,3.6-2.4s1.4-1,0.5-2.4c-0.8-1.3-2.5-0.5-2.5-0.5s-6.4,4.7-14.4,1.5c-1,0.7-2.3,1.1-3.6,1.1
				c-3.7,0-6.7-3-6.7-6.7c0-2.2,1.1-4.2,2.8-5.4c-0.7-3.1-2.7-15.7,3.9-30.9C98.7,42,91.5,52.5,91.5,64.7z"/>
		</g>
	</g>
	<g>
		<path class="st0" d="M247.1,103.1h-0.5v0.9h0.5c0.1,0,0.2,0,0.3-0.1c0.1-0.1,0.1-0.2,0.1-0.3c0-0.1,0-0.2-0.1-0.3
			C247.3,103.2,247.2,103.1,247.1,103.1 M245.9,102.5h1.3c0.3,0,0.6,0.1,0.7,0.3c0.2,0.2,0.3,0.4,0.3,0.7c0,0.2-0.1,0.4-0.2,0.6
			c-0.1,0.2-0.3,0.3-0.5,0.3l0.7,1v0.1h-0.7l-0.6-1h-0.3v1h-0.7V102.5z M247,101.5c-0.7,0-1.3,0.3-1.8,0.8c-0.5,0.5-0.7,1.1-0.7,1.8
			c0,0.7,0.2,1.3,0.7,1.8c0.5,0.5,1.1,0.8,1.8,0.8c0.7,0,1.3-0.3,1.8-0.8c0.5-0.5,0.7-1.1,0.7-1.8c0-0.7-0.2-1.3-0.7-1.8
			C248.3,101.7,247.7,101.5,247,101.5 M247,101c0.9,0,1.6,0.3,2.2,0.9c0.6,0.6,0.9,1.3,0.9,2.2c0,0.8-0.3,1.6-0.9,2.2
			c-0.6,0.6-1.3,0.9-2.2,0.9c-0.9,0-1.6-0.3-2.2-0.9c-0.6-0.6-0.9-1.3-0.9-2.2c0-0.8,0.3-1.6,0.9-2.2C245.4,101.3,246.1,101,247,101
			"/>
	</g>
</g>
</svg>
