<?xml version="1.0" encoding="utf-8"?>
<!-- Generator: Adobe Illustrator 22.1.0, SVG Export Plug-In . SVG Version: 6.00 Build 0)  -->
<svg version="1.1" id="Capa_1" xmlns="http://www.w3.org/2000/svg" xmlns:xlink="http://www.w3.org/1999/xlink" x="0px" y="0px"
	 viewBox="0 0 250 166" style="enable-background:new 0 0 250 166;" xml:space="preserve">
<style type="text/css">
	.st0{fill:url(#SVGID_1_);}
	.st1{fill:url(#SVGID_2_);}
	.st2{fill:url(#SVGID_3_);}
	.st3{fill:url(#SVGID_4_);}
	.st4{fill:url(#SVGID_5_);}
	.st5{fill:url(#SVGID_6_);}
	.st6{fill:url(#SVGID_7_);}
	.st7{fill:url(#SVGID_8_);}
	.st8{fill:url(#SVGID_9_);}
	.st9{fill:url(#SVGID_10_);}
	.st10{fill:url(#SVGID_11_);}
	.st11{fill:url(#SVGID_12_);}
	.st12{fill:url(#SVGID_13_);}
	.st13{fill:url(#SVGID_14_);}
	.st14{fill:url(#SVGID_15_);}
	.st15{fill:url(#SVGID_16_);}
</style>
<g>
	
		<radialGradient id="SVGID_1_" cx="103.3744" cy="174.1316" r="13.9456" gradientTransform="matrix(0.869 0 0 0.869 -25.5705 2.2623)" gradientUnits="userSpaceOnUse">
		<stop  offset="0" style="stop-color:#DCC85A"/>
		<stop  offset="0.5234" style="stop-color:#DAC658"/>
		<stop  offset="0.7119" style="stop-color:#D4BF51"/>
		<stop  offset="0.8463" style="stop-color:#C9B446"/>
		<stop  offset="0.9541" style="stop-color:#BAA335"/>
		<stop  offset="1" style="stop-color:#B1992B"/>
	</radialGradient>
	<path class="st0" d="M76.5,161.7c-2.2,1.6-7.4,3.9-11.9,3.9c-7.2,0-12.5-3.2-12.5-12c0-8.2,5.1-12.1,12.4-12.1
		c6.5,0,10.1,2.9,10.1,7.6c0,5.9-7.1,7.9-12.5,6.4c0,2.1,0.7,4.3,3.7,4.3c3,0,6-2.2,7.9-3.2L76.5,161.7z M61.9,152.5
		c1.8,0.4,5.5,0.4,5.5-3.5c0-1.5-0.7-2.1-1.9-2.1C63,146.9,62,149.6,61.9,152.5z"/>
	
		<radialGradient id="SVGID_2_" cx="133.9094" cy="168.0565" r="17.2345" gradientTransform="matrix(0.869 0 0 1.2166 -25.5705 -56.1555)" gradientUnits="userSpaceOnUse">
		<stop  offset="0" style="stop-color:#9FBE38"/>
		<stop  offset="0.4462" style="stop-color:#9DBD38"/>
		<stop  offset="0.6209" style="stop-color:#96B839"/>
		<stop  offset="0.7481" style="stop-color:#8AB13A"/>
		<stop  offset="0.8522" style="stop-color:#79A63C"/>
		<stop  offset="0.9411" style="stop-color:#62973F"/>
		<stop  offset="1" style="stop-color:#4F8B41"/>
	</radialGradient>
	<path class="st1" d="M103,140.5c0-7.1-7.3-9.4-14.3-9.5c0,0,0,0-10.2,0c0,0,0.3,10,0.3,14.6c0,6.3-0.2,20-0.2,20h9.6
		c0-3.6,0-11.4-0.1-14.5C93.2,151.1,103,149.1,103,140.5z M88.2,145.6c0-2.2-0.1-5.8,0-8.6c1.9-0.1,5.4,0.1,5.4,4
		C93.6,144.8,90.1,145.6,88.2,145.6z"/>
	
		<radialGradient id="SVGID_3_" cx="160.849" cy="174.1316" r="13.9456" gradientTransform="matrix(0.869 0 0 0.869 -25.5705 2.2623)" gradientUnits="userSpaceOnUse">
		<stop  offset="0" style="stop-color:#9FBE38"/>
		<stop  offset="0.4462" style="stop-color:#9DBD38"/>
		<stop  offset="0.6209" style="stop-color:#96B839"/>
		<stop  offset="0.7481" style="stop-color:#8AB13A"/>
		<stop  offset="0.8522" style="stop-color:#79A63C"/>
		<stop  offset="0.9411" style="stop-color:#62973F"/>
		<stop  offset="1" style="stop-color:#4F8B41"/>
	</radialGradient>
	<path class="st2" d="M115.6,159.9c-3,0-3.7-2.2-3.7-4.3c5.4,1.5,12.5-0.5,12.5-6.4c0-4.7-3.6-7.6-10.1-7.6
		c-7.2,0-12.4,3.8-12.4,12.1c0,8.7,5.3,12,12.5,12c4.5,0,9.7-2.3,11.9-3.9l-2.8-5C121.6,157.7,118.6,159.9,115.6,159.9z
		 M115.4,146.9c1.2,0,1.9,0.6,1.9,2.1c0,4-3.7,4-5.5,3.5C111.9,149.6,112.9,146.9,115.4,146.9z"/>
	
		<radialGradient id="SVGID_4_" cx="188.507" cy="174.1316" r="13.0946" gradientTransform="matrix(0.869 0 0 0.869 -25.5705 2.2623)" gradientUnits="userSpaceOnUse">
		<stop  offset="0" style="stop-color:#9FBE38"/>
		<stop  offset="0.4462" style="stop-color:#9DBD38"/>
		<stop  offset="0.6209" style="stop-color:#96B839"/>
		<stop  offset="0.7481" style="stop-color:#8AB13A"/>
		<stop  offset="0.8522" style="stop-color:#79A63C"/>
		<stop  offset="0.9411" style="stop-color:#62973F"/>
		<stop  offset="1" style="stop-color:#4F8B41"/>
	</radialGradient>
	<path class="st3" d="M138,148.5c0-0.7,0.5-1.4,1.5-1.4c2.6,0,6.9,2.2,6.9,2.2l1.7-5.2c0,0-3.5-2.5-9-2.5c-5.3,0-10,2.5-10,7.4
		c0,7.5,10.2,6.9,10.2,9.7c0,0.7-0.5,1.2-1.4,1.2c-3.3,0-8.2-3.3-8.2-3.3l-2.2,5c0,0,3.9,3.9,11.7,3.9c5.8,0,9.7-3.2,9.7-7.7
		C148.9,150.3,138,151,138,148.5z"/>
	
		<radialGradient id="SVGID_5_" cx="217.7137" cy="174.1316" r="14.8013" gradientTransform="matrix(0.869 0 0 0.7821 -25.5705 17.3946)" gradientUnits="userSpaceOnUse">
		<stop  offset="0" style="stop-color:#9FBE38"/>
		<stop  offset="0.4462" style="stop-color:#9DBD38"/>
		<stop  offset="0.6209" style="stop-color:#96B839"/>
		<stop  offset="0.7481" style="stop-color:#8AB13A"/>
		<stop  offset="0.8522" style="stop-color:#79A63C"/>
		<stop  offset="0.9411" style="stop-color:#62973F"/>
		<stop  offset="1" style="stop-color:#4F8B41"/>
	</radialGradient>
	<path class="st4" d="M163.6,141.6c-8.4,0-13.6,4.5-13.6,11.9c0,7.3,5.2,12.1,13.6,12.1c8.5,0,13.6-4.8,13.6-12.1
		C177.3,146.1,172.2,141.6,163.6,141.6z M163.7,159.4c-2.8,0-4-2.5-4-6c0-3.6,0.9-5.7,3.7-5.7c3.1,0,4.1,3,4.1,6.1
		C167.5,156.7,166.8,159.4,163.7,159.4z"/>
	
		<radialGradient id="SVGID_6_" cx="244.9012" cy="174.1316" r="13.0946" gradientTransform="matrix(0.869 0 0 0.869 -25.5705 2.2623)" gradientUnits="userSpaceOnUse">
		<stop  offset="0" style="stop-color:#9FBE38"/>
		<stop  offset="0.4462" style="stop-color:#9DBD38"/>
		<stop  offset="0.6209" style="stop-color:#96B839"/>
		<stop  offset="0.7481" style="stop-color:#8AB13A"/>
		<stop  offset="0.8522" style="stop-color:#79A63C"/>
		<stop  offset="0.9411" style="stop-color:#62973F"/>
		<stop  offset="1" style="stop-color:#4F8B41"/>
	</radialGradient>
	<path class="st5" d="M187,148.5c0-0.7,0.5-1.4,1.5-1.4c2.6,0,6.9,2.2,6.9,2.2l1.7-5.2c0,0-3.5-2.5-9-2.5c-5.3,0-10,2.5-10,7.4
		c0,7.5,10.2,6.9,10.2,9.7c0,0.7-0.5,1.2-1.4,1.2c-3.3,0-8.2-3.3-8.2-3.3l-2.2,5c0,0,3.9,3.9,11.7,3.9c5.8,0,9.7-3.2,9.7-7.7
		C197.9,150.3,187,151,187,148.5z"/>
	
		<radialGradient id="SVGID_7_" cx="184.0748" cy="23.115" r="25.7183" gradientTransform="matrix(0.869 0 0 0.869 -25.5705 2.2623)" gradientUnits="userSpaceOnUse">
		<stop  offset="0" style="stop-color:#DCC85A"/>
		<stop  offset="0.5234" style="stop-color:#DAC658"/>
		<stop  offset="0.7119" style="stop-color:#D4BF51"/>
		<stop  offset="0.8463" style="stop-color:#C9B446"/>
		<stop  offset="0.9541" style="stop-color:#BAA335"/>
		<stop  offset="1" style="stop-color:#B1992B"/>
	</radialGradient>
	<circle class="st6" cx="134.4" cy="22.3" r="22.3"/>
	
		<radialGradient id="SVGID_8_" cx="184.0419" cy="23.0993" r="18.5411" gradientTransform="matrix(0.869 0 0 0.869 -25.5705 2.2623)" gradientUnits="userSpaceOnUse">
		<stop  offset="0" style="stop-color:#E8D9A0"/>
		<stop  offset="0.4483" style="stop-color:#E2D17F"/>
		<stop  offset="1" style="stop-color:#DCC85A"/>
	</radialGradient>
	<circle class="st7" cx="134.4" cy="22.3" r="16.1"/>
	
		<radialGradient id="SVGID_9_" cx="180.812" cy="71.6106" r="61.0264" gradientTransform="matrix(0.869 0 0 0.869 -25.5705 2.2623)" gradientUnits="userSpaceOnUse">
		<stop  offset="0" style="stop-color:#9FBE38"/>
		<stop  offset="0.4462" style="stop-color:#9DBD38"/>
		<stop  offset="0.6209" style="stop-color:#96B839"/>
		<stop  offset="0.7481" style="stop-color:#8AB13A"/>
		<stop  offset="0.8522" style="stop-color:#79A63C"/>
		<stop  offset="0.9411" style="stop-color:#62973F"/>
		<stop  offset="1" style="stop-color:#4F8B41"/>
	</radialGradient>
	<path class="st8" d="M134.4,101.9c-28-2.9-59.8-25.9-16.4-62.3c-4.6-4.3-7.4-10.5-7.4-17.2c0-2.2,0.3-4.4,0.9-6.4
		c-9.6,5.2-23.1,14.9-31.7,31.5c-14.5,28.1,0.8,62.6,45,65.4c1.8,0.1,3.6,0.2,5.3,0.2c38,0,58.8-26.5,58.8-26.5
		s-21.8,15.7-47.9,15.7C138.7,102.2,136.5,102.1,134.4,101.9z"/>
	
		<radialGradient id="SVGID_10_" cx="199.7922" cy="50.1958" r="50.0486" gradientTransform="matrix(-0.4345 0.7526 -0.8279 -0.478 276.4191 -80.4871)" gradientUnits="userSpaceOnUse">
		<stop  offset="0" style="stop-color:#9FBE38"/>
		<stop  offset="0.3304" style="stop-color:#9CBC38"/>
		<stop  offset="0.5278" style="stop-color:#94B739"/>
		<stop  offset="0.6903" style="stop-color:#86AE3B"/>
		<stop  offset="0.8338" style="stop-color:#72A13D"/>
		<stop  offset="0.9635" style="stop-color:#589140"/>
		<stop  offset="1" style="stop-color:#4F8B41"/>
	</radialGradient>
	<path class="st9" d="M192,26.9C179,13.6,163.7,10.3,154.5,9.6c2.4,3.7,3.7,8.1,3.7,12.8c0,3.5-0.8,6.9-2.2,9.9
		c13.8,2.7,10.7,12.6,7.9,15.9c-2.9,3.5-8.1,7-13.3,8.9C138.8,61.4,117.9,69,98.4,76c0.1,0.8,0.3,1.5,0.5,2.3
		c0.4,1.3,0.9,2.6,1.6,3.9c10.9-2.6,24.3-5.8,40.7-9.9c11.5-2.8,34.6-6.9,46.8-15.9C198.2,48.9,201.7,36.9,192,26.9z"/>
	
		<radialGradient id="SVGID_11_" cx="104.1173" cy="99.1527" r="10.709" gradientTransform="matrix(0.869 0 0 0.869 -25.5705 2.2623)" gradientUnits="userSpaceOnUse">
		<stop  offset="0" style="stop-color:#9FBE38"/>
		<stop  offset="0.3304" style="stop-color:#9CBC38"/>
		<stop  offset="0.5278" style="stop-color:#94B739"/>
		<stop  offset="0.6903" style="stop-color:#86AE3B"/>
		<stop  offset="0.8338" style="stop-color:#72A13D"/>
		<stop  offset="0.9635" style="stop-color:#589140"/>
		<stop  offset="1" style="stop-color:#4F8B41"/>
	</radialGradient>
	<path class="st10" d="M52.5,92.6c0,0-0.3,0.7,24.9-5.1c-0.6-1.1-1.1-2.2-1.5-3.4C62.2,89.1,52.5,92.6,52.5,92.6z"/>
	
		<radialGradient id="SVGID_12_" cx="196.2874" cy="9.2417" r="7.7736" gradientTransform="matrix(0.869 0 0 0.869 -25.5705 2.2623)" gradientUnits="userSpaceOnUse">
		<stop  offset="0" style="stop-color:#FFFFFF"/>
		<stop  offset="1" style="stop-color:#FFFFFF;stop-opacity:0"/>
	</radialGradient>
	<circle class="st11" cx="145" cy="10.3" r="6.8"/>
	
		<radialGradient id="SVGID_13_" cx="119.8556" cy="150.9092" r="7.7736" gradientTransform="matrix(0.869 0 0 0.869 -25.5705 2.2623)" gradientUnits="userSpaceOnUse">
		<stop  offset="0" style="stop-color:#FFFFFF"/>
		<stop  offset="1" style="stop-color:#FFFFFF;stop-opacity:0"/>
	</radialGradient>
	<circle class="st12" cx="78.6" cy="133.4" r="6.8"/>
	
		<radialGradient id="SVGID_14_" cx="179.1479" cy="178.6113" r="5.0123" gradientTransform="matrix(0.869 0 0 0.869 -25.5705 2.2623)" gradientUnits="userSpaceOnUse">
		<stop  offset="0" style="stop-color:#FFFFFF"/>
		<stop  offset="1" style="stop-color:#FFFFFF;stop-opacity:0"/>
	</radialGradient>
	<circle class="st13" cx="130.1" cy="157.5" r="4.4"/>
	
		<radialGradient id="SVGID_15_" cx="93.7123" cy="184.9384" r="3.4783" gradientTransform="matrix(0.869 0 0 0.869 -25.5705 2.2623)" gradientUnits="userSpaceOnUse">
		<stop  offset="0" style="stop-color:#FFFFFF"/>
		<stop  offset="1" style="stop-color:#FFFFFF;stop-opacity:0"/>
	</radialGradient>
	<circle class="st14" cx="55.9" cy="163" r="3"/>
	
		<radialGradient id="SVGID_16_" cx="239.8889" cy="161.6973" r="6.1745" gradientTransform="matrix(0.869 0 0 0.869 -25.5705 2.2623)" gradientUnits="userSpaceOnUse">
		<stop  offset="0" style="stop-color:#FFFFFF"/>
		<stop  offset="1" style="stop-color:#FFFFFF;stop-opacity:0"/>
	</radialGradient>
	<circle class="st15" cx="182.9" cy="142.8" r="5.4"/>
</g>
</svg>
