<?xml version="1.0" encoding="utf-8"?>
<!-- Generator: Adobe Illustrator 22.1.0, SVG Export Plug-In . SVG Version: 6.00 Build 0)  -->
<svg version="1.1" id="Capa_1" xmlns="http://www.w3.org/2000/svg" xmlns:xlink="http://www.w3.org/1999/xlink" x="0px" y="0px"
	 viewBox="0 0 250 166" style="enable-background:new 0 0 250 166;" xml:space="preserve">
<style type="text/css">
	.st0{fill:#E8B800;}
	.st1{fill:#004C98;}
</style>
<g>
	<circle class="st0" cx="42" cy="83" r="16.6"/>
	<path class="st1" d="M29.6,53.9c4.4,0,8.6,1,12.3,2.7c9.9,4.6,16.7,14.7,16.7,26.3h24.6h0c0-22.8-18.5-41.4-41.4-41.4
		c-20,0-36.7,14.2-40.6,33.1h0.4C5.3,62.7,16.5,53.9,29.6,53.9z"/>
	<g>
		<path class="st1" d="M82.1,91.3c-3.6,12-14.7,20.8-27.8,20.8c-4.4,0-8.6-1-12.3-2.7c-9.9-4.6-16.7-14.7-16.7-26.3l0,0L0.6,83l0,0
			c0,22.9,18.5,41.4,41.4,41.4c20,0,36.7-14.2,40.5-33.1H82.1z"/>
	</g>
	<g>
		<path class="st1" d="M112.5,83.6c-7.4,0-12.8-5.8-12.8-12.9c0-7.1,5.3-13,12.8-13c5.9,0,10.5,3.4,11.9,8.9h-6.8
			c-0.9-1.7-2.8-3.1-5.1-3.1c-3.5,0-6.3,3.3-6.3,7.2c0,3.9,2.8,7.1,6.3,7.1c2.4,0,4.4-1.4,5.2-3.2h6.8
			C123,80.3,118.5,83.6,112.5,83.6z"/>
		<path class="st1" d="M135,83h-6.3V58.3h6.3V83z M133.6,55.1H129l4.5-6.8h7.1L133.6,55.1z"/>
		<path class="st1" d="M154.3,63.8c-4-0.7-6.7,1.4-6.7,4.9V83h-6.3V68.7c0-7,4.8-11.9,13.1-10.9V63.8z"/>
		<path class="st1" d="M169,83.6c-7.4,0-12.8-5.8-12.8-12.9c0-7.1,5.3-13,12.8-13c5.9,0,10.5,3.4,11.9,8.9h-6.8
			c-0.9-1.7-2.8-3.1-5.1-3.1c-3.5,0-6.3,3.3-6.3,7.2c0,3.9,2.8,7.1,6.3,7.1c2.4,0,4.4-1.4,5.2-3.2h6.8C179.5,80.3,175,83.6,169,83.6
			z"/>
		<path class="st1" d="M195.7,83.6c-6.9,0-11-4.6-11-11V58.3h6.3v14.4c0,1.4,0.5,4.7,4.7,4.7c2.8,0,4.8-2,4.8-4.7V58.3h6.3v14.2
			C206.8,78.8,202.4,83.6,195.7,83.6z"/>
		<path class="st1" d="M211.5,47.3h6.4v25.3c0,3.5,1.6,4.8,4.7,4.6V83c-7.2,0.8-11.1-3.6-11.1-10.3V47.3z"/>
		<path class="st1" d="M249.4,70.7c0,7.4-5.6,12.9-12.5,12.9s-12.4-5.5-12.4-12.9c0-7.4,5.6-13,12.4-13S249.4,63.3,249.4,70.7z
			 M243,70.7c0-4.3-2.7-7.2-6.1-7.2c-3.4,0-6.1,3-6.1,7.2c0,4.2,2.7,7.1,6.1,7.1C240.3,77.8,243,74.9,243,70.7z"/>
	</g>
	<g>
		<path class="st1" d="M152.6,102c0,3.4-2.5,6.1-5.8,6.1c-3.2,0-5.8-2.6-5.8-6.1c0-3.5,2.6-6,5.8-6c1.6,0,3.1,0.8,4,2v-6.8h1.8V102z
			 M146.8,97.7c-2.2,0-3.9,1.9-3.9,4.3c0,2.4,1.8,4.3,3.9,4.3c2.1,0,3.9-1.9,3.9-4.3C150.7,99.7,149,97.7,146.8,97.7z"/>
		<path class="st1" d="M166.5,104.3c-0.9,2.5-2.8,3.9-5.5,3.9c-3.3,0-5.9-2.6-5.9-6c0-3.3,2.6-6.1,5.8-6.1c2.5,0,5,1.8,5.6,4.8
			l-8.9,3.7c0.7,1.2,2,1.8,3.3,1.8c1.6,0,2.8-0.7,3.5-2.1H166.5z M157,102.8l7.1-3c-0.7-1.3-2-2-3.3-2c-1.8,0-3.9,1.6-3.9,4.3
			C157,102.3,157,102.6,157,102.8z"/>
		<path class="st1" d="M181.5,108.1c-3.2,0-5.8-2.7-5.8-6c0-3.3,2.6-6.1,5.8-6.1c2.6,0,4.6,1.5,5.4,3.9h-2c-0.7-1.3-1.8-2-3.3-2
			c-2.1,0-3.9,1.9-3.9,4.3c0,2.3,1.8,4.2,3.9,4.2c1.5,0,2.7-0.8,3.3-2h2C186.1,106.6,184.1,108.1,181.5,108.1z"/>
		<path class="st1" d="M195.1,96.1v1.8c-2.2-0.2-3.6,0.9-3.6,3.1v6.9h-1.9V101C189.6,97.5,192.1,95.7,195.1,96.1z"/>
		<path class="st1" d="M207.8,104.3c-0.9,2.5-2.8,3.9-5.5,3.9c-3.3,0-5.9-2.6-5.9-6c0-3.3,2.6-6.1,5.8-6.1c2.5,0,5,1.8,5.6,4.8
			l-8.9,3.7c0.7,1.2,2,1.8,3.3,1.8c1.6,0,2.8-0.7,3.5-2.1H207.8z M198.4,102.8l7.1-3c-0.7-1.3-2-2-3.3-2c-1.8,0-3.9,1.6-3.9,4.3
			C198.3,102.3,198.3,102.6,198.4,102.8z M202.4,94.7h-1.5l2-3.1h2.3L202.4,94.7z"/>
		<path class="st1" d="M221.6,102c0,3.4-2.5,6.1-5.8,6.1c-3.2,0-5.8-2.6-5.8-6.1c0-3.5,2.6-6,5.8-6c1.6,0,3.1,0.8,4,2v-6.8h1.8V102z
			 M215.8,97.7c-2.2,0-3.9,1.9-3.9,4.3c0,2.4,1.8,4.3,3.9,4.3c2.1,0,3.9-1.9,3.9-4.3C219.7,99.7,217.9,97.7,215.8,97.7z"/>
		<path class="st1" d="M225.4,94.5v-1.4c0-0.5,0.4-0.9,0.9-0.9c0.5,0,1,0.4,1,0.9v1.4H225.4z M227.3,107.8h-1.9V96.3h1.9V107.8z"/>
		<path class="st1" d="M235.4,107.8c-2.7,0.3-4.6-1.3-4.6-4.2v-9.8h1.9v2.5h2.6v1.8h-2.6v5.5c0,2,1.2,2.6,2.7,2.5V107.8z"/>
		<path class="st1" d="M248.9,102.1c0,3.3-2.5,6-5.8,6c-3.3,0-5.8-2.7-5.8-6c0-3.4,2.5-6.1,5.8-6.1C246.4,96,248.9,98.7,248.9,102.1
			z M247,102.1c0-2.4-1.8-4.3-3.9-4.3c-2.1,0-3.9,1.9-3.9,4.3c0,2.3,1.8,4.2,3.9,4.2C245.3,106.3,247,104.4,247,102.1z"/>
	</g>
</g>
</svg>
