<?xml version="1.0" encoding="utf-8"?>
<!-- Generator: Adobe Illustrator 22.1.0, SVG Export Plug-In . SVG Version: 6.00 Build 0)  -->
<svg version="1.1" id="Capa_1" xmlns="http://www.w3.org/2000/svg" xmlns:xlink="http://www.w3.org/1999/xlink" x="0px" y="0px"
	 viewBox="0 0 250 166" style="enable-background:new 0 0 250 166;" xml:space="preserve">
<style type="text/css">
	.st0{fill-rule:evenodd;clip-rule:evenodd;fill:#9B1E20;}
	.st1{fill-rule:evenodd;clip-rule:evenodd;fill:#B2A88A;}
</style>
<g>
	<path class="st0" d="M21.7,93.4h-4V79c0-5.4-2-8-5.9-8c-2,0-3.7,0.8-5,2.3c-1.3,1.5-2,3.4-2,5.8v14.4h-4V68.2h4v4.2h0.1
		c1.9-3.2,4.7-4.8,8.3-4.8c2.8,0,4.9,0.9,6.3,2.7c1.5,1.8,2.2,4.4,2.2,7.7V93.4z"/>
	<path class="st0" d="M41.8,65.4c0-0.8-0.2-1.5-0.5-2.1c-0.3-0.6-0.7-1-1.2-1.4c-0.5-0.4-1-0.7-1.6-0.8c-0.6-0.2-1.1-0.3-1.7-0.3
		c-1.6,0-2.9,0.4-3.8,1.3c-1,0.9-1.4,2-1.5,3.5c0,0.7,0.1,1.3,0.3,1.9c0.2,0.6,0.5,1.1,0.9,1.6c0.4,0.5,0.8,1,1.3,1.4
		c0.5,0.4,1,0.7,1.6,1c2.1-0.7,3.6-1.6,4.6-2.5C41.3,68,41.8,66.8,41.8,65.4z M35.7,90.5c1.2,0,2.4-0.1,3.4-0.4c1-0.3,2-0.6,2.9-1.1
		c0.9-0.5,1.7-1,2.4-1.6c0.7-0.6,1.4-1.2,2-1.9c-1-1.6-1.9-2.9-2.8-4c-0.8-1.1-1.7-2.1-2.6-2.9c-0.9-0.8-1.8-1.5-2.8-2.1
		c-1-0.6-2.1-1.1-3.4-1.6c-1,0.4-2,0.9-2.9,1.4c-0.9,0.5-1.6,1.1-2.3,1.8c-0.6,0.7-1.1,1.5-1.5,2.4c-0.4,0.9-0.5,2-0.5,3.2
		c0,1.1,0.2,2.1,0.6,3c0.4,0.9,1,1.6,1.7,2.1c0.7,0.6,1.5,1,2.5,1.3C33.6,90.4,34.6,90.5,35.7,90.5z M56.3,94
		c-0.9,0-1.8-0.1-2.5-0.4c-0.7-0.3-1.4-0.6-2-1.1c-0.6-0.5-1.2-1-1.8-1.7c-0.6-0.7-1.2-1.4-1.8-2.3c-0.7,0.7-1.4,1.4-2.3,2
		c-0.9,0.7-1.8,1.2-2.9,1.7c-1.1,0.5-2.2,0.9-3.4,1.2c-1.2,0.3-2.6,0.5-4.1,0.5c-1.8,0-3.4-0.2-4.9-0.7c-1.5-0.4-2.7-1.1-3.8-2
		c-1.1-0.9-1.9-1.9-2.4-3.2c-0.6-1.3-0.9-2.7-0.9-4.4c0-2.5,0.7-4.7,2.2-6.4c1.4-1.8,3.5-3.2,6.1-4.4c-0.5-0.4-1-0.8-1.5-1.3
		c-0.5-0.5-0.9-1-1.3-1.6c-0.4-0.6-0.7-1.3-0.9-2c-0.2-0.7-0.4-1.6-0.4-2.4c0-1.3,0.2-2.4,0.7-3.4c0.5-1,1.1-1.8,1.9-2.5
		c0.8-0.7,1.8-1.2,2.9-1.6c1.1-0.4,2.3-0.5,3.6-0.5c1.3,0,2.4,0.2,3.5,0.5c1.1,0.4,2,0.9,2.7,1.5c0.8,0.7,1.4,1.4,1.8,2.4
		c0.4,0.9,0.6,1.9,0.6,3.1c0,2-0.6,3.6-1.7,4.9c-1.1,1.3-2.8,2.4-5.1,3.3c1.1,0.4,2.2,1,3.1,1.6c0.9,0.6,1.8,1.4,2.5,2.1
		c0.8,0.8,1.5,1.6,2.2,2.5c0.7,0.9,1.3,1.8,2,2.8c1.3-1.9,2.3-3.9,3-6.1c0.7-2.2,1-4.6,1-7c0-0.6,0-1.2-0.1-1.8
		c-0.1-0.5-0.2-1.1-0.3-1.6h3.9c0.1,0.5,0.2,1.1,0.2,1.5c0,0.5,0.1,1.1,0.1,1.7c0,1.5-0.2,3-0.5,4.5c-0.3,1.5-0.7,3-1.3,4.4
		c-0.5,1.4-1.1,2.8-1.8,4c-0.7,1.3-1.4,2.4-2.2,3.5c0.6,0.8,1.1,1.5,1.6,2.1c0.5,0.6,1,1.1,1.4,1.5c0.5,0.4,1,0.7,1.5,0.9
		c0.5,0.2,1.1,0.3,1.8,0.3c0.5,0,1-0.1,1.5-0.2c0.5-0.1,1-0.3,1.6-0.5v3.7c-0.6,0.2-1.2,0.4-1.9,0.5C57.6,93.9,56.9,94,56.3,94z"/>
	<path class="st0" d="M78.1,82v-3.7c0-2-0.7-3.7-2-5.2C74.7,71.7,73,71,71,71c-2.5,0-4.4,0.9-5.9,2.7c-1.4,1.8-2.1,4.4-2.1,7.6
		c0,2.8,0.7,5.1,2,6.8c1.4,1.7,3.1,2.5,5.4,2.5c2.3,0,4.1-0.8,5.5-2.4C77.4,86.6,78.1,84.6,78.1,82z M82.2,91.4
		c0,9.2-4.4,13.9-13.3,13.9c-3.1,0-5.8-0.6-8.2-1.8v-4c2.8,1.6,5.5,2.4,8.1,2.4c6.2,0,9.3-3.3,9.3-9.9v-2.8H78
		c-1.9,3.2-4.8,4.8-8.7,4.8c-3.1,0-5.7-1.1-7.6-3.4c-1.9-2.2-2.9-5.3-2.9-9c0-4.3,1-7.7,3.1-10.2c2.1-2.5,4.9-3.8,8.5-3.8
		c3.4,0,5.9,1.4,7.6,4.1h0.1v-3.5h4V91.4z"/>
	<rect x="95.2" y="54.9" class="st0" width="3.6" height="50.4"/>
	<path class="st1" d="M150.8,71.2c-2.4-2.4-5.7-3.5-9.8-3.5c-4.2,0-7.6,1.2-10.1,3.5c-2.5,2.4-3.7,5.6-3.7,9.8c0,0.1,0,0.2,0,0.3
		c-0.1-0.1-0.2-0.2-0.3-0.3c-0.6-0.6-1.3-1.1-2.2-1.5c-0.8-0.4-1.8-0.8-2.8-1.2c-0.6-0.2-1.2-0.4-1.7-0.6c-0.6-0.2-1.1-0.4-1.6-0.6
		c-0.5-0.2-0.9-0.5-1.2-0.8c-0.3-0.3-0.4-0.7-0.4-1.2c0-0.3,0.1-0.7,0.3-0.9c0.2-0.3,0.5-0.5,0.8-0.7c0.3-0.2,0.7-0.3,1.2-0.4
		c0.5-0.1,0.9-0.1,1.4-0.1c1.1,0,2.2,0.1,3.3,0.4c1.1,0.3,2.2,0.7,3.2,1.3v-6c-1.1-0.3-2.3-0.6-3.4-0.8c-1.2-0.2-2.3-0.3-3.4-0.3
		c-1.4,0-2.8,0.2-4.1,0.5c-1.3,0.3-2.5,0.8-3.5,1.4c-1,0.6-1.8,1.5-2.5,2.5c-0.6,1-0.9,2.2-0.9,3.6c0,1,0.1,1.9,0.4,2.7
		c0.3,0.8,0.7,1.4,1.2,2c0.5,0.6,1.2,1.1,1.9,1.5c0.8,0.4,1.6,0.8,2.6,1.2c0.6,0.2,1.3,0.5,1.9,0.7c0.7,0.2,1.3,0.4,1.9,0.7
		c0.6,0.2,1,0.5,1.4,0.9c0.4,0.3,0.5,0.7,0.5,1.2c0,0.8-0.4,1.3-1.2,1.7c-0.8,0.4-1.9,0.6-3.3,0.6c-1.1,0-2.3-0.2-3.6-0.6
		c-1.3-0.4-2.5-0.9-3.8-1.7v6.3c2.4,0.8,4.9,1.3,7.7,1.3c1.5,0,3-0.2,4.4-0.5c1.4-0.3,2.6-0.8,3.7-1.5c1.1-0.7,1.9-1.5,2.6-2.6
		c0.4-0.6,0.6-1.3,0.8-2c0.6,1.1,1.3,2.1,2.2,3c2.4,2.4,5.7,3.5,9.9,3.5c4.3,0,7.6-1.2,10.1-3.6c2.5-2.4,3.7-5.7,3.7-9.9
		C154.4,76.6,153.2,73.5,150.8,71.2z M140.9,88.1c-3.9,0-5.9-2.4-5.9-7.3c0-2.3,0.5-4.1,1.5-5.4c1-1.3,2.4-1.9,4.3-1.9
		c3.8,0,5.6,2.4,5.6,7.1C146.5,85.6,144.6,88.1,140.9,88.1z"/>
	<path class="st1" d="M184.9,74v-5.7h-5.6v-7.7l-7.8,2.2v5.4h-1h-3.1h-2.7v-2.7c0-2.7,1.2-4.1,3.7-4.1c0.9,0,1.9,0.2,2.9,0.6v-6
		c-1-0.3-2.4-0.5-3.9-0.5c-3.2,0-5.8,0.9-7.6,2.6c-1.9,1.8-2.8,4.1-2.8,6.9v3.1h-4.2V74h4.2v19.5h7.8V74h2.7h3.1h1v11.5
		c0,5.7,2.7,8.5,8.2,8.5c2.3,0,4-0.3,5.2-0.9v-5.8c-0.9,0.5-1.7,0.7-2.5,0.7c-2.1,0-3.1-1.3-3.1-3.9V74H184.9z"/>
	<path class="st1" d="M202,93.4h-7.8V68.2h7.8V93.4z M198.2,64.3c-1.3,0-2.4-0.4-3.2-1.2c-0.8-0.8-1.3-1.7-1.3-2.9
		c0-1.2,0.4-2.1,1.3-2.9c0.8-0.7,1.9-1.1,3.2-1.1c1.3,0,2.4,0.4,3.2,1.1c0.8,0.7,1.2,1.7,1.2,2.9c0,1.2-0.4,2.2-1.2,2.9
		C200.6,63.9,199.5,64.3,198.2,64.3z"/>
	<path class="st1" d="M228.5,93.4h-7.8v-14c0-3.9-1.4-5.9-4.2-5.9c-1.3,0-2.5,0.5-3.3,1.5c-0.9,1-1.3,2.3-1.3,3.9v14.4h-7.8V68.2
		h7.8v4h0.1c1.9-3.1,4.6-4.6,8.1-4.6c5.6,0,8.4,3.5,8.4,10.4V93.4z"/>
	<path class="st1" d="M249.2,92.5c-1.8,1-4.3,1.5-7.6,1.5c-3.9,0-7-1.2-9.4-3.5c-2.4-2.3-3.6-5.4-3.6-9.1c0-4.3,1.3-7.7,3.9-10.1
		c2.6-2.5,6-3.7,10.3-3.7c3,0,5.1,0.4,6.5,1.2v6.6c-1.6-1.2-3.4-1.8-5.4-1.8c-2.2,0-4,0.7-5.3,2c-1.3,1.3-2,3.1-2,5.4
		c0,2.2,0.6,4,1.9,5.3c1.2,1.3,3,1.9,5.1,1.9c1.9,0,3.8-0.6,5.7-1.8V92.5z"/>
	<path class="st0" d="M201.4,57.2c-0.9-0.8-2-1.2-3.4-1.2c-1.4,0-2.5,0.4-3.4,1.2c-0.9,0.8-1.3,1.8-1.3,3c0,1.2,0.4,2.2,1.3,3
		c0.9,0.8,2,1.2,3.4,1.2c1.4,0,2.5-0.4,3.4-1.2c0.9-0.8,1.3-1.8,1.3-3C202.7,59,202.2,58,201.4,57.2z"/>
	<path class="st1" d="M108.6,107.2v-2c0.4,0.2,0.8,0.4,1.2,0.5c0.4,0.1,0.8,0.2,1.1,0.2c0.4,0,0.8-0.1,1-0.2
		c0.2-0.1,0.4-0.3,0.4-0.5c0-0.2-0.1-0.3-0.2-0.4c-0.1-0.1-0.3-0.2-0.4-0.3c-0.2-0.1-0.4-0.1-0.6-0.2c-0.2-0.1-0.4-0.1-0.6-0.2
		c-0.3-0.1-0.6-0.2-0.8-0.4c-0.2-0.1-0.4-0.3-0.6-0.5c-0.2-0.2-0.3-0.4-0.4-0.6c-0.1-0.2-0.1-0.5-0.1-0.8c0-0.4,0.1-0.8,0.3-1.1
		c0.2-0.3,0.4-0.6,0.8-0.8c0.3-0.2,0.7-0.4,1.1-0.4c0.4-0.1,0.8-0.1,1.3-0.1c0.3,0,0.7,0,1.1,0.1c0.4,0.1,0.7,0.1,1.1,0.2v1.9
		c-0.3-0.2-0.6-0.3-1-0.4c-0.4-0.1-0.7-0.1-1-0.1c-0.2,0-0.3,0-0.4,0c-0.1,0-0.3,0.1-0.4,0.1c-0.1,0.1-0.2,0.1-0.3,0.2
		c-0.1,0.1-0.1,0.2-0.1,0.3c0,0.1,0,0.3,0.1,0.4c0.1,0.1,0.2,0.2,0.4,0.3c0.1,0.1,0.3,0.1,0.5,0.2c0.2,0.1,0.4,0.1,0.5,0.2
		c0.3,0.1,0.6,0.2,0.9,0.4c0.3,0.1,0.5,0.3,0.7,0.5c0.2,0.2,0.3,0.4,0.4,0.6c0.1,0.2,0.1,0.5,0.1,0.9c0,0.5-0.1,0.9-0.3,1.2
		c-0.2,0.3-0.5,0.6-0.8,0.8c-0.3,0.2-0.7,0.4-1.2,0.5c-0.4,0.1-0.9,0.1-1.4,0.1C110.2,107.6,109.4,107.5,108.6,107.2z"/>
	<path class="st1" d="M122.5,99.6l-3.2,8.5c-0.8,2-1.9,3.1-3.5,3.1c-0.6,0-1.1-0.1-1.4-0.2V109c0.3,0.2,0.7,0.3,1.1,0.3
		c0.6,0,1.1-0.3,1.3-0.9l0.4-1l-3.2-7.8h2.7l1.5,4.8c0.1,0.3,0.2,0.6,0.2,1.1h0c0-0.3,0.1-0.6,0.3-1l1.5-4.8H122.5z"/>
	<path class="st1" d="M121.9,107.2v-2c0.4,0.2,0.8,0.4,1.2,0.5c0.4,0.1,0.8,0.2,1.1,0.2c0.4,0,0.8-0.1,1-0.2
		c0.2-0.1,0.4-0.3,0.4-0.5c0-0.2-0.1-0.3-0.2-0.4c-0.1-0.1-0.3-0.2-0.4-0.3c-0.2-0.1-0.4-0.1-0.6-0.2c-0.2-0.1-0.4-0.1-0.6-0.2
		c-0.3-0.1-0.6-0.2-0.8-0.4c-0.2-0.1-0.4-0.3-0.6-0.5c-0.2-0.2-0.3-0.4-0.4-0.6c-0.1-0.2-0.1-0.5-0.1-0.8c0-0.4,0.1-0.8,0.3-1.1
		c0.2-0.3,0.4-0.6,0.8-0.8c0.3-0.2,0.7-0.4,1.1-0.4c0.4-0.1,0.8-0.1,1.3-0.1c0.3,0,0.7,0,1.1,0.1c0.4,0.1,0.7,0.1,1.1,0.2v1.9
		c-0.3-0.2-0.6-0.3-1-0.4c-0.4-0.1-0.7-0.1-1-0.1c-0.2,0-0.3,0-0.4,0c-0.1,0-0.3,0.1-0.4,0.1c-0.1,0.1-0.2,0.1-0.3,0.2
		c-0.1,0.1-0.1,0.2-0.1,0.3c0,0.1,0,0.3,0.1,0.4c0.1,0.1,0.2,0.2,0.4,0.3c0.1,0.1,0.3,0.1,0.5,0.2c0.2,0.1,0.4,0.1,0.5,0.2
		c0.3,0.1,0.6,0.2,0.9,0.4c0.3,0.1,0.5,0.3,0.7,0.5c0.2,0.2,0.3,0.4,0.4,0.6c0.1,0.2,0.1,0.5,0.1,0.9c0,0.5-0.1,0.9-0.3,1.2
		c-0.2,0.3-0.5,0.6-0.8,0.8c-0.3,0.2-0.7,0.4-1.2,0.5c-0.4,0.1-0.9,0.1-1.4,0.1C123.4,107.6,122.6,107.5,121.9,107.2z"/>
	<path class="st1" d="M133,107.3c-0.4,0.2-0.9,0.3-1.6,0.3c-1.7,0-2.6-0.9-2.6-2.7v-3.6h-1.3v-1.8h1.3v-1.7l2.4-0.7v2.4h1.8v1.8
		h-1.8v3.2c0,0.8,0.3,1.2,1,1.2c0.3,0,0.5-0.1,0.8-0.2V107.3z"/>
	<path class="st1" d="M138,102.7c0-1.1-0.5-1.7-1.4-1.7c-0.4,0-0.7,0.2-1,0.5c-0.3,0.3-0.5,0.7-0.5,1.2H138z M140.2,104.2h-5.1
		c0.1,1.1,0.8,1.7,2.2,1.7c0.9,0,1.6-0.2,2.3-0.6v1.8c-0.7,0.4-1.7,0.6-2.8,0.6c-1.3,0-2.3-0.4-3-1.1c-0.7-0.7-1.1-1.7-1.1-2.9
		c0-1.3,0.4-2.3,1.1-3.1c0.8-0.8,1.7-1.1,2.8-1.1c1.1,0,2,0.3,2.7,1c0.6,0.7,0.9,1.6,0.9,2.8V104.2z"/>
	<path class="st1" d="M153.1,107.4h-2.4v-4.5c0-1.1-0.4-1.7-1.3-1.7c-0.4,0-0.7,0.2-1,0.5c-0.3,0.3-0.4,0.8-0.4,1.3v4.4h-2.4v-4.5
		c0-1.1-0.4-1.7-1.2-1.7c-0.4,0-0.7,0.2-1,0.5c-0.2,0.3-0.4,0.8-0.4,1.3v4.4h-2.4v-7.9h2.4v1.2h0c0.2-0.4,0.6-0.8,1.1-1
		c0.5-0.3,0.9-0.4,1.5-0.4c1.1,0,1.9,0.5,2.3,1.5c0.6-1,1.5-1.5,2.6-1.5c1.7,0,2.6,1.1,2.6,3.2V107.4z"/>
	<path class="st1" d="M153.4,107.2v-2c0.4,0.2,0.8,0.4,1.2,0.5c0.4,0.1,0.8,0.2,1.1,0.2c0.4,0,0.8-0.1,1-0.2
		c0.2-0.1,0.4-0.3,0.4-0.5c0-0.2-0.1-0.3-0.2-0.4c-0.1-0.1-0.3-0.2-0.4-0.3c-0.2-0.1-0.4-0.1-0.6-0.2c-0.2-0.1-0.4-0.1-0.6-0.2
		c-0.3-0.1-0.6-0.2-0.8-0.4c-0.2-0.1-0.4-0.3-0.6-0.5c-0.2-0.2-0.3-0.4-0.4-0.6c-0.1-0.2-0.1-0.5-0.1-0.8c0-0.4,0.1-0.8,0.3-1.1
		c0.2-0.3,0.4-0.6,0.8-0.8c0.3-0.2,0.7-0.4,1.1-0.4c0.4-0.1,0.8-0.1,1.3-0.1c0.3,0,0.7,0,1.1,0.1c0.4,0.1,0.7,0.1,1.1,0.2v1.9
		c-0.3-0.2-0.6-0.3-1-0.4c-0.4-0.1-0.7-0.1-1-0.1c-0.2,0-0.3,0-0.4,0c-0.1,0-0.3,0.1-0.4,0.1c-0.1,0.1-0.2,0.1-0.3,0.2
		c-0.1,0.1-0.1,0.2-0.1,0.3c0,0.1,0,0.3,0.1,0.4c0.1,0.1,0.2,0.2,0.4,0.3c0.1,0.1,0.3,0.1,0.5,0.2c0.2,0.1,0.4,0.1,0.5,0.2
		c0.3,0.1,0.6,0.2,0.9,0.4c0.3,0.1,0.5,0.3,0.7,0.5c0.2,0.2,0.3,0.4,0.4,0.6c0.1,0.2,0.2,0.5,0.2,0.9c0,0.5-0.1,0.9-0.3,1.2
		c-0.2,0.3-0.5,0.6-0.8,0.8c-0.3,0.2-0.7,0.4-1.2,0.5c-0.4,0.1-0.9,0.1-1.4,0.1C154.9,107.6,154.1,107.5,153.4,107.2z"/>
	<path class="st1" d="M168.3,103.6V103c0-0.5-0.1-0.9-0.4-1.3c-0.3-0.3-0.7-0.5-1.2-0.5c-0.5,0-1,0.2-1.3,0.6
		c-0.3,0.4-0.5,1-0.5,1.7c0,0.7,0.1,1.2,0.4,1.6c0.3,0.4,0.7,0.6,1.2,0.6c0.5,0,0.9-0.2,1.2-0.6
		C168.2,104.8,168.3,104.3,168.3,103.6z M170.7,107.4h-2.4v-1.1h0c-0.6,0.8-1.4,1.3-2.4,1.3c-1,0-1.8-0.3-2.4-1
		c-0.6-0.7-0.9-1.7-0.9-2.9c0-1.3,0.3-2.3,1-3.1c0.7-0.8,1.5-1.2,2.6-1.2c1,0,1.7,0.4,2.1,1.1h0v-4.7h2.4V107.4z"/>
	<path class="st1" d="M176.5,102.7c0-1.1-0.5-1.7-1.4-1.7c-0.4,0-0.7,0.2-1,0.5c-0.3,0.3-0.5,0.7-0.5,1.2H176.5z M178.7,104.2h-5.1
		c0.1,1.1,0.8,1.7,2.2,1.7c0.9,0,1.6-0.2,2.3-0.6v1.8c-0.7,0.4-1.7,0.6-2.8,0.6c-1.3,0-2.3-0.4-3-1.1c-0.7-0.7-1.1-1.7-1.1-2.9
		c0-1.3,0.4-2.3,1.1-3.1c0.8-0.8,1.7-1.1,2.8-1.1c1.1,0,2,0.3,2.7,1c0.6,0.7,0.9,1.6,0.9,2.8V104.2z"/>
	<path class="st1" d="M186.6,99.6l-2.9,7.9h-2.8l-2.8-7.9h2.6l1.4,4.8c0.2,0.5,0.2,1,0.3,1.4h0c0-0.4,0.1-0.8,0.3-1.3l1.4-4.9H186.6
		z"/>
	<path class="st1" d="M191.2,102.7c0-1.1-0.5-1.7-1.4-1.7c-0.4,0-0.7,0.2-1,0.5c-0.3,0.3-0.5,0.7-0.5,1.2H191.2z M193.5,104.2h-5.1
		c0.1,1.1,0.8,1.7,2.2,1.7c0.9,0,1.6-0.2,2.3-0.6v1.8c-0.7,0.4-1.7,0.6-2.8,0.6c-1.3,0-2.3-0.4-3-1.1c-0.7-0.7-1.1-1.7-1.1-2.9
		c0-1.3,0.4-2.3,1.1-3.1c0.8-0.8,1.7-1.1,2.8-1.1c1.1,0,2,0.3,2.7,1c0.6,0.7,0.9,1.6,0.9,2.8V104.2z"/>
	<path class="st1" d="M196.2,104.8c0,0.3,0.1,0.6,0.2,0.8c0.2,0.2,0.4,0.3,0.6,0.3c0.1,0,0.3,0,0.4,0c0.1,0,0.3-0.1,0.4-0.1v1.7
		c-0.3,0.1-0.6,0.1-0.9,0.2c-0.3,0-0.7,0.1-1,0.1c-0.3,0-0.6-0.1-0.9-0.2c-0.3-0.1-0.5-0.3-0.7-0.5c-0.2-0.2-0.3-0.4-0.4-0.7
		c-0.1-0.3-0.2-0.6-0.2-1v-9.5h2.4V104.8z"/>
	<path class="st1" d="M201.6,101.2c-0.6,0-1,0.2-1.3,0.6c-0.3,0.4-0.5,1-0.5,1.7c0,1.5,0.6,2.3,1.8,2.3c1.2,0,1.7-0.8,1.7-2.3
		C203.4,102,202.8,101.2,201.6,101.2z M201.6,107.6c-1.3,0-2.3-0.4-3.1-1.1c-0.7-0.7-1.1-1.7-1.1-3c0-1.3,0.4-2.3,1.2-3
		c0.8-0.7,1.8-1.1,3.2-1.1c1.3,0,2.3,0.4,3.1,1.1c0.7,0.7,1.1,1.7,1.1,2.9c0,1.3-0.4,2.3-1.1,3.1
		C203.9,107.2,202.9,107.6,201.6,107.6z"/>
	<path class="st1" d="M208.7,103.3v0.6c0,0.5,0.1,1,0.4,1.3c0.3,0.3,0.7,0.5,1.1,0.5c0.6,0,1-0.2,1.3-0.6c0.3-0.4,0.5-1,0.5-1.8
		c0-1.4-0.5-2.1-1.6-2.1c-0.5,0-0.9,0.2-1.2,0.6C208.9,102.2,208.7,102.7,208.7,103.3z M208.8,106.5L208.8,106.5l0,4.5h-2.4V99.6
		h2.4v1.2h0c0.6-0.9,1.4-1.4,2.5-1.4c1,0,1.8,0.4,2.4,1c0.6,0.7,0.8,1.6,0.8,2.8c0,1.3-0.3,2.4-1,3.2c-0.6,0.8-1.5,1.2-2.6,1.2
		C210,107.6,209.3,107.2,208.8,106.5z"/>
	<path class="st1" d="M227.5,107.4h-2.4v-4.5c0-1.1-0.4-1.7-1.3-1.7c-0.4,0-0.7,0.2-1,0.5c-0.3,0.3-0.4,0.8-0.4,1.3v4.4H220v-4.5
		c0-1.1-0.4-1.7-1.2-1.7c-0.4,0-0.7,0.2-1,0.5c-0.2,0.3-0.4,0.8-0.4,1.3v4.4H215v-7.9h2.4v1.2h0c0.2-0.4,0.6-0.8,1.1-1
		c0.5-0.3,0.9-0.4,1.5-0.4c1.1,0,1.9,0.5,2.3,1.5c0.6-1,1.5-1.5,2.6-1.5c1.7,0,2.6,1.1,2.6,3.2V107.4z"/>
	<path class="st1" d="M233.1,102.7c0-1.1-0.5-1.7-1.4-1.7c-0.4,0-0.7,0.2-1,0.5c-0.3,0.3-0.5,0.7-0.5,1.2H233.1z M235.4,104.2h-5.1
		c0.1,1.1,0.8,1.7,2.2,1.7c0.9,0,1.6-0.2,2.3-0.6v1.8c-0.7,0.4-1.7,0.6-2.8,0.6c-1.3,0-2.3-0.4-3-1.1c-0.7-0.7-1.1-1.7-1.1-2.9
		c0-1.3,0.4-2.3,1.1-3.1c0.8-0.8,1.7-1.1,2.8-1.1c1.1,0,2,0.3,2.7,1c0.6,0.7,0.9,1.6,0.9,2.8V104.2z"/>
	<path class="st1" d="M243.3,107.4h-2.4v-4.4c0-1.2-0.4-1.8-1.3-1.8c-0.4,0-0.8,0.2-1,0.5c-0.3,0.3-0.4,0.7-0.4,1.2v4.5h-2.4v-7.9
		h2.4v1.2h0c0.6-1,1.4-1.4,2.5-1.4c1.7,0,2.6,1.1,2.6,3.2V107.4z"/>
	<path class="st1" d="M248.9,107.3c-0.4,0.2-0.9,0.3-1.6,0.3c-1.7,0-2.6-0.9-2.6-2.7v-3.6h-1.3v-1.8h1.3v-1.7l2.4-0.7v2.4h1.8v1.8
		h-1.8v3.2c0,0.8,0.3,1.2,1,1.2c0.3,0,0.5-0.1,0.8-0.2V107.3z"/>
</g>
</svg>
