<?xml version="1.0" encoding="utf-8"?>
<!-- Generator: Adobe Illustrator 22.1.0, SVG Export Plug-In . SVG Version: 6.00 Build 0)  -->
<svg version="1.1" id="Capa_1" xmlns="http://www.w3.org/2000/svg" xmlns:xlink="http://www.w3.org/1999/xlink" x="0px" y="0px"
	 viewBox="0 0 250 166" style="enable-background:new 0 0 250 166;" xml:space="preserve">
<style type="text/css">
	.st0{fill-rule:evenodd;clip-rule:evenodd;fill:#9A9A9A;}
	.st1{clip-path:url(#SVGID_2_);fill:url(#SVGID_3_);}
	.st2{fill-rule:evenodd;clip-rule:evenodd;fill:#C10D19;}
	.st3{fill:#C10D19;}
</style>
<g>
	<path class="st0" d="M5.8,99.3l6.9-12.7l4.4,6.2l24.3-27.6l10.6-14.6l2.2,1.7L66,42l8.9-5.1l1.1,17.5l2.4,8.2L57.5,80l-2.8-0.8
		l-1.9,3.3l-2.4-0.6l-8.3,6.5L36,93.2l-2-1.5l-7.7,4.6l-3.5,4.2l-2.3,0.9c0,0-0.3-2.3,0.5-3.1c0.8-0.8,6.1-9.9,6.1-9.9l-3.5,0.2
		l0.1,1.8l-5.2,10.3l-3.7-0.8L5.8,99.3z M81.1,61.8l4.2-0.7l2.9-0.5l0.1-0.7l4.9,0.1l0.3-3.2l4.5-6l3.7,0.2l0.9-1.9l2.5-0.9l0.9-1.7
		l3.7-3.4l0.2-2l-4.4,0.3L86.8,53.8L81.1,61.8z M87,84.7l1.4,3.4h4.2c0,0-0.6,3.7,0,3.7c0.6,0,5.5-5.4,5.5-5.4l1.7,2.7l4.2-5.8
		l1.4,0.8l1.5-4.4l6.3-0.9l0.2-2.4c0,0,9.6-1.2,8.8-1.1c-0.8,0.1,1.8,7.5,1.8,7.5l10.8-18.5l2.2,4.3l1.2-1.8l2.8,1.6l3.4-9.8
		l7.2-10.6l-0.1,2.6l1.7,0.5l4.2-10.8L146,47.5l0.2-2.6l1.5-4.5l7.6,0.5l-3.3-2.9l-3.8,0.6l-3.2-7.9l-13.8,17.7l-4.9-5l-24.6,23.1
		C101.8,66.3,87.1,84.9,87,84.7z M73.4,83.2l-1.5,2.9l4.6,0.7l-0.3,4.8l4.1-0.2l2.9-11.1L73.4,83.2z M162.1,89.6l3.4,0.6l1.6,0.3
		l0.6,1.5h2.8l1.9,1.6l0.7-2.3l7.8-16.2l5.1,2.8l4.3-4.1l0.9-0.9l0.6,1.9l6.2,0.9l2.2,1.2l0.9-1.1l2.4,1.8l7.4-10.2l7.2,0.3l5.1,1.4
		l3.2,4.6l4.5,0.2l16.9,12.5l-14.1-32.8l-4.2-4.2l-3.1-10l-2.1-2.9l-2.7,0.1l-1.8-5l-4.1-1.7l0.9-2.7l-3.2,0.5l-0.7-2.7h-1.8L209,21
		c0,0-1.6,0.1-2.2,0.3c-0.6,0.2-30.5,17.2-30.5,17.2l-12.1,17.3l1.8,8.5l-2.9,7.9l3.3,8.2L162.1,89.6z"/>
	<g>
		<defs>
			<path id="SVGID_1_" d="M167.9,52.7l4.2,0.1l8.6-12.4l-3.1,1.7l-5.8,8.7L167.9,52.7z M176.7,68l3.5-6.9l4.9-6.4l1.4,0.1l-0.3,1.8
				l-3.7,5.2L176.7,68z M174.6,68.4l3.4-6.2l-2.6,0.9h-2.9l-1.7-2.2l-0.8,3.7l-4,3.1l5.1,0.5L174.6,68.4z M196.9,41.6l-3.6,5.1
				l5.3-2.2l0.8,2.5l-5.5,6.2l-0.7,10.2l-3.3,5.3l4.4-3.8l2.5,1.4l4.5-6.9l-1.7,0.1l-3.3,3.3l5.2-11.5l-3.5,2.8l5-7.8l-2.4-3.2
				L196.9,41.6z M164.5,64.4l-4.5-7l4.3-3.6l14.6-23.7l1.2-0.3l2.2-3.5c0,0,0.6,0.6,1.5-0.2c0.8-0.8,4.5-6.8,4.5-6.8l5-3.6l4.7-4.4
				l1.2,0.7l2.6,4.2l1,0.8l-4.9,7.5l6.2-6.4l3.1,2.9l-0.1,2.2l-1.9,2.1l5,3.4l-3.4,6.7l4.8-4l0.3,3.4l-6.7,7.3l8-5.6l6,5.3l-1,3
				l-6.1,4.3l-0.6,6.6l-2.2-1l-2,1.8l-0.2,2.9l0.2,2.3l5.4-3.4l1.1,1.6l-1.8,3.3l4,3.5l6.7,1l3.5,5.9l6.3-0.4l-0.3,3.2l-3.7-1.8
				l-2.6-0.1l-3.4-4.3l-2.1,0.4l-2.3-2.9l-2.6,0.1l-1-1.6l-3.8,0.7l-2.5,2.9l-1.4-2.6l-6.9,8.2l-0.9-2.2l-2.5,2.7l-0.9-6.1l-2.3,0.2
				l-7.8,7.1l-1.2,1.7l-2.5-0.8l-0.4,2.5L172.9,91l-2.9-2.6l5.7-6.3l0.3-2.1l-3.4,3.1l3.7-7.8l-0.8-2.1l-1.7,0.6l-11.8,15.9l2.1-7
				l-0.3-5.2h-3.4l-1.5-7.3l3.7-0.2L164.5,64.4z M131.5,63.1l1.8-6l-2.9,0.2l10.2-13.9l-0.3,2.3l2,0.7l-5.2,5.5l5-3.1l-0.6,2.6
				l-3.2,3.7l0.1,3.8l-3.4,3.6l-4,1L131.5,63.1z M116.7,77.6l1.3-4.5l12.1-8.8l0.9,0.2l-8.7,11.4l-2.3,0.6L116.7,77.6z M74.4,85.6
				l-0.1-1.7l-3.3,0.1c0,0-0.5-1.3,0-1.3c0.5,0,6.2-4,6.2-4l7-0.2L95,66.4l11.5-7.4l17-14.7l2.8-1l-0.5,6.2l-4.6,5l-0.6,2.6l2,2.2
				v4.3l0.9,1.3l-6.2,5.7l-0.7,2.9l-5.3,2.8l-0.1,2.7l-2.6,0.3l-1.5,0.5v3.1l-1.3,0.4l-0.9,2.6l-0.7-2.8l-3.2,3.2l-2.2-3.2l2.2-1.8
				v-1l-2.5,0.5l-0.9,2.3l-1.3,2.3l-4,4.9L89.1,89l7.4-8.2l6.6-3.6l-0.2,1.6l2.6-0.4l-1.3,3.1L107,79l2-4.2l4.9-1.9l0.2-2.6l3.7-5.5
				l-0.1-3.4L97.5,78.1l0.8-3.3l-5.9,5.5L88.9,87l-5.4,0.1L83,94.6l-1.2,0.1l-0.7-3.9H80l-0.8,1.8l-1.1-0.4l2.4-7.7l-4.3,2.5
				l-0.5-1.8L74.4,85.6z M122.2,54.5l0.6,3.1l0.1,1.3l1.7-1.9l4-0.6l5.9-8.5l6.5-8.4l3.9-9.2l-4.3,2.6l-8.4,9.3l-3.7,5.5l-5.2,5.6
				L122.2,54.5z M81.3,61.8l2.9-7l8.7-9.6l9-2.3l5.2-2l0.9,0.8l-4.1,2.5l-3.3,3.2l-0.5,2.6l-7.7,1.9l-3.5,3.7l-0.2,3.9l-4-0.2
				L81.3,61.8z M8.2,97.9l9.9-7.2l21.1-28.3L52,50.6l-2.5,6.5L62,45.3l9-8.7l3.8-1.2l-3.3,8.2L58,64.2L52.2,68h-4.1l3.7-4.9l0.6-3.8
				l9.4-11.5l-1.3,0.3l-9.5,11.9l-0.5,2.6L46,68.7l2.8,0.2l-5.2,6.5l-0.7,4.3l2.4-2.6l1.7-4.4l4.4-1.3L49.7,74l-2.8,1.4l-0.6,3.4
				l-6.7,7.5l-2.1,4.5l-4,2.1l-3.6,4.1l-5.6,0.5l9.5-14l0.7-3.1l4.7-6.7l0.9-3.3l-3.5,4l-3.8,6.6l-6.1,7.9l-2.6,2.2l2.3-4.6L22,91.8
				l-6.2,8.6l-6.3-0.1l-5.4,0.9L1,101.8l2.5-5.2l7.3-8.7l1.7-1l-1,3.5L8.7,95L8.2,97.9z"/>
		</defs>
		<clipPath id="SVGID_2_">
			<use xlink:href="#SVGID_1_"  style="overflow:visible;"/>
		</clipPath>
		<linearGradient id="SVGID_3_" gradientUnits="userSpaceOnUse" x1="116.7932" y1="101.7617" x2="116.7932" y2="11.3071">
			<stop  offset="0" style="stop-color:#C10D19"/>
			<stop  offset="0.27" style="stop-color:#C10D19"/>
			<stop  offset="1" style="stop-color:#D57D1B"/>
		</linearGradient>
		<rect x="1" y="11.3" class="st1" width="231.7" height="90.5"/>
	</g>
	<path class="st2" d="M207.2,121.1h4.2c2.7,0,4.4-0.1,5.1-0.3c0.7-0.2,1.2-0.5,1.6-1c0.4-0.5,0.6-1.1,0.6-1.8c0-0.8-0.3-1.4-0.8-1.9
		c-0.5-0.5-1.2-0.8-2.2-0.9c-0.5,0-1.9-0.1-4.2-0.1h-4.4V121.1z M201.5,134.9v-23.8h12c3,0,5.2,0.2,6.6,0.6c1.4,0.4,2.5,1.2,3.3,2.3
		c0.8,1.1,1.2,2.3,1.2,3.8c0,1.8-0.6,3.3-1.9,4.4c-1.2,1.2-3.1,1.9-5.6,2.2c1.2,0.6,2.3,1.3,3.1,2c0.8,0.7,1.9,2,3.2,3.9l3.5,4.6
		h-6.8l-4.1-5.2c-1.5-1.9-2.5-3-3-3.5c-0.5-0.5-1.1-0.8-1.7-1c-0.6-0.2-1.6-0.3-2.9-0.3h-1.2v9.9H201.5z M175.1,134.9v-23.8h20.9v4
		h-15.2v5.3H195v4h-14.2v6.5h15.8v4H175.1z M152.3,115.1v15.8h4.3c1.6,0,2.7-0.1,3.5-0.2c0.9-0.2,1.7-0.5,2.3-1
		c0.6-0.5,1.1-1.2,1.5-2.3c0.4-1.1,0.6-2.5,0.6-4.4c0-1.8-0.2-3.3-0.6-4.2c-0.4-1-0.9-1.8-1.6-2.3c-0.7-0.6-1.6-0.9-2.6-1.1
		c-0.8-0.2-2.4-0.2-4.7-0.2H152.3z M146.6,111.1H157c2.3,0,4.1,0.1,5.4,0.5c1.7,0.4,3.1,1.1,4.3,2.2c1.2,1,2.1,2.3,2.7,3.9
		c0.6,1.5,0.9,3.4,0.9,5.6c0,2-0.3,3.6-0.9,5.1c-0.7,1.7-1.7,3.1-3,4.2c-1,0.8-2.3,1.4-4,1.9c-1.3,0.3-2.9,0.5-5.1,0.5h-10.7V111.1z
		 M122.7,134.9v-23.6h5.7v19.6h14.2v4H122.7z M94,111.1h5.7V124c0,2,0.1,3.4,0.2,4c0.2,1,0.8,1.8,1.7,2.3c0.9,0.6,2.2,0.9,3.8,0.9
		c1.6,0,2.8-0.3,3.7-0.8c0.8-0.6,1.3-1.2,1.5-2.1c0.2-0.8,0.3-2.2,0.3-4.1v-13.2h5.7v12.5c0,2.9-0.2,4.9-0.5,6.1
		c-0.3,1.2-0.9,2.2-1.7,3c-0.8,0.8-1.9,1.5-3.3,1.9c-1.4,0.5-3.2,0.7-5.4,0.7c-2.7,0-4.7-0.3-6.1-0.8c-1.4-0.5-2.5-1.2-3.3-2
		c-0.8-0.8-1.3-1.7-1.6-2.6c-0.4-1.4-0.6-3.4-0.6-6V111.1z M68,123c0,2.7,0.7,4.7,2.2,6.1c1.5,1.4,3.4,2.1,5.6,2.1
		c2.3,0,4.1-0.7,5.6-2.1c1.5-1.4,2.2-3.5,2.2-6.2c0-2.7-0.7-4.8-2.1-6.1c-1.4-1.3-3.3-2-5.7-2c-2.4,0-4.3,0.7-5.7,2
		C68.7,118.2,68,120.2,68,123z M62.1,123.1c0-2.4,0.4-4.5,1.3-6.1c0.6-1.2,1.5-2.3,2.6-3.3c1.1-1,2.3-1.7,3.7-2.1
		c1.8-0.6,3.8-0.9,6.1-0.9c4.2,0,7.5,1.1,10,3.3c2.5,2.2,3.7,5.2,3.7,9.1c0,3.8-1.2,6.9-3.7,9c-2.5,2.2-5.8,3.3-9.9,3.3
		c-4.2,0-7.5-1.1-10-3.2C63.4,129.9,62.1,126.9,62.1,123.1z M40.5,124.5v6.4h5.3c2.1,0,3.4,0,3.9-0.1c0.8-0.1,1.5-0.4,2.1-0.9
		c0.5-0.5,0.8-1.2,0.8-2c0-0.7-0.2-1.3-0.6-1.8c-0.4-0.5-1-0.9-1.8-1.1c-0.8-0.2-2.5-0.3-5.1-0.3H40.5z M40.5,115v5.5h3.7
		c2.2,0,3.6,0,4.1-0.1c1-0.1,1.7-0.4,2.3-0.8c0.6-0.5,0.8-1.1,0.8-1.9c0-0.7-0.2-1.3-0.7-1.8c-0.5-0.5-1.2-0.7-2.2-0.8
		c-0.6-0.1-2.2-0.1-4.9-0.1H40.5z M34.8,111.1h11.3c2.2,0,3.9,0.1,5,0.2c1.1,0.2,2.1,0.5,2.9,1c0.9,0.5,1.6,1.2,2.2,2
		c0.6,0.8,0.9,1.8,0.9,2.8c0,1.1-0.4,2.1-1.1,3.1c-0.7,0.9-1.7,1.6-2.9,2.1c1.7,0.4,3,1.1,4,2.2c0.9,1,1.4,2.2,1.4,3.6
		c0,1.1-0.3,2.1-0.9,3.2c-0.6,1-1.4,1.8-2.4,2.5c-1,0.6-2.3,1-3.8,1.1c-0.9,0.1-3.2,0.1-6.9,0.2h-9.6V111.1z"/>
	<path class="st2" d="M241.8,154.6v-7.4h7.1v1.3h-5.1v1.6h4.8v1.2h-4.8v2h5.3v1.3H241.8z M236.1,151.8l1.9,0.5
		c-0.3,0.8-0.8,1.4-1.4,1.8c-0.7,0.4-1.5,0.6-2.5,0.6c-1.3,0-2.3-0.3-3.1-1c-0.8-0.7-1.2-1.6-1.2-2.8c0-1.2,0.4-2.2,1.2-2.9
		c0.8-0.7,1.9-1,3.2-1c1.2,0,2.1,0.3,2.8,0.8c0.4,0.3,0.8,0.8,1,1.4l-1.9,0.4c-0.1-0.4-0.3-0.7-0.7-0.9c-0.4-0.2-0.8-0.3-1.3-0.3
		c-0.7,0-1.3,0.2-1.7,0.6c-0.4,0.4-0.7,1-0.7,1.9c0,0.9,0.2,1.6,0.6,2c0.4,0.4,1,0.6,1.7,0.6c0.5,0,0.9-0.1,1.3-0.4
		C235.7,152.8,235.9,152.4,236.1,151.8z M218.2,154.6v-7.4h1.9l3.9,5v-5h1.8v7.4h-1.9l-3.8-4.8v4.8H218.2z M211.4,151.6l-1.3-2.8
		l-1.3,2.8H211.4z M215,154.6h-2.1l-0.8-1.7h-3.8l-0.8,1.7h-2l3.7-7.4h2L215,154.6z M194.6,154.6v-7.4h1.9l3.9,5v-5h1.8v7.4h-1.9
		l-3.8-4.8v4.8H194.6z M188.6,154.6v-7.4h1.9v7.4H188.6z M178.3,154.6v-7.4h6.5v1.3h-4.6v1.8h4v1.3h-4v3.1H178.3z M167.4,150.8
		c0,0.8,0.3,1.5,0.7,1.9c0.5,0.4,1.1,0.6,1.9,0.6c0.8,0,1.4-0.2,1.9-0.6c0.5-0.4,0.7-1.1,0.7-1.9c0-0.8-0.2-1.5-0.7-1.9
		c-0.5-0.4-1.1-0.6-1.9-0.6c-0.8,0-1.4,0.2-1.9,0.6C167.6,149.4,167.4,150,167.4,150.8z M165.4,150.9c0-0.8,0.1-1.4,0.4-1.9
		c0.2-0.4,0.5-0.7,0.9-1c0.4-0.3,0.8-0.5,1.2-0.7c0.6-0.2,1.3-0.3,2.1-0.3c1.4,0,2.5,0.3,3.4,1c0.8,0.7,1.3,1.6,1.3,2.8
		c0,1.2-0.4,2.1-1.3,2.8c-0.8,0.7-2,1-3.3,1c-1.4,0-2.5-0.3-3.4-1C165.8,153,165.4,152.1,165.4,150.9z M155.9,150.3h1.4
		c0.9,0,1.5,0,1.7-0.1c0.2-0.1,0.4-0.2,0.5-0.3c0.1-0.1,0.2-0.3,0.2-0.6c0-0.3-0.1-0.5-0.3-0.6c-0.2-0.2-0.4-0.2-0.7-0.3
		c-0.2,0-0.6,0-1.4,0h-1.5V150.3z M154,154.6v-7.4h4c1,0,1.8,0.1,2.2,0.2c0.5,0.1,0.8,0.4,1.1,0.7c0.3,0.3,0.4,0.7,0.4,1.2
		c0,0.6-0.2,1-0.6,1.4c-0.4,0.4-1,0.6-1.9,0.7c0.4,0.2,0.8,0.4,1,0.6c0.3,0.2,0.6,0.6,1.1,1.2l1.2,1.4h-2.3l-1.4-1.6
		c-0.5-0.6-0.8-0.9-1-1.1c-0.2-0.2-0.4-0.3-0.6-0.3c-0.2-0.1-0.5-0.1-1-0.1h-0.4v3.1H154z M148.2,151.8l1.9,0.5
		c-0.3,0.8-0.8,1.4-1.4,1.8c-0.7,0.4-1.5,0.6-2.5,0.6c-1.3,0-2.3-0.3-3.1-1c-0.8-0.7-1.2-1.6-1.2-2.8c0-1.2,0.4-2.2,1.2-2.9
		c0.8-0.7,1.9-1,3.2-1c1.2,0,2.1,0.3,2.8,0.8c0.4,0.3,0.8,0.8,1,1.4l-1.9,0.4c-0.1-0.4-0.3-0.7-0.7-0.9c-0.4-0.2-0.8-0.3-1.3-0.3
		c-0.7,0-1.3,0.2-1.7,0.6c-0.4,0.4-0.7,1-0.7,1.9c0,0.9,0.2,1.6,0.7,2c0.4,0.4,1,0.6,1.7,0.6c0.5,0,0.9-0.1,1.3-0.4
		C147.8,152.8,148.1,152.4,148.2,151.8z M136.2,154.6v-7.4h1.9v7.4H136.2z M122.9,154.6v-7.4h2.9l1.7,5.1l1.7-5.1h2.9v7.4h-1.8v-5.8
		l-1.9,5.8h-1.9l-1.9-5.8v5.8H122.9z M107.5,154.6v-7.4h6.5v1.3h-4.6v1.8h4v1.3h-4v3.1H107.5z M96.5,150.8c0,0.8,0.3,1.5,0.7,1.9
		c0.5,0.4,1.1,0.6,1.9,0.6c0.8,0,1.4-0.2,1.9-0.6c0.5-0.4,0.7-1.1,0.7-1.9c0-0.8-0.2-1.5-0.7-1.9c-0.5-0.4-1.1-0.6-1.9-0.6
		c-0.8,0-1.4,0.2-1.9,0.6C96.7,149.4,96.5,150,96.5,150.8z M94.5,150.9c0-0.8,0.1-1.4,0.4-1.9c0.2-0.4,0.5-0.7,0.9-1
		c0.4-0.3,0.8-0.5,1.2-0.7c0.6-0.2,1.3-0.3,2.1-0.3c1.4,0,2.5,0.3,3.4,1c0.8,0.7,1.3,1.6,1.3,2.8c0,1.2-0.4,2.1-1.3,2.8
		c-0.8,0.7-2,1-3.3,1c-1.4,0-2.5-0.3-3.4-1C94.9,153,94.5,152.1,94.5,150.9z M78.7,154.6v-7.4h7.1v1.3h-5.1v1.6h4.8v1.2h-4.8v2h5.3
		v1.3H78.7z M70.5,154.6v-6.2h-2.8v-1.3h7.6v1.3h-2.8v6.2H70.5z M56.5,147.1h1.9v4c0,0.6,0,1,0.1,1.2c0.1,0.3,0.3,0.5,0.6,0.7
		c0.3,0.2,0.7,0.3,1.3,0.3c0.5,0,1-0.1,1.2-0.3c0.3-0.2,0.4-0.4,0.5-0.6c0.1-0.3,0.1-0.7,0.1-1.3v-4.1h1.9v3.9
		c0,0.9-0.1,1.5-0.2,1.9c-0.1,0.4-0.3,0.7-0.6,0.9c-0.3,0.3-0.7,0.5-1.1,0.6c-0.5,0.1-1.1,0.2-1.8,0.2c-0.9,0-1.6-0.1-2.1-0.2
		c-0.5-0.2-0.8-0.4-1.1-0.6c-0.3-0.3-0.5-0.5-0.5-0.8c-0.1-0.4-0.2-1-0.2-1.9V147.1z M48.3,154.6v-6.2h-2.8v-1.3h7.6v1.3h-2.8v6.2
		H48.3z M40.2,154.6v-7.4h1.9v7.4H40.2z M32.1,154.6v-6.2h-2.8v-1.3h7.6v1.3H34v6.2H32.1z M18.4,152.1l1.9-0.1
		c0.1,0.5,0.3,0.8,0.7,1.1c0.3,0.2,0.8,0.3,1.4,0.3c0.6,0,1.1-0.1,1.4-0.3c0.3-0.2,0.5-0.4,0.5-0.7c0-0.2-0.1-0.3-0.2-0.4
		c-0.1-0.1-0.4-0.2-0.7-0.3c-0.2-0.1-0.7-0.2-1.5-0.3c-1-0.2-1.8-0.4-2.2-0.7c-0.6-0.4-0.9-0.9-0.9-1.5c0-0.4,0.1-0.7,0.4-1.1
		c0.3-0.3,0.7-0.6,1.2-0.8c0.5-0.2,1.1-0.3,1.9-0.3c1.2,0,2.1,0.2,2.7,0.6c0.6,0.4,0.9,1,0.9,1.6l-1.9,0.1c-0.1-0.4-0.3-0.7-0.5-0.8
		c-0.3-0.2-0.7-0.2-1.2-0.2c-0.6,0-1,0.1-1.3,0.3c-0.2,0.1-0.3,0.3-0.3,0.5c0,0.2,0.1,0.3,0.3,0.4c0.2,0.2,0.8,0.3,1.8,0.5
		c0.9,0.2,1.6,0.3,2.1,0.5c0.4,0.2,0.8,0.4,1.1,0.8c0.3,0.3,0.4,0.7,0.4,1.2c0,0.4-0.2,0.8-0.5,1.2c-0.3,0.4-0.7,0.6-1.3,0.8
		c-0.6,0.2-1.2,0.3-2.1,0.3c-1.2,0-2.1-0.2-2.8-0.7C18.9,153.6,18.5,153,18.4,152.1z M7.1,154.6v-7.4h1.9l3.9,5v-5h1.8v7.4h-1.9
		l-3.8-4.8v4.8H7.1z M1.1,154.6v-7.4H3v7.4H1.1z"/>
	<g>
		<path class="st3" d="M235.7,124.8c0.8,0,1.6,0.2,2.4,0.6c0.8,0.4,1.4,1,1.8,1.8c0.4,0.8,0.7,1.6,0.7,2.4c0,0.8-0.2,1.6-0.6,2.4
			c-0.4,0.8-1,1.4-1.8,1.8c-0.8,0.4-1.6,0.6-2.4,0.6c-0.8,0-1.6-0.2-2.4-0.6c-0.8-0.4-1.4-1-1.8-1.8c-0.4-0.8-0.6-1.6-0.6-2.4
			c0-0.8,0.2-1.7,0.7-2.4c0.4-0.8,1-1.4,1.8-1.8C234.1,125,234.9,124.8,235.7,124.8z M235.7,125.6c-0.7,0-1.3,0.2-2,0.5
			c-0.6,0.4-1.2,0.8-1.5,1.5c-0.4,0.6-0.5,1.3-0.5,2c0,0.7,0.2,1.4,0.5,2c0.4,0.6,0.9,1.1,1.5,1.5c0.6,0.4,1.3,0.5,2,0.5
			c0.7,0,1.4-0.2,2-0.5c0.6-0.4,1.1-0.9,1.5-1.5c0.4-0.6,0.5-1.3,0.5-2c0-0.7-0.2-1.4-0.5-2c-0.4-0.7-0.9-1.2-1.5-1.5
			C237,125.7,236.4,125.6,235.7,125.6z M233.6,132.3v-5.2h1.8c0.6,0,1.1,0,1.3,0.1c0.3,0.1,0.5,0.3,0.7,0.5c0.2,0.2,0.2,0.5,0.2,0.8
			c0,0.4-0.1,0.7-0.4,1c-0.3,0.3-0.6,0.4-1.1,0.5c0.2,0.1,0.3,0.2,0.4,0.3c0.2,0.2,0.5,0.6,0.8,1l0.6,1h-1l-0.5-0.8
			c-0.4-0.6-0.7-1.1-0.9-1.2c-0.2-0.1-0.4-0.2-0.7-0.2h-0.5v2.2H233.6z M234.4,129.4h1c0.5,0,0.8-0.1,1-0.2c0.2-0.1,0.3-0.3,0.3-0.6
			c0-0.2,0-0.3-0.1-0.4s-0.2-0.2-0.4-0.3c-0.2-0.1-0.4-0.1-0.8-0.1h-1V129.4z"/>
	</g>
</g>
</svg>
