<?xml version="1.0" encoding="utf-8"?>
<!-- Generator: Adobe Illustrator 22.1.0, SVG Export Plug-In . SVG Version: 6.00 Build 0)  -->
<svg version="1.1" id="Capa_1" xmlns="http://www.w3.org/2000/svg" xmlns:xlink="http://www.w3.org/1999/xlink" x="0px" y="0px"
	 viewBox="0 0 250 166" style="enable-background:new 0 0 250 166;" xml:space="preserve">
<style type="text/css">
	.st0{fill-rule:evenodd;clip-rule:evenodd;fill:#181713;}
	.st1{fill-rule:evenodd;clip-rule:evenodd;fill:#D78800;}
	.st2{fill:#181713;}
	.st3{fill:#D78800;}
	.st4{fill-rule:evenodd;clip-rule:evenodd;fill:none;stroke:#000000;stroke-width:0.1339;stroke-miterlimit:2.6131;}
</style>
<g>
	<path class="st0" d="M119.4,84h9.2l0.1-19.9h14l0-9.4h-14l0-10.9h14.9l0-9.6h-24.1L119.4,84L119.4,84z M20,62.1l3.7-18.4l3.9,18.4
		H20L20,62.1z M6.3,84h9.4l2.6-12.3h10.9l2.7,12.2L42.1,84L30,34.3h-12L6.3,84L6.3,84z M190.6,84h8.3l1.6-37.8l7.1,37.6h7.7
		l8.7-37.3l1,37.3h8.8l-1.9-49.6h-12l-8,33.2l-6.4-33.2l-12.3,0.1C191.9,50.7,190.6,67.6,190.6,84L190.6,84z M94.9,75.6
		c-8.1-0.1-8.7-10.2-8.7-17.5c0-7.3,1.3-15.6,8.8-15.5c7.5,0.1,9.5,7.6,9.4,15.5C104.3,66,103.1,75.6,94.9,75.6L94.9,75.6z
		 M76.4,58.1C76,71.5,81.9,84.5,94.9,84.5c14.3,0,19-13.1,19.2-26.4c0.2-13.3-5.8-24.8-19-24.8C81.8,33.2,76.8,43,76.4,58.1
		L76.4,58.1z M166.3,75.6c-8.1-0.1-8.7-10.2-8.7-17.5c0-7.3,1.3-15.6,8.8-15.5c7.5,0.1,9.5,7.6,9.4,15.5
		C175.7,66,174.4,75.6,166.3,75.6L166.3,75.6z M147.8,58.1c-0.4,13.4,5.5,26.4,18.5,26.4c14.3,0,19-13.1,19.2-26.4
		c0.2-13.3-5.8-24.8-19-24.8C153.2,33.2,148.2,43,147.8,58.1z"/>
	<rect x="4.8" y="92.2" class="st1" width="229.4" height="2.9"/>
	<rect x="4.8" y="136.7" class="st1" width="229.4" height="2.9"/>
	<path class="st2" d="M9.2,111.4H6.8c0-0.4-0.2-1.4-0.7-3H2.9c-0.5,1.6-0.7,2.6-0.7,3H0c0-0.2,0.6-1.9,1.7-5.1
		c1.1-3.2,1.7-5,1.7-5.3h2.7c0,0.3,0.5,2.1,1.5,5.2C8.7,109.3,9.2,111.1,9.2,111.4L9.2,111.4z M5.8,106.8c-0.8-2.8-1.2-4.3-1.2-4.5
		H4.5c0,0.2-0.4,1.7-1.3,4.5H5.8z"/>
	<path class="st2" d="M15,109.2c0,1.6-1.1,2.4-3.2,2.4c-0.8,0-1.5-0.1-2-0.3l0.2-1.6c0.6,0.2,1.2,0.4,1.8,0.4c0.6,0,1-0.1,1.2-0.2
		c0.2-0.1,0.3-0.3,0.3-0.5c0-0.4-0.4-0.8-1.2-1.1c-0.7-0.3-1.2-0.6-1.5-0.9c-0.4-0.4-0.7-0.9-0.7-1.5c0-0.7,0.2-1.3,0.7-1.7
		c0.5-0.4,1.2-0.7,2.1-0.7c0.8,0,1.5,0.1,2,0.3l-0.2,1.6c-0.5-0.2-1.1-0.4-1.8-0.4c-0.8,0-1.2,0.2-1.2,0.7c0,0.2,0.1,0.4,0.3,0.5
		c0.2,0.1,0.5,0.3,1,0.5c0.7,0.3,1.2,0.6,1.5,0.9C14.7,108,15,108.5,15,109.2z"/>
	<path class="st2" d="M23.2,107.4c0,1.3-0.4,2.4-1.1,3.2c-0.7,0.8-1.6,1.1-2.6,1.1c-1,0-1.8-0.3-2.5-1c-0.7-0.7-1-1.7-1-2.9
		c0-1.4,0.4-2.4,1.1-3.2c0.8-0.8,1.6-1.1,2.6-1.1c1,0,1.8,0.3,2.5,1C22.9,105.1,23.2,106.1,23.2,107.4L23.2,107.4z M21.3,107.6
		c0-0.8-0.2-1.4-0.5-2c-0.3-0.5-0.8-0.8-1.3-0.8c-0.5,0-0.9,0.2-1.2,0.7c-0.3,0.5-0.5,1.1-0.5,1.8c0,0.8,0.2,1.4,0.5,2
		c0.3,0.5,0.8,0.8,1.3,0.8c0.5,0,0.9-0.2,1.2-0.7C21.2,109,21.3,108.4,21.3,107.6z"/>
	<path class="st2" d="M30,109.7l-0.1,1.5c-0.4,0.3-1,0.4-1.8,0.4c-1.2,0-2.2-0.4-2.9-1.2c-0.7-0.8-1-1.7-1-2.8c0-1.1,0.4-2.1,1-2.9
		c0.7-0.8,1.7-1.3,2.9-1.3c0.6,0,1.1,0.1,1.6,0.2l-0.3,1.6c-0.4-0.2-0.9-0.3-1.5-0.3c-0.6,0-1,0.2-1.4,0.7c-0.3,0.5-0.5,1-0.5,1.7
		c0,0.7,0.2,1.3,0.6,1.8c0.4,0.5,1,0.8,1.7,0.8C28.8,110,29.4,109.9,30,109.7z"/>
	<path class="st2" d="M33.2,111.4h-1.9c0.1-1.1,0.1-2.4,0.1-3.8c0-1.4-0.1-2.7-0.2-3.7l2.1-0.2c-0.1,1-0.1,2.4-0.1,4
		C33.1,108.9,33.1,110.2,33.2,111.4L33.2,111.4z M33.5,101.3c0,0.4-0.1,0.7-0.3,1c-0.2,0.3-0.5,0.4-0.9,0.4c-0.3,0-0.6-0.1-0.8-0.4
		c-0.2-0.2-0.3-0.5-0.3-0.8c0-0.4,0.1-0.7,0.3-0.9c0.2-0.3,0.5-0.4,0.9-0.4c0.3,0,0.6,0.1,0.8,0.3C33.4,100.7,33.5,101,33.5,101.3z"
		/>
	<path class="st2" d="M40.7,111.4l-1.7,0.1c-0.1-0.2-0.1-0.4-0.1-0.6h-0.1c-0.5,0.5-1.2,0.8-2.1,0.8c-0.6,0-1.1-0.2-1.5-0.6
		c-0.4-0.4-0.6-0.9-0.6-1.5c0-0.8,0.3-1.5,0.9-2c0.6-0.5,1.7-0.8,3.3-0.8c0-0.1,0-0.2,0-0.3c0-0.6-0.1-1-0.4-1.1
		c-0.3-0.2-0.7-0.3-1.4-0.3c-0.7,0-1.4,0.1-2.1,0.3l0.2-1.5c0.7-0.3,1.6-0.4,2.8-0.4c0.9,0,1.5,0.2,2,0.6c0.5,0.4,0.7,1.1,0.7,2.1
		c0,0.2,0,0.6,0,1.2c0,0.6,0,1,0,1.2C40.4,109.7,40.5,110.7,40.7,111.4L40.7,111.4z M38.7,109.7c0-0.7,0-1.3,0-1.9
		c-1.6,0-2.5,0.5-2.5,1.4c0,0.6,0.4,1,1.1,1C37.9,110.2,38.4,110,38.7,109.7z"/>
	<path class="st2" d="M47.5,109.7l-0.1,1.5c-0.4,0.3-1,0.4-1.8,0.4c-1.2,0-2.2-0.4-2.9-1.2c-0.7-0.8-1-1.7-1-2.8
		c0-1.1,0.4-2.1,1-2.9c0.7-0.8,1.7-1.3,2.9-1.3c0.6,0,1.1,0.1,1.6,0.2l-0.3,1.6c-0.4-0.2-0.9-0.3-1.5-0.3c-0.6,0-1,0.2-1.4,0.7
		c-0.3,0.5-0.5,1-0.5,1.7c0,0.7,0.2,1.3,0.6,1.8c0.4,0.5,1,0.8,1.7,0.8C46.4,110,46.9,109.9,47.5,109.7z"/>
	<path class="st2" d="M50.7,111.4h-1.9c0.1-1.1,0.1-2.4,0.1-3.8c0-1.4-0.1-2.7-0.2-3.7l2.1-0.2c-0.1,1-0.1,2.4-0.1,4
		C50.6,108.9,50.6,110.2,50.7,111.4L50.7,111.4z M51,101.3c0,0.4-0.1,0.7-0.3,1c-0.2,0.3-0.5,0.4-0.9,0.4c-0.3,0-0.6-0.1-0.8-0.4
		c-0.2-0.2-0.3-0.5-0.3-0.8c0-0.4,0.1-0.7,0.3-0.9c0.2-0.3,0.5-0.4,0.9-0.4c0.3,0,0.6,0.1,0.8,0.3C50.9,100.7,51,101,51,101.3z"/>
	<path class="st2" d="M59.3,107.4c0,1.3-0.4,2.4-1.1,3.2c-0.7,0.8-1.6,1.1-2.6,1.1c-1,0-1.8-0.3-2.5-1c-0.7-0.7-1-1.7-1-2.9
		c0-1.4,0.4-2.4,1.1-3.2c0.8-0.8,1.6-1.1,2.6-1.1c1,0,1.8,0.3,2.5,1C59,105.1,59.3,106.1,59.3,107.4L59.3,107.4z M57.4,107.6
		c0-0.8-0.2-1.4-0.5-2c-0.3-0.5-0.8-0.8-1.3-0.8c-0.5,0-0.9,0.2-1.2,0.7c-0.3,0.5-0.5,1.1-0.5,1.8c0,0.8,0.2,1.4,0.5,2
		c0.3,0.5,0.8,0.8,1.3,0.8c0.5,0,0.9-0.2,1.2-0.7C57.3,109,57.4,108.4,57.4,107.6L57.4,107.6z M58.2,100c0,0.1-0.3,0.5-1,1.3
		c-0.7,0.8-1,1.2-1,1.3H55c0-0.1,0.2-0.5,0.6-1.3c0.4-0.8,0.7-1.2,0.7-1.3H58.2z"/>
	<path class="st2" d="M67.1,111.4h-1.9c0.1-1.4,0.2-2.7,0.2-4.1c0-0.8-0.1-1.4-0.3-1.7c-0.2-0.3-0.6-0.5-1-0.5
		c-0.6,0-1.1,0.2-1.6,0.6c0,2.1,0,4,0,5.6h-1.9c0.1-1.7,0.1-3,0.1-4c0-1.3-0.1-2.5-0.4-3.6l1.9-0.2l0.1,0.9h0.1
		c0.7-0.6,1.4-0.9,2.3-0.9c0.7,0,1.3,0.2,1.8,0.6c0.4,0.4,0.7,1.1,0.7,2.1c0,0.2,0,0.4,0,0.6c0,0.3,0,0.5,0,0.8
		C67.1,108.3,67.1,109.6,67.1,111.4z"/>
	<path class="st2" d="M78.6,111.4l-1.7,0.1c0-0.2,0-0.4,0-0.6h-0.1c-0.5,0.5-1.2,0.8-2,0.8c-0.9,0-1.7-0.4-2.2-1.1
		c-0.5-0.7-0.8-1.6-0.8-2.7c0-1.2,0.3-2.2,0.9-3.1c0.6-0.9,1.4-1.3,2.5-1.3c0.7,0,1.2,0.1,1.5,0.4h0.1c0-1.3-0.1-2.5-0.2-3.8l2-0.1
		c-0.1,1.2-0.1,3-0.1,5.4C78.4,107.8,78.5,109.8,78.6,111.4L78.6,111.4z M76.7,109.5c0-1.7,0-3.1-0.1-4.2c-0.3-0.3-0.7-0.4-1.2-0.4
		c-0.6,0-1.1,0.3-1.4,0.8c-0.3,0.5-0.5,1.2-0.5,1.9c0,0.7,0.1,1.3,0.4,1.7c0.3,0.5,0.7,0.7,1.2,0.7C76,110.1,76.5,109.9,76.7,109.5z
		"/>
	<path class="st2" d="M86.4,106.7c0,0.3,0,0.6,0,1.1l-4.7,0.1c0.1,0.6,0.3,1.1,0.7,1.5c0.4,0.4,0.9,0.6,1.6,0.6
		c0.7,0,1.5-0.1,2.3-0.4l-0.1,1.6c-0.7,0.3-1.5,0.4-2.5,0.4c-1.2,0-2.2-0.4-2.9-1.2c-0.7-0.8-1-1.7-1-2.8c0-1.1,0.3-2.1,0.9-3
		c0.6-0.8,1.5-1.3,2.6-1.3c1,0,1.8,0.3,2.3,0.9C86.1,104.9,86.4,105.7,86.4,106.7L86.4,106.7z M84.7,106.7c0-1.2-0.5-1.8-1.4-1.8
		c-0.9,0-1.4,0.6-1.6,1.9L84.7,106.7z"/>
	<path class="st2" d="M97.2,108.5c0,2.1-1.4,3.1-4.1,3.1c-0.9,0-1.8-0.1-2.6-0.4l0.4-1.8c0.8,0.3,1.5,0.4,2.2,0.4
		c0.8,0,1.3-0.1,1.7-0.2c0.3-0.2,0.5-0.4,0.5-0.8c0-0.4-0.2-0.8-0.5-1c-0.3-0.2-0.8-0.6-1.7-1c-0.8-0.4-1.3-0.8-1.7-1.2
		c-0.5-0.5-0.7-1.2-0.7-2c0-0.9,0.3-1.6,0.9-2.2c0.6-0.5,1.5-0.8,2.6-0.8c0.9,0,1.7,0.1,2.4,0.3l-0.3,1.8c-0.6-0.3-1.4-0.4-2.1-0.4
		c-1.1,0-1.7,0.3-1.7,1c0,0.4,0.1,0.6,0.4,0.9c0.2,0.2,0.7,0.5,1.5,0.8c0.8,0.4,1.4,0.8,1.9,1.2C97,106.9,97.2,107.6,97.2,108.5z"/>
	<path class="st2" d="M105.6,107.4c0,1.3-0.4,2.4-1.1,3.2c-0.7,0.8-1.6,1.1-2.6,1.1c-1,0-1.8-0.3-2.5-1c-0.7-0.7-1-1.7-1-2.9
		c0-1.4,0.4-2.4,1.1-3.2c0.8-0.8,1.6-1.1,2.6-1.1c1,0,1.8,0.3,2.5,1C105.2,105.1,105.6,106.1,105.6,107.4L105.6,107.4z M103.7,107.6
		c0-0.8-0.2-1.4-0.5-2c-0.3-0.5-0.8-0.8-1.3-0.8c-0.5,0-0.9,0.2-1.2,0.7c-0.3,0.5-0.5,1.1-0.5,1.8c0,0.8,0.2,1.4,0.5,2
		c0.3,0.5,0.8,0.8,1.3,0.8c0.5,0,0.9-0.2,1.2-0.7C103.5,109,103.7,108.4,103.7,107.6z"/>
	<path class="st2" d="M112.3,109.7l-0.1,1.5c-0.4,0.3-1,0.4-1.8,0.4c-1.2,0-2.2-0.4-2.9-1.2c-0.7-0.8-1-1.7-1-2.8
		c0-1.1,0.3-2.1,1.1-2.9c0.7-0.8,1.7-1.3,2.9-1.3c0.6,0,1.1,0.1,1.6,0.2l-0.2,1.6c-0.4-0.2-0.9-0.3-1.5-0.3c-0.6,0-1,0.2-1.4,0.7
		c-0.3,0.5-0.5,1-0.5,1.7c0,0.7,0.2,1.3,0.6,1.8c0.4,0.5,1,0.8,1.7,0.8C111.2,110,111.7,109.9,112.3,109.7z"/>
	<path class="st2" d="M115.5,111.4h-1.9c0.1-1.1,0.1-2.4,0.1-3.8c0-1.4-0.1-2.7-0.2-3.7l2.1-0.2c-0.1,1-0.1,2.4-0.1,4
		C115.4,108.9,115.5,110.2,115.5,111.4L115.5,111.4z M115.9,101.3c0,0.4-0.1,0.7-0.3,1c-0.2,0.3-0.5,0.4-0.9,0.4
		c-0.3,0-0.6-0.1-0.8-0.4c-0.2-0.2-0.3-0.5-0.3-0.8c0-0.4,0.1-0.7,0.3-0.9c0.2-0.3,0.5-0.4,0.9-0.4c0.3,0,0.6,0.1,0.8,0.3
		C115.8,100.7,115.9,101,115.9,101.3z"/>
	<path class="st2" d="M123.4,106.7c0,0.3,0,0.6,0,1.1l-4.7,0.1c0.1,0.6,0.3,1.1,0.7,1.5c0.4,0.4,0.9,0.6,1.6,0.6
		c0.7,0,1.5-0.1,2.3-0.4l-0.1,1.6c-0.7,0.3-1.5,0.4-2.5,0.4c-1.2,0-2.2-0.4-2.9-1.2c-0.7-0.8-1-1.7-1-2.8c0-1.1,0.3-2.1,0.9-3
		c0.6-0.8,1.5-1.3,2.6-1.3c1,0,1.8,0.3,2.3,0.9C123.2,104.9,123.4,105.7,123.4,106.7L123.4,106.7z M121.7,106.7
		c0-1.2-0.5-1.8-1.4-1.8c-0.9,0-1.4,0.6-1.6,1.9L121.7,106.7z"/>
	<path class="st2" d="M131.3,111.4l-1.7,0.1c0-0.2,0-0.4,0-0.6h-0.1c-0.5,0.5-1.2,0.8-2,0.8c-0.9,0-1.7-0.4-2.2-1.1
		c-0.5-0.7-0.8-1.6-0.8-2.7c0-1.2,0.3-2.2,0.9-3.1c0.6-0.9,1.4-1.3,2.5-1.3c0.7,0,1.2,0.1,1.5,0.4h0.1c0-1.3-0.1-2.5-0.2-3.8l2-0.1
		c-0.1,1.2-0.1,3-0.1,5.4C131.2,107.8,131.2,109.8,131.3,111.4L131.3,111.4z M129.5,109.5c0-1.7,0-3.1-0.1-4.2
		c-0.3-0.3-0.7-0.4-1.2-0.4c-0.6,0-1.1,0.3-1.4,0.8c-0.3,0.5-0.5,1.2-0.5,1.9c0,0.7,0.1,1.3,0.4,1.7c0.3,0.5,0.7,0.7,1.2,0.7
		C128.8,110.1,129.2,109.9,129.5,109.5z"/>
	<path class="st2" d="M138.8,111.4l-1.7,0.1c-0.1-0.2-0.1-0.4-0.1-0.6h-0.1c-0.5,0.5-1.2,0.8-2.1,0.8c-0.6,0-1.1-0.2-1.5-0.6
		c-0.4-0.4-0.6-0.9-0.6-1.5c0-0.8,0.3-1.5,0.9-2c0.6-0.5,1.7-0.8,3.3-0.8c0-0.1,0-0.2,0-0.3c0-0.6-0.1-1-0.4-1.1
		c-0.3-0.2-0.7-0.3-1.4-0.3c-0.7,0-1.4,0.1-2.1,0.3l0.2-1.5c0.7-0.3,1.6-0.4,2.8-0.4c0.9,0,1.5,0.2,2,0.6c0.5,0.4,0.7,1.1,0.7,2.1
		c0,0.2,0,0.6,0,1.2c0,0.6,0,1,0,1.2C138.5,109.7,138.6,110.7,138.8,111.4L138.8,111.4z M136.8,109.7c0-0.7,0-1.3,0-1.9
		c-1.6,0-2.5,0.5-2.5,1.4c0,0.6,0.4,1,1.1,1C136,110.2,136.4,110,136.8,109.7z"/>
	<path class="st2" d="M146.8,111.4l-1.7,0.1c0-0.2-0.1-0.4-0.1-0.6h-0.1c-0.5,0.5-1.2,0.8-2,0.8c-0.9,0-1.7-0.4-2.2-1.1
		c-0.5-0.7-0.8-1.6-0.8-2.7c0-1.2,0.3-2.2,0.9-3.1c0.6-0.9,1.4-1.3,2.5-1.3c0.7,0,1.2,0.1,1.5,0.4h0.1c0-1.3-0.1-2.5-0.2-3.8l2-0.1
		c-0.1,1.2-0.1,3-0.1,5.4C146.6,107.8,146.7,109.8,146.8,111.4L146.8,111.4z M144.9,109.5c0-1.7,0-3.1-0.1-4.2
		c-0.3-0.3-0.7-0.4-1.2-0.4c-0.6,0-1.1,0.3-1.4,0.8c-0.3,0.5-0.5,1.2-0.5,1.9c0,0.7,0.1,1.3,0.4,1.7c0.3,0.5,0.7,0.7,1.2,0.7
		C144.2,110.1,144.7,109.9,144.9,109.5z"/>
	<path class="st2" d="M154.6,106.7c0,0.3,0,0.6,0,1.1l-4.7,0.1c0.1,0.6,0.3,1.1,0.7,1.5c0.4,0.4,0.9,0.6,1.6,0.6
		c0.7,0,1.5-0.1,2.3-0.4l-0.1,1.6c-0.7,0.3-1.5,0.4-2.5,0.4c-1.2,0-2.2-0.4-2.9-1.2c-0.7-0.8-1-1.7-1-2.8c0-1.1,0.3-2.1,0.9-3
		c0.6-0.8,1.5-1.3,2.6-1.3c1,0,1.8,0.3,2.3,0.9C154.3,104.9,154.6,105.7,154.6,106.7L154.6,106.7z M152.9,106.7
		c0-1.2-0.5-1.8-1.4-1.8c-0.9,0-1.4,0.6-1.6,1.9L152.9,106.7z"/>
	<path class="st2" d="M160.8,109.2c0,1.6-1.1,2.4-3.2,2.4c-0.8,0-1.5-0.1-2-0.3l0.2-1.6c0.6,0.2,1.2,0.4,1.8,0.4
		c0.6,0,1-0.1,1.2-0.2c0.2-0.1,0.3-0.3,0.3-0.5c0-0.4-0.4-0.8-1.2-1.1c-0.7-0.3-1.2-0.6-1.5-0.9c-0.4-0.4-0.7-0.9-0.7-1.5
		c0-0.7,0.2-1.3,0.7-1.7c0.5-0.4,1.2-0.7,2.1-0.7c0.8,0,1.5,0.1,2,0.3l-0.2,1.6c-0.5-0.2-1.1-0.4-1.8-0.4c-0.8,0-1.2,0.2-1.2,0.7
		c0,0.2,0.1,0.4,0.2,0.5c0.2,0.1,0.5,0.3,1,0.5c0.7,0.3,1.2,0.6,1.5,0.9C160.5,108,160.8,108.5,160.8,109.2z"/>
	<path class="st2" d="M171.5,100.9l-0.1,1.8c-1.5-0.1-2.9-0.1-4.1-0.1c0.1,0.9,0.1,1.9,0.1,3c0.9,0,2,0,3.2-0.1v1.7
		c-1.2,0-2.2-0.1-3.2-0.1c0,1.5,0,2.9,0.1,4.3h-2c0.1-1.6,0.1-3.4,0.1-5.5c0-1.9,0-3.6-0.1-5H171.5z"/>
	<path class="st2" d="M174.6,111.4h-1.9c0.1-1.1,0.1-2.4,0.1-3.8c0-1.4-0.1-2.7-0.2-3.7l2.1-0.2c-0.1,1-0.1,2.4-0.1,4
		C174.5,108.9,174.5,110.2,174.6,111.4L174.6,111.4z M174.9,101.3c0,0.4-0.1,0.7-0.3,1c-0.2,0.3-0.5,0.4-0.9,0.4
		c-0.3,0-0.6-0.1-0.8-0.4c-0.2-0.2-0.3-0.5-0.3-0.8c0-0.4,0.1-0.7,0.3-0.9c0.2-0.3,0.5-0.4,0.9-0.4c0.3,0,0.6,0.1,0.8,0.3
		C174.8,100.7,174.9,101,174.9,101.3z"/>
	<path class="st2" d="M182.8,111.4h-1.9c0.1-1.4,0.2-2.7,0.2-4.1c0-0.8-0.1-1.4-0.3-1.7c-0.2-0.3-0.6-0.5-1-0.5
		c-0.5,0-1.1,0.2-1.6,0.6c0,2.1,0,4,0,5.6h-1.9c0.1-1.7,0.1-3,0.1-4c0-1.3-0.1-2.5-0.4-3.6l1.9-0.2l0.1,0.9h0.1
		c0.7-0.6,1.4-0.9,2.3-0.9c0.7,0,1.3,0.2,1.8,0.6c0.4,0.4,0.7,1.1,0.7,2.1c0,0.2,0,0.4,0,0.6c0,0.3,0,0.5,0,0.8
		C182.7,108.3,182.7,109.6,182.8,111.4z"/>
	<path class="st2" d="M190.2,111.4l-1.7,0.1c-0.1-0.2-0.1-0.4-0.1-0.6h-0.1c-0.5,0.5-1.2,0.8-2.1,0.8c-0.6,0-1.1-0.2-1.5-0.6
		c-0.4-0.4-0.6-0.9-0.6-1.5c0-0.8,0.3-1.5,0.9-2c0.6-0.5,1.7-0.8,3.3-0.8c0-0.1,0-0.2,0-0.3c0-0.6-0.1-1-0.4-1.1
		c-0.3-0.2-0.7-0.3-1.4-0.3c-0.7,0-1.4,0.1-2.1,0.3l0.2-1.5c0.7-0.3,1.6-0.4,2.8-0.4c0.9,0,1.5,0.2,2,0.6c0.5,0.4,0.7,1.1,0.7,2.1
		c0,0.2,0,0.6,0,1.2c0,0.6,0,1,0,1.2C190,109.7,190.1,110.7,190.2,111.4L190.2,111.4z M188.3,109.7c0-0.7,0-1.3,0-1.9
		c-1.6,0-2.5,0.5-2.5,1.4c0,0.6,0.4,1,1.1,1C187.5,110.2,187.9,110,188.3,109.7z"/>
	<path class="st2" d="M198.2,111.4h-1.9c0.1-1.4,0.2-2.7,0.2-4.1c0-0.8-0.1-1.4-0.3-1.7c-0.2-0.3-0.6-0.5-1-0.5
		c-0.6,0-1.1,0.2-1.6,0.6c0,2.1,0,4,0,5.6h-1.9c0.1-1.7,0.1-3,0.1-4c0-1.3-0.1-2.5-0.4-3.6l1.9-0.2l0.1,0.9h0.1
		c0.7-0.6,1.4-0.9,2.3-0.9c0.7,0,1.3,0.2,1.8,0.6c0.4,0.4,0.7,1.1,0.7,2.1c0,0.2,0,0.4,0,0.6c0,0.3,0,0.5,0,0.8
		C198.1,108.3,198.1,109.6,198.2,111.4z"/>
	<path class="st2" d="M205.2,109.7l-0.1,1.5c-0.4,0.3-1,0.4-1.8,0.4c-1.2,0-2.2-0.4-2.9-1.2c-0.7-0.8-1-1.7-1-2.8
		c0-1.1,0.3-2.1,1-2.9c0.7-0.8,1.7-1.3,2.9-1.3c0.6,0,1.1,0.1,1.6,0.2l-0.2,1.6c-0.4-0.2-0.9-0.3-1.5-0.3c-0.6,0-1,0.2-1.4,0.7
		c-0.3,0.5-0.5,1-0.5,1.7c0,0.7,0.2,1.3,0.6,1.8c0.4,0.5,1,0.8,1.7,0.8C204.1,110,204.6,109.9,205.2,109.7z"/>
	<path class="st2" d="M208.4,111.4h-1.9c0.1-1.1,0.1-2.4,0.1-3.8c0-1.4-0.1-2.7-0.2-3.7l2.1-0.2c-0.1,1-0.1,2.4-0.1,4
		C208.3,108.9,208.3,110.2,208.4,111.4L208.4,111.4z M208.7,101.3c0,0.4-0.1,0.7-0.3,1c-0.2,0.3-0.5,0.4-0.9,0.4
		c-0.3,0-0.6-0.1-0.8-0.4c-0.2-0.2-0.3-0.5-0.3-0.8c0-0.4,0.1-0.7,0.3-0.9c0.2-0.3,0.5-0.4,0.9-0.4c0.3,0,0.6,0.1,0.8,0.3
		C208.6,100.7,208.7,101,208.7,101.3z"/>
	<path class="st2" d="M216.3,106.7c0,0.3,0,0.6,0,1.1l-4.7,0.1c0.1,0.6,0.3,1.1,0.7,1.5c0.4,0.4,0.9,0.6,1.6,0.6
		c0.7,0,1.5-0.1,2.3-0.4l-0.1,1.6c-0.7,0.3-1.5,0.4-2.5,0.4c-1.2,0-2.2-0.4-2.9-1.2c-0.7-0.8-1-1.7-1-2.8c0-1.1,0.3-2.1,0.9-3
		c0.6-0.8,1.5-1.3,2.6-1.3c1,0,1.8,0.3,2.3,0.9C216.1,104.9,216.3,105.7,216.3,106.7L216.3,106.7z M214.6,106.7
		c0-1.2-0.5-1.8-1.4-1.8c-0.9,0-1.4,0.6-1.6,1.9L214.6,106.7z"/>
	<path class="st2" d="M222.4,103.7l-0.4,1.9c-0.4-0.2-0.7-0.2-1.1-0.2c-0.7,0-1.2,0.4-1.4,1.1c0,2.1,0,3.8,0,4.9h-1.9
		c0.1-1.6,0.1-2.9,0.1-4c0-1.3-0.1-2.5-0.4-3.6l1.8-0.2c0.1,0.6,0.1,0.9,0.1,1h0.1c0.4-0.8,1-1.1,1.8-1.1
		C221.6,103.5,221.9,103.6,222.4,103.7z"/>
	<path class="st2" d="M229.2,111.4l-1.7,0.1c-0.1-0.2-0.1-0.4-0.1-0.6h-0.1c-0.5,0.5-1.2,0.8-2.2,0.8c-0.6,0-1.1-0.2-1.5-0.6
		c-0.4-0.4-0.6-0.9-0.6-1.5c0-0.8,0.3-1.5,0.9-2c0.6-0.5,1.7-0.8,3.3-0.8c0-0.1,0-0.2,0-0.3c0-0.6-0.1-1-0.4-1.1
		c-0.2-0.2-0.7-0.3-1.4-0.3c-0.7,0-1.4,0.1-2.1,0.3l0.2-1.5c0.7-0.3,1.6-0.4,2.8-0.4c0.9,0,1.5,0.2,2,0.6c0.5,0.4,0.7,1.1,0.7,2.1
		c0,0.2,0,0.6,0,1.2c0,0.6,0,1,0,1.2C229,109.7,229,110.7,229.2,111.4L229.2,111.4z M227.3,109.7c0-0.7,0-1.3,0-1.9
		c-1.6,0-2.5,0.5-2.5,1.4c0,0.6,0.4,1,1.1,1C226.4,110.2,226.9,110,227.3,109.7z"/>
	<path class="st2" d="M235.5,109.2c0,1.6-1.1,2.4-3.2,2.4c-0.8,0-1.5-0.1-2-0.3l0.2-1.6c0.6,0.2,1.2,0.4,1.8,0.4
		c0.6,0,1-0.1,1.2-0.2c0.2-0.1,0.3-0.3,0.3-0.5c0-0.4-0.4-0.8-1.2-1.1c-0.7-0.3-1.2-0.6-1.5-0.9c-0.4-0.4-0.7-0.9-0.7-1.5
		c0-0.7,0.2-1.3,0.7-1.7c0.5-0.4,1.2-0.7,2.1-0.7c0.9,0,1.5,0.1,2,0.3l-0.2,1.6c-0.5-0.2-1.1-0.4-1.8-0.4c-0.8,0-1.2,0.2-1.2,0.7
		c0,0.2,0.1,0.4,0.2,0.5c0.2,0.1,0.5,0.3,1,0.5c0.7,0.3,1.2,0.6,1.5,0.9C235.3,108,235.5,108.5,235.5,109.2z"/>
	<path class="st2" d="M15.4,130.4l-1.7,0.1c0-0.2-0.1-0.4-0.1-0.6h-0.1c-0.5,0.5-1.2,0.8-2,0.8c-0.9,0-1.7-0.4-2.2-1.1
		c-0.5-0.7-0.8-1.6-0.8-2.6c0-1.2,0.3-2.2,0.9-3.1c0.6-0.9,1.4-1.3,2.5-1.3c0.7,0,1.2,0.1,1.5,0.4h0.1c0-1.3-0.1-2.5-0.2-3.8l2-0.1
		c-0.1,1.2-0.1,3-0.1,5.4C15.2,126.8,15.3,128.8,15.4,130.4L15.4,130.4z M13.6,128.6c0-1.7,0-3.1-0.1-4.2c-0.3-0.3-0.7-0.4-1.2-0.4
		c-0.6,0-1.1,0.3-1.4,0.8c-0.3,0.5-0.5,1.2-0.5,1.9c0,0.7,0.1,1.3,0.4,1.7c0.3,0.5,0.7,0.7,1.2,0.7
		C12.8,129.1,13.3,128.9,13.6,128.6z"/>
	<path class="st2" d="M23.2,125.8c0,0.3,0,0.6,0,1.1l-4.7,0.1c0.1,0.6,0.3,1.1,0.7,1.5c0.4,0.4,0.9,0.6,1.6,0.6
		c0.7,0,1.5-0.1,2.3-0.4l-0.1,1.6c-0.7,0.3-1.5,0.4-2.5,0.4c-1.2,0-2.2-0.4-2.9-1.2c-0.7-0.8-1-1.7-1-2.8c0-1.1,0.3-2.1,0.9-3
		c0.6-0.8,1.5-1.3,2.6-1.3c1,0,1.8,0.3,2.3,0.9C22.9,124,23.2,124.8,23.2,125.8L23.2,125.8z M21.5,125.7c0-1.2-0.5-1.8-1.4-1.8
		c-0.9,0-1.4,0.6-1.6,1.9L21.5,125.7z"/>
	<path class="st2" d="M36.6,125c0,1.6-0.4,3-1.4,4.1c-0.9,1.1-2,1.6-3.4,1.6c-1.3,0-2.3-0.5-3.2-1.5c-0.9-1-1.3-2.3-1.3-3.8
		c0-1.6,0.4-3,1.3-4.1c0.9-1.1,2-1.6,3.4-1.6c1.3,0,2.3,0.5,3.2,1.5C36.2,122.2,36.6,123.4,36.6,125L36.6,125z M34.6,125.2
		c0-1.1-0.3-2-0.8-2.7c-0.5-0.7-1.2-1-1.9-1c-0.7,0-1.3,0.4-1.8,1.1c-0.5,0.7-0.7,1.6-0.7,2.7c0,1.1,0.3,2,0.8,2.7
		c0.5,0.7,1.2,1,1.9,1c0.7,0,1.3-0.3,1.8-1.1C34.4,127.2,34.6,126.3,34.6,125.2z"/>
	<path class="st2" d="M44.9,126.2c0,1.2-0.3,2.2-0.9,3.1c-0.6,0.9-1.4,1.3-2.5,1.3c-0.8,0-1.3-0.2-1.6-0.5h-0.1l-0.1,0.3H38
		c0.1-1.9,0.1-3.9,0.1-6c0-2-0.1-3.7-0.2-5.3l2.1-0.1c-0.1,1.3-0.1,2.7-0.1,4.2h0.1c0.5-0.5,1.1-0.7,2-0.7c0.9,0,1.7,0.4,2.2,1.1
		C44.6,124.3,44.9,125.2,44.9,126.2L44.9,126.2z M43,126.5c0-0.7-0.2-1.2-0.5-1.7c-0.3-0.5-0.7-0.7-1.3-0.7c-0.7,0-1.2,0.2-1.5,0.6
		c0,1.8,0,3.2,0.1,4.1c0.3,0.3,0.7,0.4,1.2,0.4c0.6,0,1.1-0.3,1.4-0.8C42.8,127.8,43,127.2,43,126.5z"/>
	<path class="st2" d="M48.2,122.6c-0.1,1.6-0.1,3.2-0.1,4.8c0,0.4,0,1,0,1.7c0,0.7,0,1.2,0,1.5c0,2-0.7,3.1-2.1,3.4l-0.5-1.1
		c0.3-0.3,0.6-0.8,0.7-1.3c0.1-0.6,0.2-1.8,0.2-3.7c0-2.2-0.1-3.8-0.3-5L48.2,122.6L48.2,122.6z M48.6,120.3c0,0.4-0.1,0.7-0.3,1
		c-0.2,0.3-0.5,0.4-0.9,0.4c-0.3,0-0.6-0.1-0.8-0.4c-0.2-0.2-0.3-0.5-0.3-0.8c0-0.4,0.1-0.7,0.3-1c0.2-0.3,0.5-0.4,0.9-0.4
		c0.3,0,0.6,0.1,0.8,0.4C48.5,119.7,48.6,120,48.6,120.3z"/>
	<path class="st2" d="M56.2,125.8c0,0.3,0,0.6,0,1.1l-4.7,0.1c0.1,0.6,0.3,1.1,0.7,1.5c0.4,0.4,0.9,0.6,1.6,0.6
		c0.7,0,1.5-0.1,2.3-0.4l-0.1,1.6c-0.7,0.3-1.5,0.4-2.5,0.4c-1.2,0-2.2-0.4-2.9-1.2c-0.7-0.8-1-1.7-1-2.8c0-1.1,0.3-2.1,0.9-3
		c0.6-0.8,1.5-1.3,2.6-1.3c1,0,1.8,0.3,2.3,0.9C55.9,124,56.2,124.8,56.2,125.8L56.2,125.8z M54.5,125.7c0-1.2-0.5-1.8-1.4-1.8
		c-0.9,0-1.4,0.6-1.6,1.9L54.5,125.7z"/>
	<path class="st2" d="M61.8,128.9l-0.1,1.4c-0.3,0.2-0.8,0.2-1.3,0.2c-0.8,0-1.4-0.2-1.8-0.7c-0.4-0.5-0.6-1.4-0.6-2.7
		c0-0.8,0-1.7,0-2.7c-0.2,0-0.6,0-1,0l0-1.6c0.4,0,0.7,0,1,0c0-0.3,0-1,0.1-2.2l1.7-0.2c-0.1,1.1-0.1,1.9-0.1,2.5c0.4,0,1,0,1.8-0.1
		l-0.1,1.6c-0.7,0-1.3,0-1.8,0c0,0.7,0,1.5,0,2.2c0,1,0.1,1.6,0.3,1.9c0.2,0.3,0.5,0.5,0.9,0.5C61.2,129,61.4,129,61.8,128.9z"/>
	<path class="st2" d="M69.8,126.4c0,1.3-0.4,2.4-1.1,3.2c-0.7,0.8-1.6,1.1-2.6,1.1c-1,0-1.8-0.3-2.5-1c-0.7-0.7-1-1.7-1-2.9
		c0-1.4,0.4-2.4,1.1-3.2c0.8-0.8,1.6-1.1,2.6-1.1c1,0,1.8,0.3,2.5,1C69.5,124.2,69.8,125.1,69.8,126.4L69.8,126.4z M67.9,126.6
		c0-0.8-0.2-1.4-0.5-2c-0.3-0.5-0.8-0.8-1.3-0.8c-0.5,0-0.9,0.2-1.2,0.7c-0.3,0.5-0.5,1.1-0.5,1.8c0,0.8,0.2,1.4,0.5,2
		c0.3,0.5,0.8,0.8,1.3,0.8c0.5,0,0.9-0.2,1.2-0.7C67.8,128,67.9,127.4,67.9,126.6z"/>
	<path class="st2" d="M85.4,130.4h-2.1c0-0.9,0-2.4-0.2-4.6c-0.1-2.2-0.1-3.5-0.2-4h-0.1c-0.1,0.3-0.2,0.9-0.4,1.8
		c-0.2,0.9-0.6,2.1-1.2,3.8c-0.6,1.7-0.9,2.7-0.9,3h-1.6c0-0.3-0.3-1.4-0.8-3.1c-0.6-1.7-0.9-2.9-1.1-3.6c-0.2-0.7-0.3-1.4-0.4-2
		h-0.1c0,0.7-0.1,2.1-0.2,4.3c-0.1,2.2-0.2,3.6-0.2,4.3h-1.9c0-0.2,0.2-1.8,0.5-4.8c0.3-3.1,0.5-4.9,0.5-5.6h2.8
		c0,0.6,0.3,1.9,0.9,4c0.6,2,0.9,3.4,0.9,3.9h0.1c0-0.6,0.3-1.9,1-3.9c0.7-2,1-3.4,1-4h2.8c0,1.1,0.1,3.1,0.3,5.9
		C85.3,128.7,85.4,130.2,85.4,130.4z"/>
	<path class="st2" d="M93.5,130.4l-1.7,0.1c-0.1-0.3-0.1-0.5-0.1-0.7h-0.1c-0.6,0.6-1.4,0.9-2.2,0.9c-0.8,0-1.4-0.2-1.8-0.7
		c-0.4-0.5-0.6-1.4-0.6-2.8c0-0.2,0-0.4,0-0.7c0-0.3,0-0.6,0-0.8c0-0.6,0-1.5-0.1-2.8l2-0.1c-0.1,1-0.1,2-0.1,2.9
		c0,1.3,0.1,2.2,0.3,2.6c0.2,0.5,0.5,0.7,1,0.7c0.6,0,1.1-0.2,1.5-0.5c0-2.8,0-4.7-0.1-5.7l2-0.1c-0.1,1-0.1,2.3-0.1,3.9
		C93.4,127.9,93.4,129.1,93.5,130.4L93.5,130.4z M92.7,119.1c0,0.1-0.3,0.5-1,1.3c-0.7,0.8-1,1.2-1,1.3h-1.3c0-0.1,0.2-0.5,0.7-1.3
		c0.4-0.8,0.6-1.2,0.6-1.3H92.7z"/>
	<path class="st2" d="M97.2,130.4h-2c0.1-1.8,0.1-3.8,0.1-6c0-2.1-0.1-3.9-0.2-5.3l2.1-0.1c-0.1,1.5-0.1,3.3-0.1,5.5
		C97.1,126.6,97.2,128.6,97.2,130.4z"/>
	<path class="st2" d="M103.2,128.9l-0.1,1.4c-0.3,0.2-0.8,0.2-1.3,0.2c-0.8,0-1.4-0.2-1.8-0.7c-0.4-0.5-0.6-1.4-0.6-2.7
		c0-0.8,0-1.7,0-2.7c-0.2,0-0.6,0-1,0l0-1.6c0.4,0,0.7,0,1,0c0-0.3,0-1,0.1-2.2l1.7-0.2c-0.1,1.1-0.1,1.9-0.1,2.5c0.4,0,1,0,1.8-0.1
		l-0.1,1.6c-0.7,0-1.3,0-1.8,0c0,0.7,0,1.5,0,2.2c0,1,0.1,1.6,0.3,1.9c0.2,0.3,0.5,0.5,0.9,0.5C102.6,129,102.9,129,103.2,128.9z"/>
	<path class="st2" d="M106.3,130.4h-1.9c0.1-1.1,0.1-2.4,0.1-3.8c0-1.4-0.1-2.7-0.2-3.7l2.1-0.2c-0.1,1-0.1,2.4-0.1,4
		C106.2,128,106.3,129.2,106.3,130.4L106.3,130.4z M106.7,120.3c0,0.4-0.1,0.7-0.3,1c-0.2,0.3-0.5,0.4-0.9,0.4
		c-0.3,0-0.6-0.1-0.8-0.4c-0.2-0.2-0.3-0.5-0.3-0.9c0-0.4,0.1-0.7,0.3-0.9c0.2-0.3,0.5-0.4,0.9-0.4c0.3,0,0.6,0.1,0.8,0.4
		C106.6,119.7,106.7,120,106.7,120.3z"/>
	<path class="st2" d="M114.9,126.2c0,1.2-0.3,2.2-0.9,3.1c-0.6,0.9-1.4,1.3-2.4,1.3c-0.8,0-1.3-0.2-1.6-0.5h-0.1c0,1.3,0,2.6,0.1,4
		h-2c0.1-1.5,0.1-3.3,0.1-5.3c0-2.6-0.1-4.6-0.4-5.9l1.8-0.2l0.1,0.7h0.1c0.5-0.5,1.2-0.8,2.1-0.8c0.9,0,1.7,0.4,2.2,1.1
		C114.7,124.3,114.9,125.2,114.9,126.2L114.9,126.2z M113,126.5c0-0.7-0.1-1.3-0.5-1.7c-0.3-0.5-0.7-0.7-1.2-0.7
		c-0.7,0-1.2,0.2-1.5,0.6c0.1,1.5,0.1,2.9,0.1,4.1c0.3,0.3,0.7,0.4,1.2,0.4c0.6,0,1.1-0.3,1.4-0.8C112.9,127.8,113,127.2,113,126.5z
		"/>
	<path class="st2" d="M118.4,130.4h-2c0.1-1.8,0.1-3.8,0.1-6c0-2.1-0.1-3.9-0.2-5.3l2.1-0.1c-0.1,1.5-0.1,3.3-0.1,5.5
		C118.3,126.6,118.3,128.6,118.4,130.4z"/>
	<path class="st2" d="M126.3,125.8c0,0.3,0,0.6,0,1.1l-4.7,0.1c0.1,0.6,0.3,1.1,0.7,1.5c0.4,0.4,0.9,0.6,1.6,0.6
		c0.7,0,1.5-0.1,2.3-0.4l-0.1,1.6c-0.7,0.3-1.5,0.4-2.5,0.4c-1.2,0-2.2-0.4-2.9-1.2c-0.7-0.8-1-1.7-1-2.8c0-1.1,0.3-2.1,0.9-3
		c0.6-0.8,1.5-1.3,2.6-1.3c1,0,1.8,0.3,2.3,0.9C126.1,124,126.3,124.8,126.3,125.8L126.3,125.8z M124.6,125.7c0-1.2-0.5-1.8-1.4-1.8
		c-0.9,0-1.4,0.6-1.6,1.9L124.6,125.7z"/>
	<path class="st2" d="M137.1,125.8c0,0.3,0,0.6,0,1.1l-4.7,0.1c0.1,0.6,0.3,1.1,0.7,1.5c0.4,0.4,0.9,0.6,1.6,0.6
		c0.7,0,1.5-0.1,2.3-0.4l-0.1,1.6c-0.7,0.3-1.5,0.4-2.5,0.4c-1.2,0-2.2-0.4-2.9-1.2c-0.7-0.8-1-1.7-1-2.8c0-1.1,0.3-2.1,0.9-3
		c0.6-0.8,1.5-1.3,2.6-1.3c1,0,1.8,0.3,2.3,0.9C136.9,124,137.1,124.8,137.1,125.8L137.1,125.8z M135.4,125.7c0-1.2-0.5-1.8-1.4-1.8
		c-0.9,0-1.4,0.6-1.6,1.9L135.4,125.7z"/>
	<path class="st2" d="M145,130.4H143c0.1-1.4,0.2-2.7,0.2-4.1c0-0.8-0.1-1.4-0.3-1.7c-0.2-0.3-0.6-0.4-1-0.4c-0.6,0-1.1,0.2-1.6,0.6
		c0,2.1,0,4,0,5.6h-1.9c0.1-1.7,0.1-3,0.1-3.9c0-1.3-0.1-2.5-0.4-3.6l1.9-0.2l0.1,0.9h0.1c0.7-0.6,1.4-1,2.3-1
		c0.7,0,1.3,0.2,1.8,0.6c0.4,0.4,0.7,1.1,0.7,2.1c0,0.2,0,0.4,0,0.6c0,0.3,0,0.5,0,0.8C144.9,127.4,144.9,128.6,145,130.4z"/>
	<path class="st2" d="M160.9,130.4h-2.1c0-0.9-0.1-2.4-0.2-4.6c-0.1-2.2-0.2-3.5-0.2-4h-0.1c-0.1,0.3-0.2,0.9-0.4,1.8
		c-0.2,0.9-0.6,2.1-1.2,3.8c-0.6,1.7-0.9,2.7-0.9,3h-1.6c0-0.3-0.3-1.4-0.8-3.1c-0.5-1.7-0.9-2.9-1.1-3.6c-0.2-0.7-0.3-1.4-0.4-2
		h-0.1c0,0.7-0.1,2.1-0.2,4.3c-0.1,2.2-0.2,3.6-0.2,4.3h-1.9c0-0.2,0.2-1.8,0.5-4.8c0.4-3.1,0.5-4.9,0.5-5.6h2.8
		c0,0.6,0.3,1.9,0.9,4c0.6,2,0.9,3.4,0.9,3.9h0.1c0-0.6,0.3-1.9,1-3.9c0.7-2,1-3.4,1-4h2.8c0,1.1,0.1,3.1,0.3,5.9
		C160.7,128.7,160.9,130.2,160.9,130.4z"/>
	<path class="st2" d="M168.8,125.8c0,0.3,0,0.6,0,1.1l-4.7,0.1c0.1,0.6,0.3,1.1,0.7,1.5c0.4,0.4,0.9,0.6,1.6,0.6
		c0.7,0,1.5-0.1,2.3-0.4l-0.1,1.6c-0.7,0.3-1.5,0.4-2.5,0.4c-1.2,0-2.2-0.4-2.9-1.2c-0.7-0.8-1-1.7-1-2.8c0-1.1,0.3-2.1,0.9-3
		c0.6-0.8,1.5-1.3,2.6-1.3c1,0,1.8,0.3,2.3,0.9C168.6,124,168.8,124.8,168.8,125.8L168.8,125.8z M167.1,125.7c0-1.2-0.5-1.8-1.4-1.8
		c-0.9,0-1.4,0.6-1.6,1.9L167.1,125.7z"/>
	<path class="st2" d="M176.7,130.4h-2.3c0-0.1-0.2-0.6-0.6-1.4c-0.4-0.8-0.7-1.3-0.9-1.6h-0.1c-0.2,0.2-0.4,0.8-0.8,1.6
		c-0.4,0.8-0.5,1.3-0.5,1.5h-2c0-0.1,0.3-0.8,1-1.9c0.7-1.1,1.2-1.8,1.5-2.2v-0.1c-0.2-0.3-0.6-0.9-1.3-1.8c-0.6-1-1-1.5-1-1.7h2.2
		c0,0.1,0.2,0.6,0.5,1.2c0.3,0.7,0.6,1.1,0.7,1.4h0.1c0.2-0.2,0.4-0.7,0.7-1.4c0.3-0.7,0.4-1.1,0.4-1.3h1.9c0,0.1-0.3,0.6-1,1.6
		c-0.6,1-1.1,1.6-1.3,1.8v0.1c0.3,0.3,0.8,1.1,1.4,2.2C176.4,129.6,176.7,130.2,176.7,130.4z"/>
	<path class="st2" d="M179.8,130.4h-1.9c0.1-1.1,0.1-2.4,0.1-3.8c0-1.4-0.1-2.7-0.2-3.7l2.1-0.2c-0.1,1-0.1,2.4-0.1,4
		C179.7,128,179.7,129.2,179.8,130.4L179.8,130.4z M180.1,120.3c0,0.4-0.1,0.7-0.3,1c-0.2,0.3-0.5,0.4-0.9,0.4
		c-0.3,0-0.6-0.1-0.8-0.4c-0.2-0.2-0.3-0.5-0.3-0.9c0-0.4,0.1-0.7,0.3-0.9c0.2-0.3,0.5-0.4,0.9-0.4c0.3,0,0.6,0.1,0.8,0.4
		C180,119.7,180.1,120,180.1,120.3z"/>
	<path class="st2" d="M186.9,128.7l-0.1,1.5c-0.4,0.3-1,0.4-1.8,0.4c-1.2,0-2.2-0.4-2.9-1.2c-0.7-0.8-1-1.7-1-2.8
		c0-1.1,0.4-2.1,1-2.9c0.7-0.8,1.7-1.3,2.9-1.3c0.6,0,1.1,0.1,1.6,0.2l-0.2,1.6c-0.4-0.2-0.9-0.3-1.5-0.3c-0.6,0-1,0.2-1.4,0.7
		c-0.3,0.5-0.5,1-0.5,1.7c0,0.7,0.2,1.3,0.6,1.9c0.4,0.5,1,0.8,1.7,0.8C185.7,129,186.3,128.9,186.9,128.7z"/>
	<path class="st2" d="M195,126.4c0,1.3-0.4,2.4-1.1,3.2c-0.7,0.8-1.6,1.1-2.6,1.1c-1,0-1.8-0.3-2.5-1c-0.7-0.7-1-1.7-1-2.9
		c0-1.4,0.4-2.4,1.1-3.2c0.8-0.8,1.6-1.1,2.6-1.1c1,0,1.8,0.3,2.5,1C194.6,124.2,195,125.1,195,126.4L195,126.4z M193.1,126.6
		c0-0.8-0.2-1.4-0.5-2c-0.3-0.5-0.8-0.8-1.3-0.8c-0.5,0-0.9,0.2-1.2,0.7c-0.3,0.5-0.5,1.1-0.5,1.8c0,0.8,0.2,1.4,0.5,2
		c0.3,0.5,0.8,0.8,1.3,0.8c0.5,0,0.9-0.2,1.2-0.7C192.9,128,193.1,127.4,193.1,126.6z"/>
	<path class="st2" d="M198.6,129.1c0,1.4-0.8,2.9-2.3,4.5l-0.6-0.6c0.7-0.8,1-1.7,1-2.6c-0.4-0.2-0.6-0.6-0.6-1.2
		c0-0.4,0.1-0.7,0.4-1c0.2-0.3,0.6-0.4,1-0.4c0.4,0,0.6,0.1,0.8,0.4C198.5,128.4,198.6,128.8,198.6,129.1z"/>
	<path class="st2" d="M211.7,130.4h-2.3c0-0.4-0.2-1.4-0.7-3h-3.3c-0.4,1.6-0.7,2.6-0.7,3h-2.2c0-0.2,0.6-1.9,1.7-5.1
		c1.1-3.2,1.7-5,1.7-5.3h2.7c0,0.3,0.5,2.1,1.5,5.2C211.2,128.4,211.7,130.1,211.7,130.4L211.7,130.4z M208.3,125.9
		c-0.8-2.8-1.2-4.3-1.2-4.5H207c0,0.2-0.4,1.7-1.3,4.5H208.3z"/>
	<path class="st2" d="M214.8,129c0,0.4-0.1,0.7-0.4,1c-0.2,0.3-0.6,0.4-1,0.4c-0.4,0-0.6-0.1-0.8-0.4c-0.2-0.3-0.3-0.6-0.3-0.9
		c0-0.4,0.1-0.7,0.4-1c0.2-0.3,0.6-0.4,1-0.4c0.4,0,0.7,0.1,0.8,0.4C214.7,128.3,214.8,128.6,214.8,129z"/>
	<path class="st2" d="M223.2,128.5l-0.1,1.8c-0.7,0.2-1.4,0.3-2,0.3c-1.7,0-2.9-0.5-3.8-1.5c-0.9-1-1.3-2.2-1.3-3.7
		c0-1.5,0.5-2.8,1.4-3.9c0.9-1.1,2.2-1.7,3.8-1.7c0.6,0,1.1,0.1,1.7,0.2l-0.3,1.9c-0.6-0.2-1.1-0.3-1.6-0.3c-1,0-1.7,0.3-2.2,1
		c-0.5,0.7-0.7,1.5-0.7,2.5c0,1,0.3,1.9,0.8,2.6c0.6,0.7,1.4,1.1,2.4,1.1C221.9,128.8,222.5,128.7,223.2,128.5z"/>
	<path class="st2" d="M226.7,129c0,0.4-0.1,0.7-0.4,1c-0.2,0.3-0.6,0.4-1,0.4c-0.4,0-0.6-0.1-0.8-0.4c-0.2-0.3-0.3-0.6-0.3-0.9
		c0-0.4,0.1-0.7,0.4-1c0.2-0.3,0.6-0.4,1-0.4c0.4,0,0.6,0.1,0.8,0.4C226.6,128.3,226.7,128.6,226.7,129z"/>
	<path class="st3" d="M71.8,38.5l11.6,5.8l-8.7,46.2l-10.3-4.7c4.1-1.5,7.2-3.9,9.2-7c2-3.2,2.9-6.8,2.8-10.9
		c-0.2-3.9-1.3-7.2-3.4-9.9c-2-2.7-5.3-4.7-9.9-6.3c-1.4-0.4-2.6-0.9-3.6-1.2c-1-0.4-1.8-0.8-2.4-1.2c-0.6-0.4-1.1-0.9-1.3-1.5
		c-0.3-0.5-0.4-1.2-0.5-1.8c0-1.3,0.4-2.4,1.4-3.3c0.9-0.9,2.2-1.4,4-1.5c2-0.1,3.9,0,5.8,0.6c1.9,0.5,3.4,1.1,4.4,1.7L71.8,38.5
		L71.8,38.5z M43.2,76l-9-4.1l7.5-22.5c0.1,3.1,1.3,6.1,3.4,8.8c2.1,2.7,5.6,4.8,10.5,6.3c1.4,0.4,2.5,0.8,3.4,1.2
		c0.9,0.4,1.6,0.8,2.1,1.2c0.5,0.4,0.9,1,1.1,1.5c0.2,0.6,0.3,1.2,0.4,1.9c0,1.4-0.5,2.5-1.4,3.4c-0.9,0.9-2.5,1.4-4.7,1.5
		c-1.1,0.1-2.2,0-3.4-0.1c-1.2-0.1-2.4-0.3-3.5-0.6c-1.1-0.3-2.2-0.6-3.2-1c-1-0.4-1.9-0.8-2.6-1.3L43.2,76L43.2,76z M55.8,29.8
		c-4.1,1.1-7.3,3.1-9.7,5.8l3-9.3L55.8,29.8z"/>
	<path class="st2" d="M168,119c0,0.1-0.3,0.5-1,1.3c-0.7,0.8-1,1.2-1,1.3h-1.3c0-0.1,0.2-0.5,0.7-1.3c0.4-0.8,0.6-1.2,0.6-1.3H168z"
		/>
	<g>
		<path class="st4" d="M243.9,87c3.3,0,6.1,2.7,6.1,6.1c0,3.3-2.7,6.1-6.1,6.1c-3.3,0-6.1-2.7-6.1-6.1C237.9,89.8,240.6,87,243.9,87
			z"/>
		<path d="M240.1,94.8v-4.2h1.3l0.8,2.8l0.7-2.8h1.3v4.2h-0.8v-3.3l-0.8,3.3h-0.8l-0.8-3.3v3.3H240.1L240.1,94.8z M245,94.8v-4.2
			h1.8c0.4,0,0.8,0,1,0.1c0.2,0.1,0.4,0.2,0.5,0.4c0.1,0.2,0.2,0.4,0.2,0.7c0,0.3-0.1,0.6-0.3,0.8c-0.2,0.2-0.5,0.3-0.8,0.4
			c0.2,0.1,0.3,0.2,0.4,0.4c0.1,0.1,0.3,0.4,0.5,0.7l0.5,0.8h-1l-0.6-0.9c-0.2-0.3-0.4-0.5-0.4-0.6c-0.1-0.1-0.2-0.1-0.3-0.2
			c-0.1,0-0.2,0-0.4,0h-0.2v1.7H245L245,94.8z M245.8,92.4h0.6c0.4,0,0.7,0,0.8-0.1c0.1,0,0.2-0.1,0.2-0.2c0.1-0.1,0.1-0.2,0.1-0.3
			c0-0.1,0-0.3-0.1-0.3c-0.1-0.1-0.2-0.1-0.3-0.2c-0.1,0-0.3,0-0.6,0h-0.7V92.4z"/>
	</g>
</g>
</svg>
