<?xml version="1.0" encoding="utf-8"?>
<!-- Generator: Adobe Illustrator 19.0.0, SVG Export Plug-In . SVG Version: 6.00 Build 0)  -->
<svg version="1.1" id="Capa_1" xmlns="http://www.w3.org/2000/svg" xmlns:xlink="http://www.w3.org/1999/xlink" x="0px" y="0px"
	 viewBox="-180 314 250 166" style="enable-background:new -180 314 250 166;" xml:space="preserve">
<style type="text/css">
	.st0{fill:#161005;}
	.st1{fill:#F8F7CF;}
	.st2{fill:#6FA63C;}
</style>
<g>
	<polygon class="st0" points="-63.1,423 -63.1,423 -63.2,423 	"/>
	<polygon class="st0" points="-63.3,423 -63.2,423 -63.3,423 	"/>
	<path class="st0" d="M-37.3,442.3c-0.3-0.5-0.6-0.9-1-1.2c-0.4-0.3-0.8-0.6-1.1-0.9c-0.4-0.3-0.8-0.5-1.1-0.6
		c-0.4-0.2-0.7-0.3-1-0.5c-0.4-0.2-0.7-0.3-1-0.4c-0.3-0.1-0.5-0.2-0.7-0.3c-0.2-0.1-0.4-0.2-0.7-0.3c-0.2-0.1-0.5-0.2-0.8-0.4
		c-0.4-0.2-0.8-0.4-1.3-0.6c-0.5-0.2-1-0.5-1.4-0.9c-0.5-0.4-0.8-0.8-1.2-1.2c-0.3-0.5-0.5-1-0.5-1.6c0-0.5,0.1-0.9,0.4-1.2
		c0.2-0.3,0.6-0.6,0.9-0.8c0.4-0.2,0.8-0.4,1.3-0.5c0.5-0.1,0.9-0.1,1.4-0.1c0.6,0,1.1,0.1,1.6,0.2c0.5,0.1,0.9,0.3,1.3,0.5
		c0.4,0.2,0.8,0.5,1.2,0.9c0.4,0.3,0.8,0.7,1.2,1.1l2.4-3.1c-0.6-0.5-1.2-1-1.7-1.3c-0.6-0.4-1.2-0.7-1.8-0.9
		c-0.6-0.2-1.3-0.4-2-0.5c-0.7-0.1-1.4-0.2-2.2-0.2c-1,0-2.1,0.1-3,0.4c-1,0.3-1.9,0.6-2.6,1.1c-0.8,0.5-1.4,1.2-1.8,1.9
		c-0.5,0.8-0.7,1.7-0.7,2.8c0,0.8,0.1,1.5,0.3,2.2c0.2,0.6,0.5,1.2,0.8,1.7c0.3,0.5,0.7,0.9,1.1,1.3c0.4,0.4,0.9,0.7,1.3,1
		c0.5,0.3,0.9,0.5,1.4,0.7c0.5,0.2,0.9,0.4,1.3,0.6c0.2,0.1,0.4,0.2,0.6,0.3c0.2,0.1,0.4,0.2,0.5,0.2c0.2,0.1,0.4,0.2,0.6,0.2
		c0.2,0.1,0.4,0.2,0.7,0.3c0.7,0.3,1.3,0.6,1.8,0.9c0.5,0.3,1,0.5,1.3,0.8c0.4,0.3,0.6,0.6,0.8,0.9c0.2,0.3,0.3,0.7,0.3,1.2
		c0,0.6-0.1,1.2-0.4,1.6c-0.2,0.4-0.6,0.8-0.9,1c-0.4,0.3-0.8,0.4-1.3,0.5c-0.5,0.1-1,0.2-1.5,0.2c-0.7,0-1.3-0.1-1.8-0.2
		c-0.5-0.1-1-0.3-1.4-0.5c-0.4-0.2-0.9-0.6-1.3-1c-0.4-0.4-0.9-0.9-1.5-1.4l-3.1,2.8c0.6,0.6,1.2,1.1,1.9,1.6
		c0.6,0.4,1.3,0.8,2.1,1.1c0.7,0.3,1.5,0.5,2.3,0.7c0.8,0.2,1.7,0.2,2.7,0.2c0.7,0,1.4-0.1,2.1-0.2c0.7-0.1,1.4-0.3,2-0.5
		c0.6-0.2,1.2-0.6,1.8-0.9c0.6-0.4,1-0.8,1.4-1.3c0.4-0.5,0.7-1.1,1-1.7c0.2-0.6,0.3-1.3,0.3-2.1c0-0.8-0.1-1.4-0.3-2
		C-36.8,443.3-37,442.8-37.3,442.3z"/>
	<path class="st0" d="M-160.2,420.4c-1.1-0.9-2.4-1.6-4.1-2.2c-1.6-0.5-3.6-0.8-5.8-0.8h-9.9v35h6.1v-13.5h3.1c1.9,0,3.6-0.2,5-0.6
		c1.4-0.4,2.6-0.9,3.7-1.5c1-0.6,1.9-1.3,2.5-2.1c0.7-0.8,1.2-1.6,1.5-2.4c0.4-0.8,0.6-1.6,0.8-2.4c0.1-0.8,0.2-1.5,0.2-2
		c0-1.5-0.3-2.9-0.8-4.1C-158.4,422.4-159.2,421.3-160.2,420.4z M-163.7,430.7c-0.4,0.8-0.9,1.5-1.6,2c-0.7,0.6-1.5,1-2.4,1.2
		c-0.9,0.3-2,0.4-3.1,0.4l-3.1,0v-12.5h3.3c1.4,0,2.6,0.2,3.5,0.5c0.9,0.3,1.7,0.8,2.3,1.3c0.6,0.5,1,1.2,1.2,1.9
		c0.3,0.7,0.4,1.5,0.4,2.3C-163.1,429-163.3,429.9-163.7,430.7z"/>
	<path class="st0" d="M-140.6,440.8c0.7-0.5,1.3-1.1,1.7-1.8c0.4-0.7,0.7-1.3,0.9-2.1c0.2-0.7,0.3-1.4,0.3-2.1c0-1-0.2-2-0.5-2.8
		c-0.4-0.8-0.9-1.5-1.6-2.1c-0.7-0.6-1.7-1-2.8-1.3c-1.1-0.3-2.5-0.5-4-0.5h-6.9v24.3h4.2l0-10.1c0.4,0.1,0.8,0.1,1.1,0.1
		c0.3,0,0.6,0,0.9,0l6.5,9.9h4.8l-7.4-10.3C-142.3,441.8-141.3,441.3-140.6,440.8z M-147.3,439.4c-0.3,0-0.7,0-1,0
		c-0.3,0-0.7,0-1-0.1v-8h2c1.1,0,1.9,0.1,2.6,0.2c0.7,0.1,1.3,0.4,1.7,0.7c0.4,0.3,0.7,0.7,0.9,1.2c0.2,0.5,0.2,1,0.2,1.7
		c0,0.7-0.1,1.3-0.4,1.8c-0.2,0.5-0.6,1-1.1,1.4c-0.5,0.4-1,0.7-1.7,0.9C-145.7,439.3-146.5,439.4-147.3,439.4z"/>
	<path class="st0" d="M-116.4,430.8c-1-1.1-2.1-1.9-3.5-2.4c-1.3-0.6-2.8-0.8-4.4-0.8c-1.7,0-3.3,0.3-4.7,0.9
		c-1.4,0.6-2.5,1.5-3.5,2.6c-1,1.1-1.7,2.4-2.2,4c-0.5,1.5-0.8,3.2-0.8,5.1c0,1.9,0.2,3.7,0.7,5.2c0.5,1.6,1.2,2.9,2.2,4
		c0.9,1.1,2.1,2,3.5,2.6c1.4,0.6,2.9,0.9,4.7,0.9c1.1,0,2.1-0.2,3.1-0.5c1-0.3,1.9-0.7,2.7-1.3c0.8-0.6,1.6-1.2,2.2-2
		c0.7-0.8,1.2-1.7,1.7-2.7c0.5-1,0.8-2,1.1-3.2c0.2-1.1,0.4-2.3,0.4-3.5c0-1.9-0.3-3.6-0.8-5.1
		C-114.7,433.2-115.5,431.9-116.4,430.8z M-118.3,443.7c-0.3,1.1-0.7,2.1-1.3,3c-0.6,0.9-1.3,1.6-2.1,2.1c-0.8,0.5-1.8,0.8-2.8,0.8
		c-1.1,0-2-0.2-2.8-0.7c-0.8-0.5-1.5-1.2-2-2c-0.5-0.9-0.9-1.9-1.2-3.1c-0.3-1.2-0.4-2.5-0.4-3.9c0-1.4,0.2-2.6,0.5-3.7
		c0.3-1.1,0.8-2.1,1.4-2.9c0.6-0.8,1.3-1.4,2.1-1.8c0.8-0.4,1.7-0.6,2.7-0.6c1,0,1.9,0.2,2.7,0.7c0.8,0.4,1.5,1.1,2.1,1.9
		c0.6,0.8,1,1.8,1.3,2.9c0.3,1.1,0.5,2.4,0.5,3.8C-117.8,441.4-118,442.6-118.3,443.7z"/>
	<path class="st0" d="M-95.4,448.9c-0.3,0.1-0.6,0.2-1,0.2c-0.4,0.1-0.7,0.1-1.1,0.2c-0.4,0.1-0.7,0.1-1.1,0.1c-0.4,0-0.7,0-1,0
		c-1.2,0-2.2-0.3-3-0.8c-0.8-0.5-1.5-1.3-2-2.2c-0.5-0.9-0.9-1.9-1.2-3.1c-0.2-1.2-0.4-2.4-0.4-3.7c0-1.2,0.1-2.4,0.4-3.5
		c0.3-1.1,0.7-2,1.2-2.8c0.5-0.8,1.2-1.4,2-1.9c0.8-0.5,1.7-0.7,2.7-0.7c0.6,0,1.1,0,1.6,0.1c0.5,0.1,0.9,0.2,1.4,0.4
		c0.4,0.2,0.9,0.4,1.4,0.8c0.5,0.3,1,0.7,1.5,1.2l2.2-3.1c-0.5-0.4-0.9-0.7-1.4-1c-0.4-0.3-0.8-0.5-1.2-0.7
		c-0.4-0.2-0.8-0.4-1.1-0.5c-0.4-0.1-0.8-0.2-1.2-0.3c-0.4-0.1-0.9-0.1-1.4-0.2c-0.5,0-1,0-1.6,0c-1.2,0-2.3,0.2-3.3,0.5
		c-1,0.3-1.9,0.8-2.8,1.3c-0.8,0.6-1.5,1.2-2.2,2c-0.6,0.8-1.2,1.7-1.6,2.6c-0.4,0.9-0.7,1.9-1,3c-0.2,1.1-0.3,2.2-0.3,3.3
		c0,1.1,0.1,2.1,0.3,3.1c0.2,1,0.5,2,0.8,2.9c0.4,0.9,0.8,1.8,1.4,2.6c0.6,0.8,1.2,1.5,2,2.1c0.8,0.6,1.7,1,2.6,1.4
		c1,0.3,2.1,0.5,3.3,0.5c1.1,0,2.1-0.1,3-0.2c0.9-0.1,1.7-0.2,2.4-0.4c0.7-0.2,1.4-0.4,2-0.7c0.6-0.3,1.2-0.5,1.7-0.8v-10.1h-4.3
		V448.9z"/>
	<path class="st0" d="M-75.2,440.8c0.7-0.5,1.3-1.1,1.7-1.8c0.4-0.7,0.7-1.3,0.9-2.1c0.2-0.7,0.3-1.4,0.3-2.1c0-1-0.2-2-0.5-2.8
		c-0.4-0.8-0.9-1.5-1.6-2.1c-0.7-0.6-1.7-1-2.8-1.3c-1.1-0.3-2.5-0.5-4-0.5h-6.9v24.3h4.2l0-10.1c0.4,0.1,0.8,0.1,1.1,0.1
		c0.3,0,0.6,0,0.9,0l6.5,9.9h4.8l-7.4-10.3C-76.8,441.8-75.9,441.3-75.2,440.8z M-81.9,439.4c-0.3,0-0.7,0-1,0c-0.3,0-0.7,0-1-0.1
		v-8h2c1.1,0,1.9,0.1,2.6,0.2c0.7,0.1,1.3,0.4,1.7,0.7c0.4,0.3,0.7,0.7,0.9,1.2c0.2,0.5,0.2,1,0.2,1.7c0,0.7-0.1,1.3-0.4,1.8
		c-0.2,0.5-0.6,1-1.1,1.4c-0.5,0.4-1,0.7-1.7,0.9C-80.3,439.3-81,439.4-81.9,439.4z"/>
	<polygon class="st0" points="-64.8,441.1 -57.2,441.1 -57.2,437.9 -64.8,437.9 -64.8,431.3 -55.3,431.3 -55.3,428.2 -69,428.2 
		-69,452.4 -54.9,452.4 -54.9,449.3 -64.8,449.3 	"/>
	<polygon class="st0" points="-29.2,441.1 -21.7,441.1 -21.7,437.9 -29.2,437.9 -29.2,431.3 -19.7,431.3 -19.7,428.2 -33.5,428.2 
		-33.5,452.4 -19.3,452.4 -19.3,449.3 -29.2,449.3 	"/>
	<polygon class="st0" points="-5.1,448.9 -12.4,428.2 -16.8,428.2 -16.8,452.4 -12.6,452.4 -12.6,437.3 -6.9,452.4 -3.2,452.4 
		2,437.3 2,452.4 6.2,452.4 6.2,428.2 1.8,428.2 	"/>
	<path class="st0" d="M27.7,430.8c-1-1.1-2.1-1.9-3.5-2.4c-1.3-0.6-2.8-0.8-4.4-0.8c-1.7,0-3.3,0.3-4.7,0.9
		c-1.4,0.6-2.5,1.5-3.5,2.6c-1,1.1-1.7,2.4-2.2,4c-0.5,1.5-0.8,3.2-0.8,5.1c0,1.9,0.2,3.7,0.7,5.2c0.5,1.6,1.2,2.9,2.2,4
		c0.9,1.1,2.1,2,3.5,2.6c1.4,0.6,2.9,0.9,4.7,0.9c1.1,0,2.1-0.2,3.1-0.5c1-0.3,1.9-0.7,2.7-1.3c0.8-0.6,1.6-1.2,2.2-2
		c0.7-0.8,1.2-1.7,1.7-2.7c0.5-1,0.8-2,1.1-3.2c0.2-1.1,0.4-2.3,0.4-3.5c0-1.9-0.3-3.6-0.8-5.1C29.4,433.2,28.7,431.9,27.7,430.8z
		 M25.8,443.7c-0.3,1.1-0.7,2.1-1.3,3c-0.6,0.9-1.3,1.6-2.1,2.1c-0.8,0.5-1.8,0.8-2.8,0.8c-1.1,0-2-0.2-2.8-0.7
		c-0.8-0.5-1.5-1.2-2-2c-0.5-0.9-1-1.9-1.2-3.1c-0.3-1.2-0.4-2.5-0.4-3.9c0-1.4,0.2-2.6,0.5-3.7c0.3-1.1,0.8-2.1,1.4-2.9
		c0.6-0.8,1.3-1.4,2.1-1.8c0.8-0.4,1.7-0.6,2.7-0.6c1,0,1.9,0.2,2.7,0.7c0.8,0.4,1.5,1.1,2.1,1.9c0.6,0.8,1,1.8,1.3,2.9
		c0.3,1.1,0.5,2.4,0.5,3.8C26.3,441.4,26.1,442.6,25.8,443.7z"/>
	<path class="st0" d="M57.5,437.9c-0.4-0.7-0.9-1.3-1.4-1.8c-0.5-0.5-1.1-0.9-1.6-1.3c-0.6-0.4-1.1-0.7-1.6-0.9
		c-0.5-0.3-1-0.5-1.5-0.7c-0.6-0.2-1-0.4-1.4-0.6c-0.4-0.1-0.7-0.3-1-0.4c-0.3-0.1-0.6-0.3-0.9-0.4c-0.3-0.1-0.7-0.3-1.2-0.5
		c-0.5-0.2-1.1-0.5-1.9-0.9c-0.7-0.4-1.4-0.8-2.1-1.3c-0.7-0.5-1.2-1.1-1.7-1.8c-0.5-0.7-0.7-1.4-0.7-2.2c0-0.7,0.2-1.3,0.5-1.8
		c0.3-0.5,0.8-0.9,1.4-1.2c0.5-0.3,1.2-0.5,1.8-0.7c0.7-0.1,1.3-0.2,2-0.2c0.9,0,1.6,0.1,2.3,0.3c0.7,0.2,1.3,0.4,1.9,0.8
		c0.6,0.3,1.1,0.8,1.7,1.3c0.5,0.5,1.1,1,1.7,1.7l3.4-4.5c-0.8-0.7-1.7-1.4-2.5-1.9c-0.8-0.5-1.7-1-2.6-1.3
		c-0.9-0.3-1.8-0.6-2.8-0.7c-1-0.2-2.1-0.2-3.2-0.2c-1.5,0-3,0.2-4.4,0.5c-1.4,0.4-2.7,0.9-3.8,1.7c-1.1,0.7-2,1.7-2.7,2.8
		c-0.7,1.1-1,2.5-1,4c0,1.2,0.1,2.2,0.4,3.1c0.3,0.9,0.7,1.7,1.1,2.5c0.5,0.7,1,1.3,1.6,1.9c0.6,0.5,1.3,1,1.9,1.4
		c0.7,0.4,1.3,0.8,2,1.1c0.7,0.3,1.3,0.6,1.9,0.9c0.3,0.1,0.6,0.3,0.8,0.4c0.3,0.1,0.5,0.2,0.8,0.3c0.3,0.1,0.5,0.2,0.8,0.4
		c0.3,0.1,0.6,0.3,0.9,0.4c1,0.4,1.9,0.8,2.6,1.2c0.8,0.4,1.4,0.8,1.9,1.2c0.5,0.4,0.9,0.9,1.1,1.4c0.3,0.5,0.4,1.1,0.4,1.7
		c0,0.9-0.2,1.7-0.5,2.3c-0.3,0.6-0.8,1.1-1.4,1.5c-0.6,0.4-1.2,0.6-1.9,0.8c-0.7,0.2-1.5,0.2-2.2,0.2c-1,0-1.8-0.1-2.5-0.2
		c-0.7-0.2-1.4-0.4-2-0.8c-0.6-0.3-1.2-0.8-1.9-1.4c-0.6-0.6-1.3-1.3-2.1-2.1l-4.4,4c0.9,0.8,1.8,1.6,2.7,2.2c0.9,0.6,1.9,1.2,3,1.6
		c1,0.4,2.1,0.8,3.3,1c1.2,0.2,2.5,0.3,3.8,0.3c1,0,2-0.1,3-0.3c1-0.2,2-0.4,2.9-0.8c0.9-0.4,1.8-0.8,2.6-1.3
		c0.8-0.5,1.5-1.2,2.1-1.9c0.6-0.7,1-1.6,1.4-2.5c0.3-0.9,0.5-1.9,0.5-3.1c0-1.1-0.1-2.1-0.4-2.9C58.3,439.3,57.9,438.6,57.5,437.9z
		"/>
	<path class="st0" d="M66.3,439.5c-2.1,0-3.7,1.7-3.7,3.7c0,2.1,1.7,3.7,3.7,3.7c2.1,0,3.7-1.7,3.7-3.7
		C70,441.2,68.3,439.5,66.3,439.5z M66.3,446.4c-1.8,0-3.2-1.4-3.2-3.2c0-1.8,1.4-3.2,3.2-3.2c1.8,0,3.2,1.4,3.2,3.2
		C69.4,445,68,446.4,66.3,446.4z"/>
	<path class="st0" d="M67.1,443.8c0-0.1-0.1-0.1-0.2-0.2c-0.1-0.1-0.1-0.1-0.2-0.2c-0.1,0-0.1-0.1-0.2-0.1v0c0.1,0,0.3-0.1,0.4-0.2
		c0.1-0.1,0.2-0.2,0.3-0.3c0.1-0.1,0.1-0.2,0.2-0.3c0-0.1,0.1-0.3,0.1-0.4c0-0.8-0.5-1.2-1.5-1.2h-1.5v4.2h1v-1.6h0.3
		c0.1,0,0.1,0,0.2,0c0,0,0.1,0.1,0.1,0.1c0,0,0.1,0.1,0.1,0.2c0,0.1,0.1,0.1,0.1,0.2l0.7,1.1H68l-0.8-1.3
		C67.2,444,67.2,443.9,67.1,443.8z M66.4,442.8c-0.1,0.1-0.3,0.2-0.5,0.2h-0.4v-1.2h0.4c0.4,0,0.7,0.2,0.7,0.6
		C66.5,442.5,66.5,442.6,66.4,442.8z"/>
	<g>
		<path class="st1" d="M-68.2,352.1c0.7,1.1,1.5,2.3,2.2,3.7c1.4-1.6,2.4-2.6,2.5-2.7l0.1-0.1l0.2,0c0.2,0,1.4,1.1,2.8,2.8
			c1.1-2.1,2.4-4,3.5-5.5c0,0,0-0.1,0.1-0.1c-2.5-4.4-5.5-7.4-6.4-8.2c-0.9,0.9-3.9,3.9-6.4,8.3c0,0,0,0,0,0.1
			C-69.1,350.8-68.7,351.4-68.2,352.1z"/>
		<path class="st1" d="M-74.3,364.3c0.1,0.1,0.3,0.1,0.4,0.2c0,0,0,0,0,0c0.1,0.1,0.3,0.1,0.4,0.2c0.5,0.3,0.9,0.5,1.4,0.8
			c1.6-3.7,3.8-6.9,5.6-9.1c-1.1-2.1-2.3-4-3.4-5.5c0,0,0,0,0,0c-0.1-0.1-0.2-0.2-0.3-0.3c-0.1-0.1-0.2-0.2-0.3-0.3
			c-1.5-2-2.9-3.3-3.4-3.8c-0.6,0.6-2,2-3.6,4.1c-1.5,2-3.2,4.6-4.5,7.5C-80.2,360.9-77.4,362.6-74.3,364.3z"/>
		<path class="st1" d="M-60.5,356.8c-0.1-0.1-0.2-0.2-0.3-0.3c-1.1-1.3-2-2.2-2.4-2.6c-0.4,0.4-1.3,1.3-2.4,2.7
			c-0.1,0.1-0.2,0.2-0.3,0.3c-0.1,0.1-0.2,0.2-0.3,0.3c-1.7,2.2-3.8,5.2-5.3,8.7c2.9,1.7,5.7,3.8,7.2,7.4c0.1,0.2,0.2,0.4,0.2,0.6
			c0.1,0.2,0.1,0.4,0.2,0.6c0.2,0.7,0.4,1.5,0.6,2.3c0.2-0.8,0.4-1.6,0.6-2.3c0.1-0.2,0.1-0.4,0.2-0.6c0.1-0.2,0.2-0.4,0.2-0.6
			c1.6-3.6,4.3-5.7,7.3-7.4c-1.5-3.6-3.6-6.6-5.3-8.7C-60.3,357-60.4,356.9-60.5,356.8z"/>
		<path class="st1" d="M-57.5,359.6c1.1,1.6,2.3,3.6,3.2,5.9c0.5-0.3,0.9-0.5,1.4-0.8c0.1-0.1,0.3-0.1,0.4-0.2c0,0,0,0,0,0
			c0.1-0.1,0.3-0.1,0.4-0.2c3-1.7,5.9-3.3,7.7-6.3c-1.2-2.8-2.8-5.3-4.3-7.2c-1.7-2.3-3.3-3.9-3.8-4.4c-0.6,0.5-1.9,1.9-3.4,3.9
			c-0.1,0.1-0.2,0.2-0.2,0.3c-0.1,0.1-0.2,0.2-0.2,0.3c0,0,0,0,0,0.1c-1.1,1.5-2.4,3.4-3.4,5.5C-59.1,357.4-58.3,358.5-57.5,359.6z"
			/>
		<path class="st2" d="M-64,384.6c0-0.1,0.1-0.3,0.1-0.4c0.2-0.9,0.3-1.8,0.3-2.7c0-2.2-0.2-4.1-0.6-5.7c-0.1-0.2-0.1-0.4-0.2-0.6
			c-0.1-0.2-0.1-0.4-0.2-0.6c-1.4-3.9-4.2-6.1-7.2-7.9c-0.1-0.1-0.2-0.1-0.3-0.2c-0.1-0.1-0.2-0.1-0.3-0.2c-0.3-0.2-0.7-0.4-1-0.6
			c-0.1-0.1-0.3-0.1-0.4-0.2c-0.1-0.1-0.3-0.1-0.4-0.2c0,0,0,0,0,0c-3-1.7-6.1-3.3-8.1-6.3c-0.1-0.1-0.2-0.3-0.3-0.4c0,0,0,0,0,0
			c-0.1-0.1-0.2-0.3-0.2-0.4c-0.8-1.4-1.4-3.2-1.6-5.3c-0.2,0.3-0.3,0.5-0.5,0.8c-5.8,9.7-7.8,18.4-6,25.9c1.7,7.1,7,13.2,15.7,18.3
			c0.8-0.4,4.3-2,7.3-5.4c0.1-0.1,0.2-0.2,0.3-0.3c0.1-0.1,0.2-0.2,0.2-0.3c1.5-1.8,2.8-4,3.4-6.7C-64.1,384.9-64,384.7-64,384.6z"
			/>
		<path class="st2" d="M-42,352.7c-0.2,2.1-0.8,3.9-1.6,5.3c-0.1,0.1-0.2,0.3-0.2,0.4c0,0,0,0,0,0c-0.1,0.1-0.2,0.3-0.2,0.4
			c-2,3-5.1,4.7-8.1,6.3c0,0,0,0,0,0c-0.1,0.1-0.3,0.1-0.4,0.2c-0.1,0.1-0.3,0.1-0.4,0.2c-0.3,0.2-0.7,0.4-1,0.6
			c-0.1,0.1-0.2,0.1-0.3,0.2c-0.1,0.1-0.2,0.1-0.3,0.2c-3,1.8-5.8,4-7.2,7.9c-0.1,0.2-0.1,0.4-0.2,0.6c-0.1,0.2-0.1,0.4-0.2,0.6
			c-0.4,1.6-0.6,3.5-0.6,5.7c0,1,0.1,1.9,0.3,2.7c0,0.2,0.1,0.3,0.1,0.4c0,0.1,0.1,0.3,0.1,0.4c0.7,2.7,1.9,4.9,3.4,6.7
			c0.1,0.1,0.2,0.2,0.3,0.3c0.1,0.1,0.2,0.2,0.2,0.3c3,3.4,6.5,5,7.3,5.4c8.7-5.1,14-11.2,15.7-18.3c1.8-7.4-0.2-16.1-6-25.9
			C-41.6,353.3-41.8,353-42,352.7z"/>
		<path class="st1" d="M-63,385.7c0-0.2-0.1-0.3-0.1-0.5c0-0.1-0.1-0.3-0.1-0.4c0,0,0,0,0,0c0,0,0,0,0,0c0,0.1-0.1,0.3-0.1,0.4
			c0,0.1-0.1,0.3-0.1,0.4c-0.7,2.7-2.1,5-3.6,6.8c-0.1,0.1-0.2,0.2-0.2,0.3l4.1,4.6c0,0,1.9-1.7,4.1-4.6c-0.1-0.1-0.2-0.2-0.3-0.3
			C-60.9,390.6-62.2,388.4-63,385.7z"/>
		<path class="st0" d="M-41.9,351.4l-0.6-1l-0.1,1.2c-0.1,2.3-0.6,4.1-1.4,5.6c-0.9-2-1.9-3.7-2.9-5.1c-2.3-3.4-5.3-6.6-5.7-6.6
			l-0.2,0l-0.1,0.1c-0.4,0.4-1.8,1.8-3.6,3.9c-0.4-0.7-0.8-1.3-1.2-1.9c-2.3-3.4-5.3-6.6-5.7-6.6l-0.2,0l-0.1,0.1
			c-0.6,0.6-3.8,3.7-6.6,8.4c-1.8-2.3-3.5-4-3.8-4l-0.2,0l-0.1,0.1c-0.7,0.7-5.4,5.2-8.3,11.6c-0.7-1.5-1.2-3.3-1.3-5.6l-0.1-1.2
			l-0.6,1c-2.8,4.4-4.8,8.6-6.2,12.6c-6,15.7-1.1,28.2,14.9,37.4c0,0,4.5-1.8,8.1-6c2.4,3.2,4.5,5.1,4.5,5.1c0,0,2.1-1.9,4.4-5.1
			c3.6,4.2,8.1,6,8.1,6c15.9-9.2,20.9-21.7,14.9-37.4C-37.1,360-39.1,355.8-41.9,351.4z M-56.4,350.9c0.1-0.1,0.2-0.2,0.2-0.3
			c0.1-0.1,0.2-0.2,0.2-0.3c1.5-2,2.8-3.3,3.4-3.9c0.6,0.6,2.1,2.1,3.8,4.4c1.5,1.9,3,4.4,4.3,7.2c-1.8,2.9-4.7,4.6-7.7,6.3
			c-0.1,0.1-0.3,0.1-0.4,0.2c0,0,0,0,0,0c-0.1,0.1-0.3,0.1-0.4,0.2c-0.5,0.3-0.9,0.5-1.4,0.8c-1-2.3-2.2-4.3-3.2-5.9
			c-0.7-1.1-1.6-2.2-2.4-3.2C-58.8,354.3-57.6,352.5-56.4,350.9C-56.5,350.9-56.4,350.9-56.4,350.9z M-54.9,365.8
			c-2.9,1.7-5.7,3.8-7.3,7.4c-0.1,0.2-0.2,0.4-0.2,0.6c-0.1,0.2-0.1,0.4-0.2,0.6c-0.2,0.7-0.4,1.5-0.6,2.3c-0.2-0.8-0.3-1.6-0.6-2.3
			c-0.1-0.2-0.1-0.4-0.2-0.6c-0.1-0.2-0.2-0.4-0.2-0.6c-1.6-3.6-4.3-5.7-7.2-7.4c1.5-3.5,3.6-6.6,5.3-8.7c0.1-0.1,0.2-0.2,0.3-0.3
			c0.1-0.1,0.2-0.2,0.3-0.3c1.1-1.3,2-2.2,2.4-2.7c0.4,0.4,1.3,1.3,2.4,2.6c0.1,0.1,0.2,0.2,0.3,0.3c0.1,0.1,0.2,0.2,0.3,0.3
			C-58.5,359.3-56.4,362.3-54.9,365.8z M-63.2,341.9c0.9,0.8,3.8,3.9,6.4,8.2c0,0,0,0.1-0.1,0.1c-1.2,1.5-2.4,3.4-3.5,5.5
			c-1.4-1.6-2.6-2.8-2.8-2.8l-0.2,0l-0.1,0.1c-0.1,0.1-1.2,1.1-2.5,2.7c-0.7-1.4-1.5-2.6-2.2-3.7c-0.4-0.6-0.9-1.3-1.3-1.8
			c0,0,0,0,0-0.1C-67.1,345.9-64.1,342.8-63.2,341.9z M-77.5,350.5c1.6-2.1,3-3.5,3.6-4.1c0.5,0.5,1.9,1.9,3.4,3.8
			c0.1,0.1,0.2,0.2,0.3,0.3c0.1,0.1,0.2,0.2,0.3,0.3c0,0,0,0,0,0c1.1,1.5,2.4,3.4,3.4,5.5c-1.8,2.2-4,5.3-5.6,9.1
			c-0.5-0.3-0.9-0.5-1.4-0.8c-0.1-0.1-0.3-0.1-0.4-0.2c0,0,0,0,0,0c-0.1-0.1-0.3-0.1-0.4-0.2c-3-1.7-5.9-3.3-7.7-6.3
			C-80.7,355-79,352.5-77.5,350.5z M-67.8,392c-0.1,0.1-0.2,0.2-0.3,0.3c-3,3.3-6.5,5-7.3,5.4c-8.7-5.1-14-11.2-15.7-18.3
			c-1.8-7.4,0.2-16.1,6-25.9c0.2-0.3,0.3-0.5,0.5-0.8c0.2,2.1,0.8,3.8,1.6,5.3c0.1,0.1,0.2,0.3,0.2,0.4c0,0,0,0,0,0
			c0.1,0.1,0.2,0.3,0.3,0.4c2,3,5.1,4.7,8.1,6.3c0,0,0,0,0,0c0.1,0.1,0.3,0.1,0.4,0.2c0.1,0.1,0.3,0.1,0.4,0.2
			c0.3,0.2,0.7,0.4,1,0.6c0.1,0.1,0.2,0.1,0.3,0.2c0.1,0.1,0.2,0.1,0.3,0.2c3,1.8,5.8,4,7.2,7.9c0.1,0.2,0.1,0.4,0.2,0.6
			c0.1,0.2,0.1,0.4,0.2,0.6c0.4,1.6,0.6,3.5,0.6,5.7c0,1-0.1,1.9-0.3,2.7c0,0.1-0.1,0.3-0.1,0.4c0,0.1-0.1,0.3-0.1,0.4
			c-0.7,2.7-1.9,4.9-3.4,6.7C-67.6,391.8-67.7,391.9-67.8,392z M-63.2,397.3l-4.1-4.6c0.1-0.1,0.2-0.2,0.2-0.3
			c1.5-1.8,2.9-4.1,3.6-6.8c0-0.1,0.1-0.3,0.1-0.4c0-0.1,0.1-0.3,0.1-0.4c0,0,0,0,0,0c0,0,0,0,0,0c0,0.1,0.1,0.3,0.1,0.4
			c0,0.2,0.1,0.3,0.1,0.5c0.7,2.7,2.1,4.9,3.5,6.6c0.1,0.1,0.2,0.2,0.3,0.3C-61.4,395.5-63.2,397.3-63.2,397.3z M-35.4,379.4
			c-1.7,7.1-7,13.2-15.7,18.3c-0.8-0.4-4.3-2-7.3-5.4c-0.1-0.1-0.2-0.2-0.2-0.3c-0.1-0.1-0.2-0.2-0.3-0.3c-1.5-1.8-2.7-4-3.4-6.7
			c0-0.1-0.1-0.3-0.1-0.4c0-0.1-0.1-0.3-0.1-0.4c-0.2-0.9-0.3-1.8-0.3-2.7c0-2.2,0.2-4.1,0.6-5.7c0.1-0.2,0.1-0.4,0.2-0.6
			c0.1-0.2,0.1-0.4,0.2-0.6c1.4-3.9,4.2-6.1,7.2-7.9c0.1-0.1,0.2-0.1,0.3-0.2c0.1-0.1,0.2-0.1,0.3-0.2c0.3-0.2,0.7-0.4,1-0.6
			c0.1-0.1,0.3-0.1,0.4-0.2c0.1-0.1,0.3-0.1,0.4-0.2c0,0,0,0,0,0c3-1.7,6.1-3.3,8.1-6.3c0.1-0.1,0.2-0.3,0.2-0.4c0,0,0,0,0,0
			c0.1-0.1,0.2-0.3,0.2-0.4c0.8-1.4,1.4-3.2,1.6-5.3c0.2,0.3,0.3,0.5,0.5,0.8C-35.6,363.3-33.6,372-35.4,379.4z"/>
	</g>
	<g>
		<polygon points="-63.2,404.5 -63.2,404.5 -63.2,404.5 		"/>
		<rect x="-63.2" y="404.5" width="0" height="0"/>
		<polygon points="-63.2,404.5 -63.2,404.5 -63.2,404.5 -63.2,404.5 -63.2,404.5 -63.2,404.5 		"/>
		<polygon points="-63.2,404.5 -63.2,404.5 -63.2,404.5 		"/>
		<polygon points="-63.2,404.5 -63.2,404.5 -63.2,404.5 		"/>
		<rect x="-63.2" y="404.5" width="0" height="0"/>
		<rect x="-63.2" y="404.5" width="0" height="0"/>
		<polygon points="-63.2,404.5 -63.2,404.5 -63.2,404.5 		"/>
		<rect x="-63.2" y="404.5" width="0" height="0"/>
		<rect x="-63.2" y="404.5" width="0" height="0"/>
		<polygon points="-63.2,404.5 -63.2,404.5 -63.2,404.5 -63.2,404.5 -63.2,404.5 		"/>
		<polygon points="-63.2,404.5 -63.2,404.5 -63.2,404.5 -63.2,404.5 -63.2,404.5 -63.2,404.5 		"/>
		<polygon points="-63.2,404.5 -63.2,404.5 -63.2,404.5 -63.2,404.5 -63.2,404.5 		"/>
		<rect x="-63.2" y="404.5" width="0" height="0"/>
		<rect x="-63.2" y="404.5" width="0" height="0"/>
		<polygon points="-63.2,404.5 -63.2,404.5 -63.2,404.5 		"/>
		<polygon points="-63.2,404.5 -63.2,404.5 -63.2,404.5 		"/>
		<rect x="-63.2" y="404.5" width="0" height="0"/>
		<rect x="-63.2" y="404.5" width="0" height="0"/>
		<polygon points="-63.2,404.5 -63.2,404.5 -63.2,404.5 		"/>
		<rect x="-63.2" y="404.5" width="0" height="0"/>
		<rect x="-63.2" y="404.5" width="0" height="0"/>
		<polygon points="-63.2,404.5 -63.2,404.5 -63.2,404.5 -63.2,404.5 -63.2,404.5 		"/>
		<polygon points="-63.2,404.5 -63.2,404.5 -63.2,404.5 		"/>
		<rect x="-63.2" y="404.5" width="0" height="0"/>
		<rect x="-63.2" y="404.5" width="0" height="0"/>
		<rect x="-63.2" y="404.5" width="0" height="0"/>
		<polygon points="-63.2,404.5 -63.2,404.5 -63.2,404.5 		"/>
		<polygon points="-63.2,404.5 -63.2,404.5 -63.2,404.5 		"/>
		<rect x="-63.2" y="404.5" width="0" height="0"/>
		<polygon points="-63.2,404.5 -63.2,404.5 -63.2,404.5 		"/>
		<rect x="-63.2" y="404.5" width="0" height="0"/>
		<rect x="-63.2" y="404.5" width="0" height="0"/>
		<rect x="-63.2" y="404.5" width="0" height="0"/>
		<rect x="-63.2" y="404.5" width="0" height="0"/>
		<rect x="-63.2" y="404.5" width="0" height="0"/>
		<rect x="-63.2" y="404.5" width="0" height="0"/>
		<polygon points="-63.2,404.5 -63.2,404.5 -63.2,404.5 -63.2,404.5 -63.2,404.5 		"/>
		<rect x="-63.2" y="404.5" width="0" height="0"/>
		<rect x="-63.2" y="404.5" width="0" height="0"/>
		<rect x="-63.2" y="404.5" width="0" height="0"/>
		<rect x="-63.2" y="404.5" width="0" height="0"/>
		<rect x="-63.2" y="404.5" width="0" height="0"/>
		<rect x="-63.2" y="404.5" width="0" height="0"/>
		<polygon points="-63.2,404.5 -63.2,404.5 -63.2,404.5 		"/>
		<rect x="-63.2" y="404.5" width="0" height="0"/>
		<rect x="-63.2" y="404.5" width="0" height="0"/>
	</g>
	<polygon class="st0" points="-112.6,423 -102.2,423 -63.2,404.5 -63.2,404.5 	"/>
	<polygon class="st0" points="-137.5,423 -63.2,404.5 -149.9,423 	"/>
	<polygon class="st0" points="-84.9,423 -77.8,423 -63.2,404.5 -63.2,404.5 	"/>
	<polygon class="st0" points="-63.2,404.5 -63.2,404.5 -63.2,404.5 -63.2,404.6 -65.5,423 -63.3,423 -63.2,423 -63.1,423 -60.9,423 
		-63.2,404.6 -63.2,404.5 -63.2,404.5 	"/>
	<polygon class="st0" points="11.1,423 23.5,423 -63.2,404.5 	"/>
	<polygon class="st0" points="-24.2,423 -13.8,423 -63.2,404.5 -63.2,404.5 	"/>
	<polygon class="st0" points="-48.6,423 -41.5,423 -63.2,404.5 -63.2,404.5 	"/>
</g>
</svg>
