<?xml version="1.0" encoding="utf-8"?>
<!-- Generator: Adobe Illustrator 22.1.0, SVG Export Plug-In . SVG Version: 6.00 Build 0)  -->
<svg version="1.1" id="Capa_1" xmlns="http://www.w3.org/2000/svg" xmlns:xlink="http://www.w3.org/1999/xlink" x="0px" y="0px"
	 viewBox="0 0 250 166" style="enable-background:new 0 0 250 166;" xml:space="preserve">
<style type="text/css">
	.st0{fill:none;}
	.st1{fill:#AA5236;}
	.st2{fill:#DF8C37;}
	.st3{fill:#E3B037;}
	.st4{fill-rule:evenodd;clip-rule:evenodd;fill:#3C2525;}
	.st5{fill:#3C2525;}
</style>
<g>
	<g>
		<path class="st0" d="M45.3,71.8l-12.7-0.1l6.4,11.1C42.1,77.3,44.9,72.5,45.3,71.8z"/>
		<path class="st0" d="M66.4,71.9L66.4,71.9c0.6,0,1.2-0.1,1.8-0.2C67.6,71.8,67,71.9,66.4,71.9z"/>
		<path class="st1" d="M71.9,49.6c-2.6-1.5-8.2-1.4-8.2-1.4L14.6,48c1.1,0.3,2.3,0.7,3.3,1.3c1.8,1.1,3.3,2.6,4.3,4.3l10.4,18.1
			l12.7,0.1c0,0,15.4,0.1,20.8,0.1c0.1,0,0.2,0,0.3,0l0,0c0.6,0,1.2-0.1,1.8-0.2c3.9-0.9,6.9-4,7.3-4.6c0.3-0.4,0.5-0.8,0.8-1.2
			C79.6,60.2,77.6,52.9,71.9,49.6z"/>
		<path class="st2" d="M28.8,100.3c0.1-0.2,5.5-9.5,10.1-17.5L22.2,53.6c-1-1.7-2.4-3.2-4.3-4.3c-1.1-0.6-2.2-1-3.3-1.3
			c-5-1.1-10.3,1-13,5.7c-2,3.5-2.1,7.5-0.5,10.9l0,0l0.3,0.4c0.2,0.4,0.5,0.9,0.7,1.3l27.4,47l0.1,0
			C26.8,109.6,26.4,104.5,28.8,100.3z"/>
		<path class="st3" d="M75.5,67.1c-0.5,0.5-3.4,3.6-7.3,4.6c-0.6,0.1-1.2,0.2-1.8,0.2l0,0l-21.1-0.1c-0.4,0.7-3.2,5.5-6.4,11
			c-4.6,8-10,17.3-10.1,17.5c-2.4,4.2-2,9.3,0.7,13c1,1.3,2.2,2.5,3.7,3.3c5.7,3.3,13,1.3,16.3-4.4C49.8,111.7,75.5,67.1,75.5,67.1
			C75.5,67.1,75.5,67.1,75.5,67.1z"/>
	</g>
	<path class="st4" d="M199.9,81c0.1,0.1,0.1,0.2,0.1,0.2c6.9,3.5,9.3,7.6,8.5,14.7c-0.8,7.7-5.8,11.5-13,13
		c-2.7,0.6-5.6,0.6-8.4,0.7c-4.2,0.1-8.5,0-13.1,0c0-2.7-0.1-5.2-0.1-7.7c0-15,0.1-46.3,0.1-46.3l1.8-0.1c0,0,12.9,0.1,19.9,0.6
		c5.1,0.4,8.8,3.3,10.3,7c2.8,7.2,0.7,14-5.4,17.2C200.5,80.7,200.2,80.9,199.9,81z M184.2,85.8c0,5.6,0,10.4,0.1,16.1
		c2.7,0.2,5.5-0.1,8-0.6c4.8-1,6.9-4.6,6-9.7c-0.6-3.1-2.3-5-5.5-5.5C189.9,85.7,187.1,85.7,184.2,85.8z M184.2,78.1
		c2.3,0.1,4.7,0.1,6.8-0.3c5-0.9,7.1-4.4,5.9-9.7c-0.5-2.3-1.7-3.7-4.1-4.1c-2.9-0.4-5.7-0.6-8.7-0.5
		C184.2,68.6,184.2,73.1,184.2,78.1z"/>
	<path class="st4" d="M166.2,109.6c-3.4,0-6.5,0-9.9,0c0-2.5-0.1-4.9-0.1-7.3c0-6.3,0-12.3,0-18.6c0-1.6,0.2-3.8-1.7-4.9
		c-1.4-0.9-3.1-0.9-4.6,0c-2,1.3-3.7,2.2-5,4.2c-0.5,0.7-0.4,2.5-0.4,3.6c0,6.9,0,14.9,0,21.7c0,0.4-0.1,0.8-0.1,1.3
		c-3.2,0-6.4,0-9.9,0c0-13,0-25.9,0-38.8c2.8,0,5.4,0,8.2,0c0.3,1.5,0.5,3,0.7,4c2.5-1.4,4.9-3.1,7.7-4.1c1.8-0.7,4.2-0.7,6.3-0.4
		c4.4,0.6,7.5,3.4,8.2,7.8c0.6,3.8,0.6,7.5,0.7,11.3C166.2,96.1,166.2,102.8,166.2,109.6z"/>
	<path class="st4" d="M94.6,109.6c0,0-6.6,0-10,0c0-3.9,0-54,0-54s15.8,0,24.7,0c0,2.7,0,5.3,0,8.1c-5.9,0-8.8,0-14.7,0
		c0,4.7-0.1,9.4-0.1,14.3c5.3,0,7.8,0,13.2,0c0,2.6,0,8.1,0,8.1H94.6L94.6,109.6z"/>
	<path class="st4" d="M222.9,93.9c0.1,1.3,0.1,2.3,0.2,3.3c0.5,3.6,2.6,5.5,6.1,5.4c3.2-0.1,6-0.4,9.5-1.1c0.4-0.1,0.7-0.2,1.6-0.4
		c0.4,2.4,0.8,4,1.1,6.3c0.2,1-0.6,1.5-0.9,1.6c-5.7,1.5-11.2,2.2-17.5,0.7c-4.5-1.1-7.5-4.1-8.6-8.3c-2.3-8.3-2.4-16.4,0.7-23.6
		c3.5-8.4,13-9.3,19.8-7.2c5.2,1.6,8.1,6.1,8,11.8c-0.1,4.4-2,7.6-5.9,9c-3.2,1.2-6.4,1.9-9.8,2.2C225.1,93.7,224.4,93.7,222.9,93.9
		z M222.6,87.1c-0.1,0.6,0.3,0.7,0.6,0.6c2.3-0.4,4.8-0.6,6.9-1.3c1.3-0.4,2.5-1.5,3.3-2.6c0.8-1.3,0.9-3.2-0.4-4.9
		c-1.2-1.6-2.9-1.6-4.5-1.5c-2,0.2-3.4,1.2-4.2,3C223.3,82.7,223,84.3,222.6,87.1z"/>
	<path class="st4" d="M125.1,109.6c-3.4,0-6.6,0-9.9,0c0-13,0-25.9,0-38.8c3.3,0,6.5,0,9.9,0C125.1,83.8,125.1,96.7,125.1,109.6z"/>
	<path class="st5" d="M126.1,59.7c0,3.6-2.9,6.5-6.5,6.5c-3.6,0-6.5-2.9-6.5-6.5c0-3.6,2.9-6.5,6.5-6.5
		C123.2,53.3,126.1,56.2,126.1,59.7z"/>
	<g>
		<path class="st5" d="M247.1,105.5c-1.6,0-2.8,1.3-2.8,2.8c0,1.6,1.3,2.9,2.8,2.9c1.6,0,2.9-1.3,2.9-2.9
			C250,106.8,248.7,105.5,247.1,105.5z M247.1,110.8c-1.4,0-2.5-1.1-2.5-2.5c0-1.3,1.1-2.4,2.5-2.4c1.3,0,2.4,1.1,2.4,2.4
			C249.6,109.7,248.5,110.8,247.1,110.8z"/>
		<path class="st5" d="M248.3,109.4l0-0.5c0-0.2,0-0.3-0.1-0.4c0-0.1-0.1-0.1-0.2-0.2c0.1-0.1,0.2-0.2,0.3-0.3
			c0.1-0.1,0.1-0.3,0.1-0.4c0-0.2,0-0.3-0.1-0.4c-0.1-0.1-0.2-0.2-0.3-0.3c-0.1,0-0.2-0.1-0.3-0.1c-0.1,0-0.2,0-0.4,0h-0.1h-1.1v3
			h0.4v-1.3h0.6c0,0,0,0,0,0c0.3,0,0.4,0,0.5,0.1c0.1,0.1,0.1,0.2,0.1,0.4l0,0.4c0,0.2,0.1,0.3,0.1,0.4h0.5v-0.1
			c0,0-0.1-0.1-0.1-0.1C248.3,109.6,248.3,109.5,248.3,109.4z M247.8,108.1c-0.1,0.1-0.3,0.1-0.5,0.1h0h-0.7v-1h0.7h0
			c0.3,0,0.4,0.1,0.5,0.1c0.1,0.1,0.1,0.2,0.1,0.4C247.9,107.9,247.9,108,247.8,108.1z"/>
	</g>
</g>
</svg>
