<?xml version="1.0" encoding="utf-8"?>
<!-- Generator: Adobe Illustrator 19.0.0, SVG Export Plug-In . SVG Version: 6.00 Build 0)  -->
<svg version="1.1" id="Capa_1" xmlns="http://www.w3.org/2000/svg" xmlns:xlink="http://www.w3.org/1999/xlink" x="0px" y="0px"
	 viewBox="-180 314 250 166" style="enable-background:new -180 314 250 166;" xml:space="preserve">
<style type="text/css">
	.st0{fill:url(#SVGID_1_);}
	.st1{fill:#001689;}
	.st2{fill:#001689;stroke:#001689;stroke-width:0.3406;stroke-miterlimit:10;}
	.st3{fill-rule:evenodd;clip-rule:evenodd;fill:#F7323F;}
</style>
<g>
	
		<radialGradient id="SVGID_1_" cx="-38.3448" cy="412.5203" r="86.9255" gradientTransform="matrix(0.749 0 0 0.749 -13.8052 77.1826)" gradientUnits="userSpaceOnUse">
		<stop  offset="0" style="stop-color:#FFFFFF"/>
		<stop  offset="0.263" style="stop-color:#ECECED"/>
		<stop  offset="0.792" style="stop-color:#BCBCBF"/>
		<stop  offset="0.9939" style="stop-color:#A8A8AC"/>
	</radialGradient>
	<path class="st0" d="M22.6,386.2c0,36-29.1,65.1-65.1,65.1c-36,0-65.1-29.2-65.1-65.1c0-36,29.2-65.1,65.1-65.1
		C-6.6,321.1,22.6,350.2,22.6,386.2z"/>
	<g>
		<path class="st1" d="M-127.6,460.1h5c1,0,1.7,0,2.2,0.1c0.5,0.1,0.9,0.3,1.3,0.5c0.4,0.3,0.7,0.6,1,1.1c0.3,0.4,0.4,0.9,0.4,1.5
			c0,0.6-0.2,1.1-0.5,1.6c-0.3,0.5-0.7,0.9-1.3,1.1c0.8,0.2,1.4,0.6,1.8,1.1c0.4,0.5,0.6,1.2,0.6,1.9c0,0.6-0.1,1.1-0.4,1.7
			c-0.3,0.5-0.6,1-1.1,1.3c-0.5,0.3-1,0.5-1.7,0.6c-0.4,0-1.4,0.1-3.1,0.1h-4.3V460.1z M-125,462.2v2.9h1.7c1,0,1.6,0,1.9,0
			c0.4-0.1,0.8-0.2,1-0.5c0.2-0.2,0.4-0.6,0.4-1c0-0.4-0.1-0.7-0.3-1c-0.2-0.2-0.5-0.4-1-0.4c-0.3,0-1,0-2.2,0H-125z M-125,467.2
			v3.4h2.4c0.9,0,1.5,0,1.7-0.1c0.4-0.1,0.7-0.2,0.9-0.5c0.2-0.3,0.4-0.6,0.4-1.1c0-0.4-0.1-0.7-0.3-1c-0.2-0.3-0.5-0.5-0.8-0.6
			c-0.3-0.1-1.1-0.2-2.3-0.2H-125z"/>
		<path class="st1" d="M-114.8,460.1h2.5v6.8c0,1.1,0,1.8,0.1,2.1c0.1,0.5,0.4,0.9,0.8,1.2c0.4,0.3,1,0.5,1.7,0.5
			c0.7,0,1.3-0.1,1.6-0.4c0.4-0.3,0.6-0.7,0.7-1.1c0.1-0.4,0.1-1.1,0.1-2.1v-7h2.5v6.6c0,1.5-0.1,2.6-0.2,3.2
			c-0.1,0.6-0.4,1.2-0.8,1.6c-0.4,0.4-0.9,0.8-1.5,1c-0.6,0.3-1.4,0.4-2.4,0.4c-1.2,0-2.1-0.1-2.7-0.4c-0.6-0.3-1.1-0.6-1.5-1.1
			c-0.4-0.4-0.6-0.9-0.7-1.4c-0.2-0.7-0.2-1.8-0.2-3.2V460.1z"/>
		<path class="st1" d="M-102.1,472.7v-12.6h5.4c1.3,0,2.3,0.1,2.9,0.3c0.6,0.2,1.1,0.6,1.5,1.2c0.4,0.6,0.6,1.2,0.6,2
			c0,0.9-0.3,1.7-0.8,2.4c-0.6,0.6-1.4,1-2.5,1.2c0.5,0.3,1,0.7,1.4,1.1c0.4,0.4,0.8,1.1,1.5,2l1.5,2.5h-3l-1.8-2.7
			c-0.7-1-1.1-1.6-1.3-1.9c-0.2-0.3-0.5-0.4-0.8-0.5c-0.3-0.1-0.7-0.1-1.3-0.1h-0.5v5.3H-102.1z M-99.5,465.4h1.9
			c1.2,0,2-0.1,2.3-0.2c0.3-0.1,0.5-0.3,0.7-0.5c0.2-0.3,0.3-0.6,0.3-0.9c0-0.4-0.1-0.8-0.3-1c-0.2-0.3-0.5-0.4-1-0.5
			c-0.2,0-0.8,0-1.9,0h-2V465.4z"/>
		<path class="st1" d="M-89.9,466.5c0-1.3,0.2-2.4,0.6-3.2c0.3-0.6,0.7-1.2,1.2-1.7c0.5-0.5,1-0.9,1.6-1.1c0.8-0.3,1.7-0.5,2.7-0.5
			c1.9,0,3.3,0.6,4.5,1.7c1.1,1.2,1.7,2.8,1.7,4.8c0,2-0.6,3.6-1.7,4.8c-1.1,1.2-2.6,1.7-4.4,1.7c-1.9,0-3.4-0.6-4.5-1.7
			C-89.3,470.1-89.9,468.5-89.9,466.5z M-87.2,466.4c0,1.4,0.3,2.5,1,3.2c0.7,0.7,1.5,1.1,2.5,1.1c1,0,1.8-0.4,2.5-1.1
			c0.7-0.7,1-1.8,1-3.3c0-1.4-0.3-2.5-0.9-3.2c-0.6-0.7-1.5-1.1-2.5-1.1c-1.1,0-1.9,0.4-2.5,1.1C-86.9,463.9-87.2,465-87.2,466.4z"
			/>
		<path class="st1" d="M-70.8,460.1h4.7c1.1,0,1.9,0.1,2.4,0.2c0.7,0.2,1.4,0.6,1.9,1.2c0.5,0.6,0.9,1.2,1.2,2
			c0.3,0.8,0.4,1.8,0.4,3c0,1-0.1,1.9-0.4,2.7c-0.3,0.9-0.8,1.7-1.4,2.2c-0.4,0.4-1,0.8-1.8,1c-0.6,0.2-1.3,0.3-2.3,0.3h-4.8V460.1z
			 M-68.2,462.2v8.4h1.9c0.7,0,1.2,0,1.5-0.1c0.4-0.1,0.8-0.3,1-0.5c0.3-0.2,0.5-0.7,0.7-1.2c0.2-0.6,0.3-1.3,0.3-2.3
			c0-1-0.1-1.7-0.3-2.2c-0.2-0.5-0.4-0.9-0.7-1.2c-0.3-0.3-0.7-0.5-1.2-0.6c-0.4-0.1-1.1-0.1-2.1-0.1H-68.2z"/>
		<path class="st1" d="M-58,472.7v-12.6h9.4v2.1h-6.8v2.8h6.3v2.1h-6.3v3.4h7.1v2.1H-58z"/>
		<path class="st1" d="M-33.3,468.1l2.5,0.8c-0.4,1.4-1,2.4-1.9,3.1c-0.9,0.7-2,1-3.4,1c-1.7,0-3.1-0.6-4.1-1.7
			c-1.1-1.1-1.6-2.7-1.6-4.7c0-2.1,0.5-3.7,1.6-4.9c1.1-1.2,2.5-1.7,4.3-1.7c1.5,0,2.8,0.5,3.8,1.4c0.6,0.5,1,1.3,1.3,2.3l-2.5,0.6
			c-0.1-0.7-0.5-1.2-0.9-1.6c-0.5-0.4-1-0.6-1.7-0.6c-0.9,0-1.7,0.3-2.3,1c-0.6,0.7-0.9,1.8-0.9,3.3c0,1.6,0.3,2.7,0.9,3.4
			c0.6,0.7,1.3,1,2.2,1c0.7,0,1.3-0.2,1.7-0.6C-33.8,469.7-33.5,469-33.3,468.1z"/>
		<path class="st1" d="M-28.6,472.7v-12.6h5.4c1.3,0,2.3,0.1,2.9,0.3c0.6,0.2,1.1,0.6,1.5,1.2c0.4,0.6,0.6,1.2,0.6,2
			c0,0.9-0.3,1.7-0.8,2.4c-0.6,0.6-1.4,1-2.5,1.2c0.6,0.3,1,0.7,1.4,1.1c0.4,0.4,0.8,1.1,1.5,2l1.5,2.5h-3l-1.8-2.7
			c-0.7-1-1.1-1.6-1.3-1.9c-0.2-0.3-0.5-0.4-0.8-0.5c-0.3-0.1-0.7-0.1-1.3-0.1H-26v5.3H-28.6z M-26,465.4h1.9c1.2,0,2-0.1,2.3-0.2
			c0.3-0.1,0.5-0.3,0.7-0.5c0.2-0.3,0.3-0.6,0.3-0.9c0-0.4-0.1-0.8-0.3-1c-0.2-0.3-0.5-0.4-1-0.5c-0.2,0-0.8,0-1.9,0h-2V465.4z"/>
		<path class="st1" d="M-15.9,472.7v-12.6h9.4v2.1h-6.8v2.8H-7v2.1h-6.3v3.4h7.1v2.1H-15.9z"/>
		<path class="st1" d="M-4.1,460.1h4.7c1,0,1.9,0.1,2.4,0.2c0.7,0.2,1.4,0.6,1.9,1.2c0.5,0.6,0.9,1.2,1.2,2c0.3,0.8,0.4,1.8,0.4,3
			c0,1-0.1,1.9-0.4,2.7c-0.3,0.9-0.8,1.7-1.3,2.2c-0.4,0.4-1,0.8-1.8,1c-0.6,0.2-1.3,0.3-2.3,0.3h-4.8V460.1z M-1.6,462.2v8.4h1.9
			c0.7,0,1.2,0,1.5-0.1c0.4-0.1,0.8-0.3,1-0.5c0.3-0.2,0.5-0.7,0.7-1.2c0.2-0.6,0.3-1.3,0.3-2.3c0-1-0.1-1.7-0.3-2.2
			c-0.2-0.5-0.4-0.9-0.7-1.2c-0.3-0.3-0.7-0.5-1.2-0.6c-0.4-0.1-1.1-0.1-2.1-0.1H-1.6z"/>
		<path class="st1" d="M8.6,472.7v-12.6h2.5v12.6H8.6z"/>
		<path class="st1" d="M16.4,472.7v-10.5h-3.7v-2.1h10v2.1h-3.7v10.5H16.4z"/>
		<path class="st1" d="M23.5,466.5c0-1.3,0.2-2.4,0.6-3.2c0.3-0.6,0.7-1.2,1.2-1.7c0.5-0.5,1-0.9,1.6-1.1c0.8-0.3,1.7-0.5,2.7-0.5
			c1.9,0,3.4,0.6,4.5,1.7c1.1,1.2,1.7,2.8,1.7,4.8c0,2-0.6,3.6-1.7,4.8c-1.1,1.2-2.6,1.7-4.4,1.7c-1.9,0-3.4-0.6-4.5-1.7
			C24,470.1,23.5,468.5,23.5,466.5z M26.1,466.4c0,1.4,0.3,2.5,1,3.2c0.7,0.7,1.5,1.1,2.5,1.1c1,0,1.8-0.4,2.5-1.1
			c0.7-0.7,1-1.8,1-3.3c0-1.4-0.3-2.5-1-3.2c-0.6-0.7-1.5-1.1-2.5-1.1c-1,0-1.9,0.4-2.5,1.1C26.4,463.9,26.1,465,26.1,466.4z"/>
	</g>
	<g>
		<path class="st1" d="M-94.2,389.5c0.7-0.6,2.4-0.5,2.4-0.5h10.1c3.8,0,6.9,0.5,9.1,1.5c-0.5-2.1-1.5-3.8-3.3-5.1
			c-2.3-1.8-6.1-2.7-11.2-2.7h-10.3c0,0-1.5-0.1-2.1,0.4c-0.7,0.6-1,1.9-1,1.9l-3.8,19.9l7.1-2.3l1.9-10.8
			C-95.2,391.8-94.9,390.1-94.2,389.5z"/>
		<path class="st1" d="M-72.1,346c-1-0.7-2.2-1.3-3.7-1.7c-1.5-0.4-3.4-0.6-5.7-0.6h-8.1c0,0-1.2,0-1.9,0.6
			c-0.9,0.8-1.1,1.9-1.1,1.9l-4.5,22.3c0,0-0.5,2.9,2.6,2.9c4,0,4-2.9,4-2.9l3.2-15.9c0,0,0.3-1.4,0.9-2c0.6-0.6,2.1-0.5,2.1-0.5
			h8.1c2.3,0,4.2,0.2,5.7,0.6c0.5,0.1,0.9,0.3,1.3,0.4c-0.1-0.9-0.3-1.7-0.7-2.4C-70.3,347.6-71.1,346.7-72.1,346z"/>
		<path class="st1" d="M-45.7,346.3c-0.8-1.6-1.9-3-3.3-4.2c-0.5-0.5-1.3-1.3-1.5-1c-0.2,0.3,0.2,1,0.3,1.4c0.6,1.9,1.1,3.8,1.1,6.1
			c0,2.9-0.4,5.6-1.2,8.2c-0.8,2.6-2,4.9-3.5,7.1c-1.6,2.1-3.4,4-5.6,5.7c-2.2,1.7-4.6,3-7.3,3.9c-2.4,0.9-1.2,4.1,0.6,5.2
			c2,1.1,5.1,1.1,8.8-0.7c1.1-0.6,2.2-1.3,3.3-2.1c2.2-1.6,4.1-3.5,5.6-5.7c1.6-2.1,2.7-4.5,3.5-7.1c0.8-2.6,1.2-5.3,1.2-8.2
			C-43.8,351.7-44.4,348.8-45.7,346.3z"/>
		<path class="st1" d="M-50.8,385.8c-0.4-0.5-0.9-0.9-1.3-1.4c-0.5-0.5-0.9-1-1.1-0.6c-0.2,0.3,0.1,0.7,0.2,1.1
			c0.7,2.1,1.1,4.4,1.1,7c0,2.4-0.3,4.8-1,7.4c-0.6,2.5-1.6,5-3,7.4c-1.4,2.4-3.2,4.7-5.4,6.9c-2.2,2.2-4.9,4.1-8,5.8
			c-3.1,1.6-6.7,3-10.8,3.9c-4.1,1-9.1,0.6-14.5,0.6c0,0-25.3,0.1-25.9,0.1c-0.9,0-2.6,1.2-2.6,2.9c0,3.7,3.1,4.1,5.1,4.1h28.9
			c5.4,0,10.2-0.5,14.3-1.4c4.1-1,7.7-2.3,10.8-3.9c3.1-1.7,5.8-3.6,8-5.8c2.2-2.2,4-4.5,5.4-6.9c1.4-2.4,2.4-4.9,3-7.4
			c0.6-2.5,1-5,1-7.3c0-2.6-0.4-5-1.1-7.1C-48.5,389.1-49.5,387.3-50.8,385.8z"/>
	</g>
	<g>
		<path class="st2" d="M26.4,343.2c-0.9-1-2.5-2-4.8-3.2c-2.3-1.2-5-2.1-8-2.8c-3.1-0.7-6.3-1.1-9.8-1.1c-6.2,0-11.8,0.9-16.8,2.8
			c-5,1.9-9.6,4.4-13.5,7.6c-2,1.6-3.6,3.1-5.4,5c-0.4,0.4-0.5,0.5-0.5,0.6c0,0.5,0.7-0.1,0.9-0.3c3.8-2.9,8.2-5.9,13-7.7
			c5-1.9,10.6-2.8,16.8-2.8c3.4,0,6.7,0.4,9.8,1.1c3.1,0.7,5.8,1.7,8.1,2.8c2.3,1.2,3.9,2.3,4.8,3.2c0.9,1,1.4,2.2,1.4,3.7
			c0,1.4-0.2,3.2-0.7,5.5c-0.1,0.6-0.3,1.2-0.4,1.7c0.7,0.5,1.2,0.8,1.8,0.8c0.9,0,1.7-0.7,2.4-2.1c0.7-1.4,1.3-3.3,1.8-5.6
			c0.5-2.3,0.7-4.2,0.7-5.5C27.7,345.4,27.3,344.2,26.4,343.2z"/>
		<path class="st2" d="M13.1,411.2c-0.9,0-2,0.4-3.1,1.1c-1.2,0.7-2.6,1.6-4.4,2.4c-1.7,0.9-3.9,1.7-6.4,2.4c-2.5,0.7-5.5,1.1-9,1.1
			c-3,0-5.6-0.4-8-1.3c-2.4-0.9-4.4-2.2-6-3.9c-1.6-1.7-2.9-3.9-3.7-6.5c-0.9-2.6-1.3-5.6-1.3-9.1c0-2.9,0.3-5.9,0.9-9.3
			c0.6-3.3,1.4-6.7,2.6-10c1.2-3.3,2.6-6.6,4.4-9.7c0.9-1.6,2.1-3,3.2-4.4c0.3-0.4,1.2-1.2,0.9-1.5c-0.3-0.2-0.8,0.3-1.2,0.7
			c-0.8,0.6-1.5,1.5-2.2,2.2c-2.4,2.4-4.4,5.1-6.2,8.2c-1.8,3.1-3.2,6.3-4.4,9.7c-1.2,3.3-2,6.7-2.6,10c-0.6,3.3-0.8,6.4-0.8,9.3
			c0,3.4,0.4,6.5,1.3,9.1c0.9,2.6,2.1,4.8,3.7,6.5c1.6,1.7,3.6,3,6,3.9c2.4,0.9,5,1.3,8,1.3c3.5,0,6.5-0.4,9-1.1
			c2.5-0.7,4.6-1.6,6.3-2.4c1.7-0.9,3.2-1.7,4.4-2.4c1.2-0.7,2.2-1.1,3.1-1.1c0.6,0,1.1,0.2,1.3,0.7c0.2,0.5,0.3,1.1,0.3,2
			c0,0.3-0.1,0.9-0.1,1.5c-0.1,0.7-0.2,1.5-0.4,2.3c-0.1,0.9-0.3,1.8-0.5,2.8c-0.2,1-0.4,1.9-0.7,2.8c-0.2,0.5-0.3,1.1-0.5,1.5
			c0.2-0.1,0.5-0.2,0.7-0.4c1.6-0.9,2.6-1.6,3.2-2.1c0.5-0.5,1-1.2,1.3-1.9c0.3-0.7,0.6-1.5,0.9-2.4c0.2-0.9,0.5-1.8,0.7-2.8
			c0.2-1,0.4-1.9,0.5-2.8c0.1-0.9,0.3-1.6,0.4-2.3c0.1-0.7,0.2-1.2,0.2-1.6c0-0.8-0.1-1.5-0.3-2C14.2,411.4,13.8,411.2,13.1,411.2z"
			/>
	</g>
	<path class="st3" d="M-142.1,424.2c16.8-9.1,69.7-30.8,165.7-23.9c0,0,7.7,2.1,8.7-6c0.9-7.2-6-7.4-6-7.4s-103.2-7.4-169.6,35.6
		c0,0-3,1.6-2.4,2.4C-144.8,425.9-142.1,424.2-142.1,424.2z"/>
</g>
</svg>
