<?xml version="1.0" encoding="utf-8"?>
<!-- Generator: Adobe Illustrator 22.1.0, SVG Export Plug-In . SVG Version: 6.00 Build 0)  -->
<svg version="1.1" id="Capa_1" xmlns="http://www.w3.org/2000/svg" xmlns:xlink="http://www.w3.org/1999/xlink" x="0px" y="0px"
	 viewBox="0 0 250 166" style="enable-background:new 0 0 250 166;" xml:space="preserve">
<style type="text/css">
	.st0{enable-background:new    ;}
	.st1{fill:url(#SVGID_13_);}
	.st2{clip-path:url(#SVGID_15_);enable-background:new    ;}
	.st3{fill:#7E3E16;}
	.st4{fill:#7A3C15;}
	.st5{clip-path:url(#SVGID_17_);enable-background:new    ;}
	.st6{fill:#7D7F82;}
	.st7{fill:#7A7C80;}
	.st8{fill:#77797D;}
	.st9{clip-path:url(#SVGID_19_);enable-background:new    ;}
	.st10{fill:#84878B;}
	.st11{fill:#828488;}
	.st12{fill:#808185;}
	.st13{fill:#74767A;}
	.st14{clip-path:url(#SVGID_21_);enable-background:new    ;}
	.st15{fill:#87898E;}
	.st16{fill:url(#SVGID_22_);}
	.st17{clip-path:url(#SVGID_24_);enable-background:new    ;}
	.st18{fill:#803F17;}
	.st19{fill:#834018;}
	.st20{fill:#864219;}
	.st21{fill:#894319;}
	.st22{fill:#8D441A;}
	.st23{fill:#90461B;}
	.st24{fill:#7C3D16;}
	.st25{clip-path:url(#SVGID_26_);enable-background:new    ;}
	.st26{fill:url(#SVGID_27_);}
	.st27{stroke:#000000;stroke-width:0.9511;stroke-linecap:round;stroke-linejoin:round;}
	.st28{fill:#FFFFFF;}
	.st29{fill:#222220;}
</style>
<g>
	<g>
		
			<image style="overflow:visible;opacity:0.75;" width="249" height="102" xlink:href="DAB15D9F.png"  transform="matrix(1 0 0 1 6.7332 22.7332)">
		</image>
		<g>
			<g>
				<g>
					<g>
						<g>
							<g>
								<g>
									<defs>
										<path id="SVGID_1_" d="M155.3,54.8l-1.7-1.4c2-0.8,3.4-1.4,4.3-2c0.9-0.6,1.3-1.1,1.4-1.5c0.1-0.4-0.3-0.8-0.8-1.2
											c-0.6-0.4-1.4-0.8-2.3-1.2c-0.2-0.1-0.5-0.2-0.7-0.3c-0.2-0.1-0.5-0.1-0.7-0.2c-0.2,0-0.5-0.1-0.8-0.1c-0.3,0-0.5,0-0.8,0
											c-0.8,0-1.6,0.1-2.4,0.2c-0.8,0.1-1.5,0.3-2.1,0.5c-0.6,0.2-1.1,0.4-1.5,0.6c-0.4,0.2-0.6,0.3-0.7,0.3l-0.9-0.4
											c0.1,0,0.4-0.2,0.9-0.4c0.5-0.2,1.2-0.5,2.1-0.8c0.8-0.3,1.8-0.5,2.9-0.7c1-0.2,2.2-0.3,3.3-0.3c0.4,0,0.7,0,1,0
											c0.3,0,0.7,0.1,1,0.1c0.3,0.1,0.7,0.1,1,0.2c0.3,0.1,0.6,0.2,0.9,0.4c1.3,0.6,2.4,1.1,3.1,1.7c0.8,0.5,1.2,1.1,1.1,1.7
											c-0.1,0.6-0.6,1.3-1.9,2C159.9,52.9,158,53.7,155.3,54.8z"/>
									</defs>
									<clipPath id="SVGID_2_">
										<use xlink:href="#SVGID_1_"  style="overflow:visible;"/>
									</clipPath>
								</g>
							</g>
						</g>
					</g>
					<g>
						<g>
							<g>
								<g>
									<defs>
										<path id="SVGID_3_" d="M77.9,88.6l1.6-3.1c1.5,0,3-0.3,4.4-0.7c1.4-0.4,2.8-0.9,3.9-1.5c1.2-0.5,2.1-1.1,2.9-1.5
											c0.7-0.4,1.2-0.7,1.2-0.8l2.9,1.5c-0.1,0.1-0.7,0.5-1.7,1.1c-1,0.6-2.3,1.3-3.9,2.1c-1.6,0.7-3.4,1.5-5.3,2
											C82,88.2,80,88.6,77.9,88.6z"/>
									</defs>
									<clipPath id="SVGID_4_">
										<use xlink:href="#SVGID_3_"  style="overflow:visible;"/>
									</clipPath>
								</g>
								<g>
									<defs>
										<path id="SVGID_5_" d="M71.5,86.9l2.6-3c0.4,0.2,1.4,0.7,1.8,0.9c0.4,0.2,0.8,0.3,1.2,0.4c0.4,0.1,0.8,0.2,1.2,0.2
											c0.4,0,0.8,0.1,1.2,0.1l-1.6,3.1c-0.6,0-1.1,0-1.7-0.1c-0.6-0.1-1.1-0.2-1.6-0.3c-0.5-0.1-1.1-0.3-1.6-0.5
											C72.5,87.4,72,87.2,71.5,86.9z"/>
									</defs>
									<clipPath id="SVGID_6_">
										<use xlink:href="#SVGID_5_"  style="overflow:visible;"/>
									</clipPath>
								</g>
								<g>
									<defs>
										<path id="SVGID_7_" d="M83.2,76.8l0.2,0c-3.9,1.2-6.4,2.2-8,3.1c-1.6,0.9-2.2,1.7-2.3,2.3c-0.1,0.6,0.3,1.1,0.7,1.4
											c0.4,0.3,1.6,0.8,1.7,0.9l-4,2.3c-0.1,0-0.8-0.3-1.4-0.8c-0.6-0.5-1.1-1.1-0.9-2c0.2-0.9,1-1.9,3.1-3.1
											C74.5,79.8,77.9,78.4,83.2,76.8z"/>
									</defs>
									<clipPath id="SVGID_8_">
										<use xlink:href="#SVGID_7_"  style="overflow:visible;"/>
									</clipPath>
								</g>
							</g>
						</g>
					</g>
					<g>
						<g>
							<g>
								<g>
									<defs>
										<path id="SVGID_9_" d="M143.8,83.2l5-0.7c-0.5,0.3-0.9,0.5-1.1,0.9c-0.2,0.3-0.3,0.7-0.2,1c0.1,0.3,0.4,0.7,0.8,1
											c0.4,0.3,1,0.6,1.7,0.9c0.4,0.1,0.7,0.3,1.1,0.4c0.4,0.1,0.8,0.2,1.2,0.3c0.4,0.1,0.8,0.1,1.3,0.2c0.4,0,0.9,0.1,1.3,0.1
											c0.4,0,0.8,0,1.1,0c0.4,0,0.7-0.1,1.1-0.1c0.3-0.1,0.7-0.1,1-0.2c0.3-0.1,0.6-0.2,0.9-0.3l-1.4,2.1
											c-0.4,0.2-0.7,0.3-1.2,0.4c-0.4,0.1-0.9,0.2-1.3,0.3c-0.5,0.1-1,0.1-1.5,0.2c-0.5,0-1,0.1-1.6,0.1c-0.6,0-1.2,0-1.7-0.1
											c-0.6,0-1.2-0.1-1.7-0.2c-0.6-0.1-1.1-0.2-1.7-0.4c-0.5-0.1-1.1-0.3-1.6-0.5c-1-0.4-1.7-0.8-2.3-1.2
											c-0.6-0.4-0.9-0.9-1-1.4c-0.1-0.5-0.1-0.9,0.2-1.4C142.6,83.9,143.1,83.5,143.8,83.2z"/>
									</defs>
									<clipPath id="SVGID_10_">
										<use xlink:href="#SVGID_9_"  style="overflow:visible;"/>
									</clipPath>
								</g>
								<g>
									<defs>
										<path id="SVGID_11_" d="M181.8,77.2l-5.1,0.9c0.5-0.3,0.9-0.5,1.1-0.9c0.2-0.3,0.3-0.7,0.2-1c-0.1-0.3-0.3-0.7-0.8-1
											c-0.4-0.3-1-0.6-1.7-0.9c-0.4-0.1-0.7-0.3-1.1-0.4c-0.4-0.1-0.8-0.2-1.2-0.3c-0.4-0.1-0.8-0.1-1.3-0.2
											c-0.4,0-0.9-0.1-1.3-0.1c-0.4,0-0.8,0-1.1,0c-0.4,0-0.7,0.1-1.1,0.1c-0.3,0.1-0.7,0.1-1,0.2c-0.3,0.1-0.6,0.2-0.9,0.3
											l1.4-2.3c0.4-0.2,0.7-0.3,1.2-0.4c0.4-0.1,0.9-0.2,1.3-0.3c0.5-0.1,1-0.1,1.5-0.2c0.5,0,1-0.1,1.6-0.1
											c0.6,0,1.2,0,1.7,0.1c0.6,0,1.2,0.1,1.7,0.2c0.6,0.1,1.1,0.2,1.7,0.4c0.5,0.1,1.1,0.3,1.6,0.5c1,0.4,1.7,0.8,2.3,1.2
											c0.5,0.4,0.9,0.9,1,1.4c0.1,0.5,0.1,0.9-0.2,1.4C183,76.5,182.5,76.9,181.8,77.2z"/>
									</defs>
									<clipPath id="SVGID_12_">
										<use xlink:href="#SVGID_11_"  style="overflow:visible;"/>
									</clipPath>
								</g>
							</g>
						</g>
					</g>
				</g>
			</g>
			<g>
				<g>
					<g>
						<g>
							<g class="st0">
								<g>
									<linearGradient id="SVGID_13_" gradientUnits="userSpaceOnUse" x1="100.0867" y1="49.5449" x2="197.9341" y2="49.5449">
										<stop  offset="0" style="stop-color:#D0751B"/>
										<stop  offset="8.133602e-02" style="stop-color:#D46C14"/>
										<stop  offset="0.3407" style="stop-color:#E15200"/>
										<stop  offset="0.7033" style="stop-color:#E15200"/>
										<stop  offset="0.8329" style="stop-color:#DF5203"/>
										<stop  offset="0.9231" style="stop-color:#D7530C"/>
										<stop  offset="1" style="stop-color:#CB551B"/>
									</linearGradient>
									<path class="st1" d="M137,32.7l60.9,25.9l-17.1,7.7l-25.6-11.5c2.7-1.1,4.6-2,5.8-2.7c1.2-0.8,1.8-1.4,1.9-2
										c0.1-0.6-0.4-1.1-1.1-1.7c-0.8-0.5-1.9-1.1-3.1-1.7c-0.3-0.1-0.6-0.3-0.9-0.4c-0.3-0.1-0.7-0.2-1-0.2
										c-0.3-0.1-0.7-0.1-1-0.1c-0.3,0-0.7,0-1,0c-1.1,0-2.2,0.1-3.3,0.3c-1,0.2-2,0.5-2.9,0.7c-0.8,0.3-1.5,0.5-2.1,0.8
										c-0.5,0.2-0.8,0.4-0.9,0.4l-23.9,9.1l-21.6-9.6L137,32.7z"/>
								</g>
								<g class="st0">
									<defs>
										<path id="SVGID_14_" class="st0" d="M155.3,54.8l-1.7-1.4c2-0.8,3.4-1.4,4.3-2c0.9-0.6,1.3-1.1,1.4-1.5
											c0.1-0.4-0.3-0.8-0.8-1.2c-0.6-0.4-1.4-0.8-2.3-1.2c-0.2-0.1-0.5-0.2-0.7-0.3c-0.2-0.1-0.5-0.1-0.7-0.2
											c-0.2,0-0.5-0.1-0.8-0.1c-0.3,0-0.5,0-0.8,0c-0.8,0-1.6,0.1-2.4,0.2c-0.8,0.1-1.5,0.3-2.1,0.5c-0.6,0.2-1.1,0.4-1.5,0.6
											c-0.4,0.2-0.6,0.3-0.7,0.3l-0.9-0.4c0.1,0,0.4-0.2,0.9-0.4c0.5-0.2,1.2-0.5,2.1-0.8c0.8-0.3,1.8-0.5,2.9-0.7
											c1-0.2,2.2-0.3,3.3-0.3c0.4,0,0.7,0,1,0c0.3,0,0.7,0.1,1,0.1c0.3,0.1,0.7,0.1,1,0.2c0.3,0.1,0.6,0.2,0.9,0.4
											c1.3,0.6,2.4,1.1,3.1,1.7c0.8,0.5,1.2,1.1,1.1,1.7c-0.1,0.6-0.6,1.3-1.9,2C159.9,52.9,158,53.7,155.3,54.8z"/>
									</defs>
									<clipPath id="SVGID_15_">
										<use xlink:href="#SVGID_14_"  style="overflow:visible;"/>
									</clipPath>
									<g class="st2">
										<path class="st3" d="M155.3,54.8l-1.7-1.4c2-0.8,3.4-1.4,4.3-2c0.9-0.6,1.3-1.1,1.4-1.5c0.1-0.4-0.3-0.8-0.8-1.2
											c-0.6-0.4-1.4-0.8-2.3-1.2c-0.2-0.1-0.5-0.2-0.7-0.3c-0.2-0.1-0.5-0.1-0.7-0.2c-0.2,0-0.5-0.1-0.8-0.1c-0.3,0-0.5,0-0.8,0
											c-0.8,0-1.6,0.1-2.4,0.2c-0.8,0.1-1.5,0.3-2.1,0.5c-0.6,0.2-1.1,0.4-1.5,0.6c-0.4,0.2-0.6,0.3-0.7,0.3l-0.9-0.4
											c0.1,0,0.4-0.2,0.9-0.4c0.5-0.2,1.2-0.5,2.1-0.8c0.8-0.3,1.8-0.5,2.9-0.7c1-0.2,2.2-0.3,3.3-0.3c0.4,0,0.7,0,1,0
											c0.3,0,0.7,0.1,1,0.1c0.3,0.1,0.7,0.1,1,0.2c0.3,0.1,0.6,0.2,0.9,0.4c1.3,0.6,2.4,1.1,3.1,1.7c0.8,0.5,1.2,1.1,1.1,1.7
											c-0.1,0.6-0.6,1.3-1.9,2C159.9,52.9,158,53.7,155.3,54.8"/>
									</g>
								</g>
								<g>
									<polygon class="st4" points="145.6,48.1 146.5,48.5 129,55.2 121.7,57.2 									"/>
								</g>
							</g>
						</g>
					</g>
					<g>
						<g>
							<g class="st0">
								<g class="st0">
									<defs>
										<path id="SVGID_16_" class="st0" d="M77.9,88.6l1.6-3.1c1.5,0,3-0.3,4.4-0.7c1.4-0.4,2.8-0.9,3.9-1.5
											c1.2-0.5,2.1-1.1,2.9-1.5c0.7-0.4,1.2-0.7,1.2-0.8l2.9,1.5c-0.1,0.1-0.7,0.5-1.7,1.1c-1,0.6-2.3,1.3-3.9,2.1
											c-1.6,0.7-3.4,1.5-5.3,2C82,88.2,80,88.6,77.9,88.6z"/>
									</defs>
									<clipPath id="SVGID_17_">
										<use xlink:href="#SVGID_16_"  style="overflow:visible;"/>
									</clipPath>
									<g class="st5">
										<path class="st6" d="M77.9,88.6l1.6-3.1c0.1,0,0.3,0,0.4,0c0.1,0,0.3,0,0.4,0c0.1,0,0.3,0,0.4,0c0.1,0,0.3,0,0.4,0l-1,3.1
											c-0.2,0-0.4,0-0.6,0.1c-0.2,0-0.4,0-0.6,0c-0.2,0-0.4,0-0.6,0C78.3,88.6,78.1,88.6,77.9,88.6"/>
										<path class="st7" d="M80.2,88.4l1-3.1c0.3,0,0.6-0.1,0.8-0.1c0.3,0,0.6-0.1,0.8-0.2c0.3-0.1,0.5-0.1,0.8-0.2
											c0.3-0.1,0.5-0.2,0.8-0.2l0.2,2.8c-0.4,0.1-0.7,0.2-1.1,0.3c-0.4,0.1-0.7,0.2-1.1,0.3c-0.4,0.1-0.8,0.2-1.1,0.2
											C81,88.3,80.6,88.4,80.2,88.4"/>
										<path class="st8" d="M84.7,87.4l-0.2-2.8c1-0.3,2-0.7,2.8-1.1c0.9-0.4,1.7-0.8,2.3-1.2c0.7-0.4,1.2-0.7,1.6-1
											c0.4-0.3,0.6-0.4,0.7-0.5l2.9,1.5c-0.1,0.1-0.4,0.3-1,0.6c-0.5,0.3-1.3,0.8-2.2,1.3c-0.9,0.5-2,1.1-3.2,1.6
											C87.4,86.5,86.1,87,84.7,87.4"/>
									</g>
								</g>
								<g class="st0">
									<defs>
										<path id="SVGID_18_" class="st0" d="M71.5,86.9l2.6-3c0.4,0.2,1.4,0.7,1.8,0.9c0.4,0.2,0.8,0.3,1.2,0.4
											c0.4,0.1,0.8,0.2,1.2,0.2c0.4,0,0.8,0.1,1.2,0.1l-1.6,3.1c-0.6,0-1.1,0-1.7-0.1c-0.6-0.1-1.1-0.2-1.6-0.3
											c-0.5-0.1-1.1-0.3-1.6-0.5C72.5,87.4,72,87.2,71.5,86.9z"/>
									</defs>
									<clipPath id="SVGID_19_">
										<use xlink:href="#SVGID_18_"  style="overflow:visible;"/>
									</clipPath>
									<g class="st9">
										<path class="st10" d="M71.5,86.9l2.6-3c0.1,0.1,0.9,0.5,1,0.5c0.1,0.1,0.2,0.1,0.4,0.2c0.1,0.1,0.2,0.1,0.4,0.2
											c0.1,0.1,0.2,0.1,0.4,0.1l-2.8,2.9c-0.2-0.1-0.3-0.1-0.5-0.2c-0.2-0.1-0.3-0.1-0.5-0.2c-0.2-0.1-0.3-0.2-0.5-0.2
											C71.9,87.1,71.7,87,71.5,86.9"/>
										<path class="st11" d="M73.5,87.8l2.8-2.9c0.1,0,0.2,0.1,0.3,0.1c0.1,0,0.2,0.1,0.3,0.1c0.1,0,0.2,0.1,0.3,0.1
											c0.1,0,0.2,0,0.3,0.1l-2.3,3c-0.2,0-0.3-0.1-0.5-0.1c-0.2,0-0.3-0.1-0.5-0.1c-0.2,0-0.3-0.1-0.5-0.1
											C73.8,87.9,73.6,87.9,73.5,87.8"/>
										<path class="st12" d="M75.3,88.3l2.3-3c0.1,0,0.3,0,0.4,0.1c0.1,0,0.3,0,0.4,0c0.1,0,0.3,0,0.4,0c0.1,0,0.3,0,0.4,0
											l-1.8,3.1c-0.2,0-0.3,0-0.5,0c-0.2,0-0.3,0-0.5,0c-0.2,0-0.3,0-0.5-0.1C75.6,88.4,75.5,88.4,75.3,88.3"/>
										<path class="st6" d="M77.4,88.6l1.8-3.1c0,0,0.1,0,0.1,0c0,0,0.1,0,0.1,0s0.1,0,0.1,0c0,0,0.1,0,0.1,0l-1.6,3.1
											c0,0-0.1,0-0.1,0c0,0-0.1,0-0.1,0c0,0-0.1,0-0.1,0C77.5,88.6,77.4,88.6,77.4,88.6"/>
									</g>
								</g>
								<g>
									<polygon class="st13" points="116.4,59.9 107.8,64.4 90.5,71.9 92.8,70 									"/>
								</g>
								<g class="st0">
									<defs>
										<path id="SVGID_20_" class="st0" d="M83.2,76.8l0.2,0c-3.9,1.2-6.4,2.2-8,3.1c-1.6,0.9-2.2,1.7-2.3,2.3
											c-0.1,0.6,0.3,1.1,0.7,1.4c0.4,0.3,1.6,0.8,1.7,0.9l-4,2.3c-0.1,0-0.8-0.3-1.4-0.8c-0.6-0.5-1.1-1.1-0.9-2
											c0.2-0.9,1-1.9,3.1-3.1C74.5,79.8,77.9,78.4,83.2,76.8z"/>
									</defs>
									<clipPath id="SVGID_21_">
										<use xlink:href="#SVGID_20_"  style="overflow:visible;"/>
									</clipPath>
									<g class="st14">
										<path class="st8" d="M83.2,76.8l0.2,0c-1.7,0.5-3.2,1-4.4,1.5c-1.2,0.5-2.2,0.9-3,1.3c-0.8,0.4-1.4,0.8-1.8,1.2
											c-0.4,0.4-0.7,0.7-0.9,1l-3.9,1.8c0.2-0.4,0.6-0.9,1.2-1.4c0.6-0.5,1.4-1,2.5-1.6c1.1-0.6,2.4-1.2,4.1-1.8
											C78.9,78.2,80.8,77.5,83.2,76.8"/>
										<path class="st7" d="M69.4,83.6l3.9-1.8c0,0,0,0,0,0.1c0,0,0,0,0,0.1c0,0,0,0,0,0.1c0,0,0,0,0,0.1l-3.9,1.9
											c0,0,0-0.1,0-0.1c0,0,0-0.1,0-0.1C69.4,83.7,69.4,83.7,69.4,83.6C69.4,83.6,69.4,83.6,69.4,83.6"/>
										<path class="st6" d="M69.3,83.9l3.9-1.9c0,0,0,0,0,0.1c0,0,0,0,0,0.1c0,0,0,0,0,0.1c0,0,0,0,0,0.1l-3.9,1.9c0,0,0,0,0-0.1
											c0,0,0-0.1,0-0.1C69.3,84.1,69.3,84,69.3,83.9C69.3,84,69.3,84,69.3,83.9"/>
										<path class="st12" d="M69.2,84.3l3.9-1.9c0,0,0,0,0,0c0,0,0,0,0,0c0,0,0,0,0,0c0,0,0,0,0,0l-3.9,2c0,0,0,0,0-0.1
											c0,0,0,0,0-0.1C69.2,84.4,69.2,84.3,69.2,84.3C69.2,84.3,69.2,84.3,69.2,84.3"/>
										<path class="st11" d="M69.2,84.5l3.9-2c0,0,0,0,0,0.1c0,0,0,0,0,0.1c0,0,0,0,0,0.1c0,0,0,0,0,0l-3.9,2.1c0,0,0,0,0-0.1
											c0,0,0,0,0-0.1C69.2,84.6,69.2,84.6,69.2,84.5C69.2,84.6,69.2,84.5,69.2,84.5"/>
										<path class="st10" d="M69.2,84.8l3.9-2.1c0,0,0,0,0,0.1c0,0,0,0,0,0.1c0,0,0,0,0,0.1c0,0,0,0,0,0.1l-3.9,2.2
											c0,0,0,0,0-0.1c0,0,0-0.1,0-0.1C69.3,84.9,69.3,84.9,69.2,84.8C69.3,84.8,69.2,84.8,69.2,84.8"/>
										<path class="st15" d="M69.3,85.1l3.9-2.2c0,0.1,0.1,0.2,0.2,0.3c0.1,0.1,0.1,0.2,0.2,0.3c0.1,0.1,0.2,0.2,0.3,0.2
											c0.1,0.1,0.2,0.1,0.3,0.2l-3.6,2.5c-0.1-0.1-0.2-0.2-0.4-0.3c-0.1-0.1-0.2-0.2-0.4-0.3c-0.1-0.1-0.2-0.2-0.3-0.4
											C69.5,85.4,69.4,85.2,69.3,85.1"/>
										<path class="st10" d="M70.6,86.4l3.6-2.5c0.1,0.1,0.2,0.1,0.2,0.1c0.1,0,0.1,0.1,0.2,0.1c0.1,0,0.1,0.1,0.2,0.1
											c0,0,0.5,0.3,0.5,0.3l-3.8,2.4c0,0-0.1,0-0.1,0c-0.1,0-0.1-0.1-0.2-0.1c-0.1,0-0.2-0.1-0.3-0.1
											C70.8,86.6,70.7,86.5,70.6,86.4"/>
									</g>
								</g>
								<g>
									<linearGradient id="SVGID_22_" gradientUnits="userSpaceOnUse" x1="36.6924" y1="76.9341" x2="131.4118" y2="76.9341">
										<stop  offset="0" style="stop-color:#161616"/>
										<stop  offset="0.3022" style="stop-color:#A5A7AD"/>
										<stop  offset="0.7308" style="stop-color:#A5A7AD"/>
										<stop  offset="1" style="stop-color:#161616"/>
									</linearGradient>
									<path class="st16" d="M92.8,70l38.6,18.5l-34.2,15.3L36.7,73.3l58.1-23.2l21.7,9.9L92.8,70z M77.9,88.6c2,0,4.1-0.4,6-0.9
										c1.9-0.6,3.8-1.3,5.3-2c1.6-0.7,2.9-1.5,3.9-2.1c1-0.6,1.6-1,1.7-1.1l-11.6-5.6c-5.3,1.6-8.7,3-10.8,4.2
										c-2.1,1.2-3,2.3-3.1,3.1c-0.2,0.9,0.3,1.5,0.9,2c0.6,0.5,1.2,0.7,1.4,0.8c0.5,0.3,1,0.6,1.5,0.8c0.5,0.2,1,0.4,1.6,0.5
										c0.5,0.1,1.1,0.2,1.6,0.3C76.8,88.5,77.4,88.6,77.9,88.6"/>
								</g>
							</g>
						</g>
					</g>
					<g>
						<g>
							<g class="st0">
								<g>
									<polygon class="st4" points="196.1,94.1 187.2,90.6 168,82.2 170,82.7 									"/>
								</g>
								<g class="st0">
									<defs>
										<path id="SVGID_23_" class="st0" d="M143.8,83.2l5-0.7c-0.5,0.3-0.9,0.5-1.1,0.9c-0.2,0.3-0.3,0.7-0.2,1
											c0.1,0.3,0.4,0.7,0.8,1c0.4,0.3,1,0.6,1.7,0.9c0.4,0.1,0.7,0.3,1.1,0.4c0.4,0.1,0.8,0.2,1.2,0.3c0.4,0.1,0.8,0.1,1.3,0.2
											c0.4,0,0.9,0.1,1.3,0.1c0.4,0,0.8,0,1.1,0c0.4,0,0.7-0.1,1.1-0.1c0.3-0.1,0.7-0.1,1-0.2c0.3-0.1,0.6-0.2,0.9-0.3l-1.4,2.1
											c-0.4,0.2-0.7,0.3-1.2,0.4c-0.4,0.1-0.9,0.2-1.3,0.3c-0.5,0.1-1,0.1-1.5,0.2c-0.5,0-1,0.1-1.6,0.1c-0.6,0-1.2,0-1.7-0.1
											c-0.6,0-1.2-0.1-1.7-0.2c-0.6-0.1-1.1-0.2-1.7-0.4c-0.5-0.1-1.1-0.3-1.6-0.5c-1-0.4-1.7-0.8-2.3-1.2
											c-0.6-0.4-0.9-0.9-1-1.4c-0.1-0.5-0.1-0.9,0.2-1.4C142.6,83.9,143.1,83.5,143.8,83.2z"/>
									</defs>
									<clipPath id="SVGID_24_">
										<use xlink:href="#SVGID_23_"  style="overflow:visible;"/>
									</clipPath>
									<g class="st17">
										<path class="st3" d="M143.8,83.2l5-0.7c-0.2,0.1-0.3,0.2-0.4,0.2c-0.1,0.1-0.2,0.2-0.3,0.2c-0.1,0.1-0.2,0.2-0.3,0.3
											c-0.1,0.1-0.1,0.2-0.2,0.3l-5.5,1c0.1-0.1,0.2-0.3,0.3-0.4c0.1-0.1,0.2-0.2,0.4-0.4c0.1-0.1,0.3-0.2,0.5-0.3
											C143.4,83.4,143.6,83.3,143.8,83.2"/>
										<path class="st18" d="M142.1,84.6l5.5-1c0,0,0,0,0,0.1c0,0,0,0,0,0.1c0,0,0,0,0,0.1c0,0,0,0,0,0.1l-5.5,1.1c0,0,0,0,0-0.1
											c0,0,0,0,0-0.1C142.1,84.7,142.1,84.7,142.1,84.6C142.1,84.6,142.1,84.6,142.1,84.6"/>
										<path class="st19" d="M142,84.8l5.5-1.1c0,0,0,0,0,0c0,0,0,0,0,0c0,0,0,0,0,0c0,0,0,0,0,0l-5.5,1.2c0,0,0,0,0-0.1
											c0,0,0,0,0-0.1C142,84.9,142,84.9,142,84.8C142,84.9,142,84.9,142,84.8"/>
										<path class="st20" d="M142,85.1l5.5-1.2c0,0,0,0,0,0c0,0,0,0,0,0c0,0,0,0,0,0c0,0,0,0,0,0l-5.5,1.2c0,0,0,0,0-0.1
											c0,0,0,0,0-0.1C142,85.2,142,85.2,142,85.1C142,85.1,142,85.1,142,85.1"/>
										<path class="st21" d="M142,85.3l5.5-1.2c0,0,0,0,0,0c0,0,0,0,0,0c0,0,0,0,0,0c0,0,0,0,0,0l-5.5,1.3c0,0,0,0,0-0.1
											c0,0,0,0,0-0.1C142,85.4,142,85.4,142,85.3C142,85.4,142,85.3,142,85.3"/>
										<path class="st22" d="M142,85.6l5.5-1.3c0,0,0,0,0,0.1c0,0,0,0,0,0.1c0,0,0,0,0,0.1c0,0,0,0,0,0.1l-5.5,1.4
											c0,0,0-0.1,0-0.1c0,0,0-0.1,0-0.1C142,85.7,142,85.7,142,85.6C142,85.6,142,85.6,142,85.6"/>
										<path class="st23" d="M142.1,85.9l5.5-1.4c0,0.1,0.1,0.2,0.2,0.3c0.1,0.1,0.2,0.2,0.3,0.3c0.1,0.1,0.2,0.2,0.3,0.3
											c0.1,0.1,0.3,0.2,0.4,0.3l-5.1,1.8c-0.2-0.1-0.4-0.3-0.6-0.4c-0.2-0.1-0.3-0.3-0.5-0.4c-0.1-0.1-0.2-0.3-0.3-0.4
											C142.2,86.2,142.2,86.1,142.1,85.9"/>
										<path class="st22" d="M143.7,87.5l5.1-1.8c0.1,0.1,0.2,0.1,0.3,0.2c0.1,0,0.2,0.1,0.3,0.1c0.1,0,0.2,0.1,0.3,0.1
											c0.1,0,0.2,0.1,0.3,0.1c0,0,0,0,0,0c0,0,0,0,0,0c0,0,0,0,0,0c0,0,0,0,0,0l-4.6,2c0,0,0,0-0.1,0c0,0,0,0-0.1,0
											c0,0,0,0-0.1,0c0,0,0,0-0.1,0c-0.2-0.1-0.3-0.1-0.5-0.2c-0.1-0.1-0.3-0.1-0.4-0.2c-0.1-0.1-0.3-0.1-0.4-0.2
											C143.9,87.7,143.8,87.6,143.7,87.5"/>
										<path class="st21" d="M145.6,88.4l4.6-2c0.1,0.1,0.3,0.1,0.5,0.2c0.2,0,0.3,0.1,0.5,0.1c0.2,0,0.3,0.1,0.5,0.1
											c0.2,0,0.3,0.1,0.5,0.1l-3.9,2.2c-0.2,0-0.5-0.1-0.7-0.1c-0.2,0-0.4-0.1-0.7-0.2c-0.2-0.1-0.4-0.1-0.6-0.2
											C146,88.6,145.8,88.5,145.6,88.4"/>
										<path class="st20" d="M148.2,89.1l3.9-2.2c0.2,0,0.4,0.1,0.6,0.1c0.2,0,0.4,0.1,0.6,0.1c0.2,0,0.4,0,0.6,0.1
											c0.2,0,0.4,0,0.6,0l-3,2.3c-0.3,0-0.5,0-0.8,0c-0.3,0-0.5,0-0.8-0.1c-0.3,0-0.5-0.1-0.8-0.1
											C148.7,89.2,148.4,89.2,148.2,89.1"/>
										<path class="st19" d="M151.3,89.5l3-2.3c0,0,0.1,0,0.1,0c0,0,0.1,0,0.1,0c0,0,0.1,0,0.1,0c0,0,0.1,0,0.1,0
											c0.1,0,0.3,0,0.4,0c0.1,0,0.3,0,0.4,0c0.1,0,0.3,0,0.4,0c0.1,0,0.3,0,0.4,0l-2.2,2.3c-0.2,0-0.4,0-0.5,0.1
											c-0.2,0-0.4,0-0.6,0c-0.2,0-0.4,0-0.6,0c-0.2,0-0.4,0-0.6,0c-0.1,0-0.1,0-0.2,0c-0.1,0-0.1,0-0.2,0c-0.1,0-0.1,0-0.2,0
											C151.4,89.5,151.4,89.5,151.3,89.5"/>
										<path class="st18" d="M154.3,89.3l2.2-2.3c0.2,0,0.3,0,0.4-0.1c0.1,0,0.3,0,0.4-0.1c0.1,0,0.3-0.1,0.4-0.1
											c0.1,0,0.3-0.1,0.4-0.1l-1.6,2.2c-0.2,0.1-0.4,0.1-0.5,0.2c-0.2,0-0.4,0.1-0.6,0.1c-0.2,0-0.4,0.1-0.6,0.1
											C154.7,89.3,154.5,89.3,154.3,89.3"/>
										<path class="st3" d="M156.6,88.9l1.6-2.2c0.1,0,0.1,0,0.2-0.1c0.1,0,0.1,0,0.2-0.1c0.1,0,0.1,0,0.2-0.1
											c0.1,0,0.1-0.1,0.2-0.1l-1.4,2.1c-0.1,0-0.2,0.1-0.2,0.1c-0.1,0-0.2,0.1-0.2,0.1c-0.1,0-0.2,0.1-0.3,0.1
											C156.7,88.8,156.7,88.8,156.6,88.9"/>
									</g>
								</g>
								<g>
									<polygon class="st24" points="157.6,88.5 158.9,86.4 164.3,83.9 164.8,85.1 									"/>
								</g>
								<g>
									<polygon class="st22" points="164.8,85.1 164.3,83.9 183.3,92.6 190.8,96.9 									"/>
								</g>
								<g>
									<polygon class="st4" points="168,71.9 166.6,74.3 148.8,82.5 143.8,83.2 									"/>
								</g>
								<g>
									<polygon class="st24" points="170,82.7 168,82.2 176.7,78.2 181.8,77.2 									"/>
								</g>
								<g class="st0">
									<defs>
										<path id="SVGID_25_" class="st0" d="M181.8,77.2l-5.1,0.9c0.5-0.3,0.9-0.5,1.1-0.9c0.2-0.3,0.3-0.7,0.2-1
											c-0.1-0.3-0.3-0.7-0.8-1c-0.4-0.3-1-0.6-1.7-0.9c-0.4-0.1-0.7-0.3-1.1-0.4c-0.4-0.1-0.8-0.2-1.2-0.3
											c-0.4-0.1-0.8-0.1-1.3-0.2c-0.4,0-0.9-0.1-1.3-0.1c-0.4,0-0.8,0-1.1,0c-0.4,0-0.7,0.1-1.1,0.1c-0.3,0.1-0.7,0.1-1,0.2
											c-0.3,0.1-0.6,0.2-0.9,0.3l1.4-2.3c0.4-0.2,0.7-0.3,1.2-0.4c0.4-0.1,0.9-0.2,1.3-0.3c0.5-0.1,1-0.1,1.5-0.2
											c0.5,0,1-0.1,1.6-0.1c0.6,0,1.2,0,1.7,0.1c0.6,0,1.2,0.1,1.7,0.2c0.6,0.1,1.1,0.2,1.7,0.4c0.5,0.1,1.1,0.3,1.6,0.5
											c1,0.4,1.7,0.8,2.3,1.2c0.5,0.4,0.9,0.9,1,1.4c0.1,0.5,0.1,0.9-0.2,1.4C183,76.5,182.5,76.9,181.8,77.2z"/>
									</defs>
									<clipPath id="SVGID_26_">
										<use xlink:href="#SVGID_25_"  style="overflow:visible;"/>
									</clipPath>
									<g class="st25">
										<path class="st3" d="M181.8,77.2l-5.1,0.9c0.5-0.3,0.9-0.5,1.1-0.9c0.2-0.3,0.3-0.7,0.2-1c-0.1-0.3-0.3-0.7-0.8-1
											c-0.4-0.3-1-0.6-1.7-0.9c-0.4-0.1-0.7-0.3-1.1-0.4c-0.4-0.1-0.8-0.2-1.2-0.3c-0.4-0.1-0.8-0.1-1.3-0.2
											c-0.4,0-0.9-0.1-1.3-0.1c-0.4,0-0.8,0-1.1,0c-0.4,0-0.7,0.1-1.1,0.1c-0.3,0.1-0.7,0.1-1,0.2c-0.3,0.1-0.6,0.2-0.9,0.3
											l1.4-2.3c0.4-0.2,0.7-0.3,1.2-0.4c0.4-0.1,0.9-0.2,1.3-0.3c0.5-0.1,1-0.1,1.5-0.2c0.5,0,1-0.1,1.6-0.1
											c0.6,0,1.2,0,1.7,0.1c0.6,0,1.2,0.1,1.7,0.2c0.6,0.1,1.1,0.2,1.7,0.4c0.5,0.1,1.1,0.3,1.6,0.5c1,0.4,1.7,0.8,2.3,1.2
											c0.5,0.4,0.9,0.9,1,1.4c0.1,0.5,0.1,0.9-0.2,1.4C183,76.5,182.5,76.9,181.8,77.2"/>
									</g>
								</g>
								<g>
									<linearGradient id="SVGID_27_" gradientUnits="userSpaceOnUse" x1="109.9715" y1="80.721" x2="215.403" y2="80.721">
										<stop  offset="0" style="stop-color:#D0751B"/>
										<stop  offset="8.133602e-02" style="stop-color:#D46C14"/>
										<stop  offset="0.3407" style="stop-color:#E15200"/>
										<stop  offset="0.7033" style="stop-color:#E15200"/>
										<stop  offset="0.8329" style="stop-color:#DF5203"/>
										<stop  offset="0.9231" style="stop-color:#D7530C"/>
										<stop  offset="1" style="stop-color:#CB551B"/>
									</linearGradient>
									<path class="st26" d="M150.9,56.7l64.5,27.7l-19.3,9.8L170,82.7l11.8-5.5c0.7-0.3,1.3-0.7,1.6-1.2c0.3-0.4,0.4-0.9,0.2-1.4
										c-0.1-0.5-0.5-0.9-1-1.4c-0.5-0.4-1.3-0.9-2.3-1.2c-0.5-0.2-1-0.4-1.6-0.5c-0.5-0.1-1.1-0.3-1.7-0.4
										c-0.6-0.1-1.2-0.2-1.7-0.2c-0.6,0-1.2-0.1-1.7-0.1c-0.5,0-1.1,0-1.6,0.1c-0.5,0-1,0.1-1.5,0.2c-0.5,0.1-0.9,0.2-1.3,0.3
										c-0.4,0.1-0.8,0.3-1.2,0.4l-24.2,11.3c-0.7,0.3-1.3,0.7-1.6,1.2c-0.3,0.4-0.4,0.9-0.2,1.4c0.1,0.5,0.5,0.9,1,1.4
										c0.6,0.4,1.3,0.9,2.3,1.2c0.5,0.2,1,0.4,1.6,0.5c0.5,0.1,1.1,0.3,1.7,0.4c0.6,0.1,1.2,0.2,1.7,0.2c0.6,0,1.2,0.1,1.7,0.1
										c0.5,0,1.1,0,1.6-0.1c0.5,0,1-0.1,1.5-0.2c0.5-0.1,0.9-0.2,1.3-0.3c0.4-0.1,0.8-0.3,1.2-0.4l7.3-3.4l26,11.8l-15.5,7.9
										L110,74.7L150.9,56.7z"/>
								</g>
							</g>
						</g>
					</g>
				</g>
				<g>
					<g>
						<path class="st27" d="M16.7,66.8h3.5v2.1h0.1c0.7-1.2,1.6-2.4,3.8-2.4c0.2,0,0.5,0,0.7,0v3.2c-0.3,0-0.7,0-1,0
							c-2.8,0-3.3,1.5-3.3,2.9V79h-3.6V66.8z"/>
						<path class="st27" d="M35.1,74.6c0,1.5-1.6,2.4-3.2,2.4c-0.7,0-1.7-0.3-1.7-1.5c0-1.3,1.1-1.6,2.4-1.8
							c1.5-0.2,2.1-0.4,2.5-0.7V74.6z M38.7,70c0-3-3.5-3.5-5.5-3.5c-2.8,0-5.7,0.5-6.1,4.2h3.5c0.1-0.7,0.4-1.7,2.2-1.7
							c0.9,0,2.4,0.1,2.4,1.4c0,0.7-0.7,0.9-1.3,1l-3.2,0.4c-2.3,0.3-4,1.5-4,3.9c0,2.5,2.1,3.5,4.2,3.5c2.4,0,3.6-1,4.4-1.8
							c0.1,0.7,0.1,0.9,0.3,1.5h3.9v-0.5c-0.4-0.1-0.8-0.5-0.8-1.9V70z"/>
						<path class="st27" d="M50,65.2h-2.6l2.5-3.3h4L50,65.2z M55.1,79h-3.5v-1.8h0c-0.8,1.3-2.3,2.1-4.2,2.1
							c-2.7,0-4.7-1.4-4.7-4.5v-8h3.6v7.5c0,1.9,1.3,2.2,2.4,2.2c1.2,0,2.8-0.6,2.8-2.8v-7h3.6V79z"/>
						<rect x="59.4" y="62.5" class="st27" width="3.6" height="16.4"/>
						<path class="st27" d="M87.1,74.5c-0.1,1.2-1.2,4.7-6.3,4.7c-5.1,0-6.3-3.5-6.3-6c0-3.9,1.9-6.7,6.6-6.7c2.1,0,5.7,0.9,6,4.7
							h-3.7c-0.2-0.8-0.7-2.1-2.4-2c-2.3,0-2.9,2-2.9,3.5c0,1.3,0,4,2.8,4c1.8,0,2.4-1.6,2.4-2.1H87.1z"/>
						<path class="st27" d="M100,72.9c0,1.5-0.5,3.7-3.3,3.7c-2.8,0-3.3-2.1-3.3-3.7c0-1.6,0.5-3.7,3.3-3.7
							C99.5,69.2,100,71.3,100,72.9z M103.8,72.9c0-4.4-3.3-6.4-7-6.4c-3.7,0-7,2-7,6.4c0,4.4,3.3,6.4,7,6.4
							C100.4,79.3,103.8,77.3,103.8,72.9z"/>
						<polygon class="st27" points="110.8,79 107.2,79 107.2,62.5 110.8,62.5 110.8,71.4 115.3,66.8 119.8,66.8 114.9,71.5 
							119.9,79 115.6,79 112.3,73.8 110.8,75.1 						"/>
						<path class="st27" d="M129.9,74.6c0,1.5-1.6,2.4-3.2,2.4c-0.7,0-1.7-0.3-1.7-1.5c0-1.3,1.1-1.6,2.4-1.8
							c1.5-0.2,2.1-0.4,2.5-0.7V74.6z M133.4,70c0-3-3.5-3.5-5.5-3.5c-2.8,0-5.7,0.5-6.1,4.2l3.5,0c0.1-0.7,0.4-1.7,2.2-1.7
							c0.9,0,2.4,0.1,2.4,1.4c0,0.7-0.7,0.9-1.3,1l-3.3,0.4c-2.3,0.3-4,1.5-4,3.9c0,2.5,2.1,3.5,4.2,3.5c2.5,0,3.6-1,4.4-1.8
							c0.1,0.7,0.1,0.9,0.4,1.5h3.9v-0.5c-0.4-0.1-0.8-0.5-0.8-1.9V70z"/>
						<path class="st27" d="M155,73c0,1.4-0.7,3.7-3,3.7c-2.3,0-3.2-1.7-3.2-3.5c0-1.9,0.6-3.9,3.1-3.9C154.2,69.3,155,71.1,155,73z
							 M148.9,62.5h-3.6V79h3.6v-1.5h0.1c0.9,1.4,2.5,1.8,4,1.8c4.1,0,5.8-3.2,5.8-6.5c0-4.2-2.7-6.2-5.7-6.2c-2.3,0-3.4,1.1-4,1.9
							l-0.1,0V62.5z"/>
						<path class="st27" d="M169.7,74.6c0,1.5-1.6,2.4-3.2,2.4c-0.7,0-1.7-0.3-1.7-1.5c0-1.3,1.1-1.6,2.5-1.8
							c1.5-0.2,2.1-0.4,2.4-0.7V74.6z M173.2,70c0-3-3.5-3.5-5.5-3.5c-2.8,0-5.7,0.5-6.1,4.2h3.5c0.1-0.7,0.4-1.7,2.2-1.7
							c0.9,0,2.4,0.1,2.4,1.4c0,0.7-0.7,0.9-1.3,0.9l-3.2,0.4c-2.3,0.3-4,1.5-4,3.9c0,2.5,2.1,3.5,4.2,3.5c2.5,0,3.6-1,4.5-1.8
							c0.1,0.7,0.1,0.9,0.3,1.5h3.9v-0.5c-0.4-0.1-0.8-0.5-0.8-1.9V70z"/>
						<path class="st27" d="M177.2,66.8h3.4v2.1h0.1c0.7-1.2,1.6-2.4,3.8-2.4c0.3,0,0.5,0,0.7,0l0,3.2c-0.3,0-0.7,0-1,0
							c-2.8,0-3.3,1.5-3.3,2.9l0,6.3h-3.6V66.8z"/>
						<path class="st27" d="M188.1,66.8l3.5,0v2.1h0.1c0.8-1.2,1.6-2.4,3.8-2.4c0.2,0,0.5,0,0.7,0v3.2c-0.3,0-0.7,0-1,0
							c-2.8,0-3.3,1.5-3.3,2.9l0,6.3h-3.6L188.1,66.8z"/>
						<path class="st27" d="M202.6,66.8V79H199V66.8H202.6z M202.6,65.4H199v-3h3.6V65.4z"/>
						<path class="st27" d="M210,73c0-2.8,1.5-3.7,2.8-3.7c2,0,3.1,1.6,3.1,3.6c0,1.7-0.6,3.5-3.1,3.5C210.7,76.4,210,74.5,210,73z
							 M216.1,66.8v1.8h0c-0.4-0.8-1.5-2.1-4-2.1c-3,0-5.7,2.1-5.7,6.3c0,4.2,2.6,6.3,5.9,6.3c2.2,0,3.1-0.9,3.7-1.8l0.1,0.1v1.4
							c0,2-0.9,2.8-2.9,2.8c-2.1,0-2.4-0.6-2.5-1.2h-3.9c0.2,2.6,3.1,3.7,6,3.7c6.8,0,6.9-3.5,6.9-5.6V66.8L216.1,66.8z"/>
						<path class="st27" d="M231.1,74.6c0,1.5-1.6,2.4-3.2,2.4c-0.7,0-1.7-0.3-1.7-1.5c0-1.3,1.1-1.6,2.5-1.8
							c1.5-0.2,2.1-0.4,2.4-0.7V74.6z M234.7,70c0-3-3.5-3.5-5.4-3.5c-2.8,0-5.7,0.5-6.1,4.3l3.5,0c0.1-0.7,0.4-1.7,2.2-1.7
							c0.9,0,2.4,0.1,2.4,1.4c0,0.7-0.7,0.9-1.2,0.9l-3.3,0.4c-2.3,0.3-4,1.5-4,3.9c0,2.5,2.1,3.5,4.2,3.5c2.5,0,3.6-1,4.4-1.8
							c0.1,0.7,0.1,0.9,0.3,1.5h3.9v-0.5c-0.4-0.1-0.8-0.5-0.8-1.9V70z"/>
					</g>
					<g>
						<path class="st28" d="M16.9,66.5h3.5v2.1h0.1c0.7-1.2,1.6-2.4,3.8-2.4c0.2,0,0.5,0,0.7,0v3.2c-0.3,0-0.7,0-1,0
							c-2.8,0-3.3,1.5-3.3,2.9v6.3h-3.6V66.5z"/>
						<path class="st28" d="M35.4,74.3c0,1.5-1.6,2.4-3.2,2.4c-0.7,0-1.7-0.3-1.7-1.5c0-1.3,1.1-1.6,2.4-1.8
							c1.5-0.2,2.1-0.4,2.5-0.7V74.3z M38.9,69.7c0-3-3.5-3.5-5.5-3.5c-2.8,0-5.7,0.5-6.1,4.2h3.5c0.1-0.7,0.4-1.7,2.2-1.7
							c0.9,0,2.4,0.1,2.4,1.4c0,0.7-0.7,0.9-1.3,1l-3.2,0.4c-2.3,0.3-4,1.5-4,3.9c0,2.5,2.1,3.5,4.2,3.5c2.4,0,3.6-1,4.4-1.8
							c0.1,0.7,0.1,0.9,0.3,1.5h3.9v-0.5c-0.4-0.1-0.8-0.4-0.8-1.9V69.7z"/>
						<path class="st28" d="M50.3,64.8h-2.6l2.5-3.3h4L50.3,64.8z M55.4,78.7h-3.5v-1.8h0c-0.8,1.3-2.3,2.1-4.2,2.1
							C45,79,43,77.6,43,74.5v-8h3.6V74c0,1.9,1.3,2.2,2.4,2.2c1.2,0,2.8-0.6,2.8-2.7v-7h3.6V78.7z"/>
						<rect x="59.7" y="62.2" class="st28" width="3.6" height="16.4"/>
						<path class="st28" d="M87.4,74.2c-0.1,1.2-1.2,4.7-6.3,4.7c-5.1,0-6.3-3.5-6.3-6c0-3.9,1.9-6.7,6.6-6.7c2.1,0,5.7,0.9,6,4.7
							h-3.7c-0.2-0.8-0.7-2.1-2.4-2c-2.3,0-2.9,2-2.9,3.5c0,1.3,0,4,2.8,4c1.8,0,2.4-1.6,2.4-2.1H87.4z"/>
						<path class="st28" d="M100.3,72.6c0,1.5-0.5,3.7-3.3,3.7c-2.8,0-3.3-2.1-3.3-3.7c0-1.6,0.5-3.7,3.3-3.7
							C99.8,68.9,100.3,71,100.3,72.6z M104,72.6c0-4.4-3.3-6.4-7-6.4c-3.7,0-7,2-7,6.4c0,4.4,3.3,6.4,7,6.4
							C100.7,79,104,76.9,104,72.6z"/>
						<polygon class="st28" points="111,78.7 107.4,78.7 107.4,62.2 111,62.2 111,71.1 115.6,66.5 120,66.5 115.2,71.2 120.2,78.7 
							115.8,78.7 112.5,73.4 111,74.8 						"/>
						<path class="st28" d="M130.1,74.3c0,1.5-1.6,2.4-3.2,2.4c-0.7,0-1.7-0.3-1.7-1.5c0-1.3,1.1-1.6,2.4-1.8
							c1.5-0.2,2.1-0.4,2.5-0.7V74.3z M133.7,69.7c0-3-3.5-3.5-5.5-3.5c-2.8,0-5.7,0.5-6.1,4.2l3.5,0c0.1-0.7,0.4-1.7,2.2-1.7
							c0.9,0,2.4,0.1,2.4,1.4c0,0.7-0.7,0.9-1.3,1l-3.3,0.4c-2.3,0.3-4,1.5-4,3.9c0,2.5,2.1,3.5,4.2,3.5c2.5,0,3.6-1,4.4-1.8
							c0.1,0.7,0.1,0.9,0.4,1.5h3.9v-0.5c-0.4-0.1-0.8-0.4-0.8-1.9V69.7z"/>
						<path class="st28" d="M155.3,72.7c0,1.4-0.7,3.7-3,3.7c-2.3,0-3.2-1.7-3.2-3.5c0-1.9,0.6-3.9,3.1-3.9
							C154.5,69,155.3,70.8,155.3,72.7z M149.2,62.2h-3.6v16.4h3.6v-1.5h0.1c0.9,1.4,2.5,1.8,4,1.8c4.1,0,5.8-3.2,5.8-6.5
							c0-4.2-2.7-6.2-5.7-6.2c-2.3,0-3.4,1.1-4,1.9l-0.1,0V62.2z"/>
						<path class="st28" d="M169.9,74.3c0,1.5-1.6,2.4-3.2,2.4c-0.7,0-1.7-0.3-1.7-1.5c0-1.3,1.1-1.6,2.5-1.8
							c1.5-0.2,2.1-0.4,2.4-0.7V74.3z M173.4,69.7c0-3-3.5-3.5-5.5-3.5c-2.8,0-5.7,0.5-6.1,4.2h3.5c0.1-0.7,0.4-1.7,2.2-1.7
							c0.9,0,2.4,0.1,2.4,1.4c0,0.7-0.7,0.9-1.3,0.9l-3.2,0.4c-2.3,0.3-4,1.5-4,3.9c0,2.5,2.1,3.5,4.2,3.5c2.5,0,3.6-1,4.5-1.8
							c0.1,0.7,0.1,0.9,0.3,1.5h3.9v-0.5c-0.4-0.1-0.8-0.4-0.8-1.9V69.7z"/>
						<path class="st28" d="M177.5,66.5h3.4v2.1h0.1c0.7-1.2,1.6-2.4,3.8-2.4c0.3,0,0.5,0,0.7,0l0,3.2c-0.3,0-0.7,0-1,0
							c-2.8,0-3.3,1.5-3.3,2.9l0,6.3h-3.6V66.5z"/>
						<path class="st28" d="M188.3,66.5l3.5,0v2.1h0.1c0.8-1.2,1.6-2.4,3.8-2.4c0.2,0,0.5,0,0.7,0v3.2c-0.3,0-0.7,0-1,0
							c-2.8,0-3.3,1.5-3.3,2.9l0,6.3h-3.6L188.3,66.5z"/>
						<path class="st28" d="M202.9,66.5v12.2h-3.6V66.5H202.9z M202.9,65h-3.6v-3h3.6V65z"/>
						<path class="st28" d="M210.3,72.6c0-2.8,1.5-3.7,2.8-3.7c2,0,3.1,1.6,3.1,3.6c0,1.7-0.6,3.5-3.1,3.5
							C211,76,210.3,74.2,210.3,72.6z M216.3,66.5v1.8h0c-0.4-0.8-1.5-2.1-4-2.1c-3,0-5.7,2.1-5.7,6.3c0,4.2,2.6,6.3,5.9,6.3
							c2.2,0,3.1-0.9,3.7-1.8l0.1,0.1v1.4c0,2-0.9,2.8-2.9,2.8c-2.1,0-2.4-0.6-2.5-1.2h-3.9c0.2,2.6,3.1,3.7,6,3.7
							c6.8,0,6.9-3.5,6.9-5.6V66.5L216.3,66.5z"/>
						<path class="st28" d="M231.4,74.3c0,1.5-1.6,2.4-3.2,2.4c-0.7,0-1.7-0.3-1.7-1.5c0-1.3,1.1-1.6,2.5-1.8
							c1.5-0.2,2.1-0.4,2.4-0.7V74.3z M234.9,69.7c0-3-3.5-3.5-5.4-3.5c-2.8,0-5.7,0.5-6.1,4.3l3.5,0c0.1-0.7,0.4-1.7,2.2-1.7
							c0.9,0,2.4,0.1,2.4,1.4c0,0.7-0.7,0.9-1.2,0.9l-3.3,0.4c-2.3,0.3-4,1.5-4,3.9c0,2.5,2.1,3.5,4.2,3.5c2.5,0,3.6-1,4.4-1.8
							c0.1,0.7,0.1,0.9,0.3,1.5h3.9v-0.5c-0.4-0.1-0.8-0.5-0.8-1.9V69.7z"/>
					</g>
				</g>
			</g>
			<g>
				<g>
					<g>
						<g>
							<g>
								<g>
									<defs>
										<path id="SVGID_28_" d="M155.3,54.8l-1.7-1.4c2-0.8,3.4-1.4,4.3-2c0.9-0.6,1.3-1.1,1.4-1.5c0.1-0.4-0.3-0.8-0.8-1.2
											c-0.6-0.4-1.4-0.8-2.3-1.2c-0.2-0.1-0.5-0.2-0.7-0.3c-0.2-0.1-0.5-0.1-0.7-0.2c-0.2,0-0.5-0.1-0.8-0.1c-0.3,0-0.5,0-0.8,0
											c-0.8,0-1.6,0.1-2.4,0.2c-0.8,0.1-1.5,0.3-2.1,0.5c-0.6,0.2-1.1,0.4-1.5,0.6c-0.4,0.2-0.6,0.3-0.7,0.3l-0.9-0.4
											c0.1,0,0.4-0.2,0.9-0.4c0.5-0.2,1.2-0.5,2.1-0.8c0.8-0.3,1.8-0.5,2.9-0.7c1-0.2,2.2-0.3,3.3-0.3c0.4,0,0.7,0,1,0
											c0.3,0,0.7,0.1,1,0.1c0.3,0.1,0.7,0.1,1,0.2c0.3,0.1,0.6,0.2,0.9,0.4c1.3,0.6,2.4,1.1,3.1,1.7c0.8,0.5,1.2,1.1,1.1,1.7
											c-0.1,0.6-0.6,1.3-1.9,2C159.9,52.9,158,53.7,155.3,54.8z"/>
									</defs>
									<clipPath id="SVGID_29_">
										<use xlink:href="#SVGID_28_"  style="overflow:visible;"/>
									</clipPath>
								</g>
							</g>
						</g>
					</g>
					<g>
						<g>
							<g>
								<g>
									<defs>
										<path id="SVGID_30_" d="M77.9,88.6l1.6-3.1c1.5,0,3-0.3,4.4-0.7c1.4-0.4,2.8-0.9,3.9-1.5c1.2-0.5,2.1-1.1,2.9-1.5
											c0.7-0.4,1.2-0.7,1.2-0.8l2.9,1.5c-0.1,0.1-0.7,0.5-1.7,1.1c-1,0.6-2.3,1.3-3.9,2.1c-1.6,0.7-3.4,1.5-5.3,2
											C82,88.2,80,88.6,77.9,88.6z"/>
									</defs>
									<clipPath id="SVGID_31_">
										<use xlink:href="#SVGID_30_"  style="overflow:visible;"/>
									</clipPath>
								</g>
								<g>
									<defs>
										<path id="SVGID_32_" d="M71.5,86.9l2.6-3c0.4,0.2,1.4,0.7,1.8,0.9c0.4,0.2,0.8,0.3,1.2,0.4c0.4,0.1,0.8,0.2,1.2,0.2
											c0.4,0,0.8,0.1,1.2,0.1l-1.6,3.1c-0.6,0-1.1,0-1.7-0.1c-0.6-0.1-1.1-0.2-1.6-0.3c-0.5-0.1-1.1-0.3-1.6-0.5
											C72.5,87.4,72,87.2,71.5,86.9z"/>
									</defs>
									<clipPath id="SVGID_33_">
										<use xlink:href="#SVGID_32_"  style="overflow:visible;"/>
									</clipPath>
								</g>
								<g>
									<defs>
										<path id="SVGID_34_" d="M83.2,76.8l0.2,0c-3.9,1.2-6.4,2.2-8,3.1c-1.6,0.9-2.2,1.7-2.3,2.3c-0.1,0.6,0.3,1.1,0.7,1.4
											c0.4,0.3,1.6,0.8,1.7,0.9l-4,2.3c-0.1,0-0.8-0.3-1.4-0.8c-0.6-0.5-1.1-1.1-0.9-2c0.2-0.9,1-1.9,3.1-3.1
											C74.5,79.8,77.9,78.4,83.2,76.8z"/>
									</defs>
									<clipPath id="SVGID_35_">
										<use xlink:href="#SVGID_34_"  style="overflow:visible;"/>
									</clipPath>
								</g>
							</g>
						</g>
					</g>
					<g>
						<g>
							<g>
								<g>
									<defs>
										<path id="SVGID_36_" d="M143.8,83.2l5-0.7c-0.5,0.3-0.9,0.5-1.1,0.9c-0.2,0.3-0.3,0.7-0.2,1c0.1,0.3,0.4,0.7,0.8,1
											c0.4,0.3,1,0.6,1.7,0.9c0.4,0.1,0.7,0.3,1.1,0.4c0.4,0.1,0.8,0.2,1.2,0.3c0.4,0.1,0.8,0.1,1.3,0.2c0.4,0,0.9,0.1,1.3,0.1
											c0.4,0,0.8,0,1.1,0c0.4,0,0.7-0.1,1.1-0.1c0.3-0.1,0.7-0.1,1-0.2c0.3-0.1,0.6-0.2,0.9-0.3l-1.4,2.1
											c-0.4,0.2-0.7,0.3-1.2,0.4c-0.4,0.1-0.9,0.2-1.3,0.3c-0.5,0.1-1,0.1-1.5,0.2c-0.5,0-1,0.1-1.6,0.1c-0.6,0-1.2,0-1.7-0.1
											c-0.6,0-1.2-0.1-1.7-0.2c-0.6-0.1-1.1-0.2-1.7-0.4c-0.5-0.1-1.1-0.3-1.6-0.5c-1-0.4-1.7-0.8-2.3-1.2
											c-0.6-0.4-0.9-0.9-1-1.4c-0.1-0.5-0.1-0.9,0.2-1.4C142.6,83.9,143.1,83.5,143.8,83.2z"/>
									</defs>
									<clipPath id="SVGID_37_">
										<use xlink:href="#SVGID_36_"  style="overflow:visible;"/>
									</clipPath>
								</g>
								<g>
									<defs>
										<path id="SVGID_38_" d="M181.8,77.2l-5.1,0.9c0.5-0.3,0.9-0.5,1.1-0.9c0.2-0.3,0.3-0.7,0.2-1c-0.1-0.3-0.3-0.7-0.8-1
											c-0.4-0.3-1-0.6-1.7-0.9c-0.4-0.1-0.7-0.3-1.1-0.4c-0.4-0.1-0.8-0.2-1.2-0.3c-0.4-0.1-0.8-0.1-1.3-0.2
											c-0.4,0-0.9-0.1-1.3-0.1c-0.4,0-0.8,0-1.1,0c-0.4,0-0.7,0.1-1.1,0.1c-0.3,0.1-0.7,0.1-1,0.2c-0.3,0.1-0.6,0.2-0.9,0.3
											l1.4-2.3c0.4-0.2,0.7-0.3,1.2-0.4c0.4-0.1,0.9-0.2,1.3-0.3c0.5-0.1,1-0.1,1.5-0.2c0.5,0,1-0.1,1.6-0.1
											c0.6,0,1.2,0,1.7,0.1c0.6,0,1.2,0.1,1.7,0.2c0.6,0.1,1.1,0.2,1.7,0.4c0.5,0.1,1.1,0.3,1.6,0.5c1,0.4,1.7,0.8,2.3,1.2
											c0.5,0.4,0.9,0.9,1,1.4c0.1,0.5,0.1,0.9-0.2,1.4C183,76.5,182.5,76.9,181.8,77.2z"/>
									</defs>
									<clipPath id="SVGID_39_">
										<use xlink:href="#SVGID_38_"  style="overflow:visible;"/>
									</clipPath>
								</g>
							</g>
						</g>
					</g>
				</g>
			</g>
		</g>
	</g>
	<g>
		<g>
			<g>
				<path class="st29" d="M14.1,125.7c-0.3,2.3,1.1,3.1,3,3.1c2.3,0,3.5-1.2,3.8-2.6c0.8-4-7.5-1.3-6.4-6.3c0.4-1.8,2.2-3.4,5.1-3.4
					c2.9,0,3.9,1.7,3.5,3.8h-1.2c0.4-2-0.9-2.8-2.5-2.8c-2.4,0-3.6,1.5-3.7,2.8c-0.2,3.3,7.6,0.9,6.5,5.9c-0.5,2.3-2.5,3.7-5.5,3.7
					c-2.7,0-4.3-1.4-3.7-4.1H14.1z"/>
				<path class="st29" d="M25.1,125.2c-0.4,2,0.3,3.7,2.3,3.7c1.4,0,2.6-0.8,3.2-2.1h1.2c-0.9,1.7-2.3,3.1-4.6,3.1
					c-2.9,0-3.8-2.1-3.2-4.8c0.6-2.7,2.6-4.9,5.3-4.9c2.5,0,3.7,1.8,3,5.1H25.1z M31.2,124.3c0.4-1.8-0.3-3.2-2.2-3.2
					c-1.9,0-3.2,1.5-3.8,3.2H31.2z"/>
				<path class="st29" d="M42.4,120.3h1.1l-1.8,8.3c-0.5,2.5-1.8,4.6-5.3,4.6c-2.7,0-3.5-1.5-3.3-2.6h1.1c0,1.4,1.1,1.7,2.4,1.7
					c2.9,0,3.8-2.2,4.2-4.3c-0.9,1.1-2.4,1.7-3.6,1.7c-2.8,0-3.6-2.3-3.1-4.9c0.6-2.7,2.2-4.8,5.2-4.8c1.2,0,2.4,0.7,2.8,1.9h0
					L42.4,120.3z M39.1,121c-1.8,0-3.4,1.3-3.9,3.6c-0.6,2.3,0.1,4.2,2.3,4.2c1.9,0,3.5-1.8,3.9-3.9C41.9,122.7,41.1,121,39.1,121z"
					/>
				<path class="st29" d="M52.4,120.3h1.1l-1.9,9.2h-1.1l0.3-1.3c-0.7,0.6-1.7,1.5-3.3,1.5c-2.4,0-3-1.5-2.5-3.4l1.3-6h1.1l-1.3,6
					c-0.3,1.6,0.2,2.5,1.8,2.5c1.8,0,3.1-1.5,3.5-3.5L52.4,120.3z"/>
				<path class="st29" d="M55.2,129.5h-1.1l1.9-9.2h1.1l-0.4,1.7h0c0.9-1.5,1.9-2,3.4-2l-0.2,1.2c-2.4-0.1-3.4,1.7-3.8,3.8
					L55.2,129.5z"/>
				<path class="st29" d="M60,124.9c0.6-2.7,2.4-4.8,5.3-4.8c2.9,0,3.8,2.1,3.2,4.8c-0.6,2.9-2.7,4.8-5.3,4.8
					C60.9,129.7,59.3,128.1,60,124.9z M65.1,121c-2.2,0-3.5,1.9-3.9,3.9c-0.5,2.3,0.3,3.9,2.3,3.9c2.2,0,3.5-1.9,4-3.9
					C67.8,122.8,67.3,121,65.1,121z"/>
				<path class="st29" d="M75.6,126.6c0,1.6,0.7,2.2,2.3,2.2c1.5,0,2.4-0.8,2.6-1.7c0.6-2.7-5.7-0.8-4.9-4.4
					c0.3-1.5,1.7-2.6,3.8-2.6c2,0,3.1,0.8,2.9,2.9h-1.1c0.1-1.4-0.7-1.9-2.1-1.9c-1.3,0-2.2,0.6-2.4,1.6c-0.5,2.5,5.7,0.9,4.9,4.5
					c-0.4,1.8-2.1,2.7-4.3,2.7c-2.2,0-3.1-1.4-2.8-3.1H75.6z"/>
				<path class="st29" d="M83.4,129.5l2-9.2h1.1l-2,9.2H83.4z M85.8,118.3l0.3-1.6h1.2l-0.3,1.6H85.8z"/>
				<path class="st29" d="M88.3,129.5h-1.1l2-9.2h1.1l-0.3,1.3c1.1-0.9,2-1.5,3.3-1.5c1.1,0,2.1,0.4,2.5,1.3c0.3,0.6,0.2,1.3,0,2.1
					l-1.3,6h-1.1l1.3-6c0.4-1.7-0.1-2.5-1.9-2.5c-1.3,0-2.4,0.8-2.9,1.8c-0.3,0.6-0.5,1.1-0.6,1.7L88.3,129.5z"/>
				<path class="st29" d="M109.9,123.2c-0.1-1.4-0.8-2.2-2.3-2.2c-2.2,0-3.5,2-3.9,3.9c-0.4,1.9,0.1,3.9,2.3,3.9
					c1.6,0,2.8-1,3.3-2.5h1.1c-0.8,2-2.4,3.4-4.7,3.4c-2.9,0-3.8-2.1-3.2-4.8c0.5-2.5,2.5-4.9,5.3-4.9c2.1,0,3.3,1,3.1,3.1H109.9z"
					/>
				<path class="st29" d="M112.2,124.9c0.6-2.7,2.5-4.8,5.3-4.8c2.9,0,3.8,2.1,3.2,4.8c-0.6,2.9-2.7,4.8-5.3,4.8
					C113.1,129.7,111.6,128.1,112.2,124.9z M117.3,121c-2.2,0-3.5,1.9-3.9,3.9c-0.5,2.3,0.3,3.9,2.3,3.9c2.2,0,3.5-1.9,3.9-3.9
					C120.1,122.8,119.6,121,117.3,121z"/>
				<path class="st29" d="M122.7,129.5h-1.1l2-9.2h1.1l-0.3,1.4h0c0.8-1,2-1.6,3.2-1.6c1.7,0,2.1,0.8,2.3,1.8
					c0.9-1.2,2.1-1.8,3.4-1.8c2.5,0,2.5,1.8,2.1,3.6l-1.2,5.8H133l1.4-6.3c0.3-1.3,0-2.1-1.5-2.1c-0.8,0-1.6,0.3-2.3,1
					c-0.6,0.6-1,1.7-1.1,2.5l-1,5h-1.1l1.4-6.3c0.3-1.3,0-2.1-1.5-2.1c-0.8,0-1.6,0.3-2.3,1c-0.6,0.6-1,1.7-1.1,2.5L122.7,129.5z"/>
				<path class="st29" d="M136.9,133.1h-1.1l2.7-12.8h1.1l-0.4,1.6h0.1c0.9-1.2,2.4-1.9,3.6-1.9c2.9,0,3.7,2.1,3.1,4.8
					c-0.6,2.6-2.3,4.9-5.1,4.9c-1.3,0-2.5-0.6-2.9-1.7L136.9,133.1z M140.9,128.8c2.2,0,3.6-1.9,4-4.2c0.5-2.3-0.6-3.6-2.4-3.6
					c-2,0-3.5,1.7-3.9,3.9C138.2,127,139,128.8,140.9,128.8z"/>
				<path class="st29" d="M147.5,129.5l2.7-12.8h1.1l-2.7,12.8H147.5z"/>
				<path class="st29" d="M151.4,129.5l1.9-9.2h1.1l-2,9.2H151.4z M153.8,118.3l0.3-1.6h1.2l-0.3,1.6H153.8z"/>
				<path class="st29" d="M163.1,123.2c-0.1-1.4-0.9-2.2-2.3-2.2c-2.2,0-3.5,2-3.9,3.9c-0.4,1.9,0.1,3.9,2.3,3.9
					c1.6,0,2.8-1,3.3-2.5h1.1c-0.8,2-2.4,3.4-4.7,3.4c-2.9,0-3.8-2.1-3.2-4.8c0.5-2.5,2.5-4.9,5.2-4.9c2.1,0,3.3,1,3.2,3.1H163.1z"
					/>
				<path class="st29" d="M170.4,124.2c0.4,0,1.1-0.1,1.5-0.3c0.4-0.2,0.5-0.6,0.6-1c0.2-1.1-0.2-1.9-1.9-1.9
					c-1.5,0-2.6,0.5-3.1,2.1h-1.1c0.6-2.2,2.4-3,4.4-3c1.9,0,3.2,0.7,2.7,2.9l-1.1,5c-0.2,0.8,0,1,1,0.7l-0.2,0.8
					c-0.2,0.1-0.6,0.2-0.9,0.2c-0.2,0-0.3,0-0.5-0.1c-0.7-0.1-0.7-0.7-0.6-1.4c-1.1,1-2.4,1.5-3.7,1.5c-1.6,0-2.9-0.9-2.5-2.6
					c0.3-1.5,1.6-2.5,3.8-2.8L170.4,124.2z M172.1,124.7c-1,0.4-1.9,0.4-2.9,0.5c-1.6,0.1-2.7,0.7-3,2c-0.2,1.1,0.6,1.7,1.6,1.7
					c1.7,0,3.5-0.8,3.9-2.7L172.1,124.7z"/>
				<path class="st29" d="M182.8,123.2c-0.1-1.4-0.9-2.2-2.3-2.2c-2.2,0-3.5,2-3.9,3.9c-0.4,1.9,0.1,3.9,2.3,3.9
					c1.6,0,2.8-1,3.4-2.5h1.1c-0.8,2-2.4,3.4-4.7,3.4c-2.9,0-3.8-2.1-3.2-4.8c0.5-2.5,2.5-4.9,5.2-4.9c2.1,0,3.3,1,3.1,3.1H182.8z"
					/>
				<path class="st29" d="M185,129.5l2-9.2h1.1l-2,9.2H185z M187.3,118.3l0.3-1.6h1.2l-0.3,1.6H187.3z"/>
				<path class="st29" d="M189.1,124.9c0.6-2.7,2.4-4.8,5.3-4.8c2.9,0,3.8,2.1,3.2,4.8c-0.6,2.9-2.7,4.8-5.3,4.8
					C190,129.7,188.4,128.1,189.1,124.9z M194.2,121c-2.2,0-3.5,1.9-3.9,3.9c-0.5,2.3,0.2,3.9,2.3,3.9c2.2,0,3.5-1.9,4-3.9
					C196.9,122.8,196.5,121,194.2,121z"/>
				<path class="st29" d="M199.7,129.5h-1.1l2-9.2h1.1l-0.3,1.3c1-0.9,2-1.5,3.3-1.5c1.1,0,2.1,0.4,2.5,1.3c0.3,0.6,0.2,1.3,0,2.1
					l-1.3,6h-1.1l1.3-6c0.3-1.7-0.1-2.5-1.9-2.5c-1.3,0-2.4,0.8-2.9,1.8c-0.3,0.6-0.5,1.1-0.6,1.7L199.7,129.5z"/>
				<path class="st29" d="M210.1,125.2c-0.4,2,0.3,3.7,2.3,3.7c1.4,0,2.6-0.8,3.2-2.1h1.2c-0.9,1.7-2.3,3.1-4.6,3.1
					c-2.9,0-3.8-2.1-3.2-4.8c0.6-2.7,2.6-4.9,5.3-4.9c2.5,0,3.7,1.8,3,5.1H210.1z M216.2,124.3c0.4-1.8-0.3-3.2-2.2-3.2
					c-1.9,0-3.2,1.5-3.8,3.2H216.2z"/>
				<path class="st29" d="M219.6,126.6c0,1.6,0.7,2.2,2.3,2.2c1.5,0,2.4-0.8,2.6-1.7c0.6-2.7-5.7-0.8-5-4.4c0.3-1.5,1.7-2.6,3.8-2.6
					c2,0,3.1,0.8,2.9,2.9h-1.1c0.1-1.4-0.7-1.9-2.1-1.9c-1.3,0-2.2,0.6-2.4,1.6c-0.5,2.5,5.7,0.9,4.9,4.5c-0.4,1.8-2.1,2.7-4.3,2.7
					c-2.2,0-3.1-1.4-2.8-3.1H219.6z"/>
				<path class="st29" d="M233.2,129.5l0.3-1.6h1.3l-0.3,1.6H233.2z M235,120.7l0.8-4h1.3l-0.8,4l-1.4,5.6h-0.8L235,120.7z"/>
			</g>
		</g>
	</g>
</g>
</svg>
