<?xml version="1.0" encoding="utf-8"?>
<!-- Generator: Adobe Illustrator 22.1.0, SVG Export Plug-In . SVG Version: 6.00 Build 0)  -->
<svg version="1.1" id="Capa_1" xmlns="http://www.w3.org/2000/svg" xmlns:xlink="http://www.w3.org/1999/xlink" x="0px" y="0px"
	 viewBox="0 0 250 166" style="enable-background:new 0 0 250 166;" xml:space="preserve">
<style type="text/css">
	.st0{fill:#636569;}
	.st1{fill:none;}
	.st2{fill:#FFFFFF;}
	.st3{fill:#A51C2D;}
	.st4{fill:#C4B99F;}
	.st5{fill:#BAB7B6;}
	.st6{fill:#8DB03B;}
	.st7{fill:#42753B;}
	.st8{fill:#41743B;}
</style>
<g>
	<g>
		<path class="st0" d="M93.1,84.7l1.6-0.2c1.4-0.1,1.7-0.8,1.7-5.6V68.6c0-4.8-0.2-5.5-1.7-5.6l-1.6-0.2V62h15.2
			c0.1,0.5,0.1,1,0.1,1.4c0,1.5-0.2,3-0.5,4.2h-0.8c-0.2-2.7-0.8-4-3.5-4c-1.3,0-2.8,0.2-3.7,0.3v9.3h1.8c3.3,0,3.8-0.3,4.3-2.2h0.8
			l-0.3,6.7h-0.8l-0.2-1.3c-0.2-1.4-0.8-1.8-3.9-1.8h-1.6V79c0,4.8,0.2,5.5,1.7,5.6l2,0.2v0.8H93.1V84.7z"/>
		<path class="st0" d="M117,66.6l-0.2,0.1l0.1,12.3c0,5,0.3,5.5,1.9,5.6l1.7,0.2v0.8h-9.1v-0.8l1.6-0.2c1.6-0.1,1.8-0.7,1.9-5.6
			l0.1-13.1c0-1.9-0.9-2.7-2.6-2.9l-1.1-0.1V62h5.8c0.5,0,1.3,0.6,2,1.5c3.6,3.9,9.1,10.4,13.3,15.4l0.2-0.1l-0.1-11.1
			c0-4.1-0.4-4.7-1.8-4.8l-1.5-0.2V62h8.7v0.8l-1.4,0.2c-1.6,0.2-1.8,1-1.8,5.6v16.9c-0.3,0.1-1,0.2-1.4,0.3
			C128.5,79.7,123.6,74,117,66.6z"/>
		<path class="st0" d="M140.3,84.7l1.6-0.2c1.4-0.1,1.7-0.8,1.7-5.6V68.6c0-4.8-0.3-5.4-1.7-5.6l-1.6-0.2v-0.8
			c4.9,0,8.3-0.1,11.2-0.1c7,0,13.5,2.9,13.5,11.3c0,7.1-5.3,12.3-14.3,12.3h-10.4V84.7z M147.1,80.9c0,2.5,0.8,3.1,3.5,3.1
			c5.8,0,10.5-3.4,10.5-10.3c0-6.7-3.8-10.1-9.9-10.1c-1.1,0-2.8,0.1-4,0.4V80.9z"/>
		<path class="st0" d="M92,96h4.5c0,0.1,0,0.3,0,0.4c0,0.4-0.1,0.8-0.1,1.2h-0.2c-0.1-1.1-0.4-1.3-1.2-1.3c-0.5,0-0.9,0-1.3,0.1v3h1
			c0.8,0,1-0.1,1.1-0.6H96l-0.1,1.9h-0.2l-0.1-0.3c-0.1-0.5-0.2-0.6-1-0.6h-0.8v1.4c0,1.4,0.1,1.7,0.5,1.7l0.6,0v0.2H92V103l0.4,0
			c0.4,0,0.5-0.3,0.5-1.7V98c0-1.5-0.1-1.7-0.5-1.7l-0.4,0V96z"/>
		<path class="st0" d="M97.6,103.2V103l0.4,0c0.4,0,0.4-0.2,0.4-1.4v-2.7c0-1.2-0.1-1.4-0.4-1.4l-0.4,0v-0.2h2.4v0.2l-0.4,0
			c-0.4,0-0.4,0.2-0.4,1.4v2.7c0,1.2,0.1,1.4,0.4,1.4l0.4,0v0.2H97.6z"/>
		<path class="st0" d="M100.9,103l0.4,0c0.4,0,0.5-0.2,0.5-1.4l0-3.4c0-0.5-0.2-0.7-0.7-0.7l-0.2,0v-0.2h1.4c0.1,0,0.3,0.2,0.5,0.4
			c1,1,2.5,2.8,3.6,4.1l0,0l0-2.9c0-1.2-0.1-1.3-0.5-1.4l-0.4,0v-0.2h2.2v0.2l-0.4,0c-0.4,0-0.5,0.2-0.5,1.4v4.4c-0.1,0-0.2,0-0.3,0
			c-1.3-1.6-2.7-3.2-4.4-5l0,0l0,3.3c0,1.2,0.1,1.4,0.5,1.4l0.4,0v0.2h-2.2V103z"/>
		<path class="st0" d="M112.2,101c-0.6,0-1.7,0-2.2,0l-0.3,0.6c-0.1,0.3-0.3,0.8-0.3,1c0,0.2,0.1,0.3,0.7,0.3v0.2H108V103
			c0.5-0.1,0.7-0.2,1-0.7l2.3-5.1c0.1,0,0.1,0,0.2,0c0.4,0.9,2,5,2.3,5.5c0.2,0.3,0.4,0.3,0.7,0.4v0.2H112V103l0.3,0
			c0.4,0,0.5-0.1,0.5-0.3c0-0.1-0.1-0.4-0.2-0.8L112.2,101z M111.2,98.4L111.2,98.4c-0.3,0.7-0.7,1.6-1,2.3l2,0L111.2,98.4z"/>
		<path class="st0" d="M115.1,103l0.4,0c0.4,0,0.5-0.2,0.5-1.4l0-3.4c0-0.5-0.2-0.7-0.7-0.7l-0.2,0v-0.2h1.4c0.1,0,0.3,0.2,0.5,0.4
			c1,1,2.5,2.8,3.6,4.1l0,0l0-2.9c0-1.2-0.1-1.3-0.5-1.4l-0.4,0v-0.2h2.2v0.2l-0.4,0c-0.4,0-0.5,0.2-0.5,1.4v4.4c-0.1,0-0.2,0-0.3,0
			c-1.3-1.6-2.7-3.2-4.4-5l0,0l0,3.3c0,1.2,0.1,1.4,0.5,1.4l0.4,0v0.2h-2.2V103z"/>
		<path class="st0" d="M126,103.3c-1.8,0-3.3-1-3.3-3.1c0-2,1.4-3.2,3.5-3.2c0.8,0,1.7,0.2,2.1,0.2c0,0.1,0.1,0.4,0.1,0.6
			c0,0.4-0.1,1.1-0.1,1.3H128c0-1.2-0.7-1.8-1.9-1.8c-1.7,0-2.5,1.1-2.5,2.7c0,1.8,1.2,2.8,2.6,2.8c1.2,0,1.7-0.7,1.9-1.4h0.2
			c0,0.3-0.1,1-0.3,1.4C127.6,103.1,126.9,103.3,126,103.3z"/>
		<path class="st0" d="M129.4,103.2V103l0.4,0c0.4,0,0.4-0.2,0.4-1.4v-2.7c0-1.2-0.1-1.4-0.4-1.4l-0.4,0v-0.2h2.4v0.2l-0.4,0
			c-0.4,0-0.4,0.2-0.4,1.4v2.7c0,1.2,0.1,1.4,0.4,1.4l0.4,0v0.2H129.4z"/>
		<path class="st0" d="M132.8,103.2V103l0.4,0c0.4,0,0.4-0.2,0.4-1.4v-2.7c0-1.2-0.1-1.4-0.4-1.4l-0.4,0v-0.2h4c0,0.1,0,0.2,0,0.4
			c0,0.4,0,0.7-0.1,1h-0.2c-0.1-0.8-0.3-1.1-1-1.1c-0.4,0-0.8,0-1.1,0.1v2.4h0.7c0.8,0,1-0.1,1.1-0.5l0.2,0l-0.1,1.6h-0.2l-0.1-0.3
			c-0.1-0.4-0.2-0.5-1-0.5h-0.6v1.2c0,1.2,0.1,1.3,0.7,1.3h0.6c0.7,0,1-0.3,1.2-1.1h0.2c0,0.5-0.1,1-0.2,1.4H132.8z"/>
		<path class="st0" d="M138.1,103.2V103l0.4,0c0.4,0,0.4-0.2,0.4-1.4v-2.7c0-1.2-0.1-1.4-0.4-1.4l-0.4,0v-0.2c0.7,0,1.7-0.1,2.2-0.1
			c1.5,0,2.2,0.6,2.2,1.6c0,0.8-0.6,1.3-1.2,1.6c0.9,1.6,1.5,2.4,1.9,2.6c0.2,0.1,0.3,0.1,0.4,0.1v0.2c-0.5,0.1-0.8,0.1-1,0.1
			c-0.2,0-0.3,0-0.4-0.1c-0.4-0.3-0.9-1.1-1.5-2.2c-0.1-0.3-0.2-0.3-0.5-0.3h-0.6v1c0,1.2,0.1,1.4,0.4,1.4l0.5,0v0.2H138.1z
			 M139.7,100.2l1,0c0.5,0,1-0.5,1-1.4c0-0.9-0.5-1.4-1.4-1.4c-0.2,0-0.5,0-0.6,0.1V100.2z"/>
		<path class="st0" d="M148.3,101c-0.6,0-1.7,0-2.2,0l-0.3,0.6c-0.1,0.3-0.3,0.8-0.3,1c0,0.2,0.1,0.3,0.7,0.3v0.2h-2.1V103
			c0.5-0.1,0.7-0.2,1-0.7l2.3-5.1c0.1,0,0.1,0,0.2,0c0.4,0.9,2,5,2.3,5.5c0.2,0.3,0.4,0.3,0.7,0.4v0.2h-2.5V103l0.3,0
			c0.4,0,0.5-0.1,0.5-0.3c0-0.1-0.1-0.4-0.2-0.8L148.3,101z M147.2,98.4L147.2,98.4c-0.3,0.7-0.7,1.6-1,2.3l2,0L147.2,98.4z"/>
		<path class="st0" d="M155.6,97.2L155.6,97.2l0,4.1c0,1.5,0.1,1.7,0.5,1.7l0.4,0v0.2h-2.4V103l0.4,0c0.4,0,0.5-0.2,0.5-1.7l0-4.1
			c0-0.6-0.2-0.8-0.8-0.9l-0.3,0V96h1.5c0.2,0,0.4,0.2,0.6,0.4c1.2,1.2,2.9,3.4,4.2,4.9l0.1,0l0-3.4c0-1.5-0.1-1.7-0.5-1.7l-0.4,0
			V96h2.4v0.2l-0.4,0c-0.4,0-0.5,0.2-0.5,1.7v5.3c-0.1,0-0.2,0-0.2,0C159.2,101.4,157.5,99.4,155.6,97.2z"/>
		<path class="st0" d="M166.4,101c-0.6,0-1.7,0-2.2,0l-0.3,0.6c-0.1,0.3-0.3,0.8-0.3,1c0,0.2,0.1,0.3,0.7,0.3v0.2h-2.1V103
			c0.5-0.1,0.7-0.2,1-0.7l2.3-5.1c0.1,0,0.1,0,0.2,0c0.4,0.9,2,5,2.3,5.5c0.2,0.3,0.4,0.3,0.7,0.4v0.2h-2.5V103l0.3,0
			c0.4,0,0.5-0.1,0.5-0.3c0-0.1-0.1-0.4-0.2-0.8L166.4,101z M165.3,98.4L165.3,98.4c-0.3,0.7-0.7,1.6-1,2.3l2,0L165.3,98.4z"/>
		<path class="st0" d="M172.3,103.3c-1.8,0-3.3-1-3.3-3.1c0-2,1.4-3.2,3.5-3.2c0.8,0,1.7,0.2,2.1,0.2c0,0.1,0.1,0.4,0.1,0.6
			c0,0.4-0.1,1.1-0.1,1.3h-0.2c0-1.2-0.7-1.8-1.9-1.8c-1.7,0-2.5,1.1-2.5,2.7c0,1.8,1.2,2.8,2.6,2.8c1.2,0,1.7-0.7,1.9-1.4h0.2
			c0,0.3-0.1,1-0.3,1.4C173.9,103.1,173.2,103.3,172.3,103.3z"/>
		<path class="st0" d="M175.7,103.2V103l0.4,0c0.4,0,0.4-0.2,0.4-1.4v-2.7c0-1.2-0.1-1.4-0.4-1.4l-0.4,0v-0.2h2.4v0.2l-0.4,0
			c-0.4,0-0.4,0.2-0.4,1.4v2.7c0,1.2,0.1,1.4,0.4,1.4l0.4,0v0.2H175.7z"/>
		<path class="st0" d="M179,100.2c0-2,1.4-3.2,3.3-3.2c2,0,3.2,1.3,3.2,3.1c0,1.9-1.4,3.2-3.3,3.2C180.3,103.3,179,102.1,179,100.2z
			 M184.6,100.2c0-1.4-0.7-2.8-2.4-2.8c-1.6,0-2.3,1.2-2.3,2.7c0,1.5,0.8,2.8,2.5,2.8C183.9,102.9,184.6,101.7,184.6,100.2z"/>
		<path class="st0" d="M186.3,103l0.4,0c0.4,0,0.5-0.2,0.5-1.4l0-3.4c0-0.5-0.2-0.7-0.7-0.7l-0.2,0v-0.2h1.4c0.1,0,0.3,0.2,0.5,0.4
			c1,1,2.5,2.8,3.6,4.1l0,0l0-2.9c0-1.2-0.1-1.3-0.5-1.4l-0.4,0v-0.2h2.2v0.2l-0.4,0c-0.4,0-0.5,0.2-0.5,1.4v4.4c-0.1,0-0.2,0-0.3,0
			c-1.3-1.6-2.7-3.2-4.4-5l0,0l0,3.3c0,1.2,0.1,1.4,0.5,1.4l0.4,0v0.2h-2.2V103z"/>
		<path class="st0" d="M197.6,101c-0.6,0-1.7,0-2.2,0l-0.3,0.6c-0.1,0.3-0.3,0.8-0.3,1c0,0.2,0.1,0.3,0.7,0.3v0.2h-2.1V103
			c0.5-0.1,0.7-0.2,1-0.7l2.3-5.1c0.1,0,0.1,0,0.2,0c0.4,0.9,2,5,2.3,5.5c0.2,0.3,0.4,0.3,0.7,0.4v0.2h-2.5V103l0.3,0
			c0.4,0,0.5-0.1,0.5-0.3c0-0.1-0.1-0.4-0.2-0.8L197.6,101z M196.5,98.4L196.5,98.4c-0.3,0.7-0.7,1.6-1,2.3l2,0L196.5,98.4z"/>
		<path class="st0" d="M200.5,103.2V103l0.4,0c0.4,0,0.4-0.2,0.4-1.4v-2.7c0-1.2-0.1-1.4-0.4-1.4l-0.4,0v-0.2h2.4v0.2l-0.4,0
			c-0.4,0-0.4,0.2-0.4,1.4v2.7c0,1.2,0.1,1.3,0.6,1.3h0.8c0.6,0,0.9-0.3,1.2-1.2h0.2c0,0.4-0.1,1.2-0.2,1.6H200.5z"/>
		<path class="st0" d="M92,112.5l0.4,0c0.4,0,0.4-0.2,0.4-1.4v-2.7c0-1.2-0.1-1.4-0.4-1.4l-0.4,0v-0.2c1.1,0,2.2,0,2.9,0
			c1.9,0,3.5,0.9,3.5,2.9c0,1.8-1.4,3.1-3.9,3.1H92V112.5z M93.6,111.5c0,0.7,0.2,0.8,1,0.8c1.5,0,2.9-0.8,2.9-2.7
			c0-1.9-1.2-2.6-2.8-2.6c-0.4,0-0.8,0-1.1,0.1V111.5z"/>
		<path class="st0" d="M99.2,112.7v-0.2l0.4,0c0.4,0,0.4-0.2,0.4-1.4v-2.7c0-1.2-0.1-1.4-0.4-1.4l-0.4,0v-0.2h4c0,0.1,0,0.2,0,0.4
			c0,0.4,0,0.7-0.1,1H103c-0.1-0.8-0.3-1.1-1-1.1c-0.4,0-0.8,0-1.1,0.1v2.4h0.7c0.8,0,1-0.1,1.1-0.5l0.2,0l-0.1,1.6h-0.2l-0.1-0.3
			c-0.1-0.4-0.2-0.5-1-0.5h-0.6v1.2c0,1.2,0.1,1.3,0.7,1.3h0.6c0.7,0,1-0.3,1.2-1.1h0.2c0,0.5-0.1,1-0.2,1.4H99.2z"/>
		<path class="st0" d="M107.4,112.5l0.4,0c0.4,0,0.5-0.3,0.5-1.7v-3.3c0-1.5-0.1-1.7-0.5-1.7l-0.4,0v-0.2c1.2,0,2.5,0,3.3,0
			c2.2,0,3.9,1.1,3.9,3.4c0,2.1-1.5,3.7-4.5,3.7h-2.7V112.5z M109.1,111.3c0,0.8,0.2,1,1.2,1c1.7,0,3.4-0.9,3.4-3.2
			c0-2.3-1.5-3.2-3.3-3.2c-0.5,0-1,0-1.3,0.1V111.3z"/>
		<path class="st0" d="M115.5,112.7v-0.2l0.4,0c0.4,0,0.4-0.2,0.4-1.4v-2.7c0-1.2-0.1-1.4-0.4-1.4l-0.4,0v-0.2h4c0,0.1,0,0.2,0,0.4
			c0,0.4,0,0.7-0.1,1h-0.2c-0.1-0.8-0.3-1.1-1-1.1c-0.4,0-0.8,0-1.1,0.1v2.4h0.7c0.8,0,1-0.1,1.1-0.5l0.2,0l-0.1,1.6h-0.2l-0.1-0.3
			c-0.1-0.4-0.2-0.5-1-0.5h-0.6v1.2c0,1.2,0.1,1.3,0.7,1.3h0.6c0.7,0,1-0.3,1.2-1.1h0.2c0,0.5-0.1,1-0.2,1.4H115.5z"/>
		<path class="st0" d="M120.9,112.6c-0.1-0.3-0.1-1-0.1-1.4h0.2c0.2,0.9,0.7,1.2,1.5,1.2c0.8,0,1.3-0.4,1.3-1c0-0.5-0.4-0.9-0.9-1.2
			l-0.7-0.5c-0.7-0.4-1.2-0.9-1.2-1.6c0-0.9,0.8-1.6,1.8-1.6c0.7,0,1.1,0.2,1.6,0.2c0,0.4,0,0.9-0.1,1.4h-0.2
			c-0.1-0.9-0.5-1.3-1.3-1.3c-0.6,0-1.1,0.4-1.1,1c0,0.5,0.4,0.8,1,1.2l0.7,0.4c0.9,0.6,1.2,1.1,1.2,1.7c0,1-1,1.6-2.1,1.6
			C121.8,112.8,121.3,112.6,120.9,112.6z"/>
		<path class="st0" d="M129.4,110.6c-0.6,0-1.7,0-2.2,0l-0.3,0.6c-0.1,0.3-0.3,0.8-0.3,1c0,0.2,0.1,0.3,0.7,0.3v0.2h-2.1v-0.2
			c0.5-0.1,0.7-0.2,1-0.7l2.3-5.1c0.1,0,0.1,0,0.2,0c0.4,0.9,2,5,2.3,5.5c0.2,0.3,0.4,0.3,0.7,0.4v0.2h-2.5v-0.2l0.3,0
			c0.4,0,0.5-0.1,0.5-0.3c0-0.1-0.1-0.4-0.2-0.8L129.4,110.6z M128.3,108L128.3,108c-0.3,0.7-0.7,1.6-1,2.3l2,0L128.3,108z"/>
		<path class="st0" d="M132.3,112.7v-0.2l0.4,0c0.4,0,0.4-0.2,0.4-1.4v-2.7c0-1.2-0.1-1.4-0.4-1.4l-0.4,0v-0.2
			c0.7,0,1.7-0.1,2.2-0.1c1.5,0,2.2,0.6,2.2,1.6c0,0.8-0.6,1.3-1.2,1.6c0.9,1.6,1.5,2.4,1.9,2.6c0.2,0.1,0.3,0.1,0.4,0.1v0.2
			c-0.5,0.1-0.8,0.1-1,0.1c-0.2,0-0.3,0-0.4-0.1c-0.4-0.3-0.9-1.1-1.5-2.2c-0.1-0.3-0.2-0.3-0.5-0.3h-0.6v1c0,1.2,0.1,1.4,0.4,1.4
			l0.5,0v0.2H132.3z M133.9,109.8l1,0c0.5,0,1-0.5,1-1.4c0-0.9-0.5-1.4-1.4-1.4c-0.2,0-0.5,0-0.6,0.1V109.8z"/>
		<path class="st0" d="M138.5,112.7v-0.2l0.4,0c0.4,0,0.4-0.2,0.4-1.4v-2.7c0-1.2-0.1-1.4-0.4-1.4l-0.4,0v-0.2
			c0.7,0,1.7-0.1,2.2-0.1c1.5,0,2.2,0.6,2.2,1.6c0,0.8-0.6,1.3-1.2,1.6c0.9,1.6,1.5,2.4,1.9,2.6c0.2,0.1,0.3,0.1,0.4,0.1v0.2
			c-0.5,0.1-0.8,0.1-1,0.1c-0.2,0-0.3,0-0.4-0.1c-0.4-0.3-0.9-1.1-1.5-2.2c-0.1-0.3-0.2-0.3-0.5-0.3h-0.6v1c0,1.2,0.1,1.4,0.4,1.4
			l0.5,0v0.2H138.5z M140.1,109.8l1,0c0.5,0,1-0.5,1-1.4c0-0.9-0.5-1.4-1.4-1.4c-0.2,0-0.5,0-0.6,0.1V109.8z"/>
		<path class="st0" d="M144.5,109.7c0-2,1.4-3.2,3.3-3.2c2,0,3.2,1.3,3.2,3.1c0,1.9-1.4,3.2-3.3,3.2
			C145.7,112.8,144.5,111.6,144.5,109.7z M150.1,109.7c0-1.4-0.7-2.8-2.4-2.8c-1.6,0-2.3,1.2-2.3,2.7c0,1.5,0.8,2.8,2.5,2.8
			C149.4,112.5,150.1,111.2,150.1,109.7z"/>
		<path class="st0" d="M151.8,112.7v-0.2l0.4,0c0.4,0,0.4-0.2,0.4-1.4v-2.7c0-1.2-0.1-1.4-0.4-1.4l-0.4,0v-0.2h2.4v0.2l-0.4,0
			c-0.4,0-0.4,0.2-0.4,1.4v2.7c0,1.2,0.1,1.3,0.6,1.3h0.8c0.6,0,0.9-0.3,1.2-1.2h0.2c0,0.4-0.1,1.2-0.2,1.6H151.8z"/>
		<path class="st0" d="M157.1,112.7v-0.2l0.4,0c0.4,0,0.4-0.2,0.4-1.4v-2.7c0-1.2-0.1-1.4-0.4-1.4l-0.4,0v-0.2h2.4v0.2l-0.4,0
			c-0.4,0-0.4,0.2-0.4,1.4v2.7c0,1.2,0.1,1.3,0.6,1.3h0.8c0.6,0,0.9-0.3,1.2-1.2h0.2c0,0.4-0.1,1.2-0.2,1.6H157.1z"/>
		<path class="st0" d="M162.3,109.7c0-2,1.4-3.2,3.3-3.2c2,0,3.2,1.3,3.2,3.1c0,1.9-1.4,3.2-3.3,3.2
			C163.6,112.8,162.3,111.6,162.3,109.7z M167.9,109.7c0-1.4-0.7-2.8-2.4-2.8c-1.6,0-2.3,1.2-2.3,2.7c0,1.5,0.8,2.8,2.5,2.8
			C167.2,112.5,167.9,111.2,167.9,109.7z"/>
		<path class="st0" d="M172.4,112.7v-0.2c0.6-0.1,0.8-0.2,1.1-0.8l2.6-6.2c0.1,0,0.2,0,0.2,0c0.4,1.1,2.2,6,2.6,6.6
			c0.2,0.4,0.4,0.4,0.8,0.4v0.2h-2.7v-0.2l0.3,0c0.4,0,0.6-0.1,0.6-0.4c0-0.1-0.1-0.4-0.3-1l-0.4-1c-0.7,0-2,0-2.6,0l-0.3,0.8
			c-0.1,0.4-0.4,1-0.4,1.2c0,0.3,0.1,0.3,0.8,0.4v0.2H172.4z M175.9,106.9L175.9,106.9c-0.4,0.8-0.9,2-1.2,2.9l2.3,0
			C176.7,108.9,176.2,107.7,175.9,106.9z"/>
		<path class="st0" d="M180.1,109.7c0-2,1.4-3.2,3.5-3.2c0.8,0,1.8,0.2,2.2,0.2c0,0.1,0,0.4,0,0.6c0,0.4-0.1,1-0.1,1.2h-0.2
			c-0.1-1.1-0.9-1.6-2-1.6c-1.7,0-2.6,1.1-2.6,2.7c0,1.8,1.2,2.8,2.6,2.8c1,0,1.5-0.3,1.5-1.1c0-1.1-0.1-1.2-0.4-1.3l-0.5,0v-0.2
			h2.5v0.2l-0.4,0c-0.4,0-0.4,0.2-0.4,1.1c0,0.4,0,0.8,0,1.1c-0.6,0.3-1.7,0.5-2.4,0.5C181.6,112.8,180.1,111.8,180.1,109.7z"/>
		<path class="st0" d="M187.2,112.7v-0.2l0.4,0c0.4,0,0.4-0.2,0.4-1.4v-2.7c0-1.2-0.1-1.4-0.4-1.4l-0.4,0v-0.2
			c0.7,0,1.7-0.1,2.2-0.1c1.5,0,2.2,0.6,2.2,1.6c0,0.8-0.6,1.3-1.2,1.6c0.9,1.6,1.5,2.4,1.9,2.6c0.2,0.1,0.3,0.1,0.4,0.1v0.2
			c-0.5,0.1-0.8,0.1-1,0.1c-0.2,0-0.3,0-0.4-0.1c-0.4-0.3-0.9-1.1-1.5-2.2c-0.1-0.3-0.2-0.3-0.5-0.3h-0.6v1c0,1.2,0.1,1.4,0.4,1.4
			l0.5,0v0.2H187.2z M188.8,109.8l1,0c0.5,0,1-0.5,1-1.4c0-0.9-0.5-1.4-1.4-1.4c-0.2,0-0.5,0-0.6,0.1V109.8z"/>
		<path class="st0" d="M193.2,109.7c0-2,1.4-3.2,3.3-3.2c2,0,3.2,1.3,3.2,3.1c0,1.9-1.4,3.2-3.3,3.2
			C194.4,112.8,193.2,111.6,193.2,109.7z M198.8,109.7c0-1.4-0.7-2.8-2.4-2.8c-1.6,0-2.3,1.2-2.3,2.7c0,1.5,0.8,2.8,2.5,2.8
			C198.1,112.5,198.8,111.2,198.8,109.7z"/>
		<path class="st0" d="M200.5,112.7v-0.2l0.4,0c0.4,0,0.4-0.2,0.4-1.4v-2.7c0-1.2-0.1-1.4-0.4-1.4l-0.4,0v-0.2
			c0.7,0,1.7-0.1,2.2-0.1c1.5,0,2.2,0.6,2.2,1.6c0,1.2-1.1,1.8-2.3,1.8c-0.2,0-0.4,0-0.5,0v1c0,1.2,0.1,1.4,0.4,1.4l0.5,0v0.2H200.5
			z M204.2,108.4c0-0.9-0.6-1.4-1.4-1.4c-0.2,0-0.5,0-0.6,0.1v2.7c0.2,0,0.3,0,0.5,0C203.6,109.8,204.2,109.3,204.2,108.4z"/>
		<path class="st0" d="M205.7,112.7v-0.2l0.4,0c0.4,0,0.4-0.2,0.4-1.4v-2.7c0-1.2-0.1-1.4-0.4-1.4l-0.4,0v-0.2h4c0,0.1,0,0.2,0,0.4
			c0,0.4,0,0.7-0.1,1h-0.2c-0.1-0.8-0.3-1.1-1-1.1c-0.4,0-0.8,0-1.1,0.1v2.4h0.7c0.8,0,1-0.1,1.1-0.5l0.2,0l-0.1,1.6H209l-0.1-0.3
			c-0.1-0.4-0.2-0.5-1-0.5h-0.6v1.2c0,1.2,0.1,1.3,0.7,1.3h0.6c0.7,0,1-0.3,1.2-1.1h0.2c0,0.5-0.1,1-0.2,1.4H205.7z"/>
		<path class="st0" d="M214.3,112.8c-1.8,0-3.3-1-3.3-3.1c0-2,1.4-3.2,3.5-3.2c0.8,0,1.7,0.2,2.1,0.2c0,0.1,0.1,0.4,0.1,0.6
			c0,0.4-0.1,1.1-0.1,1.3h-0.2c0-1.2-0.7-1.8-1.9-1.8c-1.7,0-2.5,1.1-2.5,2.7c0,1.8,1.2,2.8,2.6,2.8c1.2,0,1.7-0.7,1.9-1.4h0.2
			c0,0.3-0.1,1-0.3,1.4C215.9,112.7,215.2,112.8,214.3,112.8z"/>
		<path class="st0" d="M218.3,110.3v-2c0-1.2-0.1-1.4-0.4-1.4l-0.4,0v-0.2h2.4v0.2l-0.4,0c-0.4,0-0.4,0.2-0.4,1.4v1.8
			c0,1.6,0.6,2.3,1.9,2.3c1.2,0,1.8-0.8,1.8-2.2v-1.9c0-1.2-0.1-1.4-0.5-1.4l-0.4,0v-0.2h2.2v0.2l-0.4,0c-0.4,0-0.4,0.2-0.4,1.4v2
			c0,1.5-1,2.5-2.5,2.5C219.3,112.8,218.3,112,218.3,110.3z"/>
		<path class="st0" d="M228.2,110.6c-0.6,0-1.7,0-2.2,0l-0.3,0.6c-0.1,0.3-0.3,0.8-0.3,1c0,0.2,0.1,0.3,0.7,0.3v0.2H224v-0.2
			c0.5-0.1,0.7-0.2,1-0.7l2.3-5.1c0.1,0,0.1,0,0.2,0c0.4,0.9,2,5,2.3,5.5c0.2,0.3,0.4,0.3,0.7,0.4v0.2h-2.5v-0.2l0.3,0
			c0.4,0,0.5-0.1,0.5-0.3c0-0.1-0.1-0.4-0.2-0.8L228.2,110.6z M227.1,108L227.1,108c-0.3,0.7-0.7,1.6-1,2.3l2,0L227.1,108z"/>
		<path class="st0" d="M231,112.7v-0.2l0.4,0c0.4,0,0.4-0.2,0.4-1.4v-2.7c0-1.2-0.1-1.4-0.4-1.4l-0.4,0v-0.2c0.7,0,1.7-0.1,2.2-0.1
			c1.5,0,2.2,0.6,2.2,1.6c0,0.8-0.6,1.3-1.2,1.6c0.9,1.6,1.5,2.4,1.9,2.6c0.2,0.1,0.3,0.1,0.4,0.1v0.2c-0.5,0.1-0.8,0.1-1,0.1
			c-0.2,0-0.3,0-0.4-0.1c-0.4-0.3-0.9-1.1-1.5-2.2c-0.1-0.3-0.2-0.3-0.5-0.3h-0.6v1c0,1.2,0.1,1.4,0.4,1.4l0.5,0v0.2H231z
			 M232.6,109.8l1,0c0.5,0,1-0.5,1-1.4c0-0.9-0.5-1.4-1.4-1.4c-0.2,0-0.5,0-0.6,0.1V109.8z"/>
		<path class="st0" d="M237.3,112.7v-0.2l0.4,0c0.4,0,0.4-0.2,0.4-1.4v-2.7c0-1.2-0.1-1.4-0.4-1.4l-0.4,0v-0.2h2.4v0.2l-0.4,0
			c-0.4,0-0.4,0.2-0.4,1.4v2.7c0,1.2,0.1,1.4,0.4,1.4l0.4,0v0.2H237.3z"/>
		<path class="st0" d="M240.5,109.7c0-2,1.4-3.2,3.3-3.2c2,0,3.2,1.3,3.2,3.1c0,1.9-1.4,3.2-3.3,3.2
			C241.8,112.8,240.5,111.6,240.5,109.7z M246.2,109.7c0-1.4-0.7-2.8-2.4-2.8c-1.6,0-2.3,1.2-2.3,2.7c0,1.5,0.8,2.8,2.5,2.8
			C245.5,112.5,246.2,111.2,246.2,109.7z"/>
		<path class="st0" d="M248,114.1c0.7-0.1,1-0.4,1-0.8c0-0.6-0.8-0.8-0.8-1.1c0-0.3,0.3-0.6,0.5-0.6c0.4,0,0.9,0.4,0.9,1.2
			c0,0.9-0.6,1.5-1.6,1.6V114.1z"/>
		<path class="st0" d="M94.9,122v0.2H92V122l0.4,0c0.4,0,0.5-0.3,0.5-1.7V117c0-1.4-0.1-1.6-0.5-1.6l-0.4,0v-0.2
			c0.7,0,1.8-0.1,2.4-0.1c1.8,0,2.5,0.8,2.5,1.9c0,0.9-0.6,1.5-1.3,1.9c1.1,1.9,1.7,2.8,2.2,3c0.2,0.1,0.3,0.1,0.5,0.1v0.2
			c-0.4,0.1-0.8,0.1-1,0.1c-0.2,0-0.3,0-0.4-0.1c-0.5-0.3-1-1.2-1.8-2.7c-0.1-0.3-0.3-0.3-0.6-0.3h-0.8v1.2c0,1.4,0.1,1.7,0.5,1.7
			L94.9,122z M95,118.7c0.5,0,1.1-0.6,1.1-1.6c0-1.1-0.7-1.6-1.6-1.6c-0.3,0-0.6,0-0.7,0.1v3.2H95z"/>
		<path class="st0" d="M99.3,119.8v-2c0-1.2-0.1-1.4-0.4-1.4l-0.4,0v-0.2h2.4v0.2l-0.4,0c-0.4,0-0.4,0.2-0.4,1.4v1.8
			c0,1.6,0.6,2.3,1.9,2.3c1.2,0,1.8-0.8,1.8-2.2v-1.9c0-1.2-0.1-1.4-0.5-1.4l-0.4,0v-0.2h2.2v0.2l-0.4,0c-0.4,0-0.4,0.2-0.4,1.4v2
			c0,1.5-1,2.5-2.5,2.5C100.3,122.4,99.3,121.5,99.3,119.8z"/>
		<path class="st0" d="M105.9,122.2V122l0.4,0c0.4,0,0.4-0.2,0.4-1.4v-2.7c0-1.2-0.1-1.4-0.4-1.4l-0.4,0v-0.2c0.7,0,1.7-0.1,2.2-0.1
			c1.5,0,2.2,0.6,2.2,1.6c0,0.8-0.6,1.3-1.2,1.6c0.9,1.6,1.5,2.4,1.9,2.6c0.2,0.1,0.3,0.1,0.4,0.1v0.2c-0.5,0.1-0.8,0.1-1,0.1
			c-0.2,0-0.3,0-0.4-0.1c-0.4-0.3-0.9-1.1-1.5-2.2c-0.1-0.3-0.2-0.3-0.5-0.3h-0.6v1c0,1.2,0.1,1.4,0.4,1.4l0.5,0v0.2H105.9z
			 M107.5,119.3l1,0c0.5,0,1-0.5,1-1.4c0-0.9-0.5-1.4-1.4-1.4c-0.2,0-0.5,0-0.6,0.1V119.3z"/>
		<path class="st0" d="M116.1,120.1c-0.6,0-1.7,0-2.2,0l-0.3,0.6c-0.1,0.3-0.3,0.8-0.3,1c0,0.2,0.1,0.3,0.7,0.3v0.2H112V122
			c0.5-0.1,0.7-0.2,1-0.7l2.3-5.1c0.1,0,0.1,0,0.2,0c0.4,0.9,2,5,2.3,5.5c0.2,0.3,0.4,0.3,0.7,0.4v0.2h-2.5V122l0.3,0
			c0.4,0,0.5-0.1,0.5-0.3c0-0.1-0.1-0.4-0.2-0.8L116.1,120.1z M115.1,117.5L115.1,117.5c-0.3,0.7-0.7,1.6-1,2.3l2,0L115.1,117.5z"/>
		<path class="st0" d="M119,122.2V122l0.4,0c0.4,0,0.4-0.2,0.4-1.4v-2.7c0-1.2-0.1-1.4-0.4-1.4l-0.4,0v-0.2h2.4v0.2l-0.4,0
			c-0.4,0-0.4,0.2-0.4,1.4v2.7c0,1.2,0.1,1.3,0.6,1.3h0.8c0.6,0,0.9-0.3,1.2-1.2h0.2c0,0.4-0.1,1.2-0.2,1.6H119z"/>
		<path class="st0" d="M124.3,123.6c0.7-0.1,1-0.4,1-0.8c0-0.6-0.8-0.8-0.8-1.1c0-0.3,0.3-0.6,0.5-0.6c0.4,0,0.9,0.4,0.9,1.2
			c0,0.9-0.6,1.5-1.6,1.6V123.6z"/>
		<path class="st0" d="M130,115.1h4.5c0,0.1,0,0.3,0,0.4c0,0.4-0.1,0.8-0.1,1.2h-0.2c-0.1-1.1-0.4-1.3-1.2-1.3c-0.5,0-0.9,0-1.3,0.1
			v3h1c0.8,0,1-0.1,1.1-0.6h0.2l-0.1,1.9h-0.2l-0.1-0.3c-0.1-0.5-0.2-0.6-1-0.6h-0.8v1.4c0,1.4,0.1,1.7,0.5,1.7l0.6,0v0.2H130V122
			l0.4,0c0.4,0,0.5-0.3,0.5-1.7V117c0-1.5-0.1-1.7-0.5-1.7l-0.4,0V115.1z"/>
		<path class="st0" d="M135.6,119.3c0-2,1.4-3.2,3.3-3.2c2,0,3.2,1.3,3.2,3.1c0,1.9-1.4,3.2-3.3,3.2
			C136.8,122.4,135.6,121.1,135.6,119.3z M141.2,119.2c0-1.4-0.7-2.8-2.4-2.8c-1.6,0-2.3,1.2-2.3,2.7c0,1.5,0.8,2.8,2.5,2.8
			C140.5,122,141.2,120.7,141.2,119.2z"/>
		<path class="st0" d="M142.9,122.2V122l0.4,0c0.4,0,0.4-0.2,0.4-1.4v-2.7c0-1.2-0.1-1.4-0.4-1.4l-0.4,0v-0.2c0.7,0,1.7-0.1,2.2-0.1
			c1.5,0,2.2,0.6,2.2,1.6c0,0.8-0.6,1.3-1.2,1.6c0.9,1.6,1.5,2.4,1.9,2.6c0.2,0.1,0.3,0.1,0.4,0.1v0.2c-0.5,0.1-0.8,0.1-1,0.1
			c-0.2,0-0.3,0-0.4-0.1c-0.4-0.3-0.9-1.1-1.5-2.2c-0.1-0.3-0.2-0.3-0.5-0.3h-0.6v1c0,1.2,0.1,1.4,0.4,1.4l0.5,0v0.2H142.9z
			 M144.5,119.3l1,0c0.5,0,1-0.5,1-1.4c0-0.9-0.5-1.4-1.4-1.4c-0.2,0-0.5,0-0.6,0.1V119.3z"/>
		<path class="st0" d="M149.2,122.2V122l0.4,0c0.4,0,0.4-0.2,0.4-1.4v-2.7c0-1.2-0.1-1.4-0.4-1.4l-0.4,0v-0.2h4c0,0.1,0,0.2,0,0.4
			c0,0.4,0,0.7-0.1,1h-0.2c-0.1-0.8-0.3-1.1-1-1.1c-0.4,0-0.8,0-1.1,0.1v2.4h0.7c0.8,0,1-0.1,1.1-0.5l0.2,0l-0.1,1.6h-0.2l-0.1-0.3
			c-0.1-0.4-0.2-0.5-1-0.5h-0.6v1.2c0,1.2,0.1,1.3,0.7,1.3h0.6c0.7,0,1-0.3,1.2-1.1h0.2c0,0.5-0.1,1-0.2,1.4H149.2z"/>
		<path class="st0" d="M154.5,122.2c-0.1-0.3-0.1-1-0.1-1.4h0.2c0.2,0.9,0.7,1.2,1.5,1.2c0.8,0,1.3-0.4,1.3-1c0-0.5-0.4-0.9-0.9-1.2
			l-0.7-0.5c-0.7-0.4-1.2-0.9-1.2-1.6c0-0.9,0.8-1.6,1.8-1.6c0.7,0,1.1,0.2,1.6,0.2c0,0.4,0,0.9-0.1,1.4h-0.2
			c-0.1-0.9-0.5-1.3-1.3-1.3c-0.6,0-1.1,0.4-1.1,1c0,0.5,0.4,0.8,1,1.2l0.7,0.4c0.9,0.6,1.2,1.1,1.2,1.7c0,1-1,1.6-2.1,1.6
			C155.4,122.4,154.9,122.2,154.5,122.2z"/>
		<path class="st0" d="M160.6,122.2V122l0.4,0c0.4,0,0.5-0.2,0.5-1.4v-4c-0.3,0-0.7-0.1-1-0.1c-0.6,0-0.9,0.3-1.1,1.2h-0.2
			c0-0.5,0.1-1.2,0.2-1.6h5.1c0.1,0.4,0.1,1.1,0.2,1.6h-0.2c-0.3-1-0.5-1.2-1.1-1.2c-0.3,0-0.7,0-1,0.1v4c0,1.2,0.1,1.4,0.5,1.4
			l0.4,0v0.2H160.6z"/>
		<path class="st0" d="M168.7,120.1c-0.6,0-1.7,0-2.2,0l-0.3,0.6c-0.1,0.3-0.3,0.8-0.3,1c0,0.2,0.1,0.3,0.7,0.3v0.2h-2.1V122
			c0.5-0.1,0.7-0.2,1-0.7l2.3-5.1c0.1,0,0.1,0,0.2,0c0.4,0.9,2,5,2.3,5.5c0.2,0.3,0.4,0.3,0.7,0.4v0.2h-2.5V122l0.3,0
			c0.4,0,0.5-0.1,0.5-0.3c0-0.1-0.1-0.4-0.2-0.8L168.7,120.1z M167.6,117.5L167.6,117.5c-0.3,0.7-0.7,1.6-1,2.3l2,0L167.6,117.5z"/>
		<path class="st0" d="M171.5,122.2V122l0.4,0c0.4,0,0.4-0.2,0.4-1.4v-2.7c0-1.2-0.1-1.4-0.4-1.4l-0.4,0v-0.2h2.4v0.2l-0.4,0
			c-0.4,0-0.4,0.2-0.4,1.4v2.7c0,1.2,0.1,1.3,0.6,1.3h0.8c0.6,0,0.9-0.3,1.2-1.2h0.2c0,0.4-0.1,1.2-0.2,1.6H171.5z"/>
		<path class="st0" d="M182.5,116.4v-0.2h2.3v0.2c-0.3,0.1-0.5,0.1-0.7,0.4c-0.3,0.3-0.7,1.2-1.5,2.7v1.2c0,1.2,0.1,1.4,0.5,1.4
			l0.4,0v0.2h-2.5V122l0.4,0c0.4,0,0.5-0.2,0.5-1.4v-1c-0.7-1.4-1.2-2.3-1.5-2.7c-0.3-0.4-0.4-0.5-0.9-0.5v-0.2h1.1
			c0.2,0,0.4,0.1,0.7,0.7c0.3,0.5,0.7,1.2,1.1,2.1h0c0.7-1.4,1-2,1-2.2c0-0.2-0.1-0.2-0.4-0.3L182.5,116.4z"/>
		<path class="st0" d="M188.5,122.2V122l0.4,0c0.4,0,0.5-0.3,0.5-1.7V117c0-1.4-0.1-1.6-0.5-1.6l-0.4,0v-0.2c0.7,0,1.8-0.1,2.4-0.1
			c1.7,0,2.5,0.8,2.5,1.9c0,1.4-1.2,2.2-2.6,2.2c-0.2,0-0.4,0-0.6-0.1v1.2c0,1.4,0.1,1.7,0.5,1.7l0.6,0v0.2H188.5z M192.6,117.1
			c0-1.1-0.7-1.6-1.6-1.6c-0.3,0-0.6,0-0.7,0.1v3.2c0.2,0,0.4,0,0.6,0C192,118.8,192.6,118.1,192.6,117.1z"/>
		<path class="st0" d="M194.4,122.2V122l0.4,0c0.4,0,0.4-0.2,0.4-1.4v-2.7c0-1.2-0.1-1.4-0.4-1.4l-0.4,0v-0.2h4c0,0.1,0,0.2,0,0.4
			c0,0.4,0,0.7-0.1,1h-0.2c-0.1-0.8-0.3-1.1-1-1.1c-0.4,0-0.8,0-1.1,0.1v2.4h0.7c0.8,0,1-0.1,1.1-0.5l0.2,0l-0.1,1.6h-0.2l-0.1-0.3
			c-0.1-0.4-0.2-0.5-1-0.5H196v1.2c0,1.2,0.1,1.3,0.7,1.3h0.6c0.7,0,1-0.3,1.2-1.1h0.2c0,0.5-0.1,1-0.2,1.4H194.4z"/>
		<path class="st0" d="M199.7,122.2c-0.1-0.3-0.1-1-0.1-1.4h0.2c0.2,0.9,0.7,1.2,1.5,1.2c0.8,0,1.3-0.4,1.3-1c0-0.5-0.4-0.9-0.9-1.2
			l-0.7-0.5c-0.7-0.4-1.2-0.9-1.2-1.6c0-0.9,0.8-1.6,1.8-1.6c0.7,0,1.1,0.2,1.6,0.2c0,0.4,0,0.9-0.1,1.4h-0.2
			c-0.1-0.9-0.5-1.3-1.3-1.3c-0.6,0-1.1,0.4-1.1,1c0,0.5,0.4,0.8,1,1.2l0.7,0.4c0.9,0.6,1.2,1.1,1.2,1.7c0,1-1,1.6-2.1,1.6
			C200.6,122.4,200.1,122.2,199.7,122.2z"/>
		<path class="st0" d="M207.1,122.3c-1.6-0.2-2.6-1.4-2.6-3c0-2,1.4-3.2,3.3-3.2c2,0,3.2,1.3,3.2,3.1c0,1.7-1.1,2.9-2.7,3.1
			c1.1,0.7,1.7,1.1,2.3,1.1c0.3,0,0.5,0,0.7-0.1v0.2c-0.5,0.2-1,0.2-1.5,0.2C209.3,123.8,208.5,123.3,207.1,122.3z M210.2,119.2
			c0-1.4-0.7-2.8-2.4-2.8c-1.6,0-2.3,1.2-2.3,2.7c0,1.5,0.8,2.8,2.5,2.8C209.5,122,210.2,120.7,210.2,119.2z"/>
		<path class="st0" d="M212.6,119.8v-2c0-1.2-0.1-1.4-0.4-1.4l-0.4,0v-0.2h2.4v0.2l-0.4,0c-0.4,0-0.4,0.2-0.4,1.4v1.8
			c0,1.6,0.6,2.3,1.9,2.3c1.2,0,1.8-0.8,1.8-2.2v-1.9c0-1.2-0.1-1.4-0.5-1.4l-0.4,0v-0.2h2.2v0.2l-0.4,0c-0.4,0-0.4,0.2-0.4,1.4v2
			c0,1.5-1,2.5-2.5,2.5C213.6,122.4,212.6,121.5,212.6,119.8z"/>
		<path class="st0" d="M219.2,122.2V122l0.4,0c0.4,0,0.4-0.2,0.4-1.4v-2.7c0-1.2-0.1-1.4-0.4-1.4l-0.4,0v-0.2h4c0,0.1,0,0.2,0,0.4
			c0,0.4,0,0.7-0.1,1h-0.2c-0.1-0.8-0.3-1.1-1-1.1c-0.4,0-0.8,0-1.1,0.1v2.4h0.7c0.8,0,1-0.1,1.1-0.5l0.2,0l-0.1,1.6h-0.2l-0.1-0.3
			c-0.1-0.4-0.2-0.5-1-0.5h-0.6v1.2c0,1.2,0.1,1.3,0.7,1.3h0.6c0.7,0,1-0.3,1.2-1.1h0.2c0,0.5-0.1,1-0.2,1.4H219.2z"/>
		<path class="st0" d="M224.4,122.2V122l0.4,0c0.4,0,0.4-0.2,0.4-1.4v-2.7c0-1.2-0.1-1.4-0.4-1.4l-0.4,0v-0.2c0.7,0,1.7-0.1,2.2-0.1
			c1.5,0,2.2,0.6,2.2,1.6c0,0.8-0.6,1.3-1.2,1.6c0.9,1.6,1.5,2.4,1.9,2.6c0.2,0.1,0.3,0.1,0.4,0.1v0.2c-0.5,0.1-0.8,0.1-1,0.1
			c-0.2,0-0.3,0-0.4-0.1c-0.4-0.3-0.9-1.1-1.5-2.2c-0.1-0.3-0.2-0.3-0.5-0.3H226v1c0,1.2,0.1,1.4,0.4,1.4l0.5,0v0.2H224.4z
			 M226,119.3l1,0c0.5,0,1-0.5,1-1.4c0-0.9-0.5-1.4-1.4-1.4c-0.2,0-0.5,0-0.6,0.1V119.3z"/>
		<path class="st0" d="M230.4,119.3c0-2,1.4-3.2,3.3-3.2c2,0,3.2,1.3,3.2,3.1c0,1.9-1.4,3.2-3.3,3.2
			C231.6,122.4,230.4,121.1,230.4,119.3z M236,119.2c0-1.4-0.7-2.8-2.4-2.8c-1.6,0-2.3,1.2-2.3,2.7c0,1.5,0.8,2.8,2.5,2.8
			C235.3,122,236,120.7,236,119.2z"/>
	</g>
	<g>
		<path class="st1" d="M41.8,67.6c3.1-0.1,6.7-1,8.1-3.6C46.1,63.5,43.3,65.2,41.8,67.6z M49.1,64.1c-0.6,1.7-2.3,2.3-4.3,2.7
			c1-0.8,2.5-1,3.3-2c-1.8,0-4.2,1.4-5.3,2.1C44.1,65.1,46.5,64.5,49.1,64.1z"/>
		<path class="st2" d="M35.7,118c0-0.4,0-0.9,0.2-1.4c0,1.6,2.1,0.6,2.7,0.2c0.6-1.6-0.6-2.5-0.5-3.5c1.4-1.3,3.3-0.6,4.9-1.1
			c0.9-0.2,1.7-1.2,2.8-1.4c0.5-0.1,1.3,0.2,1.8,0c1.1-0.3,3-2.2,2.8-3.5c-0.3-1.7-2.9-2.8-3.6-4.8c-0.8-2.1,0.6-3.3-0.5-5.5
			c-1.1-0.8-1.9,0.7-2.7,0.2c1.5-0.6,2.7-3.3,1.7-5.3c-1.2,1.2-1.4,3.3-3.1,3.8c-1.9-0.6-2.8,1.1-4,1.8c-0.6-0.9-1.2-1.8-2.7-1.9
			c-0.1,0.8,1.3,1.9,1.4,3.1c-1.1,0.8-2.1,0.2-3.3,0.2c-2.9-0.2-5.7,2-8.7,2.2l-2.8,2.7L35.7,118z"/>
		<path class="st3" d="M37.3,82.7L18.9,63.9L0.4,82l18.4,18.7L37.3,82.7z M9.9,87.7c0.5-1,1.1-1.9,1.7-2.7C11,83.8,9.9,83.2,9,82.2
			c1.2-0.1,2.7,1,4,1.3c3.3-2.5,12.9-5.7,17-1.9c-2.4,3.9-11.2,5.7-16.3,3.3C12.3,85.7,11.5,87.1,9.9,87.7z"/>
		<path class="st2" d="M30,81.7C26,77.9,16.3,81,13,83.6c-1.3-0.3-2.8-1.5-4-1.3c0.8,0.9,2,1.6,2.5,2.8c-0.6,0.9-1.2,1.7-1.7,2.7
			c1.6-0.6,2.4-2,3.9-2.7C18.8,87.4,27.7,85.6,30,81.7z M26.6,82c-0.2,0-0.4,0-0.5,0C25.1,80.7,27.5,80.7,26.6,82z"/>
		<path class="st3" d="M26.6,82c1-1.3-1.5-1.3-0.5,0C26.2,82,26.4,82,26.6,82z"/>
		<path class="st4" d="M58.7,104.7l-18.4,18.1C40.3,122.8,58.7,104.7,58.7,104.7z"/>
		<path class="st5" d="M33.5,99c1.2,0.1,2.2,0.7,3.3-0.2c-0.1-1.3-1.5-2.3-1.4-3.1c1.5,0,2.1,0.9,2.7,1.9c1.2-0.7,2.1-2.4,4-1.8
			c1.8-0.5,2-2.6,3.1-3.8c1,2-0.2,4.6-1.7,5.3c0.8,0.5,1.6-0.9,2.7-0.2c1.1,2.2-0.3,3.3,0.5,5.5c0.7,2,3.3,3.1,3.6,4.8
			c0.2,1.3-1.6,3.1-2.8,3.5c-0.5,0.2-1.3-0.1-1.8,0c-1,0.2-1.8,1.2-2.8,1.4c-1.6,0.4-3.5-0.2-4.9,1.1c-0.1,1,1.1,1.9,0.5,3.5
			c-0.6,0.4-2.8,1.4-2.7-0.2c-0.2,0.5-0.3,1-0.2,1.4l4.6,4.8l18.4-18.1L40.3,85.9l-15.5,15.3C27.8,101.1,30.6,98.9,33.5,99z"/>
		<path class="st6" d="M48.1,64.7c-0.8,1-2.3,1.2-3.3,2c1.9-0.4,3.6-1,4.3-2.7c-2.6,0.4-5,1.1-6.3,2.8
			C43.9,66.2,46.3,64.8,48.1,64.7z"/>
		<path class="st6" d="M46.9,59.7c-0.5,1-1.7,1.4-2.4,2.3c1.5-0.7,2.9-1.5,3.1-3c-2.1,0.8-4,1.8-4.8,3.5
			C43.7,61.7,45.4,60.1,46.9,59.7z"/>
		<path class="st6" d="M46.6,54.5c-0.5,1.2-2.2,2.3-3,2.9c1.5-0.3,2.6-1.7,3.7-3.3c-1.3-0.1-2.2,0.8-3,2
			C45.2,55.6,45.7,54.7,46.6,54.5z"/>
		<path class="st6" d="M38.5,60.7c-0.9-0.8-2.6-2.3-3.1-3.8c1,0.4,1.6,1.6,2.5,2.2c-0.8-1.5-1.7-2.7-3.3-2.8
			C35.7,58.3,36.8,60.1,38.5,60.7z"/>
		<path class="st6" d="M37,65.7c-0.8-2-2.9-3.3-5.3-4.4c0.1,1.8,1.6,2.8,3.4,3.7c-0.7-1-2.1-1.7-2.6-2.8
			C34.2,62.7,36.1,64.7,37,65.7z"/>
		<path class="st2" d="M31,61c0.6,2.9,3.8,4.7,6.8,5.7C37,64,34.7,61.6,31,61z M35.1,65.1c-1.7-0.9-3.2-1.9-3.4-3.7
			c2.4,1.1,4.5,2.4,5.3,4.4c-0.9-1-2.8-3-4.6-3.5C32.9,63.4,34.4,64,35.1,65.1z"/>
		<path class="st6" d="M41.3,55.1c0.1-7.4-3.2-5.6-0.3-9.5c-1.4,3.1,1.3,4.2,1.3,8.5c0,4.3-1.7,8.2-1.7,13.4c0,4.2,1,7.4,2.5,9.6
			L59.4,61L40.9,42.2L22.5,60.4l13.9,14.2C38.1,69.8,41.2,60.5,41.3,55.1z M49.9,63.9c-1.4,2.6-5,3.5-8.1,3.6
			C43.3,65.2,46.1,63.5,49.9,63.9z M42.1,63.2c0.8-2.2,2.9-4.1,6.1-4.4C47.6,61.2,44.7,62.6,42.1,63.2z M42.9,57.8
			c1-2,2.6-4.1,4.7-4.2C46.8,56.1,44.9,57.5,42.9,57.8z M46.2,48.9c-0.3,2.1-1.6,3.4-3,3.9C43.6,51.1,44.5,49.3,46.2,48.9z
			 M43.7,45.9c-0.3,1.1-1.2,1.7-2.2,1.8C41.8,46.8,42.6,45.9,43.7,45.9z M39.1,50c-1-0.4-1.9-1.3-2-2.7C38.1,47.6,38.8,48.9,39.1,50
			z M40.3,55.5c-2-0.3-3.9-1.7-4.7-4.3C37.8,51.4,39.4,53.5,40.3,55.5z M39.4,61.3c-2.3-0.6-4.4-2.5-5.1-5.6
			C36.8,56.1,38.5,58.8,39.4,61.3z M31,61c3.7,0.6,6,3,6.8,5.7C34.8,65.7,31.6,63.9,31,61z"/>
		<path class="st6" d="M42.1,46.9c0.4-0.2,0.7-0.6,1.1-0.7c-0.2,0.5-1,1-1.4,1.2c0.8-0.1,1.3-0.7,1.7-1.4
			C42.9,46,42.4,46.4,42.1,46.9z"/>
		<path class="st6" d="M43.6,52.4c1.1-0.5,1.8-1.7,2.4-3c-1,0.1-1.6,1-2,2c0.6-0.4,0.9-1.2,1.5-1.5C45.2,50.8,44.2,51.9,43.6,52.4z"
			/>
		<path class="st6" d="M39.6,55.1c-0.8-0.6-2.4-1.7-2.9-2.9c0.9,0.2,1.4,1.2,2.3,1.6c-0.8-1.2-1.7-2.1-3-2
			C37,53.3,38.1,54.7,39.6,55.1z"/>
		<path class="st6" d="M38.7,49.7c-0.4-0.4-1.1-1.1-1.3-1.8c0.4,0.2,0.6,0.8,1,1.1c-0.3-0.7-0.7-1.3-1.4-1.4
			C37.5,48.5,38,49.4,38.7,49.7z"/>
		<path class="st2" d="M42.1,63.2c2.6-0.6,5.4-2,6.1-4.4C45,59.1,43,61,42.1,63.2z M47.6,59c-0.2,1.5-1.5,2.3-3.1,3
			c0.7-0.9,1.9-1.3,2.4-2.3c-1.5,0.3-3.3,1.9-4.1,2.7C43.6,60.8,45.5,59.8,47.6,59z"/>
		<path class="st2" d="M39.4,61.3c-0.9-2.5-2.6-5.2-5.1-5.6C34.9,58.9,37,60.7,39.4,61.3z M37.9,59.1c-0.9-0.6-1.5-1.8-2.5-2.2
			c0.5,1.5,2.3,3,3.1,3.8c-1.8-0.6-2.9-2.4-3.9-4.4C36.2,56.4,37.1,57.6,37.9,59.1z"/>
		<path class="st2" d="M42.9,57.8c2-0.3,3.9-1.6,4.7-4.2C45.6,53.7,43.9,55.8,42.9,57.8z M47.3,54c-1,1.6-2.2,3-3.7,3.3
			c0.8-0.5,2.4-1.7,3-2.9c-0.9,0.2-1.5,1.2-2.3,1.6C45.2,54.9,46,53.9,47.3,54z"/>
		<path class="st2" d="M40.3,55.5c-0.9-2-2.5-4.1-4.7-4.3C36.4,53.8,38.3,55.2,40.3,55.5z M38.9,53.8c-0.8-0.4-1.4-1.4-2.3-1.6
			c0.5,1.2,2.1,2.4,2.9,2.9c-1.5-0.4-2.6-1.8-3.6-3.3C37.3,51.7,38.1,52.6,38.9,53.8z"/>
		<path class="st2" d="M46.2,48.9c-1.6,0.4-2.6,2.2-3,3.9C44.6,52.3,45.9,51,46.2,48.9z M44,51.3c0.5-1,1-1.8,2-2
			c-0.6,1.3-1.2,2.6-2.4,3c0.5-0.5,1.6-1.6,1.9-2.6C44.8,50.1,44.5,50.9,44,51.3z"/>
		<path class="st2" d="M39.1,50c-0.3-1.2-0.9-2.4-2-2.7C37.2,48.7,38.1,49.7,39.1,50z M38.5,49c-0.4-0.3-0.6-0.9-1-1.1
			c0.2,0.7,0.9,1.5,1.3,1.8c-0.8-0.3-1.2-1.2-1.6-2.1C37.9,47.7,38.2,48.3,38.5,49z"/>
		<path class="st2" d="M43.7,45.9c-1.1,0.1-1.8,0.9-2.2,1.8C42.5,47.5,43.4,47,43.7,45.9z M41.8,47.5c0.4-0.2,1.2-0.7,1.4-1.2
			c-0.4,0.1-0.7,0.5-1.1,0.7c0.4-0.5,0.8-0.9,1.5-0.8C43.1,46.7,42.6,47.3,41.8,47.5z"/>
		<path class="st7" d="M60,98.3l2.6,2.7l2.9-2.9c3.1-8.1,13.6-13.7,13.6-13.7l0,0.4l2-2l-2.2-2.2l0,2.6C69.6,85.5,62.2,95.1,60,98.3
			z"/>
		<path class="st8" d="M76.4,83.2l0-3.2L73,80.1l0,3c-9.3,1.6-16.4,7.6-18.5,9.5l2.6,2.6C64.4,86.5,76.4,83.2,76.4,83.2z"/>
		<path class="st8" d="M44.2,82.2l7.9,8c7.5-6.2,18.6-7.1,18.6-7.1l0-4.5l-0.8-0.1l1-2.3l2.4-1.3L62.6,64.1L44.2,82.2z M63.8,78.6
			l-1.5,1.3l0.6,1.9L61,82.2l-0.4,1.9l-1.9-0.6L57.3,85L56,83.5l-1.9,0.6l-0.4-1.9l-1.9-0.4l0.6-1.9l-1.5-1.4l1.5-1.3l-0.6-1.9
			l1.9-0.4l0.4-1.9l1.9,0.6l1.4-1.5l1.3,1.5l1.9-0.6l0.4,1.9l1.9,0.4l-0.6,1.9L63.8,78.6z"/>
		<path class="st2" d="M61.1,74.9l-0.4-1.9l-1.9,0.6L57.4,72l-1.4,1.5l-1.9-0.6l-0.4,1.9l-1.9,0.4l0.6,1.9l-1.5,1.3l1.5,1.4
			l-0.6,1.9l1.9,0.4l0.4,1.9l1.9-0.6l1.3,1.5l1.4-1.5l1.9,0.6l0.4-1.9l1.9-0.4l-0.6-1.9l1.5-1.3l-1.5-1.4l0.6-1.9L61.1,74.9z
			 M57.4,82.4c-2.3,0-4.1-1.9-4.1-4.1c0-2.3,1.9-4.1,4.1-4.1c2.3,0,4.1,1.9,4.1,4.1C61.5,80.6,59.7,82.4,57.4,82.4z"/>
		<path class="st7" d="M57.5,74.2c-2.3,0-4.1,1.8-4.1,4.1c0,2.3,1.8,4.1,4.1,4.1c2.3,0,4.1-1.8,4.1-4.1
			C61.6,76.1,59.8,74.2,57.5,74.2z"/>
		<path class="st2" d="M69.9,78.5l0.8,0.1l0,4.5c0,0-11.1,0.8-18.6,7.1l2.4,2.5c2.1-1.9,9.3-7.9,18.5-9.5l0-3l3.4-0.1l0,3.2
			c0,0-12,3.4-19.4,12.1l3,3c2.2-3.1,9.6-12.7,18.9-15.1l0-2.6l-5.6-5.7l-2.4,1.3L69.9,78.5z"/>
		<path class="st2" d="M65.5,98.1L79,84.8l0-0.4C79.1,84.4,68.6,90,65.5,98.1z"/>
	</g>
	<rect x="91.5" y="90.2" class="st6" width="156.7" height="2.9"/>
</g>
</svg>
