<?xml version="1.0" encoding="utf-8"?>
<!-- Generator: Adobe Illustrator 22.1.0, SVG Export Plug-In . SVG Version: 6.00 Build 0)  -->
<svg version="1.1" id="Capa_1" xmlns="http://www.w3.org/2000/svg" xmlns:xlink="http://www.w3.org/1999/xlink" x="0px" y="0px"
	 viewBox="0 0 250 166" style="enable-background:new 0 0 250 166;" xml:space="preserve">
<style type="text/css">
	.st0{fill:#163D4B;}
	.st1{fill:none;stroke:#163D4B;stroke-width:0.25;stroke-miterlimit:10;}
	.st2{fill:#619D3C;}
</style>
<g>
	<g>
		<path class="st0" d="M76.2,155.4c-0.4,1.8-1.6,2.9-3.4,2.9c-1.1,0-2.4-0.6-2.4-2.3c0-0.3,0-0.6,0.1-0.8l1.1-5.8h0.6l-1.2,5.8
			c0,0.1-0.1,0.4-0.1,0.7c0,0.9,0.5,1.8,1.8,1.8c1.2,0,2.4-0.8,2.7-2.5l1.1-5.8h0.6L76.2,155.4z"/>
		<path class="st0" d="M85.4,158.2h-0.6l-3.3-7.7l-1.5,7.7h-0.6l1.8-8.8h0.6l3.3,7.7l1.5-7.7h0.6L85.4,158.2z"/>
		<path class="st0" d="M97.3,154.5h-2.4l-0.8,3.8h-0.6l1.8-8.8h2.9c1.7,0,2.2,1.1,2.2,2C100.3,153.2,99.2,154.5,97.3,154.5z
			 M98.1,150h-2.4l-0.8,3.9h2.4c1.4,0,2.4-0.9,2.4-2.4C99.7,150.7,99.3,150,98.1,150z"/>
		<path class="st0" d="M106.5,154.1l1.3,4.1h-0.7l-1.3-4.1h-2.3l-0.8,4.1H102l1.8-8.8h3c1.6,0,2.1,1,2.1,1.9
			C108.9,152.7,108,153.9,106.5,154.1z M106.8,150h-2.4l-0.7,3.6h2.5c1.4,0,2.2-1.1,2.2-2.2C108.3,150.5,107.8,150,106.8,150z"/>
		<path class="st0" d="M117.2,153.8c-0.4,2.1-0.6,2.8-1.3,3.5c-0.6,0.6-1.3,1-2.3,1c-1.3,0-2.4-0.8-2.4-2.3c0-0.4,0-0.9,0.3-2.1
			c0.4-2.1,0.6-2.8,1.3-3.5c0.6-0.6,1.3-1,2.3-1c1.3,0,2.4,0.8,2.4,2.3C117.5,152.1,117.5,152.5,117.2,153.8z M115.1,149.9
			c-0.8,0-1.4,0.3-1.9,0.8c-0.5,0.5-0.7,1.2-1.1,3.1c-0.3,1.3-0.3,1.7-0.3,2.1c0,1.2,0.9,1.8,1.8,1.8c0.8,0,1.4-0.3,1.9-0.8
			c0.5-0.5,0.7-1.2,1.1-3.1c0.3-1.3,0.3-1.7,0.3-2.1C116.9,150.5,116,149.9,115.1,149.9z"/>
		<path class="st0" d="M125.8,151.9c0-1.2-0.7-2-1.8-2c-0.7,0-1.4,0.3-1.8,0.8c-0.5,0.6-0.7,1.2-1.1,3.1c-0.3,1.3-0.3,1.8-0.3,2.1
			c0,1.1,0.9,1.8,1.9,1.8c1,0,2.3-0.7,2.7-2.6l0.2-0.9h-2.2l0.1-0.6h2.9l-0.3,1.4c-0.2,1-0.5,1.6-1.1,2.2c-0.5,0.5-1.3,0.9-2.3,0.9
			c-1.3,0-2.5-0.8-2.5-2.3c0-0.4,0-0.9,0.3-2.1c0.4-2.1,0.6-2.8,1.3-3.5c0.5-0.5,1.3-0.9,2.3-0.9c1.6,0,2.5,1,2.5,2.5H125.8z"/>
		<path class="st0" d="M133.2,154.1l1.3,4.1h-0.7l-1.3-4.1h-2.3l-0.8,4.1h-0.6l1.8-8.8h3c1.6,0,2.1,1,2.1,1.9
			C135.6,152.7,134.7,153.9,133.2,154.1z M133.4,150H131l-0.7,3.6h2.5c1.4,0,2.2-1.1,2.2-2.2C135,150.5,134.5,150,133.4,150z"/>
		<path class="st0" d="M142.6,158.2l-0.3-2.1h-3.9l-1.2,2.1h-0.7l4.8-8.8h0.6l1.3,8.8H142.6z M141.5,150.3l-2.8,5.2h3.5L141.5,150.3
			z"/>
		<path class="st0" d="M153,158.2h-0.6l1.5-7.2l-3.7,5.8h-0.6l-1.4-5.8l-1.5,7.3H146l1.8-8.8h0.6l1.6,6.6l4.2-6.6h0.6L153,158.2z"/>
		<path class="st0" d="M161.7,158.2l-0.3-2.1h-3.9l-1.2,2.1h-0.7l4.8-8.8h0.6l1.3,8.8H161.7z M160.6,150.3l-2.8,5.2h3.5L160.6,150.3
			z"/>
		<path class="st0" d="M175.9,153.7c-0.4,2-0.7,3-1.5,3.7c-0.6,0.5-1.4,0.8-2.2,0.8h-2.8l1.8-8.8h2.7c1.1,0,2.4,0.5,2.4,2.4
			C176.2,152.3,176.1,152.7,175.9,153.7z M173.6,150h-2l-1.5,7.7h2c0.7,0,1.4-0.2,1.9-0.7c0.6-0.5,0.9-1.5,1.3-3.3
			c0.2-1,0.3-1.4,0.3-1.9C175.5,150.7,175,150,173.6,150z"/>
		<path class="st0" d="M185.2,150h-4.4l-0.7,3.5h3.8l-0.1,0.6h-3.8l-0.7,3.6h4.5l-0.1,0.6h-5.1l1.8-8.8h5.1L185.2,150z"/>
		<path class="st0" d="M196.9,151.9c0-1.2-0.7-2-1.8-2c-0.7,0-1.4,0.3-1.8,0.8c-0.5,0.6-0.7,1.2-1.1,3.1c-0.3,1.3-0.3,1.8-0.3,2.1
			c0,1.1,0.9,1.8,1.9,1.8c1.4,0,2.2-1,2.6-2h0.7c-0.5,1.6-1.7,2.5-3.2,2.5c-1.3,0-2.5-0.8-2.5-2.3c0-0.4,0-0.9,0.3-2.1
			c0.4-2.1,0.6-2.8,1.3-3.5c0.5-0.5,1.3-0.9,2.3-0.9c1.6,0,2.5,1,2.5,2.5H196.9z"/>
		<path class="st0" d="M205.7,151.9c0-1.2-0.7-2-1.8-2c-0.7,0-1.4,0.3-1.8,0.8c-0.5,0.6-0.7,1.2-1.1,3.1c-0.3,1.3-0.3,1.8-0.3,2.1
			c0,1.1,0.9,1.8,1.9,1.8c1,0,2.3-0.7,2.7-2.6l0.2-0.9H203l0.1-0.6h2.9l-0.3,1.4c-0.2,1-0.5,1.6-1.1,2.2c-0.5,0.5-1.3,0.9-2.3,0.9
			c-1.3,0-2.5-0.8-2.5-2.3c0-0.4,0-0.9,0.3-2.1c0.4-2.1,0.6-2.8,1.3-3.5c0.5-0.5,1.3-0.9,2.3-0.9c1.6,0,2.5,1,2.5,2.5H205.7z"/>
		<path class="st0" d="M213.5,158.2l-0.3-2.1h-3.9l-1.2,2.1h-0.7l4.8-8.8h0.6l1.3,8.8H213.5z M212.4,150.3l-2.8,5.2h3.5L212.4,150.3
			z"/>
		<path class="st0" d="M220.7,154.5h-2.4l-0.8,3.8h-0.6l1.8-8.8h2.9c1.7,0,2.2,1.1,2.2,2C223.8,153.2,222.6,154.5,220.7,154.5z
			 M221.5,150h-2.4l-0.8,3.9h2.4c1.4,0,2.4-0.9,2.4-2.4C223.1,150.7,222.7,150,221.5,150z"/>
	</g>
	<line class="st1" x1="69.7" y1="142.5" x2="237.4" y2="142.5"/>
	<g>
		<path class="st0" d="M69.7,120.4v-10.7h1.1v10.7H69.7z"/>
		<path class="st0" d="M81.6,120.4l-5.7-8.6v8.6h-1.1v-10.7h1.1l5.7,8.6v-8.6h1.1v10.7H81.6z"/>
		<path class="st0" d="M89.9,120.5c-1.1,0-2-0.4-2.7-1.1c-1-1-1.1-1.9-1.1-4.4c0-2.5,0.1-3.4,1.1-4.4c0.7-0.7,1.6-1.1,2.7-1.1
			c1.9,0,3.3,1.2,3.7,3.2h-1.2c-0.3-1.3-1.2-2.2-2.5-2.2c-0.7,0-1.4,0.3-1.9,0.8c-0.7,0.7-0.8,1.5-0.8,3.7c0,2.2,0.1,3,0.8,3.7
			c0.5,0.5,1.1,0.8,1.9,0.8c1.3,0,2.3-0.8,2.6-2.2h1.1C93.2,119.3,91.8,120.5,89.9,120.5z"/>
		<path class="st0" d="M96.9,120.4v-10.7H98v9.7h5.5v1H96.9z"/>
		<path class="st0" d="M109.8,120.5c-2.2,0-3.7-1.5-3.7-3.6v-7.2h1.1v7.1c0,1.6,1,2.7,2.6,2.7c1.6,0,2.6-1.1,2.6-2.7v-7.1h1.1v7.2
			C113.6,119,112,120.5,109.8,120.5z"/>
		<path class="st0" d="M120,120.5c-1.6,0-2.7-0.4-3.7-1.4l0.8-0.8c0.9,0.9,1.7,1.2,2.9,1.2c1.6,0,2.5-0.7,2.5-2c0-0.6-0.2-1-0.5-1.3
			c-0.3-0.3-0.6-0.4-1.4-0.5l-1.3-0.2c-0.8-0.1-1.5-0.4-2-0.8c-0.5-0.5-0.8-1.1-0.8-2c0-1.8,1.3-3,3.4-3c1.4,0,2.3,0.4,3.2,1.2
			l-0.7,0.7c-0.6-0.6-1.4-0.9-2.5-0.9c-1.4,0-2.3,0.8-2.3,2c0,0.5,0.2,1,0.5,1.3c0.3,0.3,0.8,0.5,1.4,0.6l1.3,0.2
			c1,0.2,1.5,0.3,1.9,0.8c0.6,0.5,0.9,1.2,0.9,2.1C123.8,119.4,122.3,120.5,120,120.5z"/>
		<path class="st0" d="M126.9,120.4v-10.7h1.1v10.7H126.9z"/>
		<path class="st0" d="M137.9,119.5c-0.7,0.7-1.6,1.1-2.7,1.1c-1.1,0-2-0.4-2.7-1.1c-1-1-1.1-1.9-1.1-4.4c0-2.5,0.1-3.4,1.1-4.4
			c0.7-0.7,1.6-1.1,2.7-1.1c1.1,0,2,0.4,2.7,1.1c1,1,1.1,1.9,1.1,4.4C139,117.5,138.9,118.5,137.9,119.5z M137.1,111.4
			c-0.5-0.5-1.1-0.8-1.9-0.8c-0.7,0-1.4,0.3-1.9,0.8c-0.7,0.7-0.8,1.5-0.8,3.7c0,2.2,0.1,3,0.8,3.7c0.5,0.5,1.1,0.8,1.9,0.8
			c0.7,0,1.4-0.3,1.9-0.8c0.7-0.7,0.8-1.5,0.8-3.7C137.9,112.9,137.8,112.1,137.1,111.4z M135.5,108.7h-1l1.4-2.3h1.3L135.5,108.7z"
			/>
		<path class="st0" d="M149.3,120.4l-5.7-8.6v8.6h-1.1v-10.7h1.1l5.7,8.6v-8.6h1.1v10.7H149.3z"/>
		<path class="st0" d="M159.9,110.7v3.9h4.7v1h-4.7v4.7h-1.1v-10.7h6.7v1H159.9z"/>
		<path class="st0" d="M168.2,120.4v-10.7h1.1v10.7H168.2z"/>
		<path class="st0" d="M180.1,120.4l-5.7-8.6v8.6h-1.1v-10.7h1.1l5.7,8.6v-8.6h1.1v10.7H180.1z"/>
		<path class="st0" d="M191.3,120.4l-0.9-2.4h-4.7l-0.9,2.4h-1.2l3.9-10.7h1l3.9,10.7H191.3z M188.1,111.3l-2,5.7h4L188.1,111.3z"/>
		<path class="st0" d="M201.8,120.4l-5.7-8.6v8.6H195v-10.7h1.1l5.7,8.6v-8.6h1.1v10.7H201.8z"/>
		<path class="st0" d="M210.1,120.5c-1.1,0-2-0.4-2.7-1.1c-1-1-1.1-1.9-1.1-4.4c0-2.5,0.1-3.4,1.1-4.4c0.7-0.7,1.6-1.1,2.7-1.1
			c1.9,0,3.3,1.2,3.7,3.2h-1.2c-0.3-1.3-1.2-2.2-2.5-2.2c-0.7,0-1.4,0.3-1.9,0.8c-0.7,0.7-0.8,1.5-0.8,3.7c0,2.2,0.1,3,0.8,3.7
			c0.5,0.5,1.1,0.8,1.9,0.8c1.3,0,2.3-0.8,2.6-2.2h1.1C213.4,119.3,212,120.5,210.1,120.5z"/>
		<path class="st0" d="M217.1,120.4v-10.7h1.1v10.7H217.1z"/>
		<path class="st0" d="M222.1,120.4v-10.7h6.7v1h-5.5v3.8h4.7v1h-4.7v3.9h5.5v1H222.1z"/>
		<path class="st0" d="M238.1,120.4l-2.4-4.8H233v4.8h-1.1v-10.7h4.1c1.9,0,3.2,1.1,3.2,3c0,1.6-0.9,2.6-2.3,2.9l2.5,4.9H238.1z
			 M235.9,110.7H233v3.9h2.9c1.3,0,2.1-0.6,2.1-2C238,111.4,237.1,110.7,235.9,110.7z"/>
		<path class="st0" d="M248.8,120.4l-0.9-2.4h-4.7l-0.9,2.4h-1.2l3.9-10.7h1l3.9,10.7H248.8z M245.6,111.3l-2,5.7h4L245.6,111.3z"/>
		<path class="st0" d="M73.7,131.1h-2.8v4.4h-1.1v-10.7h4c1.9,0,3.3,1.2,3.3,3.1C77,129.8,75.7,131.1,73.7,131.1z M73.6,125.8h-2.8
			v4.3h2.8c1.3,0,2.3-0.7,2.3-2.1S75,125.8,73.6,125.8z"/>
		<path class="st0" d="M86.2,135.5l-0.9-2.4h-4.7l-0.9,2.4h-1.2l3.9-10.7h1l3.9,10.7H86.2z M83,126.4l-2,5.7h4L83,126.4z"/>
		<path class="st0" d="M96.1,135.5l-2.4-4.8h-2.6v4.8h-1.1v-10.7H94c1.9,0,3.2,1.1,3.2,3c0,1.6-0.9,2.6-2.3,2.9l2.5,4.9H96.1z
			 M93.9,125.8h-2.9v3.9h2.9c1.3,0,2.1-0.6,2.1-2C96.1,126.5,95.2,125.8,93.9,125.8z"/>
		<path class="st0" d="M106.8,135.5l-0.9-2.4h-4.7l-0.9,2.4h-1.2l3.9-10.7h1l3.9,10.7H106.8z M103.6,126.4l-2,5.7h4L103.6,126.4z"/>
		<path class="st0" d="M115,135.5v-10.7h6.7v1h-5.5v3.8h4.7v1h-4.7v3.9h5.5v1H115z"/>
		<path class="st0" d="M124.8,135.5v-10.7h1.1v9.7h5.5v1H124.8z"/>
		<path class="st0" d="M145.2,134.4c-0.7,0.8-1.6,1.1-2.8,1.1h-3.7v-10.7h3.7c1.2,0,2.1,0.3,2.8,1.1c0.9,1,0.9,2.6,0.9,4.2
			S146.2,133.3,145.2,134.4z M144.3,126.6c-0.5-0.6-1.3-0.8-2.1-0.8h-2.3v8.7h2.3c0.8,0,1.6-0.2,2.1-0.8c0.7-0.7,0.7-2.1,0.7-3.6
			C145,128.6,145,127.3,144.3,126.6z"/>
		<path class="st0" d="M149.6,135.5v-10.7h6.7v1h-5.5v3.8h4.7v1h-4.7v3.9h5.5v1H149.6z"/>
		<path class="st0" d="M162.2,135.6c-1.6,0-2.7-0.4-3.7-1.4l0.8-0.8c0.9,0.9,1.7,1.2,2.9,1.2c1.6,0,2.5-0.7,2.5-2
			c0-0.6-0.2-1-0.5-1.3c-0.3-0.3-0.6-0.4-1.4-0.5l-1.3-0.2c-0.8-0.1-1.5-0.4-2-0.8c-0.5-0.5-0.8-1.1-0.8-2c0-1.8,1.3-3,3.4-3
			c1.4,0,2.3,0.4,3.2,1.2l-0.7,0.7c-0.6-0.6-1.4-0.9-2.5-0.9c-1.4,0-2.3,0.8-2.3,2c0,0.5,0.2,1,0.5,1.3c0.3,0.3,0.8,0.5,1.4,0.6
			l1.3,0.2c1,0.2,1.5,0.3,1.9,0.8c0.6,0.5,0.9,1.2,0.9,2.1C165.9,134.4,164.4,135.6,162.2,135.6z"/>
		<path class="st0" d="M175.3,135.5l-0.9-2.4h-4.7l-0.9,2.4h-1.2l3.9-10.7h1l3.9,10.7H175.3z M172.1,126.4l-2,5.7h4L172.1,126.4z"/>
		<path class="st0" d="M185.1,135.5l-2.4-4.8h-2.6v4.8H179v-10.7h4.1c1.9,0,3.2,1.1,3.2,3c0,1.6-0.9,2.6-2.3,2.9l2.5,4.9H185.1z
			 M183,125.8h-2.9v3.9h2.9c1.3,0,2.1-0.6,2.1-2C185.1,126.5,184.2,125.8,183,125.8z"/>
		<path class="st0" d="M195.8,135.5l-2.4-4.8h-2.6v4.8h-1.1v-10.7h4.1c1.9,0,3.2,1.1,3.2,3c0,1.6-0.9,2.6-2.3,2.9l2.5,4.9H195.8z
			 M193.6,125.8h-2.9v3.9h2.9c1.3,0,2.1-0.6,2.1-2C195.8,126.5,194.9,125.8,193.6,125.8z"/>
		<path class="st0" d="M206.3,134.5c-0.7,0.7-1.6,1.1-2.7,1.1c-1.1,0-2-0.4-2.7-1.1c-1-1-1.1-1.9-1.1-4.4c0-2.5,0.1-3.4,1.1-4.4
			c0.7-0.7,1.6-1.1,2.7-1.1c1.1,0,2,0.4,2.7,1.1c1,1,1.1,1.9,1.1,4.4C207.3,132.6,207.3,133.5,206.3,134.5z M205.4,126.5
			c-0.5-0.5-1.1-0.8-1.9-0.8c-0.7,0-1.4,0.3-1.9,0.8c-0.7,0.7-0.8,1.5-0.8,3.7c0,2.2,0.1,3,0.8,3.7c0.5,0.5,1.1,0.8,1.9,0.8
			c0.7,0,1.4-0.3,1.9-0.8c0.7-0.7,0.8-1.5,0.8-3.7C206.2,127.9,206.1,127.2,205.4,126.5z"/>
		<path class="st0" d="M210.8,135.5v-10.7h1.1v9.7h5.5v1H210.8z"/>
		<path class="st0" d="M220.2,135.5v-10.7h1.1v9.7h5.5v1H220.2z"/>
		<path class="st0" d="M235.6,134.5c-0.7,0.7-1.6,1.1-2.7,1.1c-1.1,0-2-0.4-2.7-1.1c-1-1-1.1-1.9-1.1-4.4c0-2.5,0.1-3.4,1.1-4.4
			c0.7-0.7,1.6-1.1,2.7-1.1c1.1,0,2,0.4,2.7,1.1c1,1,1.1,1.9,1.1,4.4C236.7,132.6,236.6,133.5,235.6,134.5z M234.8,126.5
			c-0.5-0.5-1.1-0.8-1.9-0.8c-0.7,0-1.4,0.3-1.9,0.8c-0.7,0.7-0.8,1.5-0.8,3.7c0,2.2,0.1,3,0.8,3.7c0.5,0.5,1.1,0.8,1.9,0.8
			c0.7,0,1.4-0.3,1.9-0.8c0.7-0.7,0.8-1.5,0.8-3.7C235.5,127.9,235.4,127.2,234.8,126.5z"/>
	</g>
	<g>
		<path class="st0" d="M122.1,45.2h-9.3v14.4H109V24.6h13.1c6.4,0,10.8,4,10.8,10.3C132.9,41.1,128.4,45.2,122.1,45.2z M121.8,27.9
			h-9v14h9c4.4,0,7.4-2.4,7.4-7C129.2,30.2,126.2,27.9,121.8,27.9z"/>
		<path class="st0" d="M152.1,57.2c-1.7,1.7-4,2.8-7,2.8c-3,0-5.3-1-7-2.8c-2.5-2.5-3-5.9-3-9.7c0-3.7,0.5-7.2,3-9.7
			c1.7-1.7,4-2.8,7-2.8c3,0,5.3,1,7,2.8c2.5,2.5,3,5.9,3,9.7C155,51.3,154.5,54.7,152.1,57.2z M149.5,40.1c-1.2-1.2-2.7-1.8-4.4-1.8
			c-1.7,0-3.2,0.6-4.4,1.8c-1.8,1.8-2,4.7-2,7.5c0,2.7,0.1,5.7,2,7.5c1.2,1.2,2.7,1.8,4.4,1.8c1.7,0,3.3-0.6,4.4-1.8
			c1.8-1.8,1.9-4.8,1.9-7.5C151.5,44.8,151.3,41.8,149.5,40.1z"/>
		<path class="st0" d="M173.7,40.1c-1.3-1.3-2.3-1.8-4.2-1.8c-3.5,0-5.8,2.8-5.8,6.5v14.9h-3.5V35.4h3.5v3c1.3-2,4-3.3,6.8-3.3
			c2.3,0,4.1,0.5,5.8,2.3L173.7,40.1z"/>
		<path class="st0" d="M187.7,59.7c-4.1,0-6.2-2.9-6.2-6.5v-15h-3.1v-2.7h3.1V28h3.5v7.4h5.2v2.7H185v14.9c0,2.2,1,3.5,3.3,3.5h1.9
			v3.1H187.7z"/>
		<path class="st0" d="M208.3,59.7v-2.3c-1.9,1.9-3.7,2.6-7,2.6c-3.4,0-5.2-0.6-6.9-2.2c-1.2-1.2-1.8-3-1.8-4.9c0-4.3,3-7,8.4-7h7.2
			v-2.3c0-3.5-1.7-5.3-6.2-5.3c-3.1,0-4.6,0.8-6.1,2.8l-2.4-2.2c2.1-2.8,4.6-3.6,8.6-3.6c6.6,0,9.7,2.9,9.7,8.1v16.5H208.3z
			 M208.3,48.5h-6.8c-3.6,0-5.5,1.4-5.5,4.3c0,2.8,1.7,4.1,5.6,4.1c2,0,3.8-0.2,5.4-1.6c0.8-0.8,1.2-2.2,1.2-4.2V48.5z"/>
		<path class="st0" d="M224.1,59.7c-4.2,0-6.2-2.8-6.2-6.5V24.6h3.5v28.5c0,2.4,0.8,3.5,3.3,3.5h1.9v3.1H224.1z"/>
		<path class="st2" d="M112.8,66.3v12.9h15.4v3.4h-15.4V98H109V62.9h21.8v3.4H112.8z"/>
		<path class="st2" d="M134.3,66.9v-4h4v4H134.3z M134.5,98V73.8h3.5V98H134.5z"/>
		<path class="st2" d="M160,98V83.1c0-4.3-2.3-6.5-6-6.5c-3.6,0-6,2.2-6,6.5V98h-3.5V73.8h3.5v2.7c1.7-2,4.1-3,6.8-3
			c2.6,0,4.7,0.8,6.2,2.3c1.7,1.7,2.5,3.9,2.5,6.8V98H160z"/>
		<path class="st2" d="M190.6,94.3c-2.4,2.6-5.3,3.7-9.2,3.7h-12V62.9h12c3.9,0,6.9,1.1,9.2,3.7c3.1,3.4,3.1,8.5,3.1,13.9
			C193.7,85.8,193.7,91,190.6,94.3z M187.7,68.8c-1.8-2-4.2-2.6-6.9-2.6h-7.6v28.4h7.6c2.7,0,5.1-0.6,6.9-2.6
			c2.3-2.4,2.3-6.8,2.3-11.6C190,75.6,189.9,71.3,187.7,68.8z"/>
		<path class="st2" d="M200.7,86.8c0,5.3,2.5,8.4,7.1,8.4c2.8,0,4.4-0.8,6.4-2.8l2.4,2.1c-2.5,2.5-4.8,3.7-8.9,3.7
			c-6.5,0-10.6-3.8-10.6-12.4c0-7.9,3.8-12.4,10-12.4c6.3,0,10,4.5,10,11.8v1.6H200.7z M212.7,80.1c-1-2.2-3.1-3.6-5.7-3.6
			c-2.6,0-4.6,1.4-5.7,3.6c-0.6,1.3-0.6,2.1-0.7,4h12.9C213.4,82.2,213.3,81.4,212.7,80.1z"/>
		<path class="st2" d="M228.8,98h-3.2l-8.9-24.3h3.8l6.6,19.5l6.7-19.5h3.8L228.8,98z"/>
	</g>
	<g>
		<g>
			<path class="st2" d="M9.9,57.6c0-7.7,2.4-14.9,6.6-20.9h-6C3.9,43.1,0,51.2,0,60.1c0,15.2,11.6,28.2,28.3,34.3
				c-0.2-1.6-0.2-3.2-0.2-5C17.1,82.7,9.9,70.9,9.9,57.6z"/>
			<path class="st2" d="M41.7,103.9c-4.5-11.6-1-26.7,10.4-45c17.7-28.5,17.6-41,14.3-46.4c-3.1-5.2-9.4-4.8-9.5-4.8
				c-0.1,0-0.1,0-0.1,0.1c0,0.1,0,0.1,0,0.2c0,0,2.5,2.2,1.9,9.9c-0.3,4-1.4,8.5-3,13.2c-4-2.2-9-3.5-14.2-3.5
				c-12.8,0-23.2,7.3-23.2,16.4c0,7,6.3,13.2,15.7,15.5c0,0,0,0,0,0c0.1,0,0.1,0,0.2-0.1c0-0.1,0-0.2-0.1-0.2
				c-4.6-2.9-7.3-7.6-7.3-12.6c0-8.5,7.7-15.4,17.1-15.4c3.9,0,7.6,1.2,10.6,3.3c-3.5,9.4-8.5,19.2-13,27.1
				c-13.6,24-9.1,38.9-2.9,47.1c6.3,8.4,15.8,11.8,19.5,11.8c0.3,0,0.6,0,0.9-0.1c0.1,0,0.1-0.1,0.1-0.2c0-0.1,0-0.1-0.1-0.2
				C59,120.1,46.5,116.3,41.7,103.9z"/>
			<path class="st2" d="M72.8,26.8c10.1,6.9,16.6,18.1,16.6,30.8c0,20.9-17.8,37.9-39.8,37.9c-1.6,0-3.2-0.1-4.8-0.3
				c0.1,0.9,0.1,1.8,0.3,2.6c1.4,0.1,2.8,0.1,4.2,0.1c27.2,0,49.3-17,49.3-37.9C98.5,45.7,88.1,33.2,72.8,26.8z"/>
		</g>
	</g>
</g>
</svg>
