<?xml version="1.0" encoding="utf-8"?>
<!-- Generator: Adobe Illustrator 22.1.0, SVG Export Plug-In . SVG Version: 6.00 Build 0)  -->
<svg version="1.1" id="Capa_1" xmlns="http://www.w3.org/2000/svg" xmlns:xlink="http://www.w3.org/1999/xlink" x="0px" y="0px"
	 viewBox="0 0 250 166" style="enable-background:new 0 0 250 166;" xml:space="preserve">
<style type="text/css">
	.st0{fill:#636262;}
	.st1{fill:#C10D19;}
</style>
<g>
	<polygon class="st0" points="2.7,139.1 2.7,152.8 4.5,152.8 4.5,146.6 9.6,146.6 9.6,145.1 4.5,145.1 4.5,140.6 10.1,140.6 
		10.1,139.1 	"/>
	<path class="st0" d="M20,150.1c0,1,0,1.9,0.1,2.7h-1.6l-0.1-1.6h0c-0.5,0.8-1.5,1.8-3.2,1.8c-1.5,0-3.4-0.9-3.4-4.3v-5.7h1.8v5.4
		c0,1.9,0.6,3.1,2.2,3.1c1.2,0,2-0.8,2.3-1.6c0.1-0.3,0.2-0.6,0.2-0.9v-6H20V150.1z"/>
	<path class="st0" d="M23,145.6c0-1,0-1.8-0.1-2.7h1.6l0.1,1.6h0c0.5-0.9,1.6-1.8,3.2-1.8c1.4,0,3.5,0.8,3.5,4.2v5.9h-1.8v-5.7
		c0-1.6-0.6-2.9-2.3-2.9c-1.2,0-2.1,0.8-2.4,1.8c-0.1,0.2-0.1,0.5-0.1,0.8v5.9H23V145.6z"/>
	<path class="st0" d="M42.8,138.4v11.9c0,0.9,0,1.9,0.1,2.5h-1.6l-0.1-1.7h0c-0.5,1.1-1.8,1.9-3.3,1.9c-2.4,0-4.2-2-4.2-5
		c0-3.3,2-5.3,4.4-5.3c1.5,0,2.5,0.7,3,1.5h0v-5.9H42.8z M41,146.9c0-0.2,0-0.5-0.1-0.8c-0.3-1.1-1.2-2.1-2.6-2.1
		c-1.9,0-2.9,1.6-2.9,3.8c0,2,1,3.6,2.9,3.6c1.2,0,2.3-0.8,2.6-2.1c0.1-0.2,0.1-0.5,0.1-0.8V146.9z"/>
	<path class="st0" d="M52.6,150.4c0,0.9,0,1.7,0.2,2.4h-1.6l-0.1-1.2h-0.1c-0.5,0.8-1.6,1.5-3,1.5c-2,0-3-1.4-3-2.8
		c0-2.4,2.1-3.7,5.9-3.6v-0.2c0-0.8-0.2-2.3-2.2-2.3c-0.9,0-1.9,0.3-2.6,0.7l-0.4-1.2c0.8-0.5,2-0.9,3.2-0.9c3,0,3.7,2,3.7,4V150.4z
		 M50.9,147.8c-1.9,0-4.2,0.3-4.2,2.2c0,1.2,0.8,1.7,1.7,1.7c1.3,0,2.1-0.8,2.4-1.7c0.1-0.2,0.1-0.4,0.1-0.6V147.8z"/>
	<path class="st0" d="M62.5,152.4c-0.5,0.2-1.5,0.6-2.8,0.6c-3,0-4.9-2-4.9-5c0-3,2.1-5.2,5.3-5.2c1.1,0,2,0.3,2.5,0.5l-0.4,1.4
		c-0.4-0.3-1.1-0.5-2.1-0.5c-2.2,0-3.5,1.7-3.5,3.7c0,2.3,1.5,3.7,3.4,3.7c1,0,1.7-0.3,2.2-0.5L62.5,152.4z"/>
	<path class="st0" d="M66.6,140.2c0,0.6-0.4,1.1-1.1,1.1c-0.6,0-1.1-0.5-1.1-1.1c0-0.6,0.5-1.1,1.1-1.1
		C66.2,139.1,66.6,139.6,66.6,140.2 M64.6,142.9h1.8v9.8h-1.8V142.9z"/>
	<path class="st0" d="M78.2,147.8c0,3.6-2.5,5.2-4.9,5.2c-2.7,0-4.7-2-4.7-5.1c0-3.3,2.1-5.2,4.9-5.2
		C76.3,142.7,78.2,144.8,78.2,147.8 M70.4,147.9c0,2.2,1.2,3.8,3,3.8c1.7,0,3-1.6,3-3.8c0-1.7-0.8-3.8-2.9-3.8
		C71.4,144.1,70.4,146,70.4,147.9 M76.1,138.7l-2.5,2.9h-1.3l1.8-2.9H76.1z"/>
	<path class="st0" d="M80.5,145.6c0-1,0-1.8-0.1-2.7H82l0.1,1.6h0c0.5-0.9,1.6-1.8,3.3-1.8c1.4,0,3.5,0.8,3.5,4.2v5.9h-1.8v-5.7
		c0-1.6-0.6-2.9-2.3-2.9c-1.2,0-2.1,0.8-2.4,1.8c-0.1,0.2-0.1,0.5-0.1,0.8v5.9h-1.8V145.6z"/>
	<path class="st0" d="M98.3,148.5l-1.4,4.3h-1.8l4.7-13.7h2.1l4.7,13.7h-1.9l-1.5-4.3H98.3z M102.8,147.1l-1.3-3.9
		c-0.3-0.9-0.5-1.7-0.7-2.5h0c-0.2,0.8-0.4,1.6-0.7,2.5l-1.3,4H102.8z"/>
	<rect x="108.4" y="138.4" class="st0" width="1.8" height="14.4"/>
	<path class="st0" d="M114.2,148.2c0,2.4,1.6,3.4,3.4,3.4c1.3,0,2-0.2,2.7-0.5l0.3,1.3c-0.6,0.3-1.7,0.6-3.3,0.6c-3,0-4.8-2-4.8-5
		c0-3,1.7-5.3,4.6-5.3c3.2,0,4.1,2.8,4.1,4.6c0,0.4,0,0.7-0.1,0.8H114.2z M119.5,146.9c0-1.1-0.5-2.9-2.5-2.9
		c-1.8,0-2.6,1.7-2.7,2.9H119.5z"/>
	<path class="st0" d="M123.4,145.6c0-1,0-1.8-0.1-2.7h1.6l0.1,1.6h0.1c0.5-0.9,1.4-1.8,3.1-1.8c1.3,0,2.4,0.8,2.8,2h0
		c0.3-0.6,0.7-1,1.1-1.3c0.6-0.4,1.2-0.7,2.2-0.7c1.3,0,3.2,0.8,3.2,4.3v5.8h-1.7v-5.6c0-1.9-0.7-3-2.1-3c-1,0-1.8,0.8-2.1,1.6
		c-0.1,0.2-0.1,0.6-0.1,0.9v6.1h-1.8v-5.9c0-1.6-0.7-2.7-2.1-2.7c-1.1,0-1.9,0.9-2.2,1.8c-0.1,0.3-0.1,0.6-0.1,0.9v5.9h-1.7V145.6z"
		/>
	<path class="st0" d="M147.2,150.4c0,0.9,0,1.7,0.2,2.4h-1.6l-0.1-1.2h-0.1c-0.5,0.8-1.6,1.5-3,1.5c-2,0-3-1.4-3-2.8
		c0-2.4,2.1-3.7,5.9-3.6v-0.2c0-0.8-0.2-2.3-2.2-2.3c-0.9,0-1.9,0.3-2.6,0.7l-0.4-1.2c0.8-0.5,2-0.9,3.2-0.9c3,0,3.7,2,3.7,4V150.4z
		 M145.5,147.8c-1.9,0-4.2,0.3-4.2,2.2c0,1.2,0.8,1.7,1.7,1.7c1.3,0,2.1-0.8,2.4-1.7c0.1-0.2,0.1-0.4,0.1-0.6V147.8z"/>
	<path class="st0" d="M150.1,145.6c0-1,0-1.8-0.1-2.7h1.6l0.1,1.6h0c0.5-0.9,1.6-1.8,3.2-1.8c1.4,0,3.5,0.8,3.5,4.2v5.9h-1.8v-5.7
		c0-1.6-0.6-2.9-2.3-2.9c-1.2,0-2.1,0.8-2.4,1.8c-0.1,0.2-0.1,0.5-0.1,0.8v5.9h-1.8V145.6z"/>
	<path class="st0" d="M168.3,150.4c0,0.9,0,1.7,0.2,2.4h-1.6l-0.1-1.2h-0.1c-0.5,0.8-1.6,1.5-3,1.5c-2,0-3-1.4-3-2.8
		c0-2.4,2.1-3.7,5.9-3.6v-0.2c0-0.8-0.2-2.3-2.2-2.3c-0.9,0-1.9,0.3-2.6,0.7l-0.4-1.2c0.8-0.5,2-0.9,3.2-0.9c3,0,3.7,2,3.7,4V150.4z
		 M166.6,147.8c-2,0-4.2,0.3-4.2,2.2c0,1.2,0.8,1.7,1.7,1.7c1.3,0,2.1-0.8,2.4-1.7c0.1-0.2,0.1-0.4,0.1-0.6V147.8z"/>
	<path class="st0" d="M175.3,150.6c0.8,0.5,2,0.9,3.2,0.9c1.8,0,2.9-0.9,2.9-2.3c0-1.3-0.7-2-2.6-2.7c-2.2-0.8-3.6-1.9-3.6-3.9
		c0-2.1,1.8-3.7,4.4-3.7c1.4,0,2.4,0.3,3,0.7l-0.5,1.4c-0.4-0.2-1.4-0.6-2.6-0.6c-1.9,0-2.6,1.1-2.6,2c0,1.3,0.8,1.9,2.7,2.6
		c2.3,0.9,3.5,2,3.5,4c0,2.1-1.6,4-4.8,4c-1.3,0-2.8-0.4-3.5-0.9L175.3,150.6z"/>
	<path class="st0" d="M186.6,148.2c0,2.4,1.6,3.4,3.4,3.4c1.3,0,2.1-0.2,2.7-0.5l0.3,1.3c-0.6,0.3-1.7,0.6-3.3,0.6c-3,0-4.8-2-4.8-5
		c0-3,1.8-5.3,4.6-5.3c3.2,0,4.1,2.8,4.1,4.6c0,0.4,0,0.7,0,0.8H186.6z M191.8,146.9c0-1.1-0.5-2.9-2.5-2.9c-1.8,0-2.6,1.7-2.8,2.9
		H191.8z"/>
	<path class="st0" d="M195.8,146c0-1.2,0-2.2-0.1-3.1h1.6l0.1,1.9h0.1c0.4-1.3,1.5-2.1,2.7-2.1c0.2,0,0.3,0,0.5,0.1v1.7
		c-0.2,0-0.4-0.1-0.6-0.1c-1.3,0-2.2,0.9-2.4,2.3c0,0.2-0.1,0.5-0.1,0.8v5.2h-1.8V146z"/>
	<path class="st0" d="M203.6,143l1.9,5.5c0.3,0.9,0.6,1.7,0.8,2.5h0.1c0.2-0.8,0.5-1.6,0.8-2.5l1.9-5.5h1.9l-3.9,9.8h-1.7l-3.7-9.8
		H203.6z"/>
	<path class="st0" d="M214.7,140.2c0,0.6-0.4,1.1-1.1,1.1c-0.6,0-1.1-0.5-1.1-1.1c0-0.6,0.5-1.1,1.1-1.1
		C214.2,139.1,214.7,139.6,214.7,140.2 M212.7,142.9h1.8v9.8h-1.8V142.9z"/>
	<path class="st0" d="M224.4,152.4c-0.5,0.2-1.5,0.6-2.8,0.6c-3,0-4.9-2-4.9-5c0-3,2.1-5.2,5.3-5.2c1.1,0,2,0.3,2.5,0.5l-0.4,1.4
		c-0.4-0.3-1.1-0.5-2.1-0.5c-2.3,0-3.5,1.7-3.5,3.7c0,2.3,1.5,3.7,3.4,3.7c1,0,1.7-0.3,2.2-0.5L224.4,152.4z"/>
	<path class="st0" d="M228.5,140.2c0,0.6-0.4,1.1-1.1,1.1c-0.6,0-1.1-0.5-1.1-1.1c0-0.6,0.5-1.1,1.1-1.1
		C228.1,139.1,228.5,139.6,228.5,140.2 M226.5,142.9h1.8v9.8h-1.8V142.9z"/>
	<path class="st0" d="M240.2,147.8c0,3.6-2.5,5.2-4.9,5.2c-2.7,0-4.7-2-4.7-5.1c0-3.3,2.2-5.2,4.9-5.2
		C238.3,142.7,240.2,144.8,240.2,147.8 M232.4,147.9c0,2.2,1.2,3.8,3,3.8c1.7,0,3-1.6,3-3.8c0-1.7-0.8-3.8-2.9-3.8
		C233.3,144.1,232.4,146,232.4,147.9"/>
	<path class="st0" d="M242.2,151c0.5,0.3,1.5,0.7,2.4,0.7c1.3,0,1.9-0.7,1.9-1.5c0-0.9-0.5-1.3-1.8-1.8c-1.8-0.6-2.6-1.6-2.6-2.8
		c0-1.6,1.3-2.9,3.4-2.9c1,0,1.9,0.3,2.4,0.6l-0.4,1.3c-0.4-0.3-1.1-0.6-2-0.6c-1.1,0-1.6,0.6-1.6,1.3c0,0.8,0.6,1.2,1.9,1.7
		c1.7,0.7,2.6,1.5,2.6,3c0,1.7-1.3,3-3.7,3c-1.1,0-2.1-0.3-2.8-0.7L242.2,151z"/>
	<path class="st1" d="M233.1,128h-58.8c-1,0-2-0.1-3.1-0.2c-1-0.2-2-0.4-3-0.7c-1-0.4-1.8-0.9-2.6-1.4c-0.8-0.5-1.5-1.1-2.1-1.7
		c-0.6-0.7-1.2-1.4-1.7-2.2c-0.5-0.9-1-1.7-1.4-2.6c-0.3-1-0.6-2-0.8-3c-0.2-1-0.3-2.1-0.3-3.1v-3.7h70.1v-8.4h-70.1V70.9
		c0-2.2,0.3-4.3,0.9-6c0.4-1,0.9-1.9,1.4-2.7c0.6-0.8,1.1-1.6,1.7-2.2c0.6-0.6,1.4-1.3,2.2-1.8c0.8-0.6,1.7-1,2.5-1.3
		c1-0.4,2-0.7,3-0.9c1.1-0.2,2.1-0.3,3.1-0.3h59c1.1,0,2.2,0.1,3.2,0.2c1,0.2,2,0.4,2.9,0.8c0.9,0.3,1.7,0.8,2.6,1.4
		c0.8,0.6,1.5,1.2,2.1,1.9c0.6,0.6,1.2,1.4,1.8,2.1c0.5,0.8,1,1.7,1.3,2.7c0.7,1.9,1.1,4,1.1,6.1v3.5h-70.3v8.4h70.3v30.3
		c0,2.2-0.4,4.2-1.1,6c-0.3,0.9-0.8,1.7-1.3,2.5c-0.6,0.8-1.2,1.5-1.8,2.2c-0.6,0.6-1.4,1.2-2.1,1.7c-0.8,0.5-1.7,1-2.6,1.4
		c-0.9,0.3-1.8,0.5-2.8,0.7C235.3,127.9,234.2,128,233.1,128 M203.7,14.3c1.1,0,2.1,0.1,3.1,0.3c1,0.2,1.9,0.5,2.8,0.9
		c0.9,0.3,1.7,0.8,2.5,1.3c0.8,0.6,1.6,1.2,2.2,1.9c0.6,0.7,1.2,1.5,1.8,2.3c0.6,0.8,1.1,1.7,1.4,2.7c0.4,0.9,0.7,1.8,0.9,2.8
		c0.2,1,0.3,2,0.3,3.1c0,1-0.1,2-0.3,3c-0.2,1-0.5,2-0.9,2.9c-0.3,1-0.8,1.9-1.4,2.7c-0.6,0.8-1.2,1.6-1.8,2.3
		c-0.7,0.6-1.4,1.2-2.2,1.8c-0.8,0.6-1.7,1.1-2.5,1.5c-0.9,0.3-1.8,0.6-2.8,0.8c-1,0.2-2,0.4-3.1,0.4c-1,0-2-0.1-3-0.4
		c-1-0.2-2-0.5-2.8-0.8c-0.9-0.4-1.7-0.9-2.6-1.5c-0.8-0.6-1.6-1.2-2.2-1.8c-0.7-0.7-1.3-1.5-1.9-2.3c-0.5-0.8-1-1.6-1.4-2.5
		c-0.3-1-0.6-2-0.8-3c-0.2-1.1-0.4-2.1-0.4-3c0-1,0.1-2,0.4-3.1c0.2-1,0.5-1.9,0.8-2.8c0.4-1,0.9-1.8,1.4-2.7
		c0.6-0.8,1.2-1.5,1.8-2.2c0.7-0.7,1.5-1.4,2.3-2c0.8-0.6,1.7-1,2.6-1.4c0.9-0.4,1.8-0.7,2.8-0.9C201.7,14.3,202.7,14.3,203.7,14.3"
		/>
	<path class="st1" d="M2.7,69.1c0,0,0.6-12.4,12.4-13.3c12.7-0.1,55.8,0,55.8,0s13.7,0.8,12.4,18.7l-63.7,0l-0.1,8.5L57.7,83
		c0.2,7.8,0.2,7.5,0.1,17.9c-1.4,0-38.2,0-38.2,0v27.3l-4.4-0.1c-12-0.5-12.6-14-12.6-14L2.7,69.1z"/>
	<path class="st1" d="M158.2,128h-20.4l-9.3-18.8H94.4L85,128H64.5l33.1-66.2c1.6-2.7,2.5-4.1,5.5-5.3c3.7-0.9,13.1-0.9,16.6,0
		c2,0.6,4.1,2.3,5.6,5.4L158.2,128z M124.4,100.8L111.5,75l-12.8,25.8H124.4z"/>
</g>
</svg>
