<?xml version="1.0" encoding="utf-8"?>
<!-- Generator: Adobe Illustrator 22.1.0, SVG Export Plug-In . SVG Version: 6.00 Build 0)  -->
<svg version="1.1" id="Capa_1" xmlns="http://www.w3.org/2000/svg" xmlns:xlink="http://www.w3.org/1999/xlink" x="0px" y="0px"
	 viewBox="0 0 250 166" style="enable-background:new 0 0 250 166;" xml:space="preserve">
<style type="text/css">
	.st0{fill:#6DA0D0;}
</style>
<g>
	<g>
		<path d="M35.7,81.1h-2.2V63.4h2.2V81.1z"/>
		<path d="M54.5,81.6L41.6,68.2v12.9h-2.2V62.9l12.9,13.4V63.4h2.2V81.6z"/>
		<path d="M67.7,76.4c0,1.6-0.5,2.8-1.5,3.7c-1,0.9-2.3,1.4-4,1.4c-1.2,0-2.2-0.3-3.1-0.8c-0.9-0.5-1.5-1.3-1.9-2.2l1.5-1.4
			c0.3,0.7,0.7,1.3,1.4,1.7c0.6,0.4,1.4,0.6,2.2,0.6c1,0,1.8-0.3,2.4-0.8c0.6-0.5,0.8-1.2,0.8-2.2c0-0.8-0.3-1.4-0.8-2
			c-0.6-0.6-1.5-1.2-2.8-1.9c-1.5-0.8-2.6-1.5-3.2-2.3c-0.6-0.7-0.9-1.7-0.9-2.8c0-1.3,0.5-2.4,1.4-3.2c0.9-0.8,2.1-1.2,3.6-1.2
			c0.9,0,1.7,0.2,2.4,0.5c0.7,0.4,1.3,0.9,1.7,1.6l-1.5,1.4c-0.3-0.5-0.6-0.8-1.1-1.1c-0.5-0.3-1-0.4-1.6-0.4c-0.8,0-1.5,0.2-2,0.6
			c-0.5,0.4-0.7,1-0.7,1.7c0,0.6,0.2,1.2,0.6,1.7c0.4,0.5,1.2,1,2.3,1.6c2,1.1,3.3,2,4,2.8C67.4,74.3,67.7,75.3,67.7,76.4z"/>
		<path d="M79,65.4h-4v15.7h-2.2V65.4h-4v-2H79V65.4z"/>
		<path d="M83,81.1h-2.2V63.4H83V81.1z"/>
		<path d="M95,65.4h-4v15.7h-2.2V65.4h-4v-2H95V65.4z"/>
		<path d="M109.6,74.4c0,2.4-0.5,4.1-1.5,5.3c-1,1.2-2.6,1.7-4.7,1.7c-2.1,0-3.6-0.6-4.7-1.8c-1-1.2-1.6-2.9-1.6-5.3v-11h2.2v11.5
			c0,1.5,0.3,2.6,1,3.4c0.7,0.7,1.7,1.1,3,1.1c1.4,0,2.4-0.4,3-1.1c0.7-0.7,1-1.9,1-3.4V63.4h2.2V74.4z"/>
		<path d="M122.1,65.4h-4v15.7h-2.2V65.4h-4v-2h10.2V65.4z"/>
		<path d="M140.2,72.2c0,2.6-0.9,4.8-2.6,6.5c-1.7,1.8-3.9,2.7-6.4,2.7c-2.5,0-4.6-0.9-6.4-2.7c-1.8-1.8-2.6-4-2.6-6.5
			c0-2.6,0.9-4.8,2.6-6.6c1.7-1.8,3.9-2.7,6.4-2.7c2.5,0,4.7,0.9,6.4,2.7C139.3,67.5,140.2,69.6,140.2,72.2z M138,72.2
			c0-2-0.7-3.7-2-5.1c-1.3-1.4-2.9-2.1-4.8-2.1c-2.1,0-3.7,0.7-4.9,2.1c-1.2,1.4-1.8,3.1-1.8,5.1c0,2,0.6,3.7,1.9,5.1
			c1.3,1.4,2.9,2.1,4.8,2.1c1.9,0,3.5-0.7,4.8-2.1C137.3,75.9,138,74.2,138,72.2z"/>
		<path d="M163.3,72.3c0,2.9-0.8,5.1-2.5,6.6c-1.7,1.5-4.1,2.2-7.3,2.2H150V63.4h3.5c3.1,0,5.5,0.8,7.2,2.3
			C162.4,67.2,163.3,69.4,163.3,72.3z M161.1,72.2c0-2.2-0.6-3.9-1.9-5c-1.2-1.2-3.1-1.7-5.4-1.7h-1.5V79h1.4c2.5,0,4.4-0.6,5.6-1.7
			C160.5,76.2,161.1,74.5,161.1,72.2z"/>
		<path d="M175.4,81.1h-9.3V63.4h9.3v2.1h-7.1v5.2h7.1v2.1h-7.1V79h7.1V81.1z"/>
	</g>
	<g>
		<path d="M19,104.5h-2.2l-1.7-11.5l-5.6,12l-5.6-12l-1.7,11.5H0l3-18.2l6.6,14l6.6-14L19,104.5z"/>
		<path d="M22.7,104.5h-2.2V86.8h2.2V104.5z"/>
		<path d="M38.6,103.4c-0.7,0.4-1.5,0.8-2.4,1.1c-0.9,0.3-1.8,0.4-2.6,0.4c-2.7,0-4.8-0.9-6.4-2.6s-2.4-3.9-2.4-6.7
			c0-2.7,0.8-4.8,2.5-6.6c1.7-1.7,3.8-2.6,6.4-2.6c1,0,1.9,0.1,2.8,0.4c0.8,0.2,1.6,0.6,2.3,1.1v2.5c-0.8-0.6-1.5-1.1-2.3-1.4
			c-0.8-0.3-1.6-0.5-2.4-0.5c-2.1,0-3.7,0.7-5,2c-1.3,1.3-1.9,3-1.9,5.1c0,2.1,0.6,3.8,1.9,5.2c1.2,1.3,2.8,2,4.8,2
			c0.9,0,1.8-0.2,2.7-0.5c0.8-0.3,1.6-0.8,2.4-1.4V103.4z"/>
		<path d="M51,104.5h-2.7l-5.2-8.2h-0.6v8.2h-2.2V86.8h4c1.9,0,3.3,0.4,4.3,1.2c1,0.8,1.5,2,1.5,3.5c0,1.4-0.4,2.5-1.2,3.3
			c-0.8,0.8-1.9,1.2-3.4,1.3L51,104.5z M47.9,91.7c0-1-0.3-1.7-0.9-2.2c-0.6-0.5-1.6-0.7-3-0.7h-1.5v5.5H44c1.4,0,2.3-0.2,3-0.6
			C47.6,93.4,47.9,92.7,47.9,91.7z"/>
		<path d="M69.1,95.7c0,2.6-0.9,4.8-2.6,6.5c-1.7,1.8-3.9,2.7-6.4,2.7c-2.5,0-4.6-0.9-6.4-2.7c-1.8-1.8-2.6-4-2.6-6.5
			c0-2.6,0.9-4.8,2.6-6.6c1.7-1.8,3.9-2.7,6.4-2.7c2.5,0,4.7,0.9,6.4,2.7C68.2,90.9,69.1,93.1,69.1,95.7z M66.9,95.7
			c0-2-0.7-3.7-2-5.1c-1.3-1.4-2.9-2.1-4.8-2.1c-2.1,0-3.7,0.7-4.9,2.1c-1.2,1.4-1.8,3.1-1.8,5.1c0,2,0.6,3.7,1.9,5.1
			c1.3,1.4,2.9,2.1,4.8,2.1c1.9,0,3.5-0.7,4.8-2.1C66.2,99.4,66.9,97.7,66.9,95.7z"/>
		<path d="M79.1,96.1h-5.9v8.4H71V86.8h8.1v2.1h-5.9v5.2h5.9V96.1z"/>
		<path d="M83.6,104.5h-2.2V86.8h2.2V104.5z"/>
		<path d="M101.5,105L88.5,91.6v12.9h-2.2V86.3l12.9,13.4V86.8h2.2V105z"/>
		<path d="M118.9,104.5h-2.4l-2.3-5.1h-7.3l-2.2,5.1h-2.4l8.4-18.2L118.9,104.5z M113.4,97.5l-2.8-6.4l-2.8,6.4H113.4z"/>
		<path d="M134.9,105L122,91.6v12.9h-2.2V86.3l12.9,13.4V86.8h2.2V105z"/>
		<path d="M148.6,86.8l-9.1,15.6h8.6v2.1h-12.2l9.2-15.6h-8.1v-2.1H148.6z"/>
		<path d="M165.1,104.5h-2.4l-2.3-5.1h-7.3l-2.2,5.1h-2.4l8.4-18.2L165.1,104.5z M159.6,97.5l-2.8-6.4l-2.8,6.4H159.6z"/>
		<path d="M175.4,99.8c0,1.6-0.5,2.8-1.5,3.7c-1,0.9-2.3,1.4-4,1.4c-1.2,0-2.2-0.3-3.1-0.8c-0.9-0.5-1.5-1.3-1.9-2.2l1.5-1.4
			c0.3,0.7,0.7,1.3,1.4,1.7c0.6,0.4,1.4,0.6,2.2,0.6c1,0,1.8-0.3,2.4-0.8c0.6-0.5,0.8-1.2,0.8-2.2c0-0.8-0.3-1.4-0.8-2
			c-0.6-0.6-1.5-1.2-2.8-1.9c-1.5-0.8-2.6-1.5-3.2-2.3c-0.6-0.7-0.9-1.7-0.9-2.8c0-1.3,0.4-2.4,1.4-3.2c0.9-0.8,2.1-1.2,3.6-1.2
			c0.9,0,1.7,0.2,2.4,0.5c0.7,0.4,1.3,0.9,1.7,1.6l-1.5,1.4c-0.3-0.5-0.6-0.8-1.1-1.1c-0.5-0.3-1-0.4-1.6-0.4c-0.8,0-1.5,0.2-2,0.6
			c-0.5,0.4-0.7,1-0.7,1.7c0,0.6,0.2,1.2,0.6,1.7c0.4,0.5,1.2,1,2.3,1.6c2,1.1,3.3,2,4,2.8C175.1,97.7,175.4,98.7,175.4,99.8z"/>
	</g>
	<path class="st0" d="M222.7,55.7c-15.1,0-27.3,12.2-27.3,27.3s12.2,27.3,27.3,27.3c15.1,0,27.3-12.2,27.3-27.3
		S237.8,55.7,222.7,55.7z M243.1,79.6h-16.9V62.7C234.8,64.1,241.6,70.9,243.1,79.6z M219.3,62.7v16.9h-16.9
		C203.9,70.9,210.7,64.1,219.3,62.7z M202.4,86.4h16.9v16.9C210.7,101.9,203.9,95.1,202.4,86.4z M226.1,103.3V86.4h16.9
		C241.6,95.1,234.8,101.9,226.1,103.3z"/>
</g>
</svg>
