<?xml version="1.0" encoding="utf-8"?>
<!-- Generator: Adobe Illustrator 22.1.0, SVG Export Plug-In . SVG Version: 6.00 Build 0)  -->
<svg version="1.1" id="Capa_1" xmlns="http://www.w3.org/2000/svg" xmlns:xlink="http://www.w3.org/1999/xlink" x="0px" y="0px"
	 viewBox="0 0 250 166" style="enable-background:new 0 0 250 166;" xml:space="preserve">
<style type="text/css">
	.st0{fill:#BABABA;}
	.st1{fill:#CA4F2A;}
	.st2{fill:#858584;}
</style>
<g>
	<path class="st0" d="M49.5,23.9l12,82.6c0,0,0.3-39.5,14.2-41.6c0,0,9.6-2.7,22.6,20.4c0,0,6.8-57.1,23.8-58.6
		c0,0,12-2.9,24.5,36.1l-8.2-52L49.5,23.9z"/>
	<path class="st0" d="M66.9,142.2c0,0-5.8-55.6,10.9-61.2c0,0,9.2-2.4,25.5,30.6l1.4-0.9c0,0-0.5-59.3,19.7-66.3
		c0,0,9.7-2.2,24.3,39.7l6.5,43.9L66.9,142.2z"/>
	<g>
		<path class="st1" d="M158.4,68c2.3,0.9,5.4,1,9.2,0.4c3.9-0.6,6.8-1.7,8.7-3.3c1.9-1.6,2.6-3.5,2.3-5.8c-0.3-2.2-1.7-3.8-4-4.7
			c-2.3-0.9-5.4-1.1-9.2-0.5c-3.9,0.6-6.8,1.7-8.7,3.3c-1.9,1.6-2.7,3.6-2.3,5.8C154.7,65.6,156.1,67.2,158.4,68z"/>
		<path class="st1" d="M176.3,4.8l-35.4,6l18.5,117.4l35.1-5.6L176.3,4.8z M146.8,36.2l17.2-14.9l-0.1-0.2l-19,3l-1-6.4l30.8-4.8
			l0.9,5.6l-17.3,14.9l0,0.2l19.2-3l1,6.4l-30.8,4.8L146.8,36.2z M153.4,52.6c2.5-3.1,6.1-5,10.8-5.7c5-0.8,9,0,12.3,2.3
			c3.2,2.3,5.2,5.5,5.8,9.7c0.7,4.3-0.2,7.9-2.6,11.1c-2.4,3.1-6,5.1-11,5.8c-4.6,0.7-8.6,0.1-12-2c-3.3-2.1-5.4-5.4-6.1-9.9
			C150,59.4,150.9,55.7,153.4,52.6z M154.5,85.5l30.8-4.8l1.1,6.9l-30.8,4.8L154.5,85.5z M185.3,112.9c0.8-2.2,1-4.3,0.7-6.3
			c-0.2-1.4-0.7-2.6-1.5-3.6c-0.7-0.9-1.5-1.3-2.3-1.2c-0.7,0.1-1.5,0.5-2.4,1.3c-0.9,0.7-2.5,2.6-4.8,5.5c-2.3,3-4.1,4.9-5.4,5.9
			c-1.3,1-2.4,1.6-3.5,1.7c-2.1,0.3-3.9-0.4-5.6-2.3c-1.6-1.9-2.7-4.4-3.2-7.6c-0.3-1.8-0.3-3.8-0.1-5.9l3.7-0.6
			c-0.3,2-0.4,3.7-0.2,5c0.5,3.5,1.8,5.1,3.7,4.8c0.7-0.1,1.5-0.5,2.5-1.3c0.9-0.7,2.5-2.6,4.8-5.6c2.3-3,4.1-4.9,5.4-5.9
			c1.3-1,2.5-1.5,3.6-1.7c2.1-0.3,4,0.4,5.6,2.3c1.6,1.9,2.7,4.4,3.2,7.7c0.4,2.4,0.3,4.7-0.1,7L185.3,112.9z"/>
	</g>
	<g>
		
			<rect x="63.4" y="134.9" transform="matrix(0.9877 -0.1563 0.1563 0.9877 -19.5619 22.3486)" class="st2" width="137.9" height="1.3"/>
	</g>
	<path class="st0" d="M74.8,147.1c0,0.1-0.1,0.2-0.2,0.4c0,0.1-0.1,0.2-0.1,0.4c0,0,0,0-0.1,0c0,0-0.1,0-0.4-0.1
		c-0.3-0.1-0.5-0.1-0.7,0c-0.5,0.1-0.7,0.3-0.6,0.8c0,0.2,0.2,0.4,0.6,0.6c0.6,0.2,1,0.3,1.1,0.4c0.4,0.2,0.6,0.6,0.7,1
		c0.1,0.6-0.1,1.1-0.5,1.6c-0.4,0.4-0.9,0.6-1.5,0.7c-0.3,0-0.5,0-0.5,0c0-0.1-0.1-0.2-0.1-0.4c0-0.1-0.1-0.2-0.2-0.4c0,0,0,0,0-0.1
		c0,0,0-0.1,0.1-0.1c0.1,0,0.2,0,0.3,0c0.1,0,0.2,0,0.3,0c0.8-0.1,1.2-0.5,1.1-1c0-0.3-0.3-0.5-0.6-0.6c-0.7-0.3-1-0.4-1-0.4
		c-0.4-0.2-0.6-0.6-0.7-1c-0.1-0.5,0-0.9,0.3-1.3c0.3-0.3,0.7-0.6,1.2-0.6c0.2,0,0.5,0,0.8,0C74.3,146.9,74.5,147,74.8,147.1
		C74.7,147.1,74.7,147.1,74.8,147.1z"/>
	<path class="st0" d="M79.3,149.6c0,0.2,0,0.3-0.2,0.4c-0.1,0.1-0.9,0.3-2.5,0.6c0.1,0.2,0.2,0.4,0.5,0.5c0.2,0.1,0.5,0.2,0.7,0.1
		c0.4-0.1,0.8-0.3,1.1-0.6c0,0,0.1-0.1,0.1-0.1c0,0,0,0,0,0c0,0,0.1,0.1,0.2,0.3c0.1,0.2,0.2,0.3,0.2,0.3c0,0,0,0.1-0.1,0.1
		c-0.3,0.5-0.8,0.8-1.4,0.9c-0.6,0.1-1.2,0-1.6-0.3c-0.4-0.3-0.7-0.8-0.8-1.4c-0.1-0.6,0-1.1,0.3-1.6c0.3-0.5,0.7-0.8,1.3-0.9
		c0.5-0.1,1,0,1.4,0.4C79,148.6,79.3,149,79.3,149.6z M78.3,149.5c0-0.2-0.2-0.4-0.4-0.6c-0.2-0.1-0.4-0.2-0.6-0.2
		c-0.3,0-0.5,0.2-0.6,0.4c-0.2,0.2-0.2,0.5-0.2,0.7c0,0.1,0.1,0.1,0.2,0.1c0.4-0.1,0.9-0.2,1.4-0.4
		C78.3,149.5,78.3,149.5,78.3,149.5z"/>
	<path class="st0" d="M82,147.5c0,0.3,0.1,0.6,0.1,0.8c0,0.1,0,0.1-0.1,0.1c-0.1,0-0.1,0-0.3,0c-0.1,0-0.2,0-0.3,0
		c-0.3,0.1-0.5,0.2-0.6,0.4c0,0.1,0,0.4,0,0.7l0.1,0.4c0,0.2,0.1,0.4,0.1,0.7c0.1,0.3,0.1,0.5,0.1,0.7c0,0.1,0,0.1-0.1,0.1
		c-0.1,0-0.2,0-0.4,0.1c-0.2,0-0.3,0-0.4,0.1c-0.1,0-0.1,0-0.1-0.1c0-0.2-0.1-0.6-0.2-1c-0.1-0.4-0.1-0.8-0.2-1
		c-0.1-0.7-0.3-1.2-0.4-1.6c0,0,0,0,0,0c0,0,0-0.1,0-0.1c0.1,0,0.2-0.1,0.4-0.1c0.3-0.1,0.4-0.2,0.4-0.1c0,0,0.1,0.1,0.1,0.2
		c0,0.2,0.1,0.2,0.1,0.2c0,0,0,0,0,0c0.1-0.1,0.2-0.2,0.3-0.3c0.1-0.1,0.2-0.2,0.3-0.2c0.1,0,0.2-0.1,0.4-0.1
		C81.9,147.4,82,147.4,82,147.5z"/>
	<path class="st0" d="M86.1,147.9c0.1,0.4,0.1,0.6,0.1,0.7c0,0.1-0.2,0.5-0.5,1.2c-0.3,0.7-0.5,1-0.6,1.1c0,0-0.1,0-0.3,0.1
		c-0.2,0-0.3,0-0.4,0c-0.1,0-0.4-0.3-0.9-0.8c-0.5-0.5-0.8-0.8-0.9-0.9c-0.1-0.2-0.2-0.4-0.2-0.8c0-0.1,0-0.3-0.1-0.5
		c0-0.2-0.1-0.4-0.1-0.5c0-0.1,0-0.1,0.1-0.1c0.1,0,0.2,0,0.4-0.1c0.2,0,0.3,0,0.4-0.1c0,0,0.1,0,0.1,0.1c0,0.1,0,0.2,0,0.4
		c0,0.2,0,0.3,0,0.4c0,0.3,0.1,0.5,0.2,0.7c0,0.1,0.2,0.3,0.5,0.7c0.3,0.4,0.5,0.5,0.6,0.5c0.1,0,0.2-0.2,0.3-0.7
		c0.2-0.4,0.3-0.7,0.3-0.8c0-0.1,0-0.4-0.1-0.7c0-0.1,0-0.2-0.1-0.4c0-0.2-0.1-0.3-0.1-0.4c0,0,0-0.1,0.1-0.1c0.1,0,0.2,0,0.4-0.1
		c0.2,0,0.3-0.1,0.4-0.1C85.9,146.8,86,147.2,86.1,147.9z"/>
	<path class="st0" d="M87.5,145.5c0.1,0.3-0.1,0.5-0.5,0.6c-0.4,0.1-0.6-0.1-0.6-0.4c0-0.1,0-0.3,0.1-0.4c0.1-0.1,0.2-0.2,0.4-0.2
		c0.2,0,0.3,0,0.4,0.1C87.4,145.2,87.5,145.3,87.5,145.5z M87.7,146.6c0,0.2,0.1,0.5,0.1,1c0,0.4,0.1,0.7,0.1,1
		c0,0.2,0.1,0.5,0.2,0.9c0.1,0.4,0.1,0.7,0.2,0.9c0,0.1,0,0.1-0.1,0.1l-0.8,0.1c-0.1,0-0.1,0-0.1-0.2c0-0.2-0.1-0.5-0.1-0.8
		c-0.1-0.4-0.1-0.7-0.1-0.9c0-0.2-0.1-0.5-0.2-0.9c-0.1-0.4-0.2-0.7-0.2-0.9c0,0,0-0.1,0.1-0.1c0,0,0.1,0,0.2,0c0.1,0,0.2,0,0.2,0
		c0.1,0,0.1,0,0.2-0.1C87.5,146.6,87.6,146.5,87.7,146.6C87.7,146.5,87.7,146.5,87.7,146.6z"/>
	<path class="st0" d="M91.4,146.1c0,0.1,0,0.2,0,0.4c0,0.2-0.1,0.3-0.1,0.3c-0.1,0-0.3-0.1-0.4-0.1c-0.1,0-0.3,0-0.4,0
		c-0.3,0.1-0.6,0.2-0.8,0.5c-0.2,0.3-0.2,0.6-0.2,0.9c0.1,0.3,0.2,0.6,0.5,0.8c0.3,0.2,0.6,0.3,0.9,0.2c0.2,0,0.4-0.1,0.5-0.2
		c0.2-0.1,0.2-0.2,0.2-0.2c0,0,0.1,0.1,0.2,0.3c0.1,0.2,0.1,0.3,0.1,0.4c0,0.1-0.1,0.2-0.4,0.3c-0.3,0.1-0.4,0.2-0.6,0.2
		c-0.6,0.1-1.1,0-1.5-0.4c-0.4-0.3-0.7-0.8-0.8-1.4c-0.1-0.6,0-1.1,0.3-1.6c0.3-0.5,0.8-0.8,1.3-0.9
		C90.6,145.8,90.9,145.9,91.4,146.1C91.3,146,91.4,146.1,91.4,146.1z"/>
	<path class="st0" d="M92.7,144.6c0.1,0.3-0.1,0.5-0.5,0.6c-0.4,0.1-0.6-0.1-0.6-0.4c0-0.1,0-0.3,0.1-0.4c0.1-0.1,0.2-0.2,0.4-0.2
		c0.2,0,0.3,0,0.4,0.1C92.6,144.4,92.7,144.5,92.7,144.6z M92.9,145.8c0,0.2,0.1,0.5,0.1,1c0,0.4,0.1,0.7,0.1,1
		c0,0.2,0.1,0.5,0.2,0.9c0.1,0.4,0.1,0.7,0.2,0.9c0,0.1,0,0.1-0.1,0.1l-0.8,0.1c-0.1,0-0.1,0-0.1-0.2c0-0.2-0.1-0.5-0.1-0.8
		c-0.1-0.4-0.1-0.7-0.1-0.9c0-0.2-0.1-0.5-0.2-0.9c-0.1-0.4-0.2-0.7-0.2-0.9c0,0,0-0.1,0.1-0.1c0,0,0.1,0,0.2,0c0.1,0,0.2,0,0.2,0
		c0.1,0,0.1,0,0.2-0.1C92.7,145.7,92.8,145.7,92.9,145.8C92.9,145.7,92.9,145.7,92.9,145.8z"/>
	<path class="st0" d="M97.7,146.8c0.1,0.6,0,1.1-0.3,1.5c-0.3,0.5-0.8,0.8-1.3,0.9c-0.6,0.1-1.1,0-1.5-0.4c-0.4-0.3-0.7-0.8-0.8-1.4
		c-0.1-0.6,0-1.1,0.3-1.5c0.3-0.5,0.8-0.8,1.3-0.8c0.6-0.1,1.1,0,1.5,0.4C97.3,145.8,97.6,146.3,97.7,146.8z M96.8,147
		c-0.1-0.3-0.2-0.6-0.4-0.8c-0.3-0.2-0.5-0.3-0.9-0.2c-0.3,0.1-0.6,0.2-0.8,0.5c-0.2,0.3-0.2,0.6-0.2,0.9c0.1,0.3,0.2,0.6,0.4,0.8
		c0.3,0.2,0.5,0.3,0.9,0.2c0.3-0.1,0.6-0.2,0.7-0.5C96.8,147.6,96.9,147.3,96.8,147z"/>
	<path class="st0" d="M100.3,147.1c0.1,0.4,0,0.8-0.3,1.1c-0.3,0.3-0.6,0.4-1,0.5c-0.2,0-0.3,0-0.3,0c0,0-0.1-0.1-0.1-0.2
		c0-0.1,0-0.1-0.1-0.3c0-0.1-0.1-0.2-0.1-0.3c0,0,0-0.1,0.1-0.1c0,0,0.1,0,0.2,0c0.1,0,0.1,0,0.1,0c0.5-0.1,0.7-0.3,0.7-0.6
		c0-0.2-0.2-0.3-0.4-0.4c-0.4-0.1-0.6-0.2-0.7-0.3c-0.3-0.2-0.4-0.4-0.5-0.7c-0.1-0.4,0-0.8,0.3-1c0.2-0.2,0.6-0.4,1-0.5
		c0,0,0.1,0,0.1,0c0,0,0.1,0.1,0.2,0.3c0.1,0.2,0.1,0.3,0.1,0.3c0,0,0,0.1-0.1,0.1c-0.2,0.1-0.3,0.1-0.5,0.2
		c-0.2,0.1-0.3,0.2-0.3,0.4c0,0.1,0.1,0.2,0.4,0.3c0.4,0.1,0.6,0.2,0.7,0.3C100.1,146.6,100.2,146.8,100.3,147.1z"/>
	<path class="st0" d="M104.3,147.7c0,0.1,0,0.1-0.1,0.1c0,0-0.1,0-0.2,0c-0.1,0-0.2,0-0.2,0c-0.1,0-0.1,0-0.2,0c-0.1,0-0.2,0-0.2,0
		c-0.1,0-0.1,0-0.1-0.1c-0.1-0.3-0.1-0.8-0.2-1.4c-0.1-0.6-0.1-1.1-0.2-1.4c0-0.3-0.1-0.8-0.3-1.4c-0.1-0.6-0.2-1.1-0.3-1.4
		c0-0.1,0-0.1,0.1-0.1c0.1,0,0.1,0,0.2,0c0.1,0,0.2,0,0.2,0c0,0,0.1,0,0.2,0c0.1,0,0.2,0,0.2,0c0.1,0,0.1,0,0.1,0.1
		c0,0.3,0.1,0.8,0.2,1.4c0.1,0.6,0.1,1.1,0.2,1.4c0.1,0.3,0.1,0.8,0.3,1.4C104.2,146.9,104.2,147.4,104.3,147.7z"/>
	<path class="st0" d="M108.7,147c0,0.1,0,0.1-0.1,0.1c-0.1,0-0.2,0-0.4,0.1c-0.2,0-0.3,0-0.4,0.1c0,0-0.1,0-0.1-0.1
		c0-0.1-0.1-0.3-0.1-0.6c0-0.3-0.1-0.5-0.1-0.6c0-0.1,0-0.3-0.1-0.5c0-0.2-0.1-0.4-0.1-0.5c0-0.3-0.1-0.5-0.2-0.6
		c-0.1-0.1-0.3-0.2-0.6-0.1c-0.1,0-0.3,0.1-0.5,0.3c-0.2,0.2-0.3,0.4-0.3,0.5l0.4,2.4c0,0.1,0,0.1-0.1,0.1c-0.1,0-0.2,0-0.4,0.1
		c-0.2,0-0.3,0-0.4,0.1c-0.1,0-0.1,0-0.1-0.1c0-0.2-0.1-0.5-0.1-1c-0.1-0.4-0.1-0.8-0.1-1c-0.1-0.6-0.2-1.1-0.4-1.6c0,0,0,0,0-0.1
		c0,0,0,0,0-0.1c0,0,0.2-0.1,0.5-0.2c0.3-0.1,0.4-0.1,0.4-0.1c0,0,0,0,0,0.1c0,0.2,0.1,0.3,0.2,0.5c0.1-0.1,0.3-0.3,0.5-0.5
		c0.3-0.2,0.5-0.4,0.8-0.4c0.5-0.1,0.9,0,1.1,0.3c0.2,0.2,0.3,0.5,0.4,1c0,0.1,0,0.2,0.1,0.4c0,0.2,0,0.3,0.1,0.4
		c0,0.2,0.1,0.5,0.1,0.8C108.7,146.5,108.7,146.8,108.7,147z"/>
	<path class="st0" d="M111.7,145.8c0,0.1,0,0.1,0,0.2c0,0.1,0,0.2,0,0.3c0,0,0,0.1,0,0.1c0,0,0,0-0.1,0.1c-0.2,0.1-0.5,0.3-1,0.3
		c-0.6,0.1-1-0.1-1.1-0.7c0-0.2-0.1-0.6-0.2-1c-0.1-0.5-0.1-0.8-0.2-1c0-0.1-0.1-0.2-0.2-0.2c-0.1,0-0.2,0-0.3,0
		c-0.1,0-0.1-0.1-0.1-0.3c0-0.1,0-0.2,0-0.3c0-0.1,0-0.1,0.1-0.1c0.1,0,0.1,0,0.2,0c0.1,0,0.2-0.1,0.2-0.2c0-0.1,0-0.3-0.1-0.5
		c0-0.2-0.1-0.4-0.1-0.5c0-0.2,0-0.3,0.1-0.3c0,0,0.3,0,0.8,0c0.1,0,0.1,0,0.1,0.1c0,0.1,0,0.3,0.1,0.5c0,0.2,0,0.4,0.1,0.5
		c0,0.1,0.1,0.1,0.1,0.1l1-0.2c0,0,0.1,0,0.1,0c0,0,0,0.1,0,0.2c0,0.1,0,0.1,0,0.2c0,0,0,0.1,0,0.2c0,0.1,0,0.1,0,0.2
		c0,0.1,0,0.1-0.1,0.1c-0.1,0-0.3,0-0.5,0.1c-0.2,0-0.4,0-0.5,0.1c0,0,0,0.1,0,0.2c0,0.2,0.1,0.5,0.1,0.8l0.1,0.6
		c0,0.2,0.1,0.4,0.1,0.5c0.1,0.1,0.2,0.2,0.4,0.1c0.1,0,0.2-0.1,0.4-0.1C111.4,145.8,111.5,145.8,111.7,145.8
		C111.7,145.8,111.7,145.8,111.7,145.8z"/>
	<path class="st0" d="M115.5,143.7c0,0.2,0,0.3-0.2,0.4c-0.1,0.1-0.9,0.3-2.5,0.6c0.1,0.2,0.2,0.4,0.5,0.5c0.2,0.1,0.5,0.2,0.7,0.1
		c0.4-0.1,0.8-0.3,1.1-0.6c0,0,0.1-0.1,0.1-0.1c0,0,0,0,0,0c0,0,0.1,0.1,0.2,0.3c0.1,0.2,0.2,0.3,0.2,0.3c0,0,0,0.1-0.1,0.1
		c-0.3,0.5-0.8,0.8-1.4,0.9c-0.6,0.1-1.2,0-1.6-0.3c-0.4-0.3-0.7-0.8-0.8-1.4c-0.1-0.6,0-1.1,0.3-1.6c0.3-0.5,0.7-0.8,1.3-0.9
		c0.5-0.1,1,0,1.4,0.4C115.2,142.8,115.4,143.2,115.5,143.7z M114.5,143.6c0-0.2-0.2-0.4-0.4-0.6c-0.2-0.1-0.4-0.2-0.6-0.2
		c-0.3,0-0.5,0.2-0.6,0.4c-0.2,0.2-0.2,0.5-0.2,0.7c0,0.1,0.1,0.1,0.2,0.1c0.4-0.1,0.9-0.2,1.4-0.4
		C114.4,143.7,114.5,143.7,114.5,143.6z"/>
	<path class="st0" d="M119.4,141.5c0.1,0.3,0.1,0.8,0.2,1.5c0.1,0.7,0.2,1.1,0.2,1.5c0.1,0.6,0,1.1-0.2,1.5
		c-0.2,0.4-0.7,0.6-1.3,0.7c-0.6,0.1-1.1,0.1-1.6-0.1c-0.1,0-0.1-0.1-0.1-0.1c0,0,0-0.2,0-0.6c0,0,0-0.1,0-0.1c0,0,0,0,0.1,0
		c0.4,0.2,0.9,0.2,1.3,0.2c0.3,0,0.5-0.1,0.6-0.3c0.2-0.2,0.3-0.4,0.2-0.6c0-0.1,0-0.2-0.1-0.4c-0.2,0.4-0.6,0.7-1.1,0.7
		c-0.5,0.1-0.9,0-1.3-0.3c-0.4-0.3-0.6-0.7-0.7-1.2c-0.1-0.5,0-1,0.2-1.4c0.3-0.4,0.6-0.7,1.1-0.8c0.4-0.1,0.8,0,1.2,0.3
		c0.1,0.1,0.1,0.1,0.1,0.1c0,0,0,0,0-0.1c0,0,0-0.1,0-0.2c0-0.1,0-0.1,0-0.2c0-0.2,0-0.2,0-0.3c0,0,0.2,0,0.5,0
		C119.1,141.3,119.3,141.3,119.4,141.5C119.4,141.4,119.4,141.4,119.4,141.5z M118.7,143.3c0-0.3-0.2-0.5-0.4-0.7
		c-0.2-0.2-0.5-0.3-0.8-0.2c-0.3,0-0.5,0.2-0.7,0.5c-0.1,0.2-0.2,0.5-0.1,0.8c0,0.3,0.2,0.5,0.4,0.7c0.2,0.2,0.5,0.3,0.8,0.2
		c0.3,0,0.5-0.2,0.7-0.5C118.7,143.9,118.7,143.6,118.7,143.3z"/>
	<path class="st0" d="M122.5,140.9c0,0.3,0.1,0.6,0.1,0.8c0,0.1,0,0.1-0.1,0.1c-0.1,0-0.1,0-0.3,0c-0.1,0-0.2,0-0.3,0
		c-0.3,0.1-0.5,0.2-0.6,0.4c0,0.1,0,0.4,0,0.7l0.1,0.4c0,0.2,0.1,0.4,0.1,0.7c0.1,0.3,0.1,0.5,0.1,0.7c0,0.1,0,0.1-0.1,0.1
		c-0.1,0-0.2,0-0.4,0.1c-0.2,0-0.3,0-0.4,0.1c-0.1,0-0.1,0-0.1-0.1c0-0.2-0.1-0.6-0.2-1c-0.1-0.4-0.1-0.8-0.2-1
		c-0.1-0.7-0.3-1.2-0.4-1.6c0,0,0,0,0,0c0,0,0-0.1,0-0.1c0.1,0,0.2-0.1,0.4-0.1c0.3-0.1,0.4-0.2,0.4-0.1c0,0,0.1,0.1,0.1,0.2
		c0,0.2,0.1,0.2,0.1,0.2c0,0,0,0,0,0c0.1-0.1,0.2-0.2,0.3-0.3c0.1-0.1,0.2-0.2,0.3-0.2c0.1,0,0.2-0.1,0.4-0.1
		C122.4,140.9,122.5,140.9,122.5,140.9z"/>
	<path class="st0" d="M126.9,140.4C126.9,140.4,126.9,140.4,126.9,140.4c0,0.7,0,1.3,0.1,1.7c0,0,0.1,0.6,0.4,1.8l0,0.1
		c0,0.1,0,0.1-0.1,0.1c-0.1,0-0.2,0-0.3,0.1c-0.1,0-0.3,0.1-0.3,0.1c-0.1,0-0.1-0.1-0.2-0.3c-0.1-0.2-0.1-0.3-0.1-0.3
		c0,0-0.1,0.1-0.2,0.2c-0.1,0.2-0.3,0.3-0.4,0.4c-0.2,0.1-0.4,0.2-0.6,0.3c-0.5,0.1-1-0.1-1.4-0.4c-0.4-0.3-0.7-0.8-0.7-1.3
		c-0.1-0.6,0-1.1,0.3-1.6c0.3-0.5,0.7-0.8,1.3-0.8c0.4-0.1,0.8,0,1.2,0.3c0.1,0,0.1,0.1,0.3,0.2c0,0,0,0,0,0c0,0,0-0.1,0-0.3
		c0-0.2,0-0.3,0.1-0.3c0.1,0,0.2,0,0.4,0C126.8,140.3,126.9,140.3,126.9,140.4z M126.1,142.2c-0.1-0.3-0.2-0.6-0.4-0.8
		c-0.3-0.2-0.5-0.3-0.9-0.3c-0.3,0.1-0.6,0.2-0.8,0.5c-0.2,0.3-0.2,0.6-0.2,0.9c0.1,0.3,0.2,0.6,0.5,0.8c0.3,0.2,0.6,0.3,0.9,0.2
		c0.3-0.1,0.6-0.2,0.7-0.5C126.1,142.8,126.2,142.5,126.1,142.2z"/>
	<path class="st0" d="M128.3,138.1L128.3,138.1c0.1,1.1,0.2,1.9,0.3,2.7c0.1,0.3,0.1,0.8,0.3,1.5c0.1,0.6,0.2,1.1,0.3,1.4
		c0,0.1,0,0.1-0.1,0.1l-0.8,0.1c0,0-0.1,0-0.1-0.1c-0.1-0.3-0.1-0.8-0.2-1.5c-0.1-0.6-0.2-1.1-0.2-1.5c0-0.3-0.1-0.7-0.3-1.3
		c-0.1-0.6-0.2-1-0.3-1.3c0-0.1,0-0.1,0.1-0.1c0,0,0.1,0,0.2,0c0.1,0,0.2,0,0.2,0c0.1,0,0.1,0,0.2,0
		C128.1,138.1,128.2,138.1,128.3,138.1C128.3,138,128.3,138.1,128.3,138.1z"/>
	<path class="st0" d="M133.1,140.9c0,0.2,0,0.3-0.2,0.4c-0.1,0.1-0.9,0.3-2.5,0.6c0.1,0.2,0.2,0.4,0.5,0.5c0.2,0.1,0.5,0.2,0.7,0.1
		c0.4-0.1,0.8-0.3,1.1-0.6c0,0,0.1-0.1,0.1-0.1c0,0,0,0,0,0c0,0,0.1,0.1,0.2,0.3c0.1,0.2,0.2,0.3,0.2,0.3c0,0,0,0.1,0,0.1
		c-0.3,0.5-0.8,0.8-1.4,0.9c-0.6,0.1-1.2,0-1.6-0.3c-0.4-0.3-0.7-0.8-0.8-1.4c-0.1-0.6,0-1.1,0.3-1.6c0.3-0.5,0.7-0.8,1.3-0.9
		c0.5-0.1,1,0,1.4,0.4C132.8,140,133,140.4,133.1,140.9z M132.1,140.8c0-0.2-0.2-0.4-0.4-0.6c-0.2-0.1-0.4-0.2-0.6-0.2
		c-0.3,0-0.5,0.2-0.6,0.4c-0.2,0.2-0.2,0.5-0.2,0.7c0,0.1,0.1,0.1,0.2,0.1c0.4-0.1,0.9-0.2,1.4-0.4
		C132,140.9,132.1,140.8,132.1,140.8z"/>
	<path class="st0" d="M135.8,141.4c0.1,0.4,0,0.8-0.3,1.1c-0.3,0.3-0.6,0.4-1,0.5c-0.2,0-0.3,0-0.3,0c-0.1,0-0.1-0.1-0.1-0.2
		c0-0.1,0-0.1-0.1-0.3c0-0.1-0.1-0.2-0.1-0.3c0,0,0-0.1,0.1-0.1c0,0,0.1,0,0.2,0c0.1,0,0.1,0,0.1,0c0.5-0.1,0.7-0.3,0.7-0.6
		c0-0.2-0.2-0.3-0.4-0.4c-0.4-0.1-0.6-0.2-0.7-0.3c-0.3-0.2-0.4-0.4-0.5-0.7c-0.1-0.4,0-0.8,0.3-1c0.2-0.2,0.6-0.4,1-0.5
		c0,0,0.1,0,0.1,0c0,0,0.1,0.1,0.2,0.3c0.1,0.2,0.1,0.3,0.1,0.3c0,0,0,0.1-0.1,0.1c-0.2,0.1-0.3,0.1-0.5,0.2
		c-0.2,0.1-0.3,0.2-0.3,0.4c0,0.1,0.1,0.2,0.4,0.3c0.4,0.1,0.6,0.2,0.7,0.3C135.5,140.8,135.7,141.1,135.8,141.4z"/>
	<path class="st0" d="M142.4,139.6c0.1,0.5,0,1.1-0.3,1.5c-0.3,0.5-0.7,0.8-1.3,0.9c-0.3,0.1-0.6,0-0.9-0.2
		c-0.1-0.1-0.3-0.2-0.4-0.3c0,0,0,0,0,0.1c0,0,0,0.2,0.1,0.5l0.2,1.2c0,0.1,0,0.1-0.1,0.1c-0.4,0.1-0.7,0.1-0.7,0.1
		c-0.1,0-0.1,0-0.1-0.1c-0.1-0.3-0.1-0.9-0.2-1.6c-0.1-0.7-0.2-1.2-0.2-1.6c-0.1-0.6-0.2-1.2-0.4-1.8c0,0,0-0.1,0-0.1
		c0,0,0-0.1,0-0.1c0.1,0,0.3-0.1,0.4-0.1c0.3-0.1,0.4-0.1,0.4-0.1c0,0,0.1,0.1,0.1,0.2c0,0.1,0,0.2,0.1,0.3c0,0,0,0,0,0.1
		c0,0,0,0,0.1-0.1c0.3-0.5,0.7-0.7,1.1-0.8c0.5-0.1,1,0.1,1.5,0.4C142.1,138.6,142.3,139.1,142.4,139.6z M141.4,139.8
		c-0.1-0.3-0.2-0.6-0.4-0.8c-0.3-0.2-0.5-0.3-0.9-0.3c-0.3,0.1-0.6,0.2-0.7,0.5c-0.1,0.3-0.2,0.6-0.1,0.9c0.1,0.3,0.2,0.6,0.4,0.8
		c0.3,0.2,0.5,0.3,0.9,0.3c0.3,0,0.5-0.2,0.7-0.5C141.4,140.4,141.5,140.1,141.4,139.8z"/>
	<path class="st0" d="M146.7,137.2C146.7,137.2,146.7,137.2,146.7,137.2c0,0.7,0,1.3,0.1,1.7c0,0,0.1,0.6,0.4,1.8l0,0.1
		c0,0.1,0,0.1-0.1,0.1s-0.2,0-0.3,0.1c-0.1,0-0.3,0.1-0.3,0.1c-0.1,0-0.1-0.1-0.2-0.3c-0.1-0.2-0.1-0.3-0.1-0.3c0,0-0.1,0.1-0.2,0.2
		c-0.1,0.2-0.3,0.3-0.4,0.4c-0.2,0.1-0.4,0.2-0.6,0.3c-0.5,0.1-1-0.1-1.4-0.4c-0.4-0.3-0.7-0.8-0.7-1.3c-0.1-0.6,0-1.1,0.3-1.6
		c0.3-0.5,0.7-0.8,1.3-0.8c0.4-0.1,0.8,0,1.2,0.3c0.1,0,0.1,0.1,0.3,0.2c0,0,0,0,0,0c0,0,0-0.1,0-0.3c0-0.2,0-0.3,0.1-0.3
		c0.1,0,0.2,0,0.4,0C146.6,137.1,146.7,137.1,146.7,137.2z M146,139c-0.1-0.3-0.2-0.6-0.4-0.8c-0.3-0.2-0.5-0.3-0.9-0.3
		c-0.3,0.1-0.6,0.2-0.8,0.5c-0.2,0.3-0.2,0.6-0.2,0.9c0.1,0.3,0.2,0.6,0.5,0.8c0.3,0.2,0.6,0.3,0.9,0.2c0.3-0.1,0.6-0.2,0.7-0.5
		C145.9,139.7,146,139.4,146,139z"/>
	<path class="st0" d="M149.7,136.5c0,0.3,0.1,0.6,0.1,0.8c0,0.1,0,0.1-0.1,0.1c-0.1,0-0.1,0-0.3,0c-0.1,0-0.2,0-0.3,0
		c-0.3,0.1-0.5,0.2-0.6,0.4c0,0.1,0,0.4,0,0.7l0.1,0.4c0,0.2,0.1,0.4,0.1,0.7c0.1,0.3,0.1,0.5,0.1,0.7c0,0.1,0,0.1-0.1,0.1
		c-0.1,0-0.2,0-0.4,0.1c-0.2,0-0.3,0-0.4,0.1c-0.1,0-0.1,0-0.1-0.1c0-0.2-0.1-0.6-0.2-1s-0.1-0.8-0.2-1c-0.1-0.7-0.3-1.2-0.4-1.6
		c0,0,0,0,0,0c0,0,0-0.1,0-0.1c0.1,0,0.2-0.1,0.4-0.1c0.3-0.1,0.4-0.2,0.4-0.1c0,0,0.1,0.1,0.1,0.2c0,0.2,0.1,0.2,0.1,0.2
		c0,0,0,0,0,0c0.1-0.1,0.2-0.2,0.3-0.3c0.1-0.1,0.2-0.2,0.3-0.2c0.1,0,0.2-0.1,0.4-0.1C149.6,136.5,149.7,136.5,149.7,136.5z"/>
	<path class="st0" d="M154.1,136C154.1,136,154.1,136,154.1,136c0,0.7,0,1.3,0.1,1.7c0,0,0.1,0.6,0.4,1.8l0,0.1c0,0.1,0,0.1-0.1,0.1
		c-0.1,0-0.2,0-0.3,0.1c-0.1,0-0.3,0.1-0.3,0.1c-0.1,0-0.1-0.1-0.2-0.3c-0.1-0.2-0.1-0.3-0.1-0.3c0,0-0.1,0.1-0.2,0.2
		c-0.1,0.2-0.3,0.3-0.4,0.4c-0.2,0.1-0.4,0.2-0.6,0.3c-0.5,0.1-1-0.1-1.4-0.4c-0.4-0.3-0.7-0.8-0.7-1.3c-0.1-0.6,0-1.1,0.3-1.6
		c0.3-0.5,0.7-0.8,1.3-0.8c0.4-0.1,0.8,0,1.2,0.3c0.1,0,0.1,0.1,0.3,0.2c0,0,0,0,0,0c0,0,0-0.1,0-0.3c0-0.2,0-0.3,0.1-0.3
		c0.1,0,0.2,0,0.4,0C154,135.9,154.1,135.9,154.1,136z M153.4,137.8c-0.1-0.3-0.2-0.6-0.4-0.8c-0.3-0.2-0.5-0.3-0.9-0.3
		c-0.3,0.1-0.6,0.2-0.8,0.5c-0.2,0.3-0.2,0.6-0.2,0.9c0.1,0.3,0.2,0.6,0.5,0.8c0.3,0.2,0.6,0.3,0.9,0.2c0.3-0.1,0.6-0.2,0.7-0.5
		C153.4,138.5,153.4,138.2,153.4,137.8z"/>
	<path class="st0" d="M158.6,138.9c0,0.1,0,0.1-0.1,0.1c0,0-0.1,0-0.2,0c-0.1,0-0.2,0-0.2,0c-0.1,0-0.1,0-0.2,0c-0.1,0-0.2,0-0.2,0
		c-0.1,0-0.1,0-0.1-0.1c-0.1-0.3-0.1-0.8-0.2-1.4c-0.1-0.6-0.1-1.1-0.2-1.4c0-0.3-0.1-0.8-0.3-1.4c-0.1-0.6-0.2-1.1-0.3-1.4
		c0-0.1,0-0.1,0.1-0.1c0.1,0,0.1,0,0.2,0c0.1,0,0.2,0,0.2,0c0,0,0.1,0,0.2,0c0.1,0,0.2,0,0.2,0c0.1,0,0.1,0,0.1,0.1
		c0,0.3,0.1,0.8,0.2,1.4c0.1,0.6,0.1,1.1,0.2,1.4c0.1,0.3,0.1,0.8,0.3,1.4C158.5,138.2,158.6,138.6,158.6,138.9z"/>
	<path class="st0" d="M163,138.2c0,0.1,0,0.1-0.1,0.1c-0.1,0-0.2,0-0.4,0.1c-0.2,0-0.3,0-0.4,0.1c0,0-0.1,0-0.1-0.1
		c0-0.1-0.1-0.3-0.1-0.6c0-0.3-0.1-0.5-0.1-0.6c0-0.1,0-0.3-0.1-0.5c0-0.2-0.1-0.4-0.1-0.5c-0.1-0.3-0.1-0.5-0.2-0.6
		c-0.1-0.1-0.3-0.2-0.6-0.1c-0.1,0-0.3,0.1-0.5,0.3c-0.2,0.2-0.3,0.4-0.3,0.5l0.4,2.4c0,0.1,0,0.1-0.1,0.1c-0.1,0-0.2,0-0.4,0.1
		c-0.2,0-0.3,0-0.4,0.1c-0.1,0-0.1,0-0.1-0.1c0-0.2-0.1-0.5-0.1-1c-0.1-0.4-0.1-0.8-0.1-1c-0.1-0.6-0.2-1.1-0.4-1.6c0,0,0,0,0-0.1
		c0,0,0,0,0-0.1c0,0,0.2-0.1,0.5-0.2c0.3-0.1,0.4-0.1,0.4-0.1c0,0,0,0,0,0.1c0,0.2,0.1,0.3,0.2,0.5c0.1-0.1,0.3-0.3,0.5-0.5
		c0.3-0.2,0.5-0.4,0.8-0.4c0.5-0.1,0.9,0,1.1,0.3c0.2,0.2,0.3,0.5,0.4,1c0,0.1,0,0.2,0.1,0.4c0,0.2,0,0.3,0.1,0.4
		c0,0.2,0.1,0.5,0.1,0.8C163,137.8,163,138,163,138.2z"/>
	<path class="st0" d="M166.8,131.9c0.1,0.4,0.1,0.9,0.2,1.6c0.1,0.7,0.2,1.2,0.2,1.6c0.2,1.1,0.3,1.9,0.5,2.4l0,0.1
		c0,0,0,0.1-0.1,0.1c-0.1,0-0.1,0-0.2,0c-0.1,0-0.2,0-0.2,0c0,0-0.1,0-0.2,0c-0.1,0-0.1,0-0.2,0c0,0-0.1-0.1-0.1-0.3
		c0-0.2-0.1-0.3-0.1-0.3c0,0,0,0-0.1,0.1c-0.3,0.5-0.7,0.7-1.2,0.8c-0.5,0.1-1,0-1.5-0.4c-0.4-0.3-0.6-0.8-0.7-1.3
		c-0.1-0.6,0-1.1,0.3-1.5c0.3-0.5,0.7-0.8,1.3-0.8c0.3-0.1,0.7,0,0.9,0.2c0.1,0.1,0.3,0.2,0.4,0.3c0,0,0,0,0-0.1l-0.2-1.3
		c0-0.1,0-0.2-0.1-0.4c0-0.2-0.1-0.3-0.1-0.4c0-0.1,0-0.1,0-0.1c0.1,0,0.2,0,0.4-0.1C166.5,131.8,166.7,131.8,166.8,131.9
		C166.8,131.8,166.8,131.8,166.8,131.9z M166.4,135.7c-0.1-0.3-0.2-0.6-0.4-0.8c-0.3-0.2-0.5-0.3-0.9-0.3c-0.3,0.1-0.6,0.2-0.8,0.5
		c-0.2,0.3-0.2,0.6-0.2,0.9c0.1,0.3,0.2,0.6,0.5,0.8c0.3,0.2,0.6,0.3,0.9,0.3c0.3-0.1,0.6-0.2,0.7-0.5
		C166.4,136.4,166.5,136.1,166.4,135.7z"/>
	<path class="st0" d="M168.8,132.4c0.1,0.3-0.1,0.5-0.5,0.6c-0.4,0.1-0.6-0.1-0.6-0.4c0-0.1,0-0.3,0.1-0.4c0.1-0.1,0.2-0.2,0.4-0.2
		c0.2,0,0.3,0,0.4,0.1C168.7,132.1,168.7,132.2,168.8,132.4z M168.9,133.5c0,0.2,0.1,0.5,0.1,1c0,0.4,0.1,0.7,0.1,1
		c0,0.2,0.1,0.5,0.2,0.9c0.1,0.4,0.1,0.7,0.2,0.9c0,0.1,0,0.1-0.1,0.1l-0.8,0.1c-0.1,0-0.1,0-0.1-0.2c0-0.2-0.1-0.5-0.1-0.8
		c-0.1-0.4-0.1-0.7-0.1-0.9c0-0.2-0.1-0.5-0.2-0.9c-0.1-0.4-0.2-0.7-0.2-0.9c0,0,0-0.1,0.1-0.1c0,0,0.1,0,0.2,0c0.1,0,0.2,0,0.2,0
		c0.1,0,0.1,0,0.2-0.1C168.7,133.5,168.8,133.4,168.9,133.5C168.9,133.4,168.9,133.4,168.9,133.5z"/>
	<path class="st0" d="M173.4,133.9c0.1,0.4,0.1,0.6,0.1,0.7c0,0.1-0.2,0.5-0.5,1.2c-0.3,0.7-0.5,1-0.6,1.1c0,0-0.1,0-0.3,0.1
		c-0.2,0-0.3,0-0.4,0c-0.1,0-0.4-0.3-0.9-0.8c-0.5-0.5-0.8-0.8-0.9-0.9c-0.1-0.2-0.2-0.4-0.2-0.8c0-0.1,0-0.3-0.1-0.5
		c0-0.2-0.1-0.4-0.1-0.5c0-0.1,0-0.1,0.1-0.1c0.1,0,0.2,0,0.4-0.1c0.2,0,0.3,0,0.4-0.1c0,0,0.1,0,0.1,0.1c0,0.1,0,0.2,0,0.4
		c0,0.2,0,0.3,0,0.4c0,0.3,0.1,0.5,0.2,0.7c0,0.1,0.2,0.3,0.5,0.7c0.3,0.4,0.5,0.5,0.6,0.5c0.1,0,0.2-0.2,0.3-0.7
		c0.2-0.4,0.3-0.7,0.3-0.8c0-0.1,0-0.4-0.1-0.7c0-0.1,0-0.2-0.1-0.4c0-0.2-0.1-0.3-0.1-0.4c0,0,0-0.1,0.1-0.1c0.1,0,0.2,0,0.4-0.1
		c0.2,0,0.3-0.1,0.4-0.1C173.2,132.7,173.3,133.1,173.4,133.9z"/>
	<path class="st0" d="M174.8,131.4c0.1,0.3-0.1,0.5-0.5,0.6c-0.4,0.1-0.6-0.1-0.6-0.4c0-0.1,0-0.3,0.1-0.4c0.1-0.1,0.2-0.2,0.4-0.2
		c0.2,0,0.3,0,0.4,0.1C174.7,131.1,174.8,131.3,174.8,131.4z M175,132.5c0,0.2,0.1,0.5,0.1,1c0,0.4,0.1,0.7,0.1,1
		c0,0.2,0.1,0.5,0.2,0.9c0.1,0.4,0.1,0.7,0.2,0.9c0,0.1,0,0.1-0.1,0.1l-0.8,0.1c-0.1,0-0.1,0-0.1-0.2c0-0.2-0.1-0.5-0.1-0.8
		c-0.1-0.4-0.1-0.7-0.1-0.9c0-0.2-0.1-0.5-0.2-0.9c-0.1-0.4-0.2-0.7-0.2-0.9c0,0,0-0.1,0.1-0.1c0,0,0.1,0,0.2,0c0.1,0,0.2,0,0.2,0
		c0.1,0,0.1,0,0.2-0.1C174.8,132.5,174.8,132.5,175,132.5C174.9,132.4,175,132.5,175,132.5z"/>
	<path class="st0" d="M179.4,129.8c0.1,0.4,0.1,0.9,0.2,1.6c0.1,0.7,0.2,1.2,0.2,1.6c0.2,1.1,0.3,1.9,0.5,2.4l0,0.1
		c0,0,0,0.1-0.1,0.1c-0.1,0-0.1,0-0.2,0c-0.1,0-0.2,0-0.2,0c0,0-0.1,0-0.2,0c-0.1,0-0.1,0-0.2,0c0,0-0.1-0.1-0.1-0.3
		c0-0.2-0.1-0.3-0.1-0.3c0,0,0,0-0.1,0.1c-0.3,0.5-0.7,0.7-1.2,0.8c-0.5,0.1-1,0-1.5-0.4c-0.4-0.3-0.6-0.8-0.7-1.3
		c-0.1-0.6,0-1.1,0.3-1.5c0.3-0.5,0.7-0.8,1.3-0.8c0.3-0.1,0.7,0,0.9,0.2c0.1,0.1,0.3,0.2,0.4,0.3c0,0,0,0,0-0.1l-0.2-1.3
		c0-0.1,0-0.2-0.1-0.4c0-0.2-0.1-0.3-0.1-0.4c0-0.1,0-0.1,0-0.1c0.1,0,0.2,0,0.4-0.1C179.1,129.8,179.2,129.8,179.4,129.8
		C179.4,129.8,179.4,129.8,179.4,129.8z M179,133.7c-0.1-0.3-0.2-0.6-0.4-0.8c-0.3-0.2-0.5-0.3-0.9-0.3c-0.3,0.1-0.6,0.2-0.8,0.5
		c-0.2,0.3-0.2,0.6-0.2,0.9c0.1,0.3,0.2,0.6,0.5,0.8c0.3,0.2,0.6,0.3,0.9,0.3c0.3-0.1,0.6-0.2,0.7-0.5C179,134.4,179,134,179,133.7z
		"/>
	<path class="st0" d="M184.2,131.1c0,0.2,0.1,0.5,0.1,0.9c0,0.4,0.1,0.7,0.1,0.9c0,0.2,0.1,0.5,0.2,0.9c0.1,0.4,0.1,0.7,0.2,0.9
		c0,0.1,0,0.1-0.1,0.1c0,0-0.3,0.1-0.8,0.1c0,0-0.1-0.1-0.1-0.3c0-0.2-0.1-0.3-0.1-0.3c0,0,0,0-0.1,0c-0.4,0.5-0.8,0.7-1.3,0.8
		c-0.6,0.1-1-0.1-1.3-0.5c-0.2-0.3-0.3-0.7-0.4-1.4c-0.1-0.6-0.1-1.2-0.1-1.6c0-0.1,0-0.2,0.1-0.2c0.1,0,0.2,0,0.4-0.1
		c0.2,0,0.3,0,0.4-0.1c0.1,0,0.1,0,0.1,0.1c0,0.1,0,0.3,0,0.5c0,0.3,0,0.5,0,0.6c0,0.2,0,0.3,0.1,0.5c0.1,0.5,0.2,0.8,0.3,0.9
		c0.2,0.3,0.4,0.4,0.9,0.3c0.2,0,0.4-0.1,0.6-0.4c0.2-0.2,0.3-0.4,0.3-0.6c0-0.2-0.1-0.9-0.3-2.2c0-0.1,0-0.2,0.1-0.2l0.7-0.1
		C184.2,131,184.2,131,184.2,131.1z"/>
	<path class="st0" d="M189,132.1c0.1,0.6,0,1.1-0.3,1.5c-0.3,0.5-0.8,0.8-1.3,0.9c-0.6,0.1-1.1,0-1.5-0.4c-0.4-0.3-0.7-0.8-0.8-1.4
		c-0.1-0.6,0-1.1,0.3-1.5c0.3-0.5,0.8-0.8,1.3-0.8c0.6-0.1,1.1,0,1.5,0.4C188.7,131.1,188.9,131.5,189,132.1z M188.2,132.2
		c-0.1-0.3-0.2-0.6-0.4-0.8c-0.3-0.2-0.5-0.3-0.9-0.2c-0.3,0.1-0.6,0.2-0.8,0.5c-0.2,0.3-0.2,0.6-0.2,0.9c0.1,0.3,0.2,0.6,0.4,0.8
		c0.3,0.2,0.5,0.3,0.9,0.2c0.3-0.1,0.6-0.2,0.7-0.5C188.2,132.9,188.2,132.6,188.2,132.2z"/>
	<path class="st0" d="M191.6,132.4c0.1,0.4,0,0.8-0.3,1.1c-0.3,0.3-0.6,0.4-1,0.5c-0.2,0-0.3,0-0.3,0c0,0-0.1-0.1-0.1-0.2
		c0-0.1,0-0.1-0.1-0.3c0-0.1-0.1-0.2-0.1-0.3c0,0,0-0.1,0.1-0.1c0,0,0.1,0,0.2,0c0.1,0,0.1,0,0.1,0c0.5-0.1,0.7-0.3,0.7-0.6
		c0-0.2-0.2-0.3-0.4-0.4c-0.4-0.1-0.6-0.2-0.7-0.3c-0.3-0.2-0.4-0.4-0.5-0.7c-0.1-0.4,0-0.8,0.3-1c0.2-0.2,0.6-0.4,1-0.5
		c0,0,0.1,0,0.1,0c0,0,0.1,0.1,0.2,0.3c0.1,0.2,0.1,0.3,0.1,0.3c0,0,0,0.1-0.1,0.1c-0.2,0.1-0.3,0.1-0.5,0.2
		c-0.2,0.1-0.3,0.2-0.3,0.4c0,0.1,0.2,0.2,0.4,0.3c0.4,0.1,0.6,0.2,0.7,0.3C191.4,131.8,191.6,132.1,191.6,132.4z"/>
	<path class="st0" d="M193.4,132.4c0,0.3,0,0.5,0,0.8c0,0.1-0.2,0.4-0.4,0.7c-0.2,0.4-0.4,0.6-0.5,0.6c0,0-0.1,0-0.2-0.2
		c-0.1-0.1-0.2-0.2-0.2-0.2c0,0,0.1-0.1,0.2-0.3c0.1-0.2,0.2-0.4,0.2-0.5c0,0,0-0.1-0.1-0.4c0-0.1,0.1-0.2,0.4-0.3
		c0.2-0.1,0.4-0.2,0.6-0.2C193.3,132.3,193.4,132.3,193.4,132.4z"/>
	<path class="st0" d="M78.6,157.7c0.1,0.8,0,1.5-0.4,2.2c-0.4,0.7-1.1,1.1-1.9,1.2c-0.8,0.1-1.5-0.1-2.2-0.6c-0.6-0.5-1-1.2-1.1-2
		c-0.1-0.8,0-1.5,0.4-2.2c0.4-0.7,1.1-1.1,1.9-1.2c0.8-0.1,1.5,0.1,2.2,0.6C78.1,156.3,78.5,156.9,78.6,157.7z M77.7,157.9
		c-0.1-0.5-0.3-1-0.7-1.3c-0.4-0.4-0.9-0.5-1.4-0.4c-0.5,0.1-0.9,0.4-1.2,0.8c-0.3,0.4-0.4,0.9-0.3,1.5c0.1,0.5,0.3,1,0.7,1.3
		c0.4,0.4,0.9,0.5,1.4,0.4c0.5-0.1,0.9-0.4,1.2-0.8C77.7,158.9,77.7,158.4,77.7,157.9z"/>
	<path class="st0" d="M82.7,156.1c0,0.3,0.1,0.6,0.1,0.8c0,0.1,0,0.1-0.1,0.1c-0.1,0-0.1,0-0.3,0c-0.1,0-0.2,0-0.3,0
		c-0.3,0.1-0.5,0.2-0.6,0.4c0,0.1,0,0.4,0,0.7l0.1,0.4c0,0.2,0.1,0.4,0.1,0.7c0.1,0.3,0.1,0.5,0.1,0.7c0,0.1,0,0.1-0.1,0.1
		c-0.1,0-0.2,0-0.4,0.1c-0.2,0-0.3,0-0.4,0.1c-0.1,0-0.1,0-0.1-0.1c0-0.2-0.1-0.6-0.2-1c-0.1-0.4-0.1-0.8-0.2-1
		c-0.1-0.7-0.3-1.2-0.4-1.6c0,0,0,0,0,0c0,0,0-0.1,0-0.1c0.1,0,0.2-0.1,0.4-0.1c0.3-0.1,0.4-0.2,0.4-0.1c0,0,0.1,0.1,0.1,0.2
		c0,0.2,0.1,0.2,0.1,0.2c0,0,0,0,0,0c0.1-0.1,0.2-0.2,0.3-0.3c0.1-0.1,0.2-0.2,0.3-0.2c0.1-0.1,0.2-0.1,0.4-0.1
		C82.6,156,82.7,156,82.7,156.1z"/>
	<path class="st0" d="M87.9,155.3c0.1,0.3,0.1,0.8,0.2,1.5c0.1,0.7,0.2,1.1,0.2,1.5c0.1,0.6,0,1.1-0.2,1.5c-0.2,0.4-0.7,0.6-1.3,0.7
		c-0.6,0.1-1.1,0.1-1.6-0.1c-0.1,0-0.1-0.1-0.1-0.1c0,0,0-0.2,0-0.6c0,0,0-0.1,0-0.1c0,0,0,0,0.1,0c0.4,0.2,0.9,0.2,1.3,0.2
		c0.3,0,0.5-0.1,0.6-0.3c0.2-0.2,0.3-0.4,0.2-0.6c0-0.1,0-0.2-0.1-0.4c-0.2,0.4-0.6,0.7-1.1,0.7c-0.5,0.1-0.9,0-1.3-0.3
		c-0.4-0.3-0.6-0.7-0.7-1.2c-0.1-0.5,0-1,0.2-1.4c0.3-0.4,0.6-0.7,1.1-0.8c0.4-0.1,0.8,0,1.2,0.3c0.1,0.1,0.1,0.1,0.1,0.1
		c0,0,0,0,0-0.1c0,0,0-0.1,0-0.2c0-0.1,0-0.1,0-0.2c0-0.2,0-0.2,0-0.3c0,0,0.2,0,0.5,0C87.7,155.2,87.8,155.2,87.9,155.3
		C87.9,155.2,87.9,155.2,87.9,155.3z M87.2,157.1c0-0.3-0.2-0.5-0.4-0.7c-0.2-0.2-0.5-0.3-0.8-0.2c-0.3,0-0.5,0.2-0.7,0.5
		c-0.1,0.2-0.2,0.5-0.1,0.8c0,0.3,0.2,0.5,0.4,0.7c0.2,0.2,0.5,0.3,0.8,0.2c0.3,0,0.5-0.2,0.7-0.5C87.2,157.7,87.3,157.4,87.2,157.1
		z"/>
	<path class="st0" d="M93.9,154.4C93.9,154.4,93.9,154.5,93.9,154.4c0,0.7,0,1.3,0.1,1.7c0,0,0.1,0.6,0.4,1.8l0,0.1
		c0,0.1,0,0.1-0.1,0.1c-0.1,0-0.2,0-0.3,0.1c-0.1,0-0.3,0.1-0.3,0.1c-0.1,0-0.1-0.1-0.2-0.3c-0.1-0.2-0.1-0.3-0.1-0.3
		c0,0-0.1,0.1-0.2,0.2c-0.1,0.2-0.3,0.3-0.4,0.4c-0.2,0.1-0.4,0.2-0.6,0.3c-0.5,0.1-1-0.1-1.4-0.4c-0.4-0.3-0.7-0.8-0.7-1.3
		c-0.1-0.6,0-1.1,0.3-1.6c0.3-0.5,0.7-0.8,1.3-0.8c0.4-0.1,0.8,0,1.2,0.3c0.1,0,0.1,0.1,0.3,0.2c0,0,0,0,0,0c0,0,0-0.1,0-0.3
		c0-0.2,0-0.3,0.1-0.3c0.1,0,0.2,0,0.4,0C93.7,154.4,93.9,154.4,93.9,154.4z M93.1,156.3c-0.1-0.3-0.2-0.6-0.4-0.8
		c-0.3-0.2-0.5-0.3-0.9-0.3c-0.3,0.1-0.6,0.2-0.8,0.5c-0.2,0.3-0.2,0.6-0.2,0.9c0.1,0.3,0.2,0.6,0.5,0.8c0.3,0.2,0.6,0.3,0.9,0.2
		c0.3-0.1,0.6-0.2,0.7-0.5C93.1,156.9,93.1,156.6,93.1,156.3z"/>
	<path class="st0" d="M99.9,157.2c0,0.1,0,0.1-0.1,0.1c-0.1,0-0.2,0-0.4,0.1c-0.2,0-0.3,0-0.4,0.1c0,0-0.1,0-0.1-0.1
		c0-0.1-0.1-0.3-0.1-0.6c0-0.3-0.1-0.5-0.1-0.6c0-0.1,0-0.3-0.1-0.5c0-0.2-0.1-0.4-0.1-0.5c-0.1-0.3-0.1-0.5-0.2-0.6
		c-0.1-0.1-0.3-0.2-0.6-0.1c-0.1,0-0.3,0.1-0.5,0.3c-0.2,0.2-0.3,0.4-0.3,0.5l0.4,2.4c0,0.1,0,0.1-0.1,0.1c-0.1,0-0.2,0-0.4,0.1
		c-0.2,0-0.3,0-0.4,0.1c-0.1,0-0.1,0-0.1-0.1c0-0.2-0.1-0.5-0.1-1c-0.1-0.4-0.1-0.8-0.1-1c-0.1-0.6-0.2-1.1-0.4-1.6c0,0,0,0,0-0.1
		c0,0,0,0,0-0.1c0,0,0.2-0.1,0.5-0.2c0.3-0.1,0.4-0.1,0.4-0.1c0,0,0,0,0,0.1c0,0.2,0.1,0.3,0.2,0.5c0.1-0.1,0.3-0.3,0.5-0.5
		c0.3-0.2,0.5-0.4,0.8-0.4c0.5-0.1,0.9,0,1.1,0.3c0.2,0.2,0.3,0.5,0.4,1c0,0.1,0,0.2,0.1,0.4c0,0.2,0,0.3,0.1,0.4
		c0,0.2,0.1,0.5,0.1,0.8C99.8,156.7,99.9,157,99.9,157.2z"/>
	<path class="st0" d="M102.2,151.9c0.1,0.3-0.1,0.5-0.5,0.6c-0.4,0.1-0.6-0.1-0.6-0.4c0-0.2,0-0.3,0.1-0.4c0.1-0.1,0.2-0.2,0.4-0.2
		c0.2,0,0.3,0,0.4,0.1C102.1,151.6,102.1,151.7,102.2,151.9z M102.3,153c0,0.2,0.1,0.5,0.1,1c0,0.4,0.1,0.7,0.1,1
		c0,0.2,0.1,0.5,0.2,0.9c0.1,0.4,0.1,0.7,0.2,0.9c0,0.1,0,0.1-0.1,0.1l-0.8,0.1c-0.1,0-0.1,0-0.1-0.2c0-0.2-0.1-0.5-0.1-0.8
		c-0.1-0.4-0.1-0.7-0.1-0.9c0-0.2-0.1-0.5-0.2-0.9c-0.1-0.4-0.2-0.7-0.2-0.9c0,0,0-0.1,0.1-0.1c0,0,0.1,0,0.2,0c0.1,0,0.2,0,0.2,0
		c0.1,0,0.1,0,0.2-0.1C102.1,152.9,102.2,152.9,102.3,153C102.3,152.9,102.3,152.9,102.3,153z"/>
	<path class="st0" d="M107.8,155.2c0,0,0,0.1,0,0.3c0,0.2,0,0.3,0,0.4c0,0.1,0,0.1-0.1,0.2c-0.1,0-0.2,0-0.4,0c-0.2,0-0.3,0-0.4,0
		c-0.2,0-0.4,0.1-0.8,0.1c-0.3,0-0.6,0.1-0.9,0.2c-0.4,0.1-0.6,0.1-0.5,0.1c-0.1,0-0.1,0-0.1-0.1c-0.1-0.1-0.1-0.3-0.1-0.4
		c0,0,0-0.1,0-0.1c0,0,0-0.1,0-0.1c0,0,0-0.1,0.1-0.2c0-0.1,0.3-0.4,0.7-1.1c0.2-0.3,0.5-0.8,0.9-1.5l-1.8,0.3c0,0-0.1,0-0.1-0.1
		c0-0.1,0-0.2,0-0.4c0-0.2,0-0.3,0-0.4c0,0,0-0.1,0.1-0.1c0.2,0,0.4-0.1,0.7-0.1c0.3,0,0.5-0.1,0.7-0.1c0.7-0.1,1.2-0.2,1.3-0.2
		c0.1,0,0.1,0,0.1,0.1c0.1,0.4,0.1,0.6,0.1,0.7c0,0-0.2,0.3-0.6,0.9c-0.2,0.4-0.6,0.9-1.1,1.7C106.5,155.4,107.2,155.2,107.8,155.2
		C107.8,155.1,107.8,155.2,107.8,155.2z"/>
	<path class="st0" d="M113,151.3C113,151.4,113,151.4,113,151.3c0,0.7,0,1.3,0.1,1.7c0,0,0.1,0.6,0.4,1.8l0,0.1c0,0.1,0,0.1-0.1,0.1
		c-0.1,0-0.2,0-0.3,0.1c-0.1,0-0.3,0.1-0.3,0.1c-0.1,0-0.1-0.1-0.2-0.3c-0.1-0.2-0.1-0.3-0.1-0.3c0,0-0.1,0.1-0.2,0.2
		c-0.1,0.2-0.3,0.3-0.4,0.4c-0.2,0.1-0.4,0.2-0.6,0.3c-0.5,0.1-1-0.1-1.4-0.4c-0.4-0.3-0.7-0.8-0.7-1.3c-0.1-0.6,0-1.1,0.3-1.6
		c0.3-0.5,0.7-0.8,1.3-0.8c0.4-0.1,0.8,0,1.2,0.3c0.1,0,0.1,0.1,0.3,0.2c0,0,0,0,0,0c0,0,0-0.1,0-0.3c0-0.2,0-0.3,0.1-0.3
		c0.1,0,0.2,0,0.4,0C112.9,151.3,113,151.3,113,151.3z M112.2,153.2c-0.1-0.3-0.2-0.6-0.4-0.8c-0.3-0.2-0.5-0.3-0.9-0.3
		c-0.3,0.1-0.6,0.2-0.8,0.5c-0.2,0.3-0.2,0.6-0.2,0.9c0.1,0.3,0.2,0.6,0.5,0.8c0.3,0.2,0.6,0.3,0.9,0.2c0.3-0.1,0.6-0.2,0.7-0.5
		C112.2,153.8,112.3,153.5,112.2,153.2z"/>
	<path class="st0" d="M117.7,150.6c0,0.1,0,0.2,0,0.4c0,0.2-0.1,0.3-0.1,0.3c-0.1,0-0.3-0.1-0.4-0.1c-0.1,0-0.3,0-0.4,0
		c-0.3,0.1-0.6,0.2-0.8,0.5c-0.2,0.3-0.2,0.6-0.2,0.9c0.1,0.3,0.2,0.6,0.5,0.8c0.3,0.2,0.6,0.3,0.9,0.2c0.2,0,0.4-0.1,0.5-0.2
		c0.2-0.1,0.2-0.2,0.2-0.2c0,0,0.1,0.1,0.2,0.3c0.1,0.2,0.1,0.3,0.1,0.4c0,0.1-0.1,0.2-0.4,0.3c-0.3,0.1-0.4,0.2-0.6,0.2
		c-0.6,0.1-1.1,0-1.5-0.4c-0.4-0.3-0.7-0.8-0.8-1.4c-0.1-0.6,0-1.1,0.3-1.6c0.3-0.5,0.8-0.8,1.3-0.9
		C116.9,150.3,117.3,150.4,117.7,150.6C117.7,150.5,117.7,150.6,117.7,150.6z"/>
	<path class="st0" d="M120.3,149c0.1,0.3-0.1,0.5-0.5,0.6c-0.4,0.1-0.6-0.1-0.6-0.4c0-0.2,0-0.3,0.1-0.4c0.1-0.1,0.2-0.2,0.4-0.2
		c0.2,0,0.3,0,0.4,0.1C120.2,148.7,120.3,148.8,120.3,149z M120.4,150.1c0,0.2,0.1,0.5,0.1,1c0,0.4,0.1,0.7,0.1,1
		c0,0.2,0.1,0.5,0.2,0.9c0.1,0.4,0.1,0.7,0.2,0.9c0,0.1,0,0.1-0.1,0.1l-0.8,0.1c-0.1,0-0.1,0-0.1-0.2c0-0.2-0.1-0.5-0.1-0.8
		c-0.1-0.4-0.1-0.7-0.1-0.9c0-0.2-0.1-0.5-0.2-0.9c-0.1-0.4-0.2-0.7-0.2-0.9c0,0,0-0.1,0.1-0.1c0,0,0.1,0,0.2,0c0.1,0,0.2,0,0.2,0
		c0.1,0,0.1,0,0.2-0.1S120.3,150,120.4,150.1C120.4,150,120.4,150,120.4,150.1z"/>
	<path class="st0" d="M126.4,150.9c0.1,0.6,0,1.1-0.3,1.5c-0.3,0.5-0.8,0.8-1.3,0.9c-0.6,0.1-1.1,0-1.5-0.4
		c-0.4-0.3-0.7-0.8-0.8-1.4c-0.1-0.6,0-1.1,0.3-1.5c0.3-0.5,0.8-0.8,1.3-0.8c0.6-0.1,1.1,0,1.5,0.4
		C126.1,149.9,126.3,150.4,126.4,150.9z M125.6,151.1c-0.1-0.3-0.2-0.6-0.4-0.8c-0.3-0.2-0.5-0.3-0.9-0.2c-0.3,0.1-0.6,0.2-0.8,0.5
		c-0.2,0.3-0.2,0.6-0.2,0.9c0.1,0.3,0.2,0.6,0.4,0.8c0.3,0.2,0.5,0.3,0.9,0.2c0.3-0.1,0.6-0.2,0.7-0.5
		C125.6,151.7,125.6,151.4,125.6,151.1z"/>
	<path class="st0" d="M132.1,152c0,0.1,0,0.1-0.1,0.1c-0.1,0-0.2,0-0.4,0.1c-0.2,0-0.3,0-0.4,0.1c0,0-0.1,0-0.1-0.1
		c0-0.1-0.1-0.3-0.1-0.6c0-0.3-0.1-0.5-0.1-0.6c0-0.1,0-0.3-0.1-0.5c0-0.2-0.1-0.4-0.1-0.5c-0.1-0.3-0.1-0.5-0.2-0.6
		c-0.1-0.1-0.3-0.2-0.6-0.1c-0.1,0-0.3,0.1-0.5,0.3c-0.2,0.2-0.3,0.4-0.3,0.5l0.4,2.4c0,0.1,0,0.1-0.1,0.1c-0.1,0-0.2,0-0.4,0.1
		c-0.2,0-0.3,0-0.4,0.1c-0.1,0-0.1,0-0.1-0.1c0-0.2-0.1-0.5-0.1-1c-0.1-0.4-0.1-0.8-0.1-1c-0.1-0.6-0.2-1.1-0.4-1.6c0,0,0,0,0-0.1
		c0,0,0,0,0-0.1c0,0,0.2-0.1,0.5-0.2c0.3-0.1,0.4-0.1,0.4-0.1c0,0,0,0,0,0.1c0,0.2,0.1,0.3,0.2,0.5c0.1-0.1,0.3-0.3,0.5-0.5
		c0.3-0.2,0.5-0.4,0.8-0.4c0.5-0.1,0.9,0,1.1,0.3c0.2,0.2,0.3,0.5,0.4,1c0,0.1,0,0.2,0.1,0.4c0,0.2,0,0.3,0.1,0.4
		c0,0.2,0.1,0.5,0.1,0.8C132,151.5,132.1,151.8,132.1,152z"/>
	<path class="st0" d="M137.2,149c0,0.2,0,0.4-0.2,0.4c-0.1,0.1-0.9,0.3-2.5,0.6c0.1,0.2,0.2,0.4,0.5,0.5c0.2,0.1,0.5,0.2,0.7,0.1
		c0.4-0.1,0.8-0.3,1.1-0.6c0,0,0.1-0.1,0.1-0.1c0,0,0,0,0,0c0,0,0.1,0.1,0.2,0.3c0.1,0.2,0.2,0.3,0.2,0.3c0,0,0,0.1-0.1,0.1
		c-0.3,0.5-0.8,0.8-1.4,0.9c-0.6,0.1-1.2,0-1.6-0.3c-0.4-0.3-0.7-0.8-0.8-1.4c-0.1-0.6,0-1.1,0.3-1.6c0.3-0.5,0.7-0.8,1.3-0.9
		c0.5-0.1,1,0,1.4,0.4C136.9,148,137.1,148.5,137.2,149z M136.2,148.9c0-0.2-0.2-0.4-0.4-0.6c-0.2-0.1-0.4-0.2-0.6-0.2
		c-0.3,0-0.5,0.2-0.6,0.4c-0.2,0.2-0.2,0.5-0.2,0.7c0,0.1,0.1,0.1,0.2,0.1c0.4-0.1,0.9-0.2,1.4-0.4
		C136.1,149,136.2,148.9,136.2,148.9z"/>
	<path class="st0" d="M141,149.3c0.1,0.4,0,0.8-0.3,1.1c-0.3,0.3-0.6,0.4-1,0.5c-0.2,0-0.3,0-0.3,0c0,0-0.1-0.1-0.1-0.2
		c0-0.1,0-0.1-0.1-0.3c0-0.1-0.1-0.2-0.1-0.3c0,0,0-0.1,0.1-0.1c0,0,0.1,0,0.2,0c0.1,0,0.1,0,0.1,0c0.5-0.1,0.7-0.3,0.7-0.6
		c0-0.1-0.2-0.3-0.4-0.4c-0.4-0.1-0.6-0.2-0.7-0.3c-0.3-0.2-0.4-0.4-0.5-0.7c-0.1-0.4,0-0.8,0.3-1c0.2-0.2,0.6-0.4,1-0.5
		c0,0,0.1,0,0.1,0c0,0,0.1,0.1,0.2,0.3c0.1,0.2,0.1,0.3,0.1,0.3c0,0,0,0.1-0.1,0.1c-0.2,0.1-0.3,0.1-0.5,0.2
		c-0.2,0.1-0.3,0.2-0.3,0.4c0,0.1,0.1,0.2,0.4,0.3c0.4,0.1,0.6,0.2,0.7,0.3C140.8,148.7,141,149,141,149.3z"/>
	<path class="st0" d="M149.3,146.4c0.1,0.5,0.1,0.7,0.1,0.8c0,0.1-0.3,0.7-0.8,1.8c-0.5,1-0.8,1.6-0.9,1.8c-0.1,0.1-0.4,0.2-1,0.3
		c-0.1,0-0.1,0-0.1,0c0,0-0.1-0.1-0.2-0.3c-0.1-0.2-0.2-0.3-0.2-0.3c0-0.1,0.1-0.1,0.2-0.1c0.3,0,0.5-0.1,0.7-0.2
		c0,0,0.1-0.1,0.2-0.3c0.1-0.2,0.1-0.3,0.1-0.3c0-0.1-0.3-0.3-0.7-0.8c-0.5-0.5-0.8-0.8-0.9-0.9c-0.1-0.1-0.1-0.4-0.2-0.8
		c0-0.1,0-0.3-0.1-0.5c0-0.2-0.1-0.4-0.1-0.5c0-0.1,0-0.1,0.1-0.1c0.1,0,0.2,0,0.4,0c0.2,0,0.3,0,0.4,0c0,0,0.1,0,0.1,0.1
		c0,0.1,0,0.2,0,0.3c0,0.2,0,0.3,0,0.3c0.1,0.3,0.1,0.6,0.2,0.7c0,0.1,0.2,0.3,0.6,0.7c0.3,0.4,0.6,0.5,0.6,0.5c0,0,0.2-0.2,0.3-0.7
		c0.2-0.4,0.3-0.7,0.3-0.8c0-0.1,0-0.4-0.1-0.7c0-0.1,0-0.2-0.1-0.3c0-0.2-0.1-0.3-0.1-0.3c0-0.1,0-0.1,0-0.1c0.1,0,0.2,0,0.4-0.1
		c0.2,0,0.3-0.1,0.4-0.1C149.1,145.4,149.2,145.7,149.3,146.4z"/>
	<path class="st0" d="M159,141.9c0.1,0.3,0.1,0.8,0.2,1.4c0.1,0.6,0.1,1.1,0.2,1.4c0,0.3,0.1,0.7,0.2,1.3c0.1,0.6,0.2,1,0.2,1.3
		c0,0.1,0,0.1-0.1,0.2c0,0-0.1,0-0.2,0c-0.1,0-0.1,0-0.2,0c0,0-0.1,0-0.2,0c-0.1,0-0.2,0-0.2,0c0,0-0.1,0-0.2-0.1
		c-0.7-0.7-1.8-1.7-3.2-3.1c-0.2-0.2-0.4-0.3-0.4-0.3c0,0,0,0.1,0,0.2c0.1,0.4,0.2,1,0.3,1.9c0.1,0.8,0.3,1.5,0.3,1.9
		c0,0.1,0,0.1-0.1,0.1c0,0-0.1,0-0.2,0c-0.1,0-0.2,0-0.2,0c0,0-0.1,0-0.2,0c-0.1,0-0.2,0-0.2,0c-0.1,0-0.1,0-0.1-0.1
		c0-0.3-0.1-0.8-0.2-1.4c-0.1-0.6-0.1-1.1-0.2-1.4c-0.1-0.3-0.2-0.9-0.3-1.8c0-0.2-0.1-0.6-0.2-1l0-0.1c0,0,0-0.1,0.1-0.1
		c0.2,0,0.3-0.1,0.4-0.1c0,0,0.1,0,0.2-0.1c0.1,0,0.2-0.1,0.2-0.1c0,0,0.1,0,0.1,0.1c0.8,0.8,1.9,1.9,3.5,3.4
		c0.1,0.1,0.1,0.1,0.2,0.2c0-0.1,0-0.4-0.1-0.8c-0.1-0.4-0.2-0.9-0.3-1.6c-0.1-0.7-0.2-1.2-0.3-1.6c0-0.1,0-0.1,0.1-0.1
		c0,0,0.1,0,0.2,0c0.1,0,0.2,0,0.2,0c0.1,0,0.1,0,0.2,0c0.1,0,0.2,0,0.2-0.1C158.9,141.9,159,141.9,159,141.9z"/>
	<path class="st0" d="M165,144.5c0,0.2,0,0.4-0.2,0.4c-0.1,0.1-0.9,0.3-2.5,0.6c0.1,0.2,0.2,0.4,0.5,0.5c0.2,0.1,0.5,0.2,0.7,0.1
		c0.4-0.1,0.8-0.3,1.1-0.6c0,0,0.1-0.1,0.1-0.1c0,0,0,0,0,0c0,0,0.1,0.1,0.2,0.3c0.1,0.2,0.2,0.3,0.2,0.3c0,0,0,0.1-0.1,0.1
		c-0.3,0.5-0.8,0.8-1.4,0.9c-0.6,0.1-1.2,0-1.6-0.3c-0.4-0.3-0.7-0.8-0.8-1.4c-0.1-0.6,0-1.1,0.3-1.6c0.3-0.5,0.7-0.8,1.3-0.9
		c0.5-0.1,1,0,1.4,0.4C164.7,143.6,165,144,165,144.5z M164,144.4c0-0.2-0.2-0.4-0.4-0.6c-0.2-0.1-0.4-0.2-0.6-0.2
		c-0.3,0-0.5,0.2-0.6,0.4c-0.2,0.2-0.2,0.5-0.2,0.7c0,0.1,0.1,0.1,0.2,0.1c0.4-0.1,0.9-0.2,1.4-0.4C164,144.5,164,144.4,164,144.4z"
		/>
	<path class="st0" d="M170.1,142c0.1,0.3,0.1,0.8,0.2,1.5c0.1,0.7,0.2,1.1,0.2,1.5c0.1,0.6,0,1.1-0.2,1.5c-0.2,0.4-0.7,0.6-1.3,0.7
		c-0.6,0.1-1.1,0.1-1.6-0.1c-0.1,0-0.1-0.1-0.1-0.1c0,0,0-0.2,0-0.6c0,0,0-0.1,0-0.1c0,0,0,0,0.1,0c0.4,0.2,0.9,0.2,1.3,0.2
		c0.3,0,0.5-0.1,0.6-0.3c0.2-0.2,0.3-0.4,0.2-0.6c0-0.1,0-0.2-0.1-0.4c-0.2,0.4-0.6,0.7-1.1,0.7c-0.5,0.1-0.9,0-1.3-0.3
		c-0.4-0.3-0.6-0.7-0.7-1.2c-0.1-0.5,0-1,0.2-1.4c0.3-0.4,0.6-0.7,1.1-0.8c0.4-0.1,0.8,0,1.2,0.3c0.1,0.1,0.1,0.1,0.1,0.1
		c0,0,0,0,0-0.1c0,0,0-0.1,0-0.2c0-0.1,0-0.1,0-0.2c0-0.2,0-0.2,0-0.3c0,0,0.2,0,0.5,0C169.9,141.9,170,141.9,170.1,142
		C170.1,141.9,170.1,142,170.1,142z M169.4,143.9c0-0.3-0.2-0.5-0.4-0.7c-0.2-0.2-0.5-0.3-0.8-0.2c-0.3,0-0.5,0.2-0.7,0.5
		c-0.1,0.2-0.2,0.5-0.1,0.8c0,0.3,0.2,0.5,0.4,0.7c0.2,0.2,0.5,0.3,0.8,0.2c0.3,0,0.5-0.2,0.7-0.5
		C169.4,144.4,169.5,144.2,169.4,143.9z"/>
	<path class="st0" d="M176.1,142.9c0.1,0.6,0,1.1-0.3,1.5c-0.3,0.5-0.8,0.8-1.3,0.9c-0.6,0.1-1.1,0-1.5-0.4
		c-0.4-0.3-0.7-0.8-0.8-1.4c-0.1-0.6,0-1.1,0.3-1.5c0.3-0.5,0.8-0.7,1.3-0.8c0.6-0.1,1.1,0,1.5,0.4
		C175.7,141.9,176,142.4,176.1,142.9z M175.2,143.1c-0.1-0.3-0.2-0.6-0.4-0.8c-0.3-0.2-0.5-0.3-0.9-0.2c-0.3,0.1-0.6,0.2-0.8,0.5
		c-0.2,0.3-0.2,0.6-0.2,0.9c0.1,0.3,0.2,0.6,0.4,0.8c0.3,0.2,0.5,0.3,0.9,0.2c0.3-0.1,0.6-0.2,0.7-0.5
		C175.2,143.7,175.3,143.4,175.2,143.1z"/>
	<path class="st0" d="M180.4,140.5c0,0.1,0,0.2,0,0.4c0,0.2-0.1,0.3-0.1,0.3c-0.1,0-0.3-0.1-0.4-0.1c-0.1,0-0.3,0-0.4,0
		c-0.3,0.1-0.6,0.2-0.8,0.5c-0.2,0.3-0.2,0.6-0.2,0.9c0.1,0.3,0.2,0.6,0.5,0.8c0.3,0.2,0.6,0.3,0.9,0.2c0.2,0,0.4-0.1,0.5-0.2
		c0.2-0.1,0.2-0.2,0.2-0.2c0,0,0.1,0.1,0.2,0.3c0.1,0.2,0.1,0.3,0.1,0.4c0,0.1-0.1,0.2-0.4,0.3c-0.3,0.1-0.4,0.2-0.6,0.2
		c-0.6,0.1-1.1,0-1.5-0.4c-0.4-0.3-0.7-0.8-0.8-1.4c-0.1-0.6,0-1.1,0.3-1.6c0.3-0.5,0.8-0.8,1.3-0.9
		C179.6,140.2,180,140.2,180.4,140.5C180.4,140.4,180.4,140.4,180.4,140.5z"/>
	<path class="st0" d="M183,138.8c0.1,0.3-0.1,0.5-0.5,0.6c-0.4,0.1-0.6-0.1-0.6-0.4c0-0.2,0-0.3,0.1-0.4c0.1-0.1,0.2-0.2,0.4-0.2
		c0.2,0,0.3,0,0.4,0.1C182.9,138.6,183,138.7,183,138.8z M183.2,139.9c0,0.2,0.1,0.5,0.1,1c0,0.4,0.1,0.7,0.1,1
		c0,0.2,0.1,0.5,0.2,0.9c0.1,0.4,0.1,0.7,0.2,0.9c0,0.1,0,0.1-0.1,0.1l-0.8,0.1c-0.1,0-0.1,0-0.1-0.2c0-0.2-0.1-0.5-0.1-0.8
		c-0.1-0.4-0.1-0.7-0.1-0.9c0-0.2-0.1-0.5-0.2-0.9c-0.1-0.4-0.2-0.7-0.2-0.9c0,0,0-0.1,0.1-0.1c0,0,0.1,0,0.2,0c0.1,0,0.2,0,0.2,0
		c0.1,0,0.1,0,0.2-0.1C182.9,139.9,183,139.9,183.2,139.9C183.1,139.9,183.1,139.9,183.2,139.9z"/>
	<path class="st0" d="M189.1,140.8c0.1,0.6,0,1.1-0.3,1.5c-0.3,0.5-0.8,0.8-1.3,0.9c-0.6,0.1-1.1,0-1.5-0.4
		c-0.4-0.3-0.7-0.8-0.8-1.4c-0.1-0.6,0-1.1,0.3-1.5c0.3-0.5,0.8-0.7,1.3-0.8c0.6-0.1,1.1,0,1.5,0.4
		C188.8,139.8,189.1,140.2,189.1,140.8z M188.3,141c-0.1-0.3-0.2-0.6-0.4-0.8c-0.3-0.2-0.5-0.3-0.9-0.2c-0.3,0.1-0.6,0.2-0.8,0.5
		c-0.2,0.3-0.2,0.6-0.2,0.9c0.1,0.3,0.2,0.6,0.4,0.8c0.3,0.2,0.5,0.3,0.9,0.2c0.3-0.1,0.6-0.2,0.7-0.5
		C188.3,141.6,188.3,141.3,188.3,141z"/>
	<path class="st0" d="M192.9,140.9c0.1,0.4,0,0.8-0.3,1.1c-0.3,0.3-0.6,0.4-1,0.5c-0.2,0-0.3,0-0.3,0c-0.1,0-0.1-0.1-0.1-0.2
		c0-0.1,0-0.1-0.1-0.3s-0.1-0.2-0.1-0.3c0,0,0-0.1,0.1-0.1c0,0,0.1,0,0.2,0c0.1,0,0.1,0,0.1,0c0.5-0.1,0.7-0.3,0.7-0.6
		c0-0.1-0.2-0.3-0.4-0.4c-0.4-0.1-0.6-0.2-0.7-0.3c-0.3-0.2-0.4-0.4-0.5-0.7c-0.1-0.4,0-0.8,0.3-1c0.2-0.2,0.6-0.4,1-0.5
		c0,0,0.1,0,0.1,0c0,0,0.1,0.1,0.2,0.3c0.1,0.2,0.1,0.3,0.1,0.3c0,0,0,0.1-0.1,0.1c-0.2,0.1-0.3,0.1-0.5,0.2
		c-0.2,0.1-0.3,0.2-0.3,0.4c0,0.1,0.1,0.2,0.4,0.3c0.4,0.1,0.6,0.2,0.7,0.3C192.7,140.4,192.9,140.6,192.9,140.9z"/>
</g>
</svg>
