<?xml version="1.0" encoding="utf-8"?>
<!-- Generator: Adobe Illustrator 22.1.0, SVG Export Plug-In . SVG Version: 6.00 Build 0)  -->
<svg version="1.1" id="Capa_1" xmlns="http://www.w3.org/2000/svg" xmlns:xlink="http://www.w3.org/1999/xlink" x="0px" y="0px"
	 viewBox="0 0 250 166" style="enable-background:new 0 0 250 166;" xml:space="preserve">
<style type="text/css">
	.st0{fill-rule:evenodd;clip-rule:evenodd;}
	.st1{fill-rule:evenodd;clip-rule:evenodd;fill:#00406F;}
</style>
<g>
	<polygon class="st0" points="1.3,69 1.3,87.8 3,87.7 4.8,87.7 4.8,79.2 4.9,70.8 11.4,70.8 17.9,70.8 17.9,68.6 17.9,66.4 
		11.4,66.4 4.9,66.4 4.9,60.7 4.9,54.9 12.4,54.9 19.9,54.8 19.9,52.6 19.9,50.4 10.6,50.3 1.3,50.2 	"/>
	<path class="st0" d="M24.4,50.4c-0.1,0.1-0.2,1.3-0.2,2.7v2.6h1.7h1.7V53v-2.7h-1.5C25.2,50.2,24.5,50.3,24.4,50.4z"/>
	<path class="st1" d="M54.8,50.6c-0.1,0.2-0.1,8.6-0.1,18.7l0.1,18.4h10.3h10.3l0.1-2.3l0.1-2.3h-8.5h-8.5v-6.3v-6.3h7.6h7.6v-2.2
		v-2.2h-7.6h-7.6v-5.6v-5.6h8.1h8.1v-2.3v-2.3h-9.9C57.2,50.2,54.9,50.3,54.8,50.6z"/>
	<path class="st1" d="M80.1,50.6c-0.1,0.2-0.1,8.6-0.1,18.7l0.1,18.4h1.7h1.7l0.1-5.5l0.1-5.5l1-1.4c0.5-0.8,1.1-1.3,1.2-1.2
		c0.1,0.1,1.6,3.1,3.2,6.6c1.7,3.5,3.2,6.5,3.3,6.7c0.3,0.4,4.1,0.5,4.1,0.1c0-0.2-1.9-4-4.1-8.6l-4.1-8.3l3.8-4.9
		c2.1-2.7,3.8-5,3.8-5c0,0-1-0.1-2.2-0.1h-2.2L87.7,66l-3.9,5.3l-0.1-10.5l-0.1-10.5l-1.6-0.1C80.7,50.2,80.2,50.3,80.1,50.6z"/>
	<path class="st1" d="M196.5,50.4c-0.1,0.1-0.2,1.3-0.2,2.7v2.6h1.7h1.7V53v-2.7h-1.5C197.4,50.2,196.6,50.3,196.5,50.4z"/>
	<path class="st0" d="M41,60.2c-1.9,0.3-3.3,1.4-4.6,3.4c-0.4,0.6-0.4,0.6-0.4-1.1v-1.7h-1.6h-1.6v13.6v13.6h1.7h1.7v-8.2
		c0-10.9,0.3-12.6,2.5-14.5c2.1-1.9,5.3-1.3,6.4,1.2c0.4,0.8,0.4,2.5,0.5,11.1l0.1,10.2h1.7h1.7V77.1c0-9.3-0.1-10.7-0.4-12
		C47.5,61.5,44.5,59.5,41,60.2z"/>
	<path class="st1" d="M106.4,60.2c-3.8,0.5-6.8,3.8-7.8,8.9c-0.5,2.6-0.5,7.4,0,10c0.8,4,2.9,7.2,5.7,8.5c2,0.9,4.8,0.9,6.8-0.1
		c4.2-2,6.2-6.9,5.9-14.5c-0.1-2.9-0.2-3.9-0.8-5.7C114.5,62.2,110.9,59.6,106.4,60.2z M109.2,64.2c1.9,0.8,3.3,2.8,3.9,5.5
		c0.4,2,0.4,7.1-0.1,9.2c-1.5,6.6-8,7.4-10.3,1.3c-1.1-2.8-1.1-8.8-0.1-11.9c0.3-0.8,0.9-1.9,1.6-2.6
		C105.7,63.9,107.3,63.4,109.2,64.2z"/>
	<path class="st1" d="M129.2,60.2c-1.6,0.3-3.1,1.2-4.2,2.7l-0.8,1.2l-0.1-1.7l-0.1-1.7h-1.6h-1.5l0.1,13.5l0.1,13.5l1.6,0.1
		l1.6,0.1v-7.1c0-12.5,0.5-14.6,3.4-16.1c2.2-1.1,4.3-0.3,5.4,2l0.7,1.3l0.1,10l0.1,10l1.6-0.1l1.6-0.1V77c0-9.7-0.1-10.8-0.5-12.1
		C135.6,61.3,132.8,59.7,129.2,60.2z"/>
	<path class="st1" d="M149.5,60.2c-2.8,0.4-5.2,2.3-6.6,5.3c-1.2,2.6-1.5,4-1.5,8.7c0,6,0.8,8.7,3.4,11.5c1.6,1.7,3.4,2.5,5.8,2.5
		c2.5,0,4.4-0.9,6.1-2.8c2.3-2.5,3-4.9,3.2-10.1c0.2-6.1-0.9-10.1-3.5-12.8C154.5,60.6,152.3,59.8,149.5,60.2z M152.4,64.3
		c1.4,0.6,2.8,2.3,3.3,4c0.7,2,0.9,5.3,0.7,8.1c-0.4,4-1.6,6.4-3.7,7.5c-3.2,1.6-6.4-0.6-7.4-4.9c-0.5-2.1-0.5-7.2-0.1-9.2
		c0.6-2.7,2-4.7,3.9-5.5C150.3,63.7,151.1,63.7,152.4,64.3z"/>
	<path class="st1" d="M172.1,60.2c-1.5,0.3-3,1.3-4,2.7l-0.8,1.2l-0.1-1.7l-0.1-1.7h-1.6H164l0.1,13.5l0.1,13.5h1.7h1.7l0.1-9.5
		c0.2-10.5,0.2-11,1.9-12.7c1.5-1.5,3.9-1.7,5.1-0.5c1.2,1.3,1.2,1.6,1.4,12.4l0.1,10.3l1.6,0.1l1.6,0.1l0.1-9.5
		c0.1-9.9,0.2-10.6,1.3-12.2c0.8-1.2,1.7-1.9,3.1-2c1.6-0.2,2.7,0.4,3.4,2c0.6,1.2,0.6,1.4,0.7,11.4l0.1,10.2l1.6-0.1l1.6-0.1V76.8
		c0-12.3-0.1-12.9-1.9-14.9c-1.2-1.4-2.2-1.8-4.2-1.8c-2.4,0-4.2,1.2-5.7,3.6l-0.5,0.8l-0.8-1.4C177,60.7,174.8,59.7,172.1,60.2z"/>
	<path class="st0" d="M215.7,60.9c-2.2,1-3.5,3.5-3.5,6.8c0,3.6,1.3,5.7,4.3,7.2c3.6,1.7,4.5,2.8,4.5,5.6c0,3.5-2.9,5.9-5.5,4.5
		c-0.8-0.4-1.9-1.6-2.2-2.5c-0.1-0.2-0.4,0-0.9,0.4l-0.8,0.8l0.6,1c1.1,2.1,4,3.4,6.2,2.8c1.3-0.3,2.7-1.6,3.4-2.9
		c1.3-2.6,1.2-6.5-0.2-8.9c-0.6-1-1.1-1.4-3.2-2.5c-3.9-2-4.5-2.8-4.5-5.7c0-2.1,0.4-3.1,1.7-4.2c0.7-0.6,1-0.7,2.3-0.6
		c1.2,0.1,1.5,0.3,2.1,0.9c0.4,0.4,0.8,1,0.9,1.1c0.1,0.3,0.3,0.2,0.9-0.4l0.8-0.7l-0.5-0.9C220.9,60.8,218,59.8,215.7,60.9z"/>
	<path class="st0" d="M235,60.8c-1.4,0.5-3.3,2.2-4.3,3.8c-2.8,4.3-3.1,12.5-0.6,17.6c1.1,2.4,2.4,3.8,4.3,4.7
		c3.1,1.5,6.4,0.6,8.4-2.2c0.5-0.8,1-1.5,1-1.7c0-0.2-0.3-0.6-0.6-0.9l-0.6-0.6l-0.5,0.9c-1.2,1.9-3.1,3.1-4.8,3.1
		c-1.3,0-3.3-1.1-4.4-2.2c-1.8-2.1-2.7-5.2-2.7-9.3c0-6.6,2.9-11.2,7-11.2c1.9,0,3.5,1,4.4,2.7l0.4,0.8l0.6-0.8
		c0.8-1,0.8-1.1-0.2-2.4C240.9,60.9,237.6,59.9,235,60.8z"/>
	<polygon class="st0" points="24.3,74.2 24.3,87.7 26,87.7 27.6,87.8 27.6,74.2 27.6,60.7 25.9,60.7 24.2,60.7 	"/>
	<polygon class="st1" points="196.4,74.2 196.4,87.7 198.1,87.7 199.7,87.8 199.7,74.2 199.7,60.7 198,60.7 196.3,60.7 	"/>
	<path class="st0" d="M225.4,84.1c-0.9,1-0.3,3.2,0.8,3.2c0.4,0,1.1-1.1,1.1-1.8c0-0.8-0.7-1.8-1.1-1.8
		C226,83.6,225.7,83.8,225.4,84.1z"/>
	<path class="st0" d="M246.8,84.2c-0.2,0.3-0.4,0.9-0.4,1.3c0,0.8,0.7,1.8,1.2,1.8c1.1,0,1.6-2.4,0.7-3.2
		C247.6,83.5,247.3,83.5,246.8,84.2z"/>
	<polygon class="st0" points="80.8,104.5 80.8,115.5 81.4,115.4 82,115.3 82,104.4 82.1,93.5 81.4,93.5 80.8,93.5 	"/>
	<path class="st0" d="M30.7,95.1c-2.1,1.1-3.8,3.7-4.4,6.8c-0.4,2.2-0.2,6.6,0.5,8.5c1.6,4.1,4.6,6.1,7.9,5.2
		c1.4-0.3,2.8-1.5,3.5-2.8c0.3-0.6,0.3-0.8-0.2-1.3c-0.4-0.5-0.5-0.5-0.7-0.2c-0.3,0.8-2.1,2.3-3.1,2.6c-4,1-7.2-3.5-6.8-9.5
		c0.3-5,2.5-8,5.8-8c1.4,0,2.8,0.8,3.4,2l0.4,0.8l0.5-0.6c0.3-0.3,0.5-0.8,0.5-0.9c0-0.5-1.5-2.1-2.5-2.6
		C34.3,94.4,31.9,94.5,30.7,95.1z"/>
	<polygon class="st0" points="131.7,105.2 131.8,115.3 132.4,115.3 133.1,115.3 133.2,110.5 133.2,105.8 136.5,105.8 139.7,105.8 
		139.7,104.9 139.7,104 136.5,104 133.2,104 133.2,100.3 133.2,96.7 136.7,96.7 140.2,96.7 140.2,95.9 140.2,95.1 135.9,95.1 
		131.6,95.1 	"/>
	<path class="st0" d="M142.1,95.9c-0.5,0.5-0.4,1.4,0.2,1.9c0.4,0.4,0.6,0.4,0.9,0.1c0.6-0.5,0.4-2.2-0.3-2.3
		C142.7,95.6,142.3,95.7,142.1,95.9z"/>
	<path class="st0" d="M186.4,96.2c-0.3,0.5-0.2,0.8,0.1,1.3c0.5,0.8,0.9,0.7,1.4-0.1c0.4-0.8,0.1-1.7-0.7-1.8
		C186.8,95.6,186.6,95.8,186.4,96.2z"/>
	<path class="st0" d="M85.5,100.2v2h-0.9c-0.8,0-0.9,0.1-0.9,0.8s0.1,0.8,0.9,0.8h0.9v4.7c0,5.1,0.2,6.1,1.4,6.9
		c0.5,0.3,0.9,0.4,1.6,0.3c0.8-0.2,0.9-0.3,0.9-1.1c0-0.9,0-0.9-0.7-0.7c-0.8,0.3-1.5,0-1.8-0.7c-0.1-0.2-0.2-2.5-0.2-5v-4.5h1.3
		c1.3,0,1.3,0,1.3-0.8s0-0.8-1.3-0.8h-1.3v-2c0-1.9,0-2-0.7-2S85.5,98.3,85.5,100.2z"/>
	<path class="st0" d="M43,102c-2.1,0.9-3.1,2.9-3.3,6c-0.2,2.8,0.4,4.7,1.9,6.3c2.5,2.6,6.2,1.3,7.4-2.7c0.6-2.1,0.4-5.3-0.5-6.9
		C47.2,102.2,44.9,101.1,43,102z M46.4,104.1c1.5,1.4,2,5.4,0.9,7.6c-1.5,2.8-4.2,2.9-5.8,0.3c-0.6-1-0.9-4.1-0.4-5.7
		C41.9,103.6,44.6,102.5,46.4,104.1z"/>
	<path class="st0" d="M54.6,102c-0.4,0.2-1,0.8-1.4,1.3l-0.6,0.8v-1c0-0.9-0.1-1-0.7-1h-0.7l0.1,6.6c0.1,6.5,0.1,6.6,0.6,6.7
		c0.6,0.1,0.6,0,0.7-4.4c0.1-4.2,0.2-4.6,0.8-5.8c0.5-1,0.9-1.4,1.6-1.6c1.1-0.4,1.8-0.2,2.5,0.8c0.5,0.7,0.5,1.2,0.6,5.9
		c0.1,5.2,0.1,5.2,0.7,5.1c0.6-0.1,0.6-0.1,0.6-5.4c0-5.1-0.1-5.4-0.6-6.5C57.8,101.8,56.2,101.2,54.6,102z"/>
	<path class="st0" d="M63.4,101.8c-2.2,0.9-2.8,4.6-1.1,6.3c0.4,0.4,1.3,0.9,1.9,1.1c1.9,0.5,2.5,1.1,2.5,2.5c0,0.9-0.1,1.3-0.8,1.8
		c-0.4,0.4-0.9,0.7-1,0.7c-0.7,0-2.1-0.8-2.4-1.4c-0.4-0.8-0.5-0.8-1.1-0.2c-0.5,0.5-0.5,0.5,0,1.2c1.3,1.7,3,2.3,4.6,1.5
		c1.3-0.6,2-2,2-3.8c0-1.8-0.6-2.8-2.1-3.4c-2.4-1-3-1.3-3.2-2.1c-0.8-2.1,2.4-3.6,3.5-1.7c0.5,0.9,0.5,0.9,1.2,0.3
		c0.5-0.3,0.5-0.4,0.1-1.1C66.7,102.1,64.7,101.3,63.4,101.8z"/>
	<path class="st0" d="M93.6,102.1c-3.4,1.5-4.3,8.3-1.5,11.9c0.8,1.1,2.6,1.8,3.9,1.6c1.1-0.2,2.6-1.5,3.3-2.8c1.6-3.1,1-7.9-1.2-10
		C96.7,101.5,95.4,101.3,93.6,102.1z M97.4,104.3c1.1,1,1.5,2.2,1.5,4.5c0,3.1-1.4,5.2-3.5,5.2c-1.9,0-3.3-1.8-3.5-4.7
		c-0.2-2.8,0.8-5.2,2.5-5.8C95.5,103.1,96.4,103.3,97.4,104.3z"/>
	<path class="st0" d="M105.3,102c-0.4,0.2-0.9,0.8-1.2,1.3l-0.5,0.8l-0.1-1c-0.1-0.8-0.2-1-0.8-1h-0.7l0.2,2
		c0.1,1.1,0.2,4.1,0.2,6.6c0,4.4,0,4.6,0.5,4.6c0.4,0,0.5-0.3,0.6-4.5c0.1-3.4,0.2-4.7,0.6-5.6c0.5-1.1,1.4-1.9,2.5-1.9
		c0.5,0,0.5-0.1,0.5-0.9C107,101.6,106.3,101.4,105.3,102z"/>
	<path class="st0" d="M110.9,102c-2.2,0.9-3.4,3.8-3.2,7.3c0.2,3.7,1.7,5.9,4.2,6.3c1.3,0.2,3.1-0.7,3.8-1.9
		c0.6-0.9,0.6-0.9,0.1-1.4c-0.5-0.5-0.5-0.5-0.9,0.2c-0.2,0.3-0.9,0.9-1.5,1.2c-1,0.5-1.3,0.5-2.1,0.2c-1.3-0.4-2.5-2.4-2.5-4.1
		v-0.6h3.8h3.8v-1.3c0-2.8-1.2-5.1-3-5.9C112.4,101.5,111.9,101.5,110.9,102z M113.9,104.1c0.7,0.7,1.3,2,1.3,2.9v0.7h-3.2h-3.2
		l0.2-0.9c0.2-1.4,1.3-2.9,2.3-3.2C112.4,103.2,113.1,103.4,113.9,104.1z"/>
	<path class="st0" d="M119.9,102.1c-1.3,0.6-1.9,1.9-1.7,3.8c0.1,1.9,0.7,2.6,2.8,3.4c2.3,0.8,3,2,2.2,3.6c-0.8,1.6-2.5,1.6-3.8,0
		c-0.7-0.8-0.8-0.9-1.1-0.6c-0.7,0.5-0.5,1.2,0.5,2.2c2.1,2.1,5.1,1.3,5.9-1.7c0.7-2.6-0.3-4.3-3-5.2c-0.9-0.3-1.8-0.8-2-1
		c-0.7-1.3,0.1-3.1,1.3-3.2c0.9-0.1,1.3,0.1,1.9,0.9c0.6,0.7,0.8,0.8,1.1,0.5c0.6-0.5,0.5-1.1-0.3-1.9
		C122.5,101.6,121.4,101.4,119.9,102.1z"/>
	<path class="st0" d="M149.5,102c-0.5,0.2-1.1,0.8-1.4,1.3l-0.5,0.9v-1c0-0.9-0.1-1-0.7-1h-0.7v6.7v6.6l0.6-0.1
		c0.6-0.1,0.6-0.2,0.7-4.6c0.2-5.3,0.4-6.3,2.1-7.1c0.8-0.4,1.1-0.4,1.7-0.1c1.3,0.6,1.5,1.4,1.6,6.9c0.1,5,0.1,5,0.7,5
		c0.5-0.1,0.5-0.2,0.5-5c0-2.8-0.2-5.4-0.3-6C153.3,102.3,151.3,101.2,149.5,102z"/>
	<path class="st0" d="M158.6,102.1c-1.5,0.8-1.8,1.1-1.4,2l0.3,0.7l0.6-0.6c0.3-0.3,0.9-0.7,1.4-0.8c1.9-0.5,3.1,0.4,3.4,2.5
		l0.2,1.4h-1.7c-2.4,0-3.8,0.7-4.5,2.2c-1.1,2.5-0.2,5.2,1.9,5.9c1.3,0.4,2.3,0.1,3.3-1l0.9-0.9l0.1,0.8c0.1,0.7,0.2,0.9,0.6,0.9
		c0.5,0,0.5-0.2,0.4-5.3c-0.1-4.3-0.2-5.5-0.5-6.2C162.6,101.8,160.5,101.2,158.6,102.1z M162.9,110.2c-0.2,2-0.8,3.1-1.9,3.5
		c-1.3,0.5-1.6,0.5-2.5-0.4c-0.8-0.8-1-2.2-0.5-3.2c0.4-0.8,2.2-1.5,3.7-1.5h1.3L162.9,110.2z"/>
	<path class="st0" d="M170.1,101.9c-0.3,0.1-0.9,0.6-1.4,1.1l-0.8,1V103c0-0.8-0.1-0.9-0.7-0.9h-0.7l0.1,6.6
		c0.1,6.5,0.1,6.6,0.6,6.7c0.6,0.1,0.6,0,0.7-4.4c0.1-4.2,0.2-4.6,0.8-5.8c0.5-1,0.9-1.4,1.6-1.6c1.1-0.4,1.8-0.2,2.5,0.8
		c0.5,0.7,0.5,1.2,0.7,5.8c0.1,4.9,0.2,5.1,0.7,5.1s0.5-0.2,0.5-5.3c0-5.1-0.1-5.4-0.6-6.5C173.1,102,171.5,101.3,170.1,101.9z"/>
	<path class="st0" d="M179.9,102.2c-4.6,2.3-3.9,12.4,1,13.4c1.1,0.2,2,0,3.1-1c0.9-0.8,1.1-1.5,0.6-2c-0.2-0.2-0.5-0.1-1.2,0.5
		c-2.2,2.2-5,0.1-5.2-4c-0.3-4.6,2.8-7.3,5.5-4.7l0.7,0.6l0.5-0.5c0.5-0.5,0.5-0.5-0.3-1.3c-0.8-0.9-2.1-1.5-2.9-1.5
		C181.2,101.6,180.5,101.9,179.9,102.2z"/>
	<path class="st0" d="M193.2,102c-1,0.5-1.9,1.6-2.6,3.1c-0.7,1.6-0.6,5.6,0.2,7.4c1.5,3.3,4.9,4.2,7,1.7c0.9-1,1-1.7,0.5-2.2
		c-0.3-0.2-0.5-0.1-0.9,0.5c-1.7,2.4-4.7,1.6-5.6-1.4c-0.6-2.1-0.9-2,3.5-2h4l-0.2-1.7C198.7,103.2,196,100.6,193.2,102z M196.5,104
		c0.5,0.5,1,1.5,1.3,2.7l0.2,1h-3.3h-3.3l0.2-0.9c0.4-1.7,1.5-3.1,2.6-3.4C194.8,103.3,196,103.6,196.5,104z"/>
	<path class="st0" d="M204.5,101.9c-0.3,0.1-0.9,0.7-1.4,1.2l-0.8,1v-1c0-0.9-0.1-1-0.7-1c-0.6,0-0.7,0.1-0.5,0.8
		c0.1,0.4,0.2,3.5,0.2,6.7v5.8l0.6-0.1c0.6-0.1,0.6-0.1,0.7-4.9c0.1-3.2,0.2-5,0.4-5.4c0.5-0.8,1.6-1.6,2.3-1.6
		c0.5,0,0.6-0.1,0.5-0.8C205.8,101.7,205.4,101.5,204.5,101.9z"/>
	<path class="st0" d="M209.6,102.2c-2.1,1.1-3.3,3.8-3.1,7.1c0.3,5.3,4.3,8.1,7.5,5.2c1.4-1.3,2.1-3.2,2.1-5.8
		c0-3.5-1.4-6.2-3.7-6.8C211.2,101.5,210.9,101.5,209.6,102.2z M213.3,104.1c1.5,1.3,2,5.3,1,7.5c-1.4,3-4.4,3.2-5.9,0.2
		c-0.6-1.3-0.8-4.1-0.4-5.5C209,103.5,211.5,102.5,213.3,104.1z"/>
	<path class="st0" d="M219.6,102.1c-1.8,0.9-2.5,3.8-1.3,5.6c0.4,0.7,1.1,1.1,2.5,1.6c2.1,0.8,2.6,1.6,2.3,3
		c-0.4,2.1-2.8,2.3-4.3,0.4c-0.4-0.6-0.6-0.7-0.9-0.4c-0.6,0.5-0.5,1.2,0.3,2.1c0.8,0.9,2.6,1.5,3.5,1.3c2.5-0.6,3.6-4.6,1.9-6.7
		c-0.4-0.5-1.3-0.9-2.3-1.3c-0.9-0.3-1.8-0.8-2-1c-0.7-1.3,0.1-3.1,1.3-3.2c0.9-0.1,1.3,0.1,2,0.9s0.7,0.8,1.2,0.3
		c0.5-0.5,0.5-0.5-0.1-1.5c-0.6-0.9-1.7-1.5-2.7-1.5C220.6,101.6,220,101.8,219.6,102.1z"/>
	<path class="st0" d="M69.9,107.4c0.1,4.9,0.1,5.4,0.7,6.4c0.6,1.1,1.7,1.9,2.8,1.9c0.8,0,2.2-0.9,2.7-1.6l0.4-0.8l0.1,1
		c0.1,0.8,0.3,1,0.7,1.1l0.6,0.1v-6.6v-6.7h-0.6h-0.6l-0.1,4.5c-0.1,4.3-0.1,4.6-0.7,5.7c-0.5,0.8-0.9,1.3-1.6,1.5
		c-0.9,0.3-1,0.3-1.7-0.2c-1.1-0.8-1.3-1.9-1.3-6.9l0-4.6h-0.7h-0.7L69.9,107.4z"/>
	<polygon class="st0" points="142.1,108.7 142.2,115.3 142.8,115.4 143.4,115.5 143.4,108.8 143.4,102.1 142.7,102.1 142.1,102.1 	
		"/>
	<ellipse class="st0" cx="187.2" cy="108.8" rx="0.5" ry="6.6"/>
</g>
</svg>
