<?xml version="1.0" encoding="utf-8"?>
<!-- Generator: Adobe Illustrator 22.1.0, SVG Export Plug-In . SVG Version: 6.00 Build 0)  -->
<svg version="1.1" id="Capa_1" xmlns="http://www.w3.org/2000/svg" xmlns:xlink="http://www.w3.org/1999/xlink" x="0px" y="0px"
	 viewBox="0 0 250 166" style="enable-background:new 0 0 250 166;" xml:space="preserve">
<style type="text/css">
	.st0{fill:#88898C;}
	.st1{fill:#152342;}
</style>
<g>
	<g>
		<path class="st0" d="M168.2,55.7c-0.3-1.8-1.7-2.8-3.7-2.8c-3.1,0-4.2,2.7-4.2,5.4c0,2.7,1.2,5.4,4.2,5.4c2.2,0,3.5-1.3,3.7-3.4
			h4.8c-0.3,4.7-3.7,7.5-8.3,7.5c-5.5,0-9.1-4.2-9.1-9.5c0-5.3,3.6-9.5,9.1-9.5c3.9,0,8.2,2.5,8.3,6.9H168.2z"/>
		<path class="st0" d="M175.3,54.2h4.2v2.3h0.1c0.6-1.7,2.1-2.6,4-2.6c0.3,0,0.7,0,1,0.1v4c-0.6-0.2-1.1-0.3-1.7-0.3
			c-2.1,0-3.3,1.5-3.3,3.1v6.6h-4.3V54.2z"/>
		<path class="st0" d="M189.8,61.9c0.1,1.8,1.1,3,3,3c1.1,0,2.1-0.5,2.5-1.5h4.1c-0.8,3.1-3.6,4.4-6.6,4.4c-4.3,0-7.2-2.6-7.2-7
			c0-4.1,3.2-7,7.1-7c4.7,0,7.1,3.6,6.9,8.1H189.8z M195.2,59.5c-0.1-1.5-1.1-2.7-2.6-2.7c-1.5,0-2.6,1.1-2.8,2.7H195.2z"/>
		<path class="st0" d="M214.7,67.5h-4.1v-1.5h0c-0.8,1.2-2.1,1.9-3.7,1.9c-4.2,0-5.9-3.6-5.9-7.3c0-3.5,1.8-6.7,5.6-6.7
			c1.6,0,2.9,0.6,3.8,1.8h0.1v-6.4h4.3V67.5z M205.3,60.7c0,1.8,0.7,3.8,2.7,3.8c2.1,0,2.6-2,2.6-3.7c0-1.9-0.7-3.7-2.6-3.7
			C206,57.1,205.3,59,205.3,60.7z"/>
		<path class="st0" d="M222,52.6h-4.3v-3.3h4.3V52.6z M217.7,54.2h4.3v13.2h-4.3V54.2z"/>
		<path class="st0" d="M231.5,57h-2.7v6c0,1,0.6,1.3,1.6,1.3c0.4,0,0.7-0.1,1.1-0.1v3.2c-0.8,0-1.6,0.1-2.4,0.1
			c-3.7,0-4.6-1.1-4.6-4.7V50.2h4.3v4h2.7V57z"/>
		<path class="st0" d="M156.4,75.5h9.3c3.2,0,6.4,1.5,6.4,5.1c0,2-0.9,3.8-2.9,4.6v0.1c1.9,0.5,2.5,2.6,2.7,4.4
			c0,0.8,0.1,3.4,0.8,4.1H168c-0.4-0.6-0.5-2.4-0.5-2.9c-0.1-1.8-0.4-3.7-2.7-3.7h-3.6v6.6h-4.7V75.5z M161.2,83.4h4
			c1.4,0,2.2-0.8,2.2-2.1c0-1.4-1.1-2-2.4-2h-3.8V83.4z"/>
		<path class="st0" d="M174.5,84.6c0.1-1.7,0.9-2.9,2.1-3.5c1.2-0.7,2.7-0.9,4.2-0.9c3.1,0,6.2,0.7,6.2,4.4v5.8c0,1.1,0,2.3,0.5,3.4
			h-4.4c-0.2-0.4-0.2-0.8-0.3-1.3c-1.1,1.2-2.8,1.6-4.4,1.6c-2.5,0-4.5-1.3-4.5-4c0-4.3,4.7-4,7.7-4.6c0.7-0.2,1.2-0.4,1.2-1.2
			c0-1-1.2-1.4-2.1-1.4c-1.2,0-2,0.5-2.2,1.7H174.5z M180.2,91.5c2.1,0,2.8-1.2,2.7-3.9c-0.6,0.4-1.7,0.5-2.7,0.7
			c-1,0.2-1.8,0.6-1.8,1.7C178.3,91,179.2,91.5,180.2,91.5z"/>
		<path class="st0" d="M197,83.3h-2.7v6c0,1,0.6,1.3,1.6,1.3c0.4,0,0.7-0.1,1.1-0.1v3.2c-0.8,0-1.6,0.1-2.4,0.1
			c-3.7,0-4.6-1.1-4.6-4.7V76.5h4.3v4h2.7V83.3z"/>
		<path class="st0" d="M203.6,78.8h-4.3v-3.3h4.3V78.8z M199.2,80.5h4.3v13.2h-4.3V80.5z"/>
		<path class="st0" d="M206.5,80.5h4.2v1.8h0c0.8-1.3,2.6-2.2,4.2-2.2c4.4,0,4.8,3.2,4.8,5.1v8.5h-4.3v-6.4c0-1.8,0.2-3.6-2.2-3.6
			c-1.6,0-2.3,1.4-2.3,2.8v7.2h-4.3V80.5z"/>
		<path class="st0" d="M235.3,92.1c0,2.2-0.4,6.3-6.6,6.3c-3.1,0-6-0.7-6.5-4.2h4.3c0.1,0.6,0.3,0.9,0.7,1.1
			c0.4,0.2,0.9,0.3,1.6,0.3c2.1,0,2.3-1.5,2.3-3.1v-1.2h-0.1c-0.8,1.2-2.1,1.9-3.5,1.9c-4,0-5.8-2.9-5.8-6.6c0-3.5,2.1-6.5,5.8-6.5
			c1.6,0,2.8,0.7,3.5,2h0v-1.7h4.2V92.1z M228.6,83.4c-1.9,0-2.5,1.7-2.5,3.3c0,1.6,0.7,3.1,2.5,3.1c1.8,0,2.6-1.4,2.6-3.1
			C231.2,85.1,230.6,83.4,228.6,83.4z"/>
		<path class="st0" d="M161.4,101.8h4.8L173,120h-5l-1.1-3.3h-6.4l-1.1,3.3h-4.9L161.4,101.8z M161.7,113.3h4.1l-2-6.4h0
			L161.7,113.3z"/>
		<path class="st0" d="M187.2,118.4c0,2.2-0.4,6.3-6.6,6.3c-3.1,0-6-0.7-6.5-4.2h4.3c0.1,0.6,0.3,0.9,0.7,1.1
			c0.4,0.2,0.9,0.3,1.6,0.3c2.1,0,2.3-1.5,2.3-3.1v-1.3H183c-0.8,1.2-2.1,1.9-3.5,1.9c-4,0-5.8-2.9-5.8-6.6c0-3.5,2.1-6.5,5.8-6.5
			c1.6,0,2.8,0.7,3.6,2h0v-1.7h4.2V118.4z M180.5,109.7c-1.9,0-2.5,1.7-2.5,3.3c0,1.6,0.7,3.1,2.5,3.1c1.8,0,2.6-1.4,2.6-3.1
			C183.1,111.4,182.4,109.7,180.5,109.7z"/>
		<path class="st0" d="M193.6,114.5c0.1,1.8,1.1,3,3,3c1,0,2.1-0.5,2.5-1.5h4.1c-0.8,3.1-3.6,4.4-6.6,4.4c-4.3,0-7.2-2.6-7.2-7
			c0-4.1,3.2-7,7.1-7c4.7,0,7.1,3.6,6.9,8.1H193.6z M199,112.1c-0.1-1.5-1.1-2.7-2.6-2.7c-1.5,0-2.6,1.1-2.8,2.7H199z"/>
		<path class="st0" d="M205.4,106.8h4.2v1.8h0c0.8-1.4,2.6-2.2,4.2-2.2c4.4,0,4.8,3.2,4.8,5.1v8.5h-4.3v-6.4c0-1.8,0.2-3.6-2.2-3.6
			c-1.6,0-2.3,1.4-2.3,2.8v7.2h-4.3V106.8z"/>
		<path class="st0" d="M230.1,111.7c0-1.1-1-1.9-2.1-1.9c-2.4,0-2.8,2.1-2.8,3.9c0,1.7,0.7,3.5,2.6,3.5c1.5,0,2.3-0.9,2.5-2.3h4.2
			c-0.4,3.6-3.1,5.6-6.7,5.6c-4,0-6.9-2.7-6.9-6.8c0-4.2,2.7-7.2,6.9-7.2c3.3,0,6.2,1.7,6.5,5.2H230.1z"/>
		<path class="st0" d="M243.4,121.2c-1.1,2.9-2.6,3.3-5.5,3.3h-2V121h1.5c1,0,1.7-0.6,1.7-1.5c0-0.7-0.8-2.8-1.1-3.5l-3.4-9.2h4.6
			l2.5,8.6h0.1l2.5-8.6h4.4L243.4,121.2z"/>
	</g>
	<g>
		<g>
			<g>
				<g>
					<g>
						<path class="st1" d="M90.1,31.6H1.3v70.7h104.5V47.9C104.5,33.2,90.1,31.6,90.1,31.6z M92.3,88.3H76.6L62.5,69.2v-2.4
							c0,0,9.3,1.6,9.8-9.3c0.2-5.9-4.4-9.2-9.9-7.9c0,0-1.6,1-1.6,3.1c0,4.4,0,11.9,0,11.9v16.8c0,0-0.9,4.3,5.8,4.4v2.4H44.3v-2.1
							h2.4c0,0,4.3,0.1,4-4.2c-0.1-1.9-0.1-7.8-0.1-13.8H32.7v13.2c0,0-0.9,4.3,5.8,4.4v2.4H16.2v-2.1h2.4c0,0,4.3,0.1,4-4.2
							c-0.3-4.3,0-28.9,0-28.9s-0.1-2.8-2.8-3.4c-2.7-0.6-3.9-0.4-3.9-0.4v-2.8h22.8v2.5c0,0-5.9-0.6-6.1,3.9
							c-0.1,4.4,0,11.9,0,11.9v0.6h17.8c0-6.4,0.1-12.2,0.1-12.2s-0.1-2.8-2.8-3.4C45.1,49,44,49.2,44,49.2v-2.8h25.9
							c0,0,14.5-0.9,13.9,10.5c-0.7,9-7.7,10.7-9.8,11c3.9,3.7,12.3,17.2,15.3,17.5c3,0.3,3,0,3,0V88.3z"/>
						<path class="st0" d="M33.1,122c0,1,0.6,1.7,1.5,1.7c0.6,0,1.3-0.3,1.8-0.9l0.1-2.8h-0.1C33.9,120,33.1,120.5,33.1,122z
							 M95.7,108c-1.7,0-3.1,1.5-3.1,3.2c0,1.8,1.4,3.2,3.1,3.2c1.7,0,3.1-1.5,3.1-3.2C98.8,109.5,97.4,108,95.7,108z M96.4,113.4
							l-1-1.7h-0.2v1.7h-1.2V109h1.6c0.5,0,1.9,0,1.9,1.4c0,0.9-0.5,1.2-1,1.2l1.1,1.8H96.4z M75.2,116.9c0-1.2-0.8-1.9-2.1-1.9
							c-1.3,0-2,0.7-2,1.9c0,1.3,0.8,1.9,2,1.9C74.4,118.7,75.2,118.1,75.2,116.9z M23,111.1c-0.4-0.2-1.1-0.3-2-0.3h-1.2l0,4.8h1.2
							c1.5,0,2.2-0.1,2.6-0.6c0.4-0.4,0.7-1.1,0.7-1.8C24.3,112.2,23.8,111.4,23,111.1z M1.3,102.4v32h104.5v-32H1.3z M24.9,125.8
							c-0.7-1.2-1-1.7-1.6-2.9c-1.7-3.2-2.3-4.1-2.9-4.4c-0.2-0.1-0.3-0.1-0.6-0.2v7.4h-3.5v-17.8l6.5,0c3.1,0,5.2,2.1,5.2,5.2
							c0,2.7-1.7,4.9-3.9,4.9c0.4,0.3,0.5,0.4,0.7,0.7c1,1.3,4.2,6.9,4.2,6.9H24.9z M39.1,126.4c-0.8-0.3-1.5-0.9-1.8-1.6
							c-0.5,0.5-0.5,0.5-0.8,0.7c-0.6,0.5-1.5,0.7-2.6,0.7c-2.9,0-4.4-1.5-4.4-4.1c0-3.1,2.1-4.5,6.2-4.5c0.3,0,0.4,0,0.8,0v-0.5
							c0-1.5-0.3-1.9-1.5-1.9c-1.1,0-2.3,0.5-3.7,1.5l-1.4-2.5c0.8-0.5,1.2-0.7,2.1-1.1c1.3-0.5,2.3-0.8,3.5-0.8
							c2.2,0,3.7,0.8,4.2,2.3c0.2,0.5,0.2,0.9,0.2,2.4l-0.1,4.4v0.2c0,1.4,0.2,1.9,1.2,2.7L39.1,126.4z M46.1,126.1
							c-1.7,0-3.1-0.8-3.5-1.9c-0.2-0.6-0.2-0.8-0.2-2v-7.2h-1.3v-2.2h1.3c0-1.3,0-2.1,0.1-3.1l3.4-0.9c-0.1,1.2-0.2,2.6-0.2,3.9h3
							l-0.9,2.3h-2.2v6.7c0,1.7,0.3,2.1,1.5,2.1c0.3,0,0.6-0.1,1.2-0.3l0.4,2C47.9,125.9,47,126.1,46.1,126.1z M52.7,125.8h-3.4
							v-12.9l3.4-0.5V125.8z M51,111.2c-1.1,0-2.1-0.9-2.1-2.1c0-1.2,1-2.1,2.1-2.1c1.1,0,2,0.9,2,2.1
							C53.1,110.2,52.2,111.2,51,111.2z M65.5,125.8h-3.3v-8.5c0-1.5-0.3-1.9-1.1-1.9c-0.7,0-1.6,0.5-2.3,1.2v9.3h-3.4v-9.5
							c0-1.1-0.2-2.2-0.5-3.1l3-0.9c0.3,0.5,0.5,1.1,0.5,1.6c0.8-0.6,0.9-0.7,1.5-1c0.7-0.4,1.6-0.6,2.3-0.6c1.4,0,2.7,0.8,3.1,1.9
							c0.2,0.5,0.3,1.1,0.3,1.9V125.8z M78.4,129.1c-1.1,1.2-3.1,1.7-5.1,1.7c-1.8,0-3.7-0.3-4.9-1.4c-0.7-0.7-1.1-1.4-1.1-2.3
							c0-0.7,0.2-1.1,0.3-1.3h3.1c-0.1,0.3-0.1,0.4-0.1,0.8c0,1,0.8,1.6,2.4,1.6c1,0,1.7-0.1,2.1-0.4c0.5-0.3,0.8-0.8,0.8-1.3
							c0-0.5-0.3-1-0.6-1.2c-0.4-0.2-0.8-0.3-1.8-0.4c-0.2,0-0.7,0-1.4,0c-1.5,0-2.5-0.2-3.1-0.4c-0.3-0.1-0.6-0.4-0.7-0.6
							c-0.1-0.3-0.3-0.7-0.3-1.1c0-0.5,0.1-0.9,0.4-1.2c0.4-0.4,1.2-0.8,2-1c-1.9-0.5-2.8-1.7-2.8-3.6c0-2.7,2.1-4.4,5.4-4.4
							c0.7,0,1.4,0.1,2.3,0.3c0.9,0.2,1.2,0.3,1.6,0.3c0.9,0,1.9-0.4,2.7-1.1l1.4,2.2c-0.7,0.7-1.4,1-2.4,1c-0.3,0-0.5,0-0.9-0.1
							c0.5,0.6,0.8,1.3,0.8,2.1c0,2.3-2,3.9-4.8,3.9c-0.2,0-0.2,0-0.5,0c-0.9,0.4-1.3,0.7-1.3,1.1c0,0.2,0.2,0.3,0.6,0.3l1.8,0
							c2,0,3,0.3,3.9,1.2c0.8,0.7,1.1,1.6,1.1,2.8C79.4,127.5,79.1,128.3,78.4,129.1z M85.6,126.2c-1.6,0-3.3-0.5-5.2-1.5l1.2-2.5
							c1,0.6,2.8,1.5,4.3,1.5c1,0,1.7-0.6,1.7-1.5c0-0.9-0.6-1.4-2-1.6l-1.5-0.3c-0.9-0.2-1.9-0.8-2.4-1.3c-0.5-0.6-0.7-1.5-0.7-2.4
							c0-2.6,2-4.3,5-4.3c2.1,0,3.4,0.6,4.6,1.2l-1.1,2.3c-1.3-0.7-2.2-0.9-3.2-0.9c-1,0-1.6,0.5-1.6,1.3c0,0.7,0.4,1,1.6,1.3
							l1.6,0.4c1.6,0.4,2.1,0.9,2.6,1.5c0.5,0.6,0.7,1.4,0.7,2.2C91.1,124.3,88.9,126.2,85.6,126.2z M95.7,115.5
							c-2.3,0-4.2-1.9-4.2-4.3c0-2.3,1.9-4.3,4.2-4.3c2.4,0,4.3,1.9,4.3,4.3C99.9,113.6,98,115.5,95.7,115.5z M95.7,109.9h-0.5v1
							h0.5c0.3,0,0.7,0,0.7-0.5C96.4,109.9,95.9,109.9,95.7,109.9z"/>
					</g>
				</g>
			</g>
		</g>
		<g>
			<defs>
				<rect id="SVGID_1_" x="128.1" y="33.6" width="5.4" height="100.8"/>
			</defs>
			<use xlink:href="#SVGID_1_"  style="overflow:visible;fill:#93BA1F;"/>
			<clipPath id="SVGID_2_">
				<use xlink:href="#SVGID_1_"  style="overflow:visible;"/>
			</clipPath>
		</g>
	</g>
</g>
</svg>
