<svg id="Layer_1" data-name="Layer 1" xmlns="http://www.w3.org/2000/svg" viewBox="0 0 793.7 13.43"><defs><style>.cls-1{fill:#d60b52;}.cls-2{fill:#95c11f;}.cls-3{fill:#8e1a50;}.cls-4{fill:#006eb7;}.cls-5{fill:#e84e0f;}.cls-6{fill:#00929e;}</style></defs><title>borde</title><polygon class="cls-1" points="2.82 13.43 0 13.43 8.8 0 12.6 0 2.82 13.43"/><polygon class="cls-2" points="17.59 13.43 14.62 13.43 19.89 0 22.25 0 17.59 13.43"/><polygon class="cls-3" points="9.11 13.43 11.66 13.43 4.11 0 0.31 0 9.11 13.43"/><polygon class="cls-4" points="14.38 13.43 17.48 13.43 12.54 0 8.8 0 14.38 13.43"/><polygon class="cls-5" points="23.49 13.43 19.85 13.43 19.85 0 22.25 0 23.49 13.43"/><polygon class="cls-6" points="23.49 0 26.89 0 26.89 13.43 24.74 13.43 23.49 0"/><polygon class="cls-1" points="31.22 13.43 28.4 13.43 37.2 0 41 0 31.22 13.43"/><polygon class="cls-2" points="45.99 13.43 43.02 13.43 48.29 0 50.65 0 45.99 13.43"/><polygon class="cls-3" points="37.51 13.43 40.06 13.43 32.52 0 28.71 0 37.51 13.43"/><polygon class="cls-4" points="42.78 13.43 45.88 13.43 40.94 0 37.2 0 42.78 13.43"/><polygon class="cls-5" points="51.89 13.43 48.25 13.43 48.25 0 50.65 0 51.89 13.43"/><polygon class="cls-6" points="51.89 0 55.3 0 55.29 13.43 53.14 13.43 51.89 0"/><polygon class="cls-1" points="59.62 13.43 56.8 13.43 65.6 0 69.4 0 59.62 13.43"/><polygon class="cls-2" points="74.39 13.43 71.42 13.43 76.69 0 79.05 0 74.39 13.43"/><polygon class="cls-3" points="65.91 13.43 68.46 13.43 60.91 0 57.11 0 65.91 13.43"/><polygon class="cls-4" points="71.18 13.43 74.28 13.43 69.34 0 65.6 0 71.18 13.43"/><polygon class="cls-5" points="80.29 13.43 76.65 13.43 76.65 0 79.05 0 80.29 13.43"/><polygon class="cls-6" points="80.29 0 83.69 0 83.69 13.43 81.54 13.43 80.29 0"/><polygon class="cls-1" points="88.02 13.43 85.2 13.43 94 0 97.8 0 88.02 13.43"/><polygon class="cls-2" points="102.79 13.43 99.82 13.43 105.09 0 107.45 0 102.79 13.43"/><polygon class="cls-3" points="94.31 13.43 96.86 13.43 89.31 0 85.51 0 94.31 13.43"/><polygon class="cls-4" points="99.58 13.43 102.68 13.43 97.74 0 94 0 99.58 13.43"/><polygon class="cls-5" points="108.69 13.43 105.05 13.43 105.05 0 107.45 0 108.69 13.43"/><polygon class="cls-6" points="108.69 0 112.09 0 112.09 13.43 109.94 13.43 108.69 0"/><polygon class="cls-1" points="116.42 13.43 113.6 13.43 122.4 0 126.2 0 116.42 13.43"/><polygon class="cls-2" points="131.19 13.43 128.22 13.43 133.49 0 135.85 0 131.19 13.43"/><polygon class="cls-3" points="122.71 13.43 125.26 13.43 117.72 0 113.91 0 122.71 13.43"/><polygon class="cls-4" points="127.98 13.43 131.08 13.43 126.14 0 122.4 0 127.98 13.43"/><polygon class="cls-5" points="137.09 13.43 133.45 13.43 133.45 0 135.85 0 137.09 13.43"/><polygon class="cls-6" points="137.09 0 140.5 0 140.5 13.43 138.34 13.43 137.09 0"/><polygon class="cls-1" points="144.82 13.43 142 13.43 150.8 0 154.6 0 144.82 13.43"/><polygon class="cls-2" points="159.59 13.43 156.62 13.43 161.89 0 164.25 0 159.59 13.43"/><polygon class="cls-3" points="151.11 13.43 153.66 13.43 146.12 0 142.31 0 151.11 13.43"/><polygon class="cls-4" points="156.38 13.43 159.49 13.43 154.54 0 150.8 0 156.38 13.43"/><polygon class="cls-5" points="165.49 13.43 161.85 13.43 161.85 0 164.25 0 165.49 13.43"/><polygon class="cls-6" points="165.49 0 168.9 0 168.9 13.43 166.74 13.43 165.49 0"/><polygon class="cls-1" points="173.22 13.43 170.4 13.43 179.2 0 183 0 173.22 13.43"/><polygon class="cls-2" points="187.99 13.43 185.02 13.43 190.29 0 192.65 0 187.99 13.43"/><polygon class="cls-3" points="179.51 13.43 182.06 13.43 174.52 0 170.71 0 179.51 13.43"/><polygon class="cls-4" points="184.78 13.43 187.88 13.43 182.94 0 179.2 0 184.78 13.43"/><polygon class="cls-5" points="193.89 13.43 190.25 13.43 190.25 0 192.65 0 193.89 13.43"/><polygon class="cls-6" points="193.89 0 197.3 0 197.3 13.43 195.14 13.43 193.89 0"/><polygon class="cls-1" points="201.62 13.43 198.8 13.43 207.6 0 211.4 0 201.62 13.43"/><polygon class="cls-2" points="216.39 13.43 213.42 13.43 218.69 0 221.05 0 216.39 13.43"/><polygon class="cls-3" points="207.91 13.43 210.46 13.43 202.91 0 199.11 0 207.91 13.43"/><polygon class="cls-4" points="213.18 13.43 216.28 13.43 211.34 0 207.6 0 213.18 13.43"/><polygon class="cls-5" points="222.29 13.43 218.65 13.43 218.65 0 221.05 0 222.29 13.43"/><polygon class="cls-6" points="222.29 0 225.7 0 225.7 13.43 223.54 13.43 222.29 0"/><polygon class="cls-1" points="230.02 13.43 227.2 13.43 236 0 239.8 0 230.02 13.43"/><polygon class="cls-2" points="244.79 13.43 241.82 13.43 247.09 0 249.45 0 244.79 13.43"/><polygon class="cls-3" points="236.31 13.43 238.86 13.43 231.32 0 227.51 0 236.31 13.43"/><polygon class="cls-4" points="241.58 13.43 244.69 13.43 239.75 0 236 0 241.58 13.43"/><polygon class="cls-5" points="250.69 13.43 247.05 13.43 247.05 0 249.45 0 250.69 13.43"/><polygon class="cls-6" points="250.69 0 254.1 0 254.1 13.43 251.94 13.43 250.69 0"/><polygon class="cls-1" points="258.42 13.43 255.6 13.43 264.4 0 268.2 0 258.42 13.43"/><polygon class="cls-2" points="273.19 13.43 270.22 13.43 275.49 0 277.85 0 273.19 13.43"/><polygon class="cls-3" points="264.71 13.43 267.26 13.43 259.72 0 255.91 0 264.71 13.43"/><polygon class="cls-4" points="269.98 13.43 273.09 13.43 268.14 0 264.4 0 269.98 13.43"/><polygon class="cls-5" points="279.09 13.43 275.45 13.43 275.45 0 277.85 0 279.09 13.43"/><polygon class="cls-6" points="279.09 0 282.5 0 282.5 13.43 280.34 13.43 279.09 0"/><polygon class="cls-1" points="286.82 13.43 284 13.43 292.8 0 296.6 0 286.82 13.43"/><polygon class="cls-2" points="301.59 13.43 298.62 13.43 303.89 0 306.25 0 301.59 13.43"/><polygon class="cls-3" points="293.11 13.43 295.66 13.43 288.12 0 284.31 0 293.11 13.43"/><polygon class="cls-4" points="298.38 13.43 301.49 13.43 296.55 0 292.8 0 298.38 13.43"/><polygon class="cls-5" points="307.5 13.43 303.85 13.43 303.85 0 306.25 0 307.5 13.43"/><polygon class="cls-6" points="307.5 0 310.9 0 310.9 13.43 308.74 13.43 307.5 0"/><polygon class="cls-1" points="315.22 13.43 312.4 13.43 321.2 0 325 0 315.22 13.43"/><polygon class="cls-2" points="329.99 13.43 327.02 13.43 332.29 0 334.65 0 329.99 13.43"/><polygon class="cls-3" points="321.51 13.43 324.06 13.43 316.52 0 312.71 0 321.51 13.43"/><polygon class="cls-4" points="326.78 13.43 329.89 13.43 324.94 0 321.2 0 326.78 13.43"/><polygon class="cls-5" points="335.89 13.43 332.25 13.43 332.25 0 334.65 0 335.89 13.43"/><polygon class="cls-6" points="335.89 0 339.3 0 339.3 13.43 337.14 13.43 335.89 0"/><polygon class="cls-1" points="343.62 13.43 340.8 13.43 349.6 0 353.4 0 343.62 13.43"/><polygon class="cls-2" points="358.39 13.43 355.43 13.43 360.69 0 363.05 0 358.39 13.43"/><polygon class="cls-3" points="349.91 13.43 352.46 13.43 344.92 0 341.11 0 349.91 13.43"/><polygon class="cls-4" points="355.18 13.43 358.29 13.43 353.35 0 349.6 0 355.18 13.43"/><polygon class="cls-5" points="364.3 13.43 360.65 13.43 360.65 0 363.05 0 364.3 13.43"/><polygon class="cls-6" points="364.3 0 367.7 0 367.7 13.43 365.54 13.43 364.3 0"/><polygon class="cls-1" points="372.02 13.43 369.2 13.43 378 0 381.81 0 372.02 13.43"/><polygon class="cls-2" points="386.79 13.43 383.83 13.43 389.09 0 391.45 0 386.79 13.43"/><polygon class="cls-3" points="378.31 13.43 380.86 13.43 373.32 0 369.51 0 378.31 13.43"/><polygon class="cls-4" points="383.58 13.43 386.69 13.43 381.75 0 378 0 383.58 13.43"/><polygon class="cls-5" points="392.7 13.43 389.05 13.43 389.05 0 391.45 0 392.7 13.43"/><polygon class="cls-6" points="392.7 0 396.1 0 396.1 13.43 393.94 13.43 392.7 0"/><polygon class="cls-1" points="400.42 13.43 397.6 13.43 406.4 0 410.2 0 400.42 13.43"/><polygon class="cls-2" points="415.19 13.43 412.23 13.43 417.49 0 419.85 0 415.19 13.43"/><polygon class="cls-3" points="406.71 13.43 409.26 13.43 401.72 0 397.91 0 406.71 13.43"/><polygon class="cls-4" points="411.98 13.43 415.09 13.43 410.15 0 406.4 0 411.98 13.43"/><polygon class="cls-5" points="421.1 13.43 417.45 13.43 417.45 0 419.85 0 421.1 13.43"/><polygon class="cls-6" points="421.1 0 424.5 0 424.5 13.43 422.34 13.43 421.1 0"/><polygon class="cls-1" points="428.82 13.43 426 13.43 434.8 0 438.61 0 428.82 13.43"/><polygon class="cls-2" points="443.59 13.43 440.63 13.43 445.89 0 448.25 0 443.59 13.43"/><polygon class="cls-3" points="435.11 13.43 437.66 13.43 430.12 0 426.31 0 435.11 13.43"/><polygon class="cls-4" points="440.38 13.43 443.49 13.43 438.55 0 434.8 0 440.38 13.43"/><polygon class="cls-5" points="449.5 13.43 445.85 13.43 445.85 0 448.25 0 449.5 13.43"/><polygon class="cls-6" points="449.5 0 452.9 0 452.9 13.43 450.74 13.43 449.5 0"/><polygon class="cls-1" points="457.22 13.43 454.4 13.43 463.2 0 467 0 457.22 13.43"/><polygon class="cls-2" points="471.99 13.43 469.02 13.43 474.29 0 476.65 0 471.99 13.43"/><polygon class="cls-3" points="463.51 13.43 466.06 13.43 458.52 0 454.71 0 463.51 13.43"/><polygon class="cls-4" points="468.78 13.43 471.89 13.43 466.95 0 463.2 0 468.78 13.43"/><polygon class="cls-5" points="477.9 13.43 474.25 13.43 474.25 0 476.65 0 477.9 13.43"/><polygon class="cls-6" points="477.9 0 481.3 0 481.3 13.43 479.14 13.43 477.9 0"/><polygon class="cls-1" points="485.62 13.43 482.8 13.43 491.6 0 495.41 0 485.62 13.43"/><polygon class="cls-2" points="500.39 13.43 497.43 13.43 502.69 0 505.05 0 500.39 13.43"/><polygon class="cls-3" points="491.91 13.43 494.46 13.43 486.92 0 483.12 0 491.91 13.43"/><polygon class="cls-4" points="497.18 13.43 500.29 13.43 495.35 0 491.6 0 497.18 13.43"/><polygon class="cls-5" points="506.3 13.43 502.65 13.43 502.65 0 505.05 0 506.3 13.43"/><polygon class="cls-6" points="506.3 0 509.7 0 509.7 13.43 507.54 13.43 506.3 0"/><polygon class="cls-1" points="514.02 13.43 511.2 13.43 520 0 523.81 0 514.02 13.43"/><polygon class="cls-2" points="528.79 13.43 525.83 13.43 531.09 0 533.45 0 528.79 13.43"/><polygon class="cls-3" points="520.31 13.43 522.86 13.43 515.32 0 511.51 0 520.31 13.43"/><polygon class="cls-4" points="525.58 13.43 528.69 13.43 523.75 0 520 0 525.58 13.43"/><polygon class="cls-5" points="534.7 13.43 531.05 13.43 531.05 0 533.45 0 534.7 13.43"/><polygon class="cls-6" points="534.7 0 538.1 0 538.1 13.43 535.94 13.43 534.7 0"/><polygon class="cls-1" points="542.42 13.43 539.61 13.43 548.4 0 552.21 0 542.42 13.43"/><polygon class="cls-2" points="557.19 13.43 554.23 13.43 559.49 0 561.85 0 557.19 13.43"/><polygon class="cls-3" points="548.71 13.43 551.26 13.43 543.72 0 539.91 0 548.71 13.43"/><polygon class="cls-4" points="553.98 13.43 557.09 13.43 552.15 0 548.4 0 553.98 13.43"/><polygon class="cls-5" points="563.1 13.43 559.46 13.43 559.46 0 561.85 0 563.1 13.43"/><polygon class="cls-6" points="563.1 0 566.5 0 566.5 13.43 564.34 13.43 563.1 0"/><polygon class="cls-1" points="570.82 13.43 568 13.43 576.8 0 580.61 0 570.82 13.43"/><polygon class="cls-2" points="585.59 13.43 582.63 13.43 587.89 0 590.25 0 585.59 13.43"/><polygon class="cls-3" points="577.11 13.43 579.66 13.43 572.12 0 568.32 0 577.11 13.43"/><polygon class="cls-4" points="582.38 13.43 585.49 13.43 580.55 0 576.8 0 582.38 13.43"/><polygon class="cls-5" points="591.5 13.43 587.85 13.43 587.85 0 590.25 0 591.5 13.43"/><polygon class="cls-6" points="591.5 0 594.9 0 594.9 13.43 592.74 13.43 591.5 0"/><polygon class="cls-1" points="599.22 13.43 596.4 13.43 605.2 0 609.01 0 599.22 13.43"/><polygon class="cls-2" points="613.99 13.43 611.03 13.43 616.29 0 618.65 0 613.99 13.43"/><polygon class="cls-3" points="605.51 13.43 608.06 13.43 600.52 0 596.71 0 605.51 13.43"/><polygon class="cls-4" points="610.78 13.43 613.89 13.43 608.95 0 605.2 0 610.78 13.43"/><polygon class="cls-5" points="619.9 13.43 616.25 13.43 616.25 0 618.65 0 619.9 13.43"/><polygon class="cls-6" points="619.9 0 623.3 0 623.3 13.43 621.14 13.43 619.9 0"/><polygon class="cls-1" points="627.62 13.43 624.8 13.43 633.6 0 637.41 0 627.62 13.43"/><polygon class="cls-2" points="642.39 13.43 639.43 13.43 644.69 0 647.05 0 642.39 13.43"/><polygon class="cls-3" points="633.91 13.43 636.46 13.43 628.92 0 625.12 0 633.91 13.43"/><polygon class="cls-4" points="639.18 13.43 642.29 13.43 637.35 0 633.6 0 639.18 13.43"/><polygon class="cls-5" points="648.3 13.43 644.65 13.43 644.65 0 647.05 0 648.3 13.43"/><polygon class="cls-6" points="648.3 0 651.7 0 651.7 13.43 649.54 13.43 648.3 0"/><polygon class="cls-1" points="656.02 13.43 653.21 13.43 662 0 665.81 0 656.02 13.43"/><polygon class="cls-2" points="670.79 13.43 667.83 13.43 673.09 0 675.45 0 670.79 13.43"/><polygon class="cls-3" points="662.31 13.43 664.86 13.43 657.32 0 653.51 0 662.31 13.43"/><polygon class="cls-4" points="667.58 13.43 670.69 13.43 665.75 0 662 0 667.58 13.43"/><polygon class="cls-5" points="676.7 13.43 673.06 13.43 673.06 0 675.45 0 676.7 13.43"/><polygon class="cls-6" points="676.7 0 680.1 0 680.1 13.43 677.95 13.43 676.7 0"/><polygon class="cls-1" points="684.42 13.43 681.61 13.43 690.4 0 694.21 0 684.42 13.43"/><polygon class="cls-2" points="699.19 13.43 696.23 13.43 701.49 0 703.85 0 699.19 13.43"/><polygon class="cls-3" points="690.71 13.43 693.26 13.43 685.72 0 681.91 0 690.71 13.43"/><polygon class="cls-4" points="695.98 13.43 699.09 13.43 694.15 0 690.4 0 695.98 13.43"/><polygon class="cls-5" points="705.1 13.43 701.46 13.43 701.46 0 703.85 0 705.1 13.43"/><polygon class="cls-6" points="705.1 0 708.5 0 708.5 13.43 706.35 13.43 705.1 0"/><polygon class="cls-1" points="712.82 13.43 710 13.43 718.8 0 722.61 0 712.82 13.43"/><polygon class="cls-2" points="727.59 13.43 724.63 13.43 729.89 0 732.25 0 727.59 13.43"/><polygon class="cls-3" points="719.12 13.43 721.66 13.43 714.12 0 710.32 0 719.12 13.43"/><polygon class="cls-4" points="724.38 13.43 727.49 13.43 722.55 0 718.8 0 724.38 13.43"/><polygon class="cls-5" points="733.5 13.43 729.86 13.43 729.86 0 732.25 0 733.5 13.43"/><polygon class="cls-6" points="733.5 0 736.9 0 736.9 13.43 734.75 13.43 733.5 0"/><polygon class="cls-1" points="741.22 13.43 738.41 13.43 747.2 0 751.01 0 741.22 13.43"/><polygon class="cls-2" points="755.99 13.43 753.03 13.43 758.29 0 760.65 0 755.99 13.43"/><polygon class="cls-3" points="747.51 13.43 750.06 13.43 742.52 0 738.72 0 747.51 13.43"/><polygon class="cls-4" points="752.78 13.43 755.89 13.43 750.95 0 747.2 0 752.78 13.43"/><polygon class="cls-5" points="761.9 13.43 758.25 13.43 758.25 0 760.65 0 761.9 13.43"/><polygon class="cls-6" points="761.9 0 765.3 0 765.3 13.43 763.14 13.43 761.9 0"/><polygon class="cls-1" points="769.62 13.43 766.81 13.43 775.61 0 779.41 0 769.62 13.43"/><polygon class="cls-2" points="784.39 13.43 781.43 13.43 786.69 0 789.05 0 784.39 13.43"/><polygon class="cls-3" points="775.91 13.43 778.46 13.43 770.92 0 767.12 0 775.91 13.43"/><polygon class="cls-4" points="781.18 13.43 784.29 13.43 779.35 0 775.61 0 781.18 13.43"/><polygon class="cls-5" points="790.3 13.43 786.66 13.43 786.66 0 789.05 0 790.3 13.43"/><polygon class="cls-6" points="790.3 0 793.7 0 793.7 13.43 791.54 13.43 790.3 0"/></svg>