<svg id="Capa_1" data-name="Capa 1" xmlns="http://www.w3.org/2000/svg" xmlns:xlink="http://www.w3.org/1999/xlink" viewBox="0 0 411.42 134.74"><defs><style>.cls-1{fill:none;}.cls-2{clip-path:url(#clip-path);}.cls-3{fill:#fff;}</style><clipPath id="clip-path"><rect class="cls-1" width="411.42" height="134.74"/></clipPath></defs><title>fecha</title><g class="cls-2"><path class="cls-3" d="M359,134.13l-10.39-16.85,9.93-15.82h-5.27l-5.12,8.19c-.77,1.23-1.69,2.77-2.36,4h-.1c-.67-1.28-1.64-2.87-2.36-4l-5.07-8.19h-5.63l10,16.13-10.45,16.54h5.28l5.42-8.6c.77-1.23,1.85-3,2.56-4.3h.1c.77,1.38,1.69,3,2.51,4.3l5.33,8.6Zm-30.12,0-2.92-32.67h-3.07l-8.6,16.8c-1.38,2.71-3,5.88-4,8.39h-.1c-1.07-2.51-2.76-5.83-4.09-8.39l-8.71-16.8h-3.07l-2.82,32.67h4.41l1.28-14.75c.15-1.94.41-4.81.51-7.32h.1c1.13,2.41,2.51,5.33,3.64,7.48l7.68,14.84h1.84l7.58-14.84c1.07-2.1,2.66-5.28,3.68-7.58h.11c.1,2.4.3,5.22.51,7.42l1.33,14.75ZM282.38,117.8c0,8.29-6.1,12.13-13.47,12.13h-4.25V105.66h4.25c7.37,0,13.47,3.84,13.47,12.14m5.07,0c0-10.55-8.56-16.34-17.67-16.34h-10v32.67h10c9.11,0,17.67-5.79,17.67-16.33M255.11,103a19.4,19.4,0,0,0-9.62-2.15c-8.14,0-17.61,5.68-17.61,17,0,11.16,9.36,16.94,17.61,16.94,4.2,0,6.5-.51,8.55-1.58l1-4.77a17.75,17.75,0,0,1-9,2.05c-6.55,0-13.16-4.2-13.16-12.64s6.76-12.7,13.16-12.7a16.44,16.44,0,0,1,8.19,2.15ZM210,101.46h-5v32.67h5ZM187.68,103a19.37,19.37,0,0,0-9.62-2.15c-8.14,0-17.61,5.68-17.61,17,0,11.16,9.37,16.94,17.61,16.94,4.2,0,6.5-.51,8.55-1.58l1-4.77a17.75,17.75,0,0,1-9,2.05c-6.55,0-13.16-4.2-13.16-12.64s6.76-12.7,13.16-12.7a16.44,16.44,0,0,1,8.19,2.15ZM160,105.71v-4.25H134v4.25h10.5v28.42h5V105.71Zm-28.08-4.25h-4.56l-5.27,15.06c-.72,2-1.74,4.86-2.41,7.47h-.1c-.72-2.66-1.59-5.38-2.31-7.47L112,101.46h-4.25l-5.22,15.06c-.77,2.2-1.64,4.81-2.36,7.47h-.1c-.66-2.66-1.64-5.32-2.4-7.47l-5.28-15.06h-5L99,134.59h1.69l6.09-17.46c.87-2.46,1.79-5.22,2.81-8.76h.11c1,3.54,1.94,6.25,2.81,8.76l6.1,17.46h1.69Z"/><path class="cls-3" d="M407.33,61.49c0,4.93-4.36,8.32-9.28,8.32s-9.28-3.39-9.28-8.32c0-4.67,4.28-7.81,9.08-9.15,4.93,1.28,9.48,4.48,9.48,9.15m-1.67-20.35c0,3.39-2.69,6-7.29,7.42-4.68-1.28-7.62-4-7.62-7.42,0-3.84,3.39-6.53,7.42-6.53s7.49,2.69,7.49,6.53m5.76,20.48c0-6.15-4.93-10.12-8.83-11.33,3.52-1.41,7-4.67,7-9.22,0-6-5.06-9.92-11.4-9.92s-11.45,4.1-11.45,9.92c0,4.55,3.45,7.94,7,9.28-3.77,1.28-8.76,5.12-8.76,11.27,0,7.36,6,11.77,13.24,11.77S411.42,69,411.42,61.62M377.63,72.69V31.22l-11.39,1-.9,3.52,8.26-.83V72.69ZM360.12,52.21c0,12.22-4.93,17.53-10.56,17.53S339,64.37,339,52.21s4.93-17.41,10.56-17.41,10.56,5.38,10.56,17.41m4.1,0c0-14-7.11-21.06-14.66-21.06-7.81,0-14.65,7-14.65,21.06,0,14.27,6.84,21.18,14.65,21.18,7.62,0,14.66-7,14.66-21.18M331.84,72.69V69.17H313.73c7.55-7.3,16.06-18.11,16.06-25.79,0-7.94-5.18-12.23-12.73-12.23a17.49,17.49,0,0,0-9.28,2.69l1,3.65a13.63,13.63,0,0,1,8.32-2.75c4.92,0,8.64,2.68,8.64,8.51,0,6.46-6.79,16.13-19.14,28.48v1ZM295.47,23.52a34.33,34.33,0,0,1-.22,3.47c-2,8.07-8.18,11.87-15.68,11.87-9.19,0-15.8-6.83-15.8-16.46,0-9.41,6.72-16.13,15.46-16.13s16.24,7.28,16.24,17.25m7.17,1.23C302.64,9,292,0,279.34,0c-13.21,0-22.73,9.52-22.73,22.4,0,13.1,9.29,22.62,22.51,22.62,6.61,0,11.76-3,13.89-6-5,13.1-16.13,25-30.13,32.14l7.17,3.14c18.7-10.08,32.59-30.24,32.59-49.51m-48,47.94V67.38H236.54V54.83h13.25V49.52H236.54V37.17h15.81V31.86h-22V72.69ZM213.78,43.31c0,4.29-3.39,6.21-7,6.21h-5.69V37.1h5.69c3.65,0,7,2,7,6.21M226.9,72.69,213,53.81a10.89,10.89,0,0,0,7.17-10.5c0-7.74-6.53-11.45-12.29-11.45H194.9V72.69h6.15V54.77h5.76l12.86,17.92ZM182.37,60.27c0,5-4,7.17-8.32,7.17h-5.82V53.1h5.82c4.29,0,8.32,2.31,8.32,7.17m-3.71-17.73c0,3.78-2.88,5.32-6.21,5.32h-4.22V37.1h4.22c3.33,0,6.21,1.6,6.21,5.44m10.05,17.73a11.23,11.23,0,0,0-7.55-10.56c2.36-1,3.77-4.16,3.77-7.17,0-7.16-6-10.68-11.45-10.68h-11.4V72.69h13.25c6.34,0,13.38-4,13.38-12.42m-34.85-2V31.86h-6V57.65c0,6.08-3.46,10.3-10.56,10.3s-10.5-4.22-10.5-10.3V31.86h-6.21V58.29c0,9.53,7.11,15.17,16.64,15.17s16.64-5.64,16.64-15.17M116.75,37.17V31.86H84.3v5.31H97.42V72.69h6.21V37.17ZM81.51,33.71C79,32.3,75.11,31,69.48,31c-10.18,0-22,7.11-22,21.25,0,13.95,11.71,21.19,22,21.19,5.25,0,8.13-.64,10.69-2l1.28-6c-2.56,1.54-6.4,2.56-11.27,2.56-8.19,0-16.45-5.25-16.45-15.81S62.18,36.4,70.18,36.4a20.64,20.64,0,0,1,10.24,2.69ZM37,52.21a15.37,15.37,0,1,1-30.72,0,15.37,15.37,0,1,1,30.72,0m6.27,0C43.26,39.09,32.51,31,21.63,31S0,39.09,0,52.21,10.75,73.46,21.63,73.46s21.63-8,21.63-21.25"/></g></svg>