<svg id="Capa_1" data-name="Capa 1" xmlns="http://www.w3.org/2000/svg" xmlns:xlink="http://www.w3.org/1999/xlink" viewBox="0 0 734.26 287.83"><defs><style>.cls-1{fill:none;}.cls-2{fill:#d91c5c;}.cls-3{fill:#8bc53f;}.cls-4{fill:#881c56;}.cls-5{fill:#0074bb;}.cls-6{fill:#f05a22;}.cls-7{fill:#009da4;}.cls-8{clip-path:url(#clip-path);}.cls-9{fill:#93021d;}.cls-10{fill:#6d6e6b;}.cls-11{fill:#620000;}</style><clipPath id="clip-path" transform="translate(0 -1)"><rect class="cls-1" width="734.26" height="288.83"/></clipPath></defs><title>logo</title><polygon class="cls-2" points="288.99 0 217.4 109.25 240.34 109.24 319.94 0 288.99 0"/><polygon class="cls-3" points="379.21 0 336.38 109.24 360.49 109.25 398.42 0.01 381.62 0 379.21 0"/><polygon class="cls-4" points="219.93 0 291.51 109.24 312.26 109.24 250.88 0.01 223.8 0 219.93 0"/><polygon class="cls-5" points="288.99 0 334.38 109.25 359.67 109.25 319.46 0 288.99 0"/><polygon class="cls-6" points="378.92 0 378.92 109.24 408.55 109.24 398.42 0.01 381.36 0 378.92 0"/><polygon class="cls-7" points="408.56 0 418.7 109.25 436.24 109.25 436.24 0 408.56 0"/><g class="cls-8"><path class="cls-9" d="M71.64,242.37,68.72,210c-.45-4.83-.9-11-1.13-16.28h-.22c-2.25,5.05-5.73,12-8.08,16.61L42.67,242.93h-4L21.78,210.36c-2.47-4.71-5.5-11.11-8-16.39h-.22c-.23,5.5-.79,11.79-1.13,16.06l-2.8,32.34H0l6.18-71.64h6.73L32,207.56c2.92,5.61,6.63,12.91,9,18.41h.23c2.25-5.5,5.72-12.46,8.76-18.41l18.86-36.83h6.74L82,242.37Z" transform="translate(0 -1)"/><rect class="cls-9" x="90.45" y="169.73" width="10.89" height="71.64"/><path class="cls-9" d="M166.14,183.42c-3.49-2.25-10.56-4.72-18-4.72-14,0-28.86,9.1-28.86,27.85,0,18.52,14.49,27.73,28.86,27.73,8.53,0,15.27-1.8,19.76-4.49l-2.25,10.44c-4.49,2.36-9.54,3.48-18.75,3.48-18.07,0-38.62-12.69-38.62-37.16,0-24.82,20.77-37.28,38.62-37.28,9.89,0,16.73,2.24,21.11,4.71Z" transform="translate(0 -1)"/><path class="cls-9" d="M216.58,242.37,194,210.93h-10.1v31.44H173.13V170.73h22.68c10.11,0,21.56,6.51,21.56,20.1,0,9.54-5.61,15.61-12.58,18.41l24.48,33.13ZM193.9,179.93h-10v21.79h10c6.4,0,12.35-3.37,12.36-10.89s-6-10.9-12.36-10.9" transform="translate(0 -1)"/><path class="cls-9" d="M261.73,243.71c-19.08,0-38-14-38-37.28,0-23,18.86-37.16,38-37.16s38,14.14,38,37.16c0,23.25-18.87,37.28-38,37.28m0-65c-13.25,0-27,10-26.94,27.73s13.69,27.85,26.94,27.85c13,0,26.95-10.11,26.95-27.85s-13.92-27.73-26.95-27.73" transform="translate(0 -1)"/><polygon class="cls-9" points="316.85 179.05 316.85 200.72 341.11 200.72 341.11 210.04 316.86 210.04 316.85 241.37 305.96 241.37 305.96 169.73 345.6 169.73 345.6 179.05 316.85 179.05"/><rect class="cls-9" x="348.75" y="169.73" width="10.89" height="71.64"/><path class="cls-9" d="M431.12,243.94l-33.57-36.72c-5.39-5.84-11.57-13-16.5-18.86l-.23.11c.22,6.51.23,12.58.22,18v35.94H370.15V170.73h7.53l30.76,33.69c4.16,4.6,10.67,11.78,15.05,17.17l.22-.11c-.22-5.5-.22-11.68-.22-16.84V170.73h10.89v73.21Z" transform="translate(0 -1)"/><path class="cls-9" d="M491.22,242.37l-7.75-18.53H455.62l-7.74,18.53H437.21l30.54-72.65h3.93l30.54,72.65Zm-18.53-44.69a88.53,88.53,0,0,1-3-8.76h-.23a64.19,64.19,0,0,1-3,8.76l-7.07,17.51h20.43Z" transform="translate(0 -1)"/><path class="cls-9" d="M566,243.94l-33.57-36.72c-5.39-5.84-11.57-13-16.51-18.86l-.22.11c.22,6.51.22,12.57.22,18v35.94H505.05V170.73h7.52l30.77,33.69c4.16,4.6,10.67,11.78,15,17.17l.22-.11c-.22-5.5-.22-11.68-.22-16.84V170.73h10.89v73.21Z" transform="translate(0 -1)"/><path class="cls-9" d="M572.62,242.37v-2.59l22.69-39.86c3.7-6.4,8.3-14.48,11.78-20l-.11-.11H574.41v-9.09h47.72v2.58l-22.9,40c-3.71,6.4-8.2,14.15-11.68,19.88l.11.11h35.71v9.1Z" transform="translate(0 -1)"/><path class="cls-9" d="M678.17,242.37l-7.74-18.53H642.58l-7.75,18.53H624.16l30.54-72.65h3.94l30.54,72.65Zm-18.52-44.69a88.43,88.43,0,0,1-3-8.76h-.22a67,67,0,0,1-3,8.76l-7.07,17.51h20.43Z" transform="translate(0 -1)"/><path class="cls-9" d="M709.56,243.71c-7.75,0-14.83-2.35-18.53-4.83L688.56,227c6.85,4.83,13.81,7.3,21.56,7.3,8,0,13.25-4.49,13.25-11.12,0-6.17-3.82-10.33-12.47-13.13-12.8-4.16-19.54-11.34-19.54-21.22s7.42-19.54,22.69-19.54c7.07,0,13,2.24,15.61,4.15l-2.14,9a26.17,26.17,0,0,0-13.92-4.16c-7.3,0-11.79,4.49-11.79,9.77,0,4.71,4,8.53,11.56,11.12,12.46,4.26,20.89,10.89,20.89,23,0,12.8-8.54,21.56-24.7,21.56" transform="translate(0 -1)"/><polygon class="cls-6" points="3.9 224.49 2.63 210.81 1.46 224.49 3.9 224.49"/><path class="cls-7" d="M4.37,191.65l3.14,33.84h3.61L12.46,210c.34-4.27.9-10.56,1.13-16.06h.17v-7.38H4.81Z" transform="translate(0 -1)"/><path class="cls-2" d="M35,213.48c-1-2.07-2.09-4.09-3-5.93l-.94-1.81-6.52,9.95,3.69,7.13Z" transform="translate(0 -1)"/><path class="cls-3" d="M77,186.59h0Z" transform="translate(0 -1)"/><path class="cls-3" d="M68.33,205.47c.13,1.59.26,3.14.39,4.56l1.18,13.06,5.73-16.49V186.86Z" transform="translate(0 -1)"/><path class="cls-4" d="M46.13,215.22c-1.24,2.53-2.43,5.05-3.49,7.42l1.87,2.85h7.06l.15-.31Z" transform="translate(0 -1)"/><polygon class="cls-4" points="21.14 185.59 19.02 185.59 29.14 201.04 21.14 185.59"/><path class="cls-5" d="M57.07,193.69,51.26,205l4.83,11.61,3.2-6.27c.68-1.33,1.45-2.86,2.26-4.48Z" transform="translate(0 -1)"/><polygon class="cls-6" points="80.46 224.49 76.98 185.59 75.73 185.59 75.63 185.59 75.63 185.86 75.63 205.6 75.63 224.49 80.46 224.49"/><rect class="cls-7" x="90.45" y="185.59" width="5.59" height="38.9"/><path class="cls-2" d="M126.32,187.65l-.44-1.06-7.3,11.15,1.36,2.43a25.48,25.48,0,0,1,6.38-12.52" transform="translate(0 -1)"/><polygon class="cls-2" points="101.34 223.05 100.39 224.49 101.34 224.49 101.34 223.05"/><path class="cls-2" d="M111.35,221.66l6.8-9.34-4.56-7-4.82,7.35a35.87,35.87,0,0,0,2.58,9" transform="translate(0 -1)"/><path class="cls-4" d="M121,216.62a29.87,29.87,0,0,1-1.66-10.08,31.49,31.49,0,0,1,.63-6.37l-1.36-2.43-5.51-9.8a35,35,0,0,0-4,10.57l4.49,6.84,4.56,7Z" transform="translate(0 -1)"/><polygon class="cls-4" points="101.29 185.59 101.34 185.66 101.34 185.59 101.29 185.59"/><path class="cls-5" d="M127.36,186.59h-1.48l.44,1.06c.34-.36.69-.72,1-1.06" transform="translate(0 -1)"/><rect class="cls-7" x="173.13" y="185.59" width="5.18" height="38.9"/><polygon class="cls-2" points="183.91 222.59 182.67 224.49 183.91 224.49 183.91 222.59"/><polygon class="cls-2" points="192.21 209.92 194.01 209.92 197.7 215.06 200.43 211.32 195.86 204.35 192.21 209.92"/><path class="cls-2" d="M212.16,196.22l-4-9.63-2,3a12.41,12.41,0,0,1,.06,1.24,9.9,9.9,0,0,1-4.4,8.7l3.44,6.12Z" transform="translate(0 -1)"/><path class="cls-3" d="M236.59,216.91a31.35,31.35,0,0,1-.08-20.71l-7.21,18.38,4,10.91h.29Z" transform="translate(0 -1)"/><path class="cls-3" d="M237.07,194.76a26.22,26.22,0,0,1,3.1-5.37v-2.53Z" transform="translate(0 -1)"/><path class="cls-3" d="M242.59,186.59h0Z" transform="translate(0 -1)"/><path class="cls-4" d="M206.79,208.31l-1.5-2.67-3.44-6.11a14.32,14.32,0,0,1-7.95,2.19h-.42l2.38,3.63,4.57,7,8.62,13.17h7.39l-1.14-2-10.51-14.22c.69-.28,1.35-.59,2-.93" transform="translate(0 -1)"/><polygon class="cls-4" points="183.57 185.59 183.91 186.12 183.91 185.59 183.57 185.59"/><path class="cls-5" d="M214.37,201.56a19.42,19.42,0,0,0,3-10.73,22,22,0,0,0-.41-4.24h-8.81l4,9.63Z" transform="translate(0 -1)"/><path class="cls-5" d="M224.2,200.7a39.51,39.51,0,0,0-.42,5.73,37,37,0,0,0,5,19.06h4.51l-4-10.91Z" transform="translate(0 -1)"/><path class="cls-6" d="M240.17,186.86v2.53a26,26,0,0,1,2.42-2.79h-2.42Z" transform="translate(0 -1)"/><path class="cls-6" d="M240.17,223.51v2h1.63c-.57-.63-1.11-1.29-1.63-2" transform="translate(0 -1)"/><path class="cls-2" d="M285.83,193.61a28.33,28.33,0,0,1,2.77,10.62l5.83-8-4-9.63Z" transform="translate(0 -1)"/><polygon class="cls-3" points="316.85 200.72 316.85 200.12 311.58 213.58 315.59 224.49 315.89 224.49 316.85 221.71 316.85 210.04 320.9 210.04 322.45 205.6 322.45 200.72 316.85 200.72"/><path class="cls-4" d="M288.65,207.58A29.06,29.06,0,0,1,286.42,218l4.91,7.5h3.33a37.26,37.26,0,0,0,1.93-3.78Z" transform="translate(0 -1)"/><polygon class="cls-5" points="305.96 198.32 305.96 222.97 306.59 224.49 315.59 224.49 311.58 213.58 305.96 198.32"/><path class="cls-5" d="M299.69,206.43a36.53,36.53,0,0,0-5.6-19.84h-3.66l4,9.63,5.19,12.5c0-.75.07-1.51.07-2.29" transform="translate(0 -1)"/><polygon class="cls-6" points="331.66 210.04 330.79 200.72 322.45 200.72 322.45 205.6 322.45 210.04 331.66 210.04"/><polygon class="cls-7" points="335.27 210.04 341.11 210.04 341.11 200.72 334.4 200.72 335.27 210.04"/><polygon class="cls-2" points="370.15 189.48 370.15 204.21 376.7 195.22 372.7 185.59 370.15 189.48"/><polygon class="cls-2" points="383.72 185.59 383.55 185.59 383.61 185.75 383.72 185.59"/><polygon class="cls-2" points="355.38 224.49 359.65 218.63 359.65 205.51 348.75 222.14 348.75 224.49 355.38 224.49"/><path class="cls-3" d="M401,196.29l-4,10.31.57.62,5,5.51,2.13-6.13v-6.27Z" transform="translate(0 -1)"/><polygon class="cls-4" points="348.75 185.59 348.75 186.57 359.65 203.19 359.65 186.51 359.13 185.6 348.75 185.59"/><polygon class="cls-4" points="370.15 219.22 373.6 224.49 380.99 224.49 370.15 205.21 370.15 219.22"/><path class="cls-5" d="M383.61,186.75l-.06-.16H372.7l4,9.63L381,206.67v-.24c0-5.39,0-11.45-.22-18l.23-.12c1.72,2,3.6,4.25,5.54,6.5Z" transform="translate(0 -1)"/><path class="cls-6" d="M414.25,225.49h1l-1.39-15c-2-2.23-3.88-4.32-5.44-6.05l-3.72-4.08v14.73Z" transform="translate(0 -1)"/><path class="cls-7" d="M417.91,215l1,10.47h6.25v-38.9h-1.64v18c0,5.16,0,11.34.22,16.84l-.22.11c-1.64-2-3.58-4.28-5.58-6.57" transform="translate(0 -1)"/><polygon class="cls-2" points="453.38 202.9 458.98 195.22 457.8 192.39 453.38 202.9"/><polygon class="cls-2" points="434.38 217.02 429.49 224.49 434.38 224.49 434.38 217.02"/><polygon class="cls-2" points="465.99 185.59 465.82 185.59 465.88 185.75 465.99 185.59"/><polygon class="cls-3" points="483.08 195.83 477.8 209.32 479.76 214.19 476.35 214.19 479.53 222.84 481.01 222.84 486.99 205.6 486.99 205.13 483.08 195.83"/><polygon class="cls-4" points="452.42 205.19 448.82 213.73 455.3 223.61 455.62 222.84 462.33 222.84 452.42 205.19"/><polygon class="cls-4" points="430.39 185.59 434.38 191.68 434.38 185.59 430.39 185.59"/><path class="cls-5" d="M459,196.22,463,206l3.36-8.33c.57-1.32,1.2-3,1.79-4.66l-2.31-6.27-.06-.16h-5.16l-2.86,6.8Z" transform="translate(0 -1)"/><polygon class="cls-5" points="466.86 214.19 470.45 222.84 479.53 222.84 476.35 214.19 466.86 214.19"/><polygon class="cls-6" points="495.13 224.49 486.99 205.13 486.99 205.6 486.99 224.49 495.13 224.49"/><rect class="cls-7" x="505.05" y="185.59" width="2.35" height="38.9"/><polygon class="cls-2" points="515.94 224.49 515.94 218.11 511.76 224.49 515.94 224.49"/><polygon class="cls-2" points="538.86 198.5 533 192.09 529.95 196.74 534.38 204.65 538.86 198.5"/><path class="cls-3" d="M558.44,214.49v.19l4,10.81h.3l6.56-18.9V186.86Z" transform="translate(0 -1)"/><path class="cls-4" d="M534.38,205.65,530,197.74l-6.27-11.14h-11l3.14,4.79c0-1,0-1.92-.08-2.91l.22-.11c4.94,5.84,11.12,13,16.51,18.86l7.32,8Z" transform="translate(0 -1)"/><path class="cls-5" d="M558.61,221.48l-.22.11c-3.6-4.43-8.63-10.05-12.61-14.48l7.63,18.38h9l-4-10.81c0,2.3.08,4.61.17,6.8" transform="translate(0 -1)"/><polygon class="cls-6" points="569.28 224.49 569.28 185.59 569.27 185.59 569.27 185.86 569.27 205.59 569.27 224.49 569.28 224.49"/><polygon class="cls-7" points="589.67 224.49 589.67 208.8 583.06 220.43 583.43 224.49 589.67 224.49"/><polygon class="cls-3" points="651.65 185.59 651.65 185.59 658.49 185.6 651.65 185.59"/><polygon class="cls-3" points="648.56 214.19 646.29 214.19 651.54 201.18 651.54 185.87 640.67 213.58 644.07 222.84 645.56 222.84 648.56 214.19"/><path class="cls-4" d="M603,186.6c-1.26,2.12-2.55,4.33-3.82,6.53l6.16,9.41,4.81-8.4L606,186.6Z" transform="translate(0 -1)"/><polygon class="cls-5" points="638.42 207.46 633.49 219.19 635.68 224.49 641.89 224.49 642.58 222.84 644.07 222.84 640.67 213.58 638.42 207.46"/><polygon class="cls-6" points="661.14 214.19 651.54 214.19 651.54 222.84 661.94 222.84 661.14 214.19"/><path class="cls-6" d="M653.36,197.68a67,67,0,0,0,3-8.76h.22c.85,2.86,1.9,6,2.86,8.34l-1-10.66h-7v15.59Z" transform="translate(0 -1)"/><polygon class="cls-7" points="671.95 200.38 665.73 185.59 662.09 185.59 664.16 207.85 666.72 214.19 664.75 214.19 665.55 222.84 670.43 222.84 671.12 224.49 671.95 224.49 671.95 200.38"/><polygon class="cls-2" points="679.83 219.12 676.31 224.49 682.08 224.49 679.83 219.12"/><path class="cls-2" d="M701.81,188a9.39,9.39,0,0,1,.08-1.19l-.1-.24-7.3,11.15,2.54,4.51a23.63,23.63,0,0,0,2.7,2.3l6.07-8.33-.62-1.47a8.89,8.89,0,0,1-3.37-6.73" transform="translate(0 -1)"/><path class="cls-3" d="M731.87,212.2a21.29,21.29,0,0,0-5.49-6.37l-3.44,8.75,4,10.91h.29Z" transform="translate(0 -1)"/><path class="cls-4" d="M691.81,193a18.41,18.41,0,0,0,5.22,9.27l-2.54-4.51Z" transform="translate(0 -1)"/><path class="cls-5" d="M717.9,200.88q-2.16-.94-4.53-1.75a24.36,24.36,0,0,1-8.19-4.38l.62,1.47,5.84,14.06c8.12,2.81,11.73,6.89,11.73,12.88a11,11,0,0,1-.24,2.33H727l-4-10.91Z" transform="translate(0 -1)"/><path class="cls-5" d="M701.93,186.59h-.14l.1.24c0-.08,0-.16,0-.24" transform="translate(0 -1)"/><path class="cls-6" d="M733.81,217.61v7.88H734a27.94,27.94,0,0,0,.23-3.34,22.69,22.69,0,0,0-.45-4.54" transform="translate(0 -1)"/><polygon class="cls-10" points="142.03 157.7 142.03 131.21 155.86 131.21 155.86 133.61 144.82 133.61 144.82 143.16 153.87 143.16 153.87 145.57 144.82 145.57 144.82 155.29 157.31 155.29 157.31 157.7 142.03 157.7"/><path class="cls-10" d="M182.08,159.28l-13-14.95c-2.24-2.57-4.65-5.44-6.48-7.64l-.08,0c.08,2.45.08,4.94.08,7.35V158.7h-2.78V132.2h1.95L174,146.28c1.83,2.08,4.28,4.94,6,7.1l.08,0c-.08-2.37-.08-4.77-.08-7V132.2h2.78v27.08Z" transform="translate(0 -1)"/><path class="cls-10" d="M207.92,136a13.61,13.61,0,0,0-7-1.82c-6,0-11.5,4.28-11.5,11.29s5.44,11.26,11.5,11.26a14.15,14.15,0,0,0,7.48-1.79l-.67,2.82c-1.66.92-3.77,1.42-7.1,1.42-7.1,0-14-5.2-14-13.71s7-13.7,14-13.7a15.66,15.66,0,0,1,7.81,1.78Z" transform="translate(0 -1)"/><path class="cls-10" d="M221.44,159.16c-6.14,0-10.34-3.62-10.34-9.64V132.2h2.79v17.07c0,4.61,2.78,7.39,7.59,7.39s7.6-2.78,7.6-7.39V132.2h2.7v17.32c0,6-4.19,9.64-10.34,9.64" transform="translate(0 -1)"/><polygon class="cls-10" points="236.84 157.7 236.84 131.21 250.67 131.21 250.67 133.61 239.62 133.61 239.62 143.16 248.68 143.16 248.68 145.57 239.62 145.57 239.62 155.29 252.12 155.29 252.12 157.7 236.84 157.7"/><path class="cls-10" d="M276.88,159.28l-13-14.95c-2.24-2.57-4.65-5.44-6.47-7.64l-.08,0c.08,2.45.08,4.94.08,7.35V158.7h-2.78V132.2h2l12.29,14.08c1.82,2.08,4.28,4.94,6,7.1l.08,0c-.08-2.37-.08-4.77-.08-7V132.2h2.78v27.08Z" transform="translate(0 -1)"/><polygon class="cls-10" points="291.69 133.61 291.69 157.7 288.91 157.7 288.91 133.61 279.82 133.61 279.82 131.21 300.83 131.21 300.83 133.61 291.69 133.61"/><path class="cls-10" d="M319.19,158.7l-8.85-12.13h-4.57V158.7H303V132.2h7.56c4,0,7.76,2.66,7.76,7.19a6.91,6.91,0,0,1-5.19,6.77l9.31,12.54Zm-9.1-24.09h-4.32v9.55h4.49c2.78,0,5.23-1.74,5.23-4.77s-2.45-4.78-5.4-4.78" transform="translate(0 -1)"/><path class="cls-10" d="M335.64,159.15a13.7,13.7,0,1,1,13.87-13.74,13.6,13.6,0,0,1-13.87,13.74m0-25a11.28,11.28,0,1,0,11.05,11.25,11,11,0,0,0-11.05-11.25" transform="translate(0 -1)"/><path class="cls-10" d="M384.64,159.28l-13-14.95c-2.24-2.57-4.65-5.44-6.48-7.64l-.08,0c.08,2.45.08,4.94.08,7.35V158.7h-2.78V132.2h2l12.29,14.08c1.83,2.08,4.28,4.94,6,7.1l.09,0c-.09-2.37-.09-4.77-.09-7V132.2h2.78v27.08Z" transform="translate(0 -1)"/><path class="cls-10" d="M407.92,158.7l-3-7.44H393.68l-3,7.44H388l11-27h.87l11,27Zm-7.14-17.86a39.37,39.37,0,0,1-1.41-4.07h-.09a39.22,39.22,0,0,1-1.45,4.07l-3.2,8.14h9.3Z" transform="translate(0 -1)"/><path class="cls-10" d="M432.13,136a13.57,13.57,0,0,0-7-1.82c-6,0-11.5,4.28-11.5,11.29s5.44,11.26,11.5,11.26a14.13,14.13,0,0,0,7.47-1.79l-.66,2.82c-1.66.92-3.78,1.42-7.1,1.42-7.1,0-14-5.2-14-13.71s7-13.7,14-13.7a15.65,15.65,0,0,1,7.8,1.78Z" transform="translate(0 -1)"/><rect class="cls-10" x="435.66" y="131.21" width="2.78" height="26.49"/><path class="cls-10" d="M456.36,159.15a13.7,13.7,0,1,1,13.87-13.74,13.6,13.6,0,0,1-13.87,13.74m0-25a11.28,11.28,0,1,0,11.05,11.25,11,11,0,0,0-11.05-11.25" transform="translate(0 -1)"/><path class="cls-10" d="M496.26,159.28l-13-14.95c-2.24-2.57-4.65-5.44-6.48-7.64l-.08,0c.08,2.45.08,4.94.08,7.35V158.7H474V132.2h2l12.29,14.08c1.83,2.08,4.28,4.94,6,7.1l.09,0c-.09-2.37-.09-4.77-.09-7V132.2H497v27.08Z" transform="translate(0 -1)"/><path class="cls-10" d="M519.54,158.7l-3-7.44H505.3l-3,7.44h-2.74l11-27h.87l11,27Zm-7.14-17.86a39.37,39.37,0,0,1-1.41-4.07h-.09a39.22,39.22,0,0,1-1.45,4.07l-3.2,8.14h9.3Z" transform="translate(0 -1)"/><polygon class="cls-10" points="524.93 157.7 524.93 131.21 527.71 131.21 527.71 155.29 540.04 155.29 540.04 157.7 524.93 157.7"/><path class="cls-10" d="M558.52,158.7h-6.94V132.2h6.94c8,0,14.7,4.82,14.7,13.25s-6.69,13.25-14.7,13.25m-.42-24.09h-3.74v21.68h3.74c7,0,12.25-3.78,12.25-10.84s-5.27-10.84-12.25-10.84" transform="translate(0 -1)"/><polygon class="cls-10" points="576.95 157.7 576.95 131.21 590.77 131.21 590.77 133.61 579.73 133.61 579.73 143.16 588.78 143.16 588.78 145.57 579.73 145.57 579.73 155.29 592.23 155.29 592.23 157.7 576.95 157.7"/><polygon class="cls-11" points="58.95 270.41 58.95 287.4 55.98 287.4 55.98 270.41 49.7 270.41 49.7 267.86 65.22 267.86 65.22 270.41 58.95 270.41"/><path class="cls-11" d="M80.75,288.4l-6.15-8.57H71.84v8.57H68.9V268.86h6.19c2.75,0,5.88,1.78,5.88,5.48a5.23,5.23,0,0,1-3.43,5l6.67,9Zm-6.18-17H71.84v5.94h2.73c1.74,0,3.36-.91,3.36-3s-1.62-3-3.36-3" transform="translate(0 -1)"/><path class="cls-11" d="M100.78,288.4l-2.11-5h-7.6l-2.11,5H86.05l8.33-19.81h1.07l8.33,19.81Zm-5-12.19a23.49,23.49,0,0,1-.83-2.39h-.06a16.6,16.6,0,0,1-.83,2.39L92.08,281h5.58Z" transform="translate(0 -1)"/><path class="cls-11" d="M112.6,288.77a9.82,9.82,0,0,1-5-1.32l-.67-3.25a9.9,9.9,0,0,0,5.88,2c2.17,0,3.61-1.22,3.61-3s-1-2.82-3.4-3.58c-3.49-1.13-5.33-3.09-5.33-5.79s2-5.32,6.19-5.32a7.78,7.78,0,0,1,4.25,1.13l-.58,2.45a7.11,7.11,0,0,0-3.79-1.14c-2,0-3.22,1.23-3.22,2.67,0,1.28,1.1,2.33,3.15,3,3.4,1.16,5.7,3,5.7,6.28,0,3.49-2.33,5.88-6.74,5.88" transform="translate(0 -1)"/><path class="cls-11" d="M138.85,272.32A9.93,9.93,0,0,0,134,271c-3.83,0-7.87,2.48-7.87,7.59s4,7.56,7.87,7.56a10.71,10.71,0,0,0,5.39-1.22l-.62,2.85a10.29,10.29,0,0,1-5.11.95c-4.93,0-10.53-3.46-10.53-10.14s5.66-10.16,10.53-10.16a11.74,11.74,0,0,1,5.76,1.28Z" transform="translate(0 -1)"/><polygon class="cls-11" points="143.75 287.4 143.75 267.86 154.28 267.86 154.28 270.4 146.72 270.4 146.72 276.31 153.06 276.31 153.06 278.86 146.72 278.86 146.72 284.86 155.35 284.86 155.35 287.4 143.75 287.4"/><path class="cls-11" d="M176.15,288.83l-9.16-10c-1.47-1.59-3.15-3.55-4.5-5.14l-.06,0c.06,1.78.06,3.43.06,4.9v9.8h-3V268.86h2l8.39,9.19c1.14,1.26,2.91,3.21,4.1,4.68l.07,0c-.07-1.5-.07-3.18-.07-4.59v-9.25h3v20Z" transform="translate(0 -1)"/><path class="cls-11" d="M188.55,288.4h-6V268.86h6c5.45,0,10.57,3.46,10.57,9.77s-5.12,9.77-10.57,9.77m-.52-17h-2.54v14.52H188c4.41,0,8.06-2.3,8.06-7.26s-3.65-7.26-8.06-7.26" transform="translate(0 -1)"/><rect class="cls-11" x="204.33" y="267.86" width="2.97" height="19.53"/><polygon class="cls-11" points="213.27 287.4 213.27 267.86 223.8 267.86 223.8 270.4 216.24 270.4 216.24 276.31 222.58 276.31 222.58 278.86 216.24 278.86 216.24 284.86 224.88 284.86 224.88 287.4 213.27 287.4"/><path class="cls-11" d="M245.67,288.83l-9.15-10c-1.47-1.59-3.16-3.55-4.51-5.14l-.06,0c.06,1.78.06,3.43.06,4.9v9.8h-3V268.86h2.06l8.38,9.19c1.14,1.26,2.91,3.21,4.11,4.68l.06,0c-.06-1.5-.06-3.18-.06-4.59v-9.25h3v20Z" transform="translate(0 -1)"/><path class="cls-11" d="M258.08,288.4h-6V268.86h6c5.45,0,10.56,3.46,10.56,9.77s-5.11,9.77-10.56,9.77m-.52-17H255v14.52h2.54c4.41,0,8.05-2.3,8.05-7.26s-3.64-7.26-8.05-7.26" transform="translate(0 -1)"/><path class="cls-11" d="M283,288.77a10.16,10.16,0,1,1,10.34-10.17A10.11,10.11,0,0,1,283,288.77M283,271a7.58,7.58,0,1,0,7.34,7.56A7.31,7.31,0,0,0,283,271" transform="translate(0 -1)"/><path class="cls-11" d="M321.65,272.32a9.9,9.9,0,0,0-4.9-1.28c-3.82,0-7.86,2.48-7.86,7.59s3.95,7.56,7.86,7.56a10.66,10.66,0,0,0,5.39-1.22l-.61,2.85a10.29,10.29,0,0,1-5.11.95c-4.93,0-10.53-3.46-10.53-10.14s5.66-10.16,10.53-10.16a11.67,11.67,0,0,1,5.75,1.28Z" transform="translate(0 -1)"/><path class="cls-11" d="M335.69,288.77A10.16,10.16,0,1,1,346,278.6a10.11,10.11,0,0,1-10.35,10.17m0-17.73A7.58,7.58,0,1,0,343,278.6a7.31,7.31,0,0,0-7.35-7.56" transform="translate(0 -1)"/><path class="cls-11" d="M367.41,288.83l-9.15-10c-1.47-1.59-3.16-3.55-4.5-5.14l-.06,0c.06,1.78.06,3.43.06,4.9v9.8h-3V268.86h2l8.39,9.19c1.13,1.26,2.91,3.21,4.1,4.68l.06,0c-.06-1.5-.06-3.18-.06-4.59v-9.25h3v20Z" transform="translate(0 -1)"/><polygon class="cls-11" points="382.39 287.4 382.39 267.86 385.36 267.86 385.36 284.86 393.97 284.86 393.97 287.4 382.39 287.4"/><path class="cls-11" d="M411.33,288.4l-2.11-5h-7.59l-2.12,5H396.6l8.33-19.81H406l8.32,19.81Zm-5.05-12.19c-.27-.64-.58-1.56-.83-2.39h-.06a16.6,16.6,0,0,1-.83,2.39L402.64,281h5.57Z" transform="translate(0 -1)"/><path class="cls-11" d="M423.15,288.77a9.82,9.82,0,0,1-5-1.32l-.67-3.25a9.9,9.9,0,0,0,5.88,2c2.17,0,3.61-1.22,3.61-3s-1-2.82-3.4-3.58c-3.49-1.13-5.33-3.09-5.33-5.79s2-5.32,6.19-5.32a7.85,7.85,0,0,1,4.26,1.13l-.59,2.45a7.11,7.11,0,0,0-3.79-1.14c-2,0-3.22,1.23-3.22,2.67,0,1.28,1.1,2.33,3.16,3,3.39,1.16,5.69,3,5.69,6.28,0,3.49-2.33,5.88-6.74,5.88" transform="translate(0 -1)"/><path class="cls-11" d="M462.42,288.4l-.8-8.82c-.12-1.31-.25-3-.31-4.44h-.06c-.61,1.38-1.56,3.28-2.2,4.53l-4.53,8.88h-1.11l-4.59-8.88c-.67-1.28-1.5-3-2.17-4.47h-.07c-.06,1.5-.21,3.22-.3,4.38l-.77,8.82h-2.63l1.68-19.54h1.84l5.21,10.05c.79,1.53,1.8,3.52,2.45,5h.06c.61-1.5,1.56-3.4,2.39-5l5.14-10.05h1.84l1.74,19.54Z" transform="translate(0 -1)"/><rect class="cls-11" x="470.6" y="267.86" width="2.97" height="19.53"/><path class="cls-11" d="M494.54,272.32a9.93,9.93,0,0,0-4.9-1.28c-3.83,0-7.86,2.48-7.86,7.59s3.94,7.56,7.86,7.56A10.66,10.66,0,0,0,495,285l-.61,2.85a10.32,10.32,0,0,1-5.11.95c-4.93,0-10.54-3.46-10.54-10.14s5.67-10.16,10.54-10.16a11.67,11.67,0,0,1,5.75,1.28Z" transform="translate(0 -1)"/><path class="cls-11" d="M511.3,288.4l-6.16-8.57h-2.75v8.57h-2.94V268.86h6.18c2.76,0,5.88,1.78,5.88,5.48a5.22,5.22,0,0,1-3.43,5l6.68,9Zm-6.19-17h-2.72v5.94h2.72c1.75,0,3.37-.91,3.37-3s-1.62-3-3.37-3" transform="translate(0 -1)"/><path class="cls-11" d="M526.61,288.77A10.16,10.16,0,1,1,537,278.6a10.11,10.11,0,0,1-10.35,10.17m0-17.73A7.58,7.58,0,1,0,534,278.6a7.31,7.31,0,0,0-7.35-7.56" transform="translate(0 -1)"/><polygon class="cls-11" points="544.68 270.41 544.68 276.32 551.29 276.32 551.29 278.86 544.68 278.86 544.68 287.4 541.71 287.4 541.71 267.86 552.52 267.86 552.52 270.41 544.68 270.41"/><rect class="cls-11" x="556.93" y="267.86" width="2.97" height="19.53"/><path class="cls-11" d="M582.5,288.83l-9.16-10c-1.47-1.59-3.15-3.55-4.5-5.14l-.06,0c.06,1.78.06,3.43.06,4.9v9.8h-3V268.86h2l8.39,9.19c1.14,1.26,2.91,3.21,4.11,4.68l.06,0c-.06-1.5-.06-3.18-.06-4.59v-9.25h3v20Z" transform="translate(0 -1)"/><path class="cls-11" d="M602.25,288.4l-2.11-5h-7.59l-2.11,5h-2.91l8.32-19.81h1.08l8.32,19.81Zm-5-12.19c-.27-.64-.58-1.56-.83-2.39h-.06a18,18,0,0,1-.82,2.39L593.56,281h5.57Z" transform="translate(0 -1)"/><path class="cls-11" d="M626,288.83l-9.16-10c-1.46-1.59-3.15-3.55-4.5-5.14l-.06,0c.06,1.78.06,3.43.06,4.9v9.8h-3V268.86h2.05l8.39,9.19c1.14,1.26,2.91,3.21,4.11,4.68l.06,0c-.06-1.5-.06-3.18-.06-4.59v-9.25h3v20Z" transform="translate(0 -1)"/><path class="cls-11" d="M631.35,288.4v-.7l6.19-10.87c1-1.75,2.26-4,3.21-5.45l0,0h-8.88v-2.48h13v.71l-6.25,10.9c-1,1.75-2.23,3.86-3.18,5.42l0,0h9.73v2.48Z" transform="translate(0 -1)"/><path class="cls-11" d="M662.86,288.4l-2.11-5h-7.59l-2.11,5h-2.91l8.33-19.81h1.07l8.32,19.81Zm-5.05-12.19c-.27-.64-.58-1.56-.83-2.39h-.06a18,18,0,0,1-.82,2.39L654.17,281h5.57Z" transform="translate(0 -1)"/><path class="cls-11" d="M674.69,288.77a9.86,9.86,0,0,1-5.06-1.32L669,284.2a9.92,9.92,0,0,0,5.88,2c2.17,0,3.61-1.22,3.61-3s-1-2.82-3.39-3.58c-3.5-1.13-5.33-3.09-5.33-5.79s2-5.32,6.18-5.32a7.82,7.82,0,0,1,4.26,1.13l-.58,2.45a7.18,7.18,0,0,0-3.8-1.14c-2,0-3.22,1.23-3.22,2.67,0,1.28,1.11,2.33,3.16,3,3.4,1.16,5.69,3,5.69,6.28,0,3.49-2.32,5.88-6.73,5.88" transform="translate(0 -1)"/></g></svg>